<?xml version="1.0" encoding="utf-8"?>
<!-- Generator: Adobe Illustrator 18.1.1, SVG Export Plug-In . SVG Version: 6.00 Build 0)  -->
<svg version="1.1" id="Layer_1" xmlns="http://www.w3.org/2000/svg" xmlns:xlink="http://www.w3.org/1999/xlink" x="0px" y="0px"
	 viewBox="0 -72.338 432.338 432.338" enable-background="new 0 -72.338 432.338 432.338" xml:space="preserve">
<circle fill="#F6F3EB" cx="671.169" cy="136.831" r="216.169"/>
<circle fill="none" cx="670.831" cy="137.169" r="202.669"/>
<g>
	<path fill="#262224" d="M473.377,90.771l89.409,19.729c0,0,1.722-3.498,4.198-1.184l5.113,1.13c0,0,3.175-0.915,4.251,2.96
		l78.195,17.167c0,0,5.274-28.792,31.267-36.702l-72.9-151.092l0.982-0.284l72.806,150.972l0.323,0.323
		c0,0,20.262-5.731,37.214,15.176h0.969l0.565-0.404l-0.484-4.036l0.969-0.161l1.049-0.807v-2.099h2.745l0.565-8.637l0.565-0.484
		l2.26-0.081l0.646,0.565l5.086-1.049l0.727-0.646h1.857l2.18,0.727l0.081,1.776l2.422,3.068l28.818-43.187
		c0,0,1.857-0.404,1.615,1.453l-28.98,41.654l-0.081,0.646l1.292,0.404l1.776-0.404l1.292,0.727l0.727-1.292l1.453-0.161
		l0.646-0.404l-0.081-0.727l-2.664-0.727l-1.695-0.161l-0.081-0.807l4.682-0.646l1.13-0.646l-0.161-1.614l2.906-2.825
		c0,0,1.695,0.081,2.906-1.049l-0.969-3.229c0,0,6.942-5.005,20.342-8.637l1.453,3.068c0,0,0.646,1.776,3.068,0.484l4.682,14.934
		l-1.554,0.787v0.666l1.756-0.545l3.249,11.402l0.141,0.141l6.377-0.525l4.016-0.02c0,0,2.805-0.121,11.443,6.619
		c0,0,10.494-3.673,14.894-3.794l2.139,0.081c0,0,2.664,0.484,5.005,3.189v1.937l-0.727,1.453h-1.171c0,0-6.296,10.212-10.212,13.36
		c0,0,1.857,2.825,2.099,8.315c0,0,3.108,0.727,2.906,3.955l0.04,3.269l9.606,2.987l-1.493,1.534c0,0,1.413,1.534,1.372,2.422h1.049
		v0.686h-1.13c0,0,0.444,1.897-1.332,3.068l1.009,1.453l-2.301-0.444l-1.453,0.202v2.583l-8.193-2.301c0,0-1.937,3.875-2.381,4.036
		c0,0,0.848,3.431,4.642,6.458c0,0-3.794,0.767-6.942-2.381l-1.453,1.736l-0.04,1.09c0,0,8.597,11.988,9.727,18.688h0.605v0.404
		h1.292v1.211h0.323v1.292h-0.404v1.049h-1.534l-0.928,1.776h-7.467l-13.36-6.014c0,0-24.056,14.571-35.518,16.185
		c0,0-10.978,1.534-19.051-1.695c0,0-11.705-4.44-23.491-14.046c0,0-8.234,14.127-15.338,16.629v2.018h-1.292v-1.292
		c0,0-2.825,2.422-6.296,3.148l-0.646,1.453l-3.31,4.278l-0.081,1.211c0,0-0.161,0.646-1.13,0.511s-0.646-0.996-0.646-0.996
		s0.188-0.861,0.996-0.888l3.148-4.467l0.027-0.7c0,0-10.225,3.875-21.93-1.534s-15.257-10.252-15.257-10.252l-87.098,125.179
		l-1.147-0.555l87.68-125.754c0,0-21.338-21.957-16.387-54.892l-79.378-16.898c0,0-1.453,1.614-4.198,0.269l-6.942-1.238
		c0,0-0.915,0.108-1.668-1.614l-89.922-18.556"/>
	<path fill="#F6F3EB" d="M787.01,177.016h0.996v0.942C788.006,177.958,787.36,177.931,787.01,177.016z"/>
	<path fill="#F6F3EB" d="M789.647,176.693v1.884c0,0,1.48,0.511,2.718,0.619c0,0,0.511-2.153,0.457-2.422
		C792.822,176.774,790.428,176.397,789.647,176.693z"/>
	<path fill="#F6F3EB" d="M794.437,177.635l-0.35,1.722l4.547,0.915l0.027-0.646C798.661,179.626,795.406,177.77,794.437,177.635z"/>
	<polygon fill="#F6F3EB" points="567.226,118.168 568.397,119.218 568.397,119.621 567.428,119.541 567.388,119.177 
		566.822,119.177 	"/>
	<polygon fill="#F6F3EB" points="566.136,119.823 566.136,120.207 567.408,120.207 567.408,119.843 	"/>
	<polygon fill="#F6F3EB" points="565.854,120.812 567.428,120.812 567.428,120.53 569.163,120.53 569.708,121.438 569.708,121.801 
		568.861,121.801 565.854,121.155 	"/>
	<polygon fill="#F6F3EB" points="567.791,109.854 570.657,110.621 570.657,110.843 569.729,110.843 569.729,111.145 
		568.094,111.145 568.094,110.52 567.771,110.52 	"/>
	<rect x="570.354" y="111.448" fill="#F6F3EB" width="0.686" height="0.404"/>
	<polygon fill="#F6F3EB" points="569.042,112.094 569.042,112.74 569.688,112.74 569.688,113.083 570.011,113.083 570.011,112.76 
		570.314,112.76 570.314,112.397 569.486,112.397 569.486,112.094 	"/>
	<polygon fill="#F6F3EB" points="568.397,112.76 568.397,113.809 569.385,113.809 569.385,113.426 568.719,112.74 	"/>
</g>
<circle fill="#F6F3EB" cx="1130.169" cy="139.831" r="216.169"/>
<circle fill="none" cx="1129.831" cy="140.169" r="202.669"/>
<g>
	<path fill="#262224" d="M1134.631,139.34v0.671l-1.489,2.335c0,0,0.642,0,0.759,0.467l0.292,0.058l0.175-0.117
		c0,0,0.156-0.701,0.701-0.331c0,0,0.389,0.35,0.234,0.817c-0.156,0.467-0.311,0.467-0.311,0.467s-0.448,0.117-0.72-0.37
		l-0.448,0.039c0,0-0.175,0.448-0.564,0.389c-0.389-0.058-0.506-0.331-0.506-0.331l-0.214,0.058l-2.724,3.736l1.849-0.019
		l0.389,0.389l-7.492,10.78l-1.304-0.058l0.389,1.615l-0.603,0.525l0.078,0.545l0.156,0.019c0,0,0.564-0.292,0.642,0.331
		c0,0-0.039,0.428-0.584,0.35l-0.409-0.019l-0.272-0.195l-0.292-0.817l-0.195,0.156l0.136,0.545l0.175,0.136l0.175,0.331
		l0.234,0.019l0.156,0.136l-0.078,0.156l-0.156,0.156l-0.37-0.019l-0.331-0.156l-0.272-0.311l-0.078-0.389l-0.156-0.35l-0.175-0.019
		l0.058,0.35l0.078,0.467l0.019,0.409l-0.175,0.136l-0.253,0.039l-0.467,0.019l-0.233-0.078v-0.253l0.175-0.195h0.428l-0.058-0.214
		l-0.331-0.584l-0.623,0.039l-0.584,0.915l0.234,0.516l0.136,0.068l0.379,0.039c0,0,0.156-0.243,0.311-0.234
		c0.156,0.01,0.555-0.156,0.778,0.379c0.224,0.535-0.195,0.817-0.195,0.817s-0.701,0.214-0.808-0.321l-0.292-0.01l-0.389,0.165
		l-1.051,0.078l-0.876,0.778l-0.885,0.019l-0.097,0.438l-0.555,0.19l-0.399-0.005l-1.051-0.457l-12.429,1.309v0.229l0.122,0.088
		l-0.019,0.272l-0.837,0.117l-1.479-0.603l-2.102,0.37l0.019,0.37l-0.039,0.214l-0.214,0.214l-0.058,0.175l4.145,1.42l-5.448,37.964
		h-0.661l-4.169-1.688l0.029,0.569l6.626,2.612l-5.366,37.035l-0.734,0.165l-5.444-2.496l0.029,0.365l5.823,2.569l0.117,0.102
		l-4.057,28.882l-0.949,7.209l-0.623,0.253l-6.266-2.997l-0.029,0.263l6.217,3.211l0.175,0.234l-6.48,45.796l-0.613,0.204
		l-33.216-19.293l-0.146-0.234l5.838-43.695l0.759-0.35l4.612,2.452l0.321-0.146l-5.225-2.715l-0.263-0.263l4.612-34.238
		l0.204-0.292l0.35-0.058l5.633,2.452l0.088-0.292l-6.042-2.715l4.583-35.376l0.496-0.204l4.904,1.926l0.438-0.379l-3.736-1.518
		l-0.088-0.321l4.699-34.792c0,0-3.999-0.73-7.297-3.736s-5.662-7.647-5.662-7.647s-1.167-1.868-2.51-6.451
		c0,0-0.234-4.057-0.438-4.466c0,0-0.234-7.239,0.117-9.457c0,0,0.905-3.211,1.021-3.298l0.992-3.415l-12.609-15.791l-0.701,1.372
		l-0.613,0.088l-18.564-23.351l0.35-0.555l-0.73-0.029l-17.484-22.212l0.263-0.467l-0.671-0.088l-21.512-27.291v-0.438L1000.712-5
		h0.555l22.971,27.116l-0.058,0.584l0.525,0.029l18.68,22.037l-0.175,0.525l0.671,0.088l19.556,23.088v0.292l-1.43,2.335
		l0.701,0.117l20.87,24.635l-2.656,4.232l0.146,0.234c0,0,0.759-0.175,1.167,0.525l2.102,0.234v-0.905l21.045,0.467l0.788,0.321
		l28.546-13.427l0.671,0.146l-0.817-3.094l4.407-2.277l2.831-11.734c0,0,0.35-0.292,0.438,0.088l-2.744,11.383l27.262-12.843h0.555
		l-0.058-0.379l35.318-16.579l0.525,0.117l2.627,9.107l0.409,0.146l0.399,0.097l-0.311-0.584l0.195-0.234l7.122-3.269
		c0,0,3.58-2.218,7.083-2.257c0,0,5.137-1.051,5.604-1.206c0,0,3.191-0.234,6.071-3.269c0,0,3.931-3.347,3.931-3.58
		c0,0,2.102-2.413,4.904-1.051l7.278,2.724l0.506,0.156c0,0,2.413-0.156,3.191-0.467c0,0,5.098-1.09,5.41-1.012
		c0,0,2.841-1.09,4.865-1.206c0,0,4.787-0.778,4.904-0.778c0.117,0,5.993-1.245,5.993-1.245s9.146-1.985,9.34-1.985
		s7.861-1.518,7.861-1.518s3.697-0.817,4.32-0.584l0.311-0.428l3.074-1.401l0.623-0.282l1.197,3.707l-0.058,0.234l-2.452,0.701
		l0.321,1.284l-0.35,0.876l3.97,0.817l0.496,3.327l-3.415,1.605l-2.685-3.415l-7.239,5.517l-20.578,14.419l-1.197,0.963l-1.226,1.08
		l-0.992,0.73l-1.138,0.642l-1.022,0.759l-1.401,0.992l-4.349,2.977l-0.292,0.438l-0.35,0.642l-3.794,7.034l-0.35,0.642
		l-0.467,0.642c0,0-0.963,1.372-2.948,1.489l-7.355,0.467c0,0-1.372,0.029-2.423,1.08l-8.406,5.721c0,0-4.933,2.277-5.166,2.335
		s-7.793,3.182-7.793,3.182l-0.73-1.343l0.117,0.613l-0.204,0.146l-0.292,0.058l-0.204,0.263l2.948,9.545l0.058,0.35l-0.35,0.263
		l-35.493,14.273l-0.759,0.058l-2.685-8.844l2.364,8.844l-0.029,0.321l-0.438,0.263l-32.516,12.843l-0.73-0.029l-1.956-7.093
		l1.021,4.291v0.409l-6.713,2.627l27.145,29.655c0,0,0.292,0.496-0.204,0.409l-27.495-29.83L1134.631,139.34z"/>
	<path fill="#F6F3EB" d="M1263.399,64.628c0,0-2.14,1.168-3.23-0.117l-1.129-1.284l-1.907-5.993c0,0-0.584-4.047,2.335-5.41
		l20.51-4.476c0,0,1.557-0.389,2.024,0.039c0,0,0.623,0.817,0.701,1.868c0,0,0.817,1.829-0.467,2.569L1263.399,64.628z"/>
	<path fill="#F6F3EB" d="M1215.608,62.721c0,0-2.841,2.296-2.607,5.41l5.876,20.471c0,0,1.751,3.464,5.604,1.557l2.257-1.479
		l5.721-3.775l4.32-3.152c0,0,5.059-3.347,4.865-10.352c-0.195-7.005-3.853-9.768-3.853-9.768s-2.568-3.113-8.951-2.374
		C1222.458,59.997,1215.608,62.721,1215.608,62.721z"/>
	<path fill="#F6F3EB" d="M1206.842,63.685l0.496,0.701l0.847,2.831l0.905,0.934c0,0,0.613,1.08,0.701,1.635l2.481,9.078
		l-1.459,0.438l-4.378-14.565l0.234-0.321h0.321L1206.842,63.685z"/>
	<path fill="#F6F3EB" d="M1212.826,80.847l2.189,7.122l0.438,1.605c0,0,0.496,1.226-0.058,3.006l-0.409,0.146l-3.707-11.237
		L1212.826,80.847z"/>
	<polygon fill="#F6F3EB" points="1215.647,93.641 1215.414,93.797 1215.161,93.456 1214.957,93.559 1215.234,95.616 
		1215.832,95.704 1216.051,96.054 	"/>
	<polygon fill="#F6F3EB" points="1090.586,163.829 1092.609,164.646 1092.298,164.899 1092.24,165.444 1088.231,164.024 	"/>
	<polygon fill="#F6F3EB" points="1084.067,161.533 1084.125,162.584 1075.992,159.821 1076.303,159.393 1076.128,158.906 
		1076.186,158.75 	"/>
	<polygon fill="#F6F3EB" points="1073.384,197.804 1073.092,198.135 1079.455,200.684 1079.728,200.353 	"/>
	<polygon fill="#F6F3EB" points="1081.168,200.859 1080.856,201.21 1088.737,204.44 1089.068,204.128 	"/>
</g>
<circle fill="#F6F3EB" cx="1589.632" cy="148.337" r="216.169"/>
<circle fill="none" cx="1589.294" cy="148.675" r="202.669"/>
<g>
	<path fill="#262224" d="M1477.016,172.715l-0.183-1.158l-7.804-24.023c0,0-2.866-0.732-2.744-7.987l-1.646,1.728l-2.439-0.976
		l-0.813,1.301l-1.301-3.414v-0.813l-1.484-0.996l-0.122-0.732l0.61-0.61l1.585-0.061l0.549-1.402l0.671-1.158l-0.061-2.866
		c0,0-2.723-20.141,4.918-26.807l1.626-2.764l1.057-3.414l0.65-3.333l1.707-3.618l-0.203-0.569c0,0-2.032,4.634-7.845,4.309
		l-0.935-2.642c0,0,7.642,0.163,9.024-6.544l-1.26-3.292l-0.325-1.463l-0.813-1.219v-0.813l1.057-1.219l-0.447-1.341l0.081-3.902
		c0,0,0.976-3.496,1.667-3.983c0,0,0.61-3.171,4.552-4.959c3.943-1.788,7.601,0.041,7.601,0.041l4.634,2.195l2.276-7.195
		l0.528-0.813l1.26,0.163l2.276,1.748l4.959-6.626l1.26,0.163l4.187-0.285c0,0,3.577-4.674,7.967-2.479
		c4.39,2.195,0.854,8.536,0.854,8.536s-2.256,3.963-5.182,4.451l-3.994,3.933l1.646,1.982l0.213,0.549l-2.134,5.853l16.889,4.085
		c0,0-5.975-13.901-5.853-16.523c0,0-1.219-11.28,6.585-17.011c0,0,8.353-7.987,33.656-5.244
		c25.303,2.744,57.557,16.096,57.557,16.096l1.89-1.341c0,0-0.061-2.5,3.536-2.561l25.262-17.194l0.61-0.081l0.569-1.219
		l3.821-4.512l0.65-0.163l0.163-0.325l0.163-0.366l0.61-0.041l0.813,0.203l4.634-7.276c0,0-1.626-1.26-1.667-1.829
		c0,0-0.244-0.813,0.528-0.894c0,0,0.823-0.112,1.677,0.193l1.555-1.921l-1.25-2.286c0,0-0.427-0.854,0.61-0.64l2.104,1.25
		l0.335-0.488c0,0-0.518-0.732-0.518-0.945s0.488-0.579,1.006-0.335l1.829,0.854c0,0,0.945,0.732,0.183,0.976l-0.64-0.091
		l-0.335,0.793c0,0,2.835,1.189,2.469,1.829c0,0-0.915,0.305-1.341,0.183l-0.701,0.122l-0.854,0.122h-0.518l-0.945,2.195
		c0,0,1.921,1.006,1.829,1.738c-0.091,0.732-0.793,0.549-0.793,0.549l-1.219-0.122l-0.335-0.061l-3.689,7.926l0.193,0.681
		l0.447,0.65l-0.203,0.447v1.504l-2.053,5.569l-0.427,28.89c0,0,4.298,4.085,2.225,6.006l-1.189,1.402l-0.396,1.128
		c0,0,54.681,31.837,63.298,60.453c0,0,8.13,19.348-15.04,26.096c0,0-20.405,3.821-41.379-0.65l3.333,10.975l-1.463-7.479
		l24.876,3.333v2.52l3.658,0.569v-2.601l26.258,3.74l0.081,2.601l9.329,1.382l-2.622,4.573c0,0,4.024,2.622,4.268,6.829l3.049,0.549
		l-2.866,0.854c0,0-0.061,7.195-4.207,7.804l3.597,4.39l-10.06-0.793l0.366,6.585l-26.827-2.317l-0.305-6.097l-3.597-0.061
		l0.427,5.67l-28.413-2.622l-0.549,0.366l-0.793,0.854l-14.999,9.694l-8.8-5.711l-24.958,20.974l0.163,1.707l-0.325,1.057
		l-0.488,1.545l0.569,2.601l-0.65,0.325c0,0,0.976,1.138,1.463,1.463c0,0,0.894,1.707-0.447,3.11l-1.098,1.829l0.549,1.646
		l-0.305,1.524l-0.975,0.61l-0.549,0.122l-0.061,2.439l-0.427,0.427l-1.89-0.915l-2.012,0.183l-0.366,0.488l-0.793,0.366
		l-1.158-0.854l-2.683-0.122l-0.732,0.427l-1.097-0.244l-1.219-0.122h-1.463l-0.854,0.549l-1.28-0.305l-2.195-0.305l-2.073-0.061
		l-3.536,3.597l-1.219-0.122c0,0-6.646,7.073-9.755,6.158l-0.61,0.366l0.061,1.524l-1.158,0.183l-1.036,0.61l-0.488,3.292
		c0,0,6.077,14.816-22.214,26.766c0,0-9.105,2.601-18.779,0.894c-9.674-1.707-10.162-11.788-5.853-18.86l-1.707-2.927l-9.024-0.163
		c0,0-3.252,0.488-3.008-7.886l-4.552-1.707l-1.545-0.894l-3.292-8.211l-3.414,1.504l-1.382,0.488h-0.935l-1.26-0.813l-1.301-5.894
		l-2.439-0.976l-0.081-0.732l0.447-0.854l1.301-0.406l0.813-1.26l0.285-1.667l0.772-0.447l0.732-2.276l-0.122-3.496l1.341-0.122
		l-5.04-3.618c0,0-6.504,0.163-9.024-4.227c0,0-4.105-5.284-0.325-11.747c0,0,0.894-0.894,2.114-1.098l-1.504-0.488l2.236-2.398
		l-3.943-13.495l0.163-0.549c0,0-1.585-6.036-8.475-8.475l-1.585-2.866l-0.183-1.646
		C1468.907,183.141,1473.114,173.995,1477.016,172.715z"/>
	<path fill="#F6F3EB" d="M1644.138,35.651l-23.352,15.974c0,0,11.158,1.524,19.084,6.463l0.772-1.606c0,0-3.618-2.236-3.821-2.927
		l0.447-0.691c0,0-0.569-1.301,0.691-1.341l0.163-0.203c0,0-0.203-1.097,1.382-0.772l4.796-7.682l-1.504-1.423l1.138-3.699
		L1644.138,35.651z"/>
	<path fill="#F6F3EB" d="M1642.187,56.849l0.935,0.081l0.406-0.813l0.122-0.325h0.447l0.122-0.447l-0.122-0.528l-0.163-0.325
		l0.406-0.163l0.203-0.447l-0.081-0.569l-0.244-0.488l3.658-8.13l1.748-0.041l0.488-0.325l0.732-1.179l1.951-2.683l0.325,0.041
		l-0.488,26.014c0,0-8.536-6.544-11.625-7.804L1642.187,56.849z"/>
</g>
<circle fill="none" cx="1589.974" cy="148.997" r="154.169"/>
<circle fill="#F6F3EB" cx="2040.659" cy="158.834" r="216.169"/>
<circle fill="none" cx="2040.321" cy="159.172" r="202.669"/>
<circle fill="none" cx="2041" cy="159.494" r="154.169"/>
<g>
	<path fill="#262224" d="M1933.943,331.794l25.299-74.103l-6.452,0.97l0.048,0.776l-0.243,0.291l-0.631,0.097l-0.291-3.008h0.485
		l0.34,0.825l0.243,0.194l7.277-1.31l1.213-3.832l-8.15-2.183l-0.582,0.049l-0.243,0.776l-0.485-0.34l-0.291-2.668l0.582-0.146
		l0.437,0.582l0.34,0.049l10.527-5.53l-1.019-0.728l-0.194,0.631l-0.631-0.097l-0.243-2.086l0.388-0.437l0.631,0.194l0.146,1.067
		l1.795,1.261l1.358-3.056l-2.135-0.825l-0.291,0.291l-0.388,0.388l-0.485-0.291l0.097-2.134h0.582l0.388,0.485l1.504-0.485
		l-2.329-2.28l-0.728-0.048l-0.679-0.243l0.339-1.843l0.534-0.34l0.34,0.291l0.048,0.679l4.657,2.183l1.504-3.299v-10.042
		l0.194-0.97l0.873-0.049c0,0,0.776-3.784,7.228-4.803l2.086-2.28l-2.668-2.183l-1.552,4.317l-0.388,0.291l-0.582-0.291v-0.388
		l1.94-4.56l-1.407-1.261l-3.929-0.049l-65.328,99.708l-0.857-0.717l65.02-98.846l-0.388-0.243h-7.568v-7.374l3.202-1.358
		l-3.687-3.735l-18.24-0.922v0.776l-1.358,1.504l-2.668-3.929l-0.485,1.019l-0.437,0.631l-1.164,0.048l-0.34-0.679l1.358-1.552
		l-2.959-0.291l-4.657-7.131l0.388-0.825l-30.756-11.158l-0.194,0.728l-0.485,0.631l-0.631,0.097l-1.019-0.534l-0.582-1.164
		l-0.437-5.579l0.291-0.825h0.922l0.776,0.485l0.437,0.34l27.312-14.02l-0.146-1.213l5.579-1.843l-0.048-0.728l-35.365-11.255
		l-0.582,0.582l-0.534,0.437l-1.116-0.728l0.728-0.922l-0.097-0.728l1.504-2.571l-0.534-2.959l10.866-21.393l0.97,0.097
		l20.908,9.314l19.792-10.575l0.922-0.825l16.3,0.873l1.94-3.687l-0.339-0.437l-1.844,0.049l-0.339-0.825l-0.437-0.631l-0.097-0.582
		l0.534-0.388h2.814l0.146-1.552l1.407-0.049l2.134-3.784l-6.597-18.095l-4.123,2.523l-0.388,0.194l-6.549-2.862l-1.019-7.083
		l2.668-1.407l-0.097-4.22l3.784-2.134l0.728,0.291l-6.84-20.278l-1.213-1.116l0.146,5.967l-3.978,1.358l0.146,2.668l-8.004,2.474
		l0.048,4.948c0,0-0.097,1.892-1.843,2.571l0.437,5.336c0,0-0.679,3.25-3.493,3.784c-2.814,0.534-5.724-0.097-6.452-2.329
		l-0.048-5.094l-0.582,0.049l-1.552-2.426l-0.097,2.28l-1.552,2.183l-0.146,1.213l-0.873,0.243l-0.291,1.746l-1.989,1.407
		l-1.116,0.243l-0.631-0.243l-1.407-1.261l-0.34-0.873l-0.679-0.291l-0.34-0.776l0.048-1.31l-2.037-2.329l-0.097-4.754l-2.523-3.153
		l-0.388-3.881l2.426-1.213l0.873-7.713l-1.019-1.698l-1.213-0.388l-4.172,1.407l0.146,2.959c0,0,0.728,3.493-1.552,4.657
		c0,0-1.649,1.31-4.706,0.728c0,0-1.892-0.243-2.231-1.989l-3.687,1.31l-5.433-12.661l-0.679,0.146l-1.455-2.765l-0.679-3.784
		c0,0-2.717-14.505,15.912-16.106l0.255-0.8l3.638-1.419l0.036-2.037l0.473-1.164l0.982-0.036l0.837,1.164l0.182,1.783l0.619,0.182
		l2.328,5.348l2.983-2.183l2.656-0.182l1.31,1.346l7.458-2.256l0.619,0.073l1.965,3.857h1.819l2.183,4.621l0.146,1.346l0.109,5.457
		l-1.819,1.019l0.364,1.783l3.129,0.4l1.783-1.273l9.023-3.056h1.783l2.11,4.475l1.128-1.128l10.224,0.546
		c0,0,2.62,0.327,2.874,6.403l5.239,14.262l2.219-4.803l-0.946-0.982l1.128-3.274l1.128-0.327l0.946,0.291l0.691,0.4l0.073,1.455
		l0.728,0.473l0.109,1.601h2.001l3.238,3.311h1.019l0.364,1.201l0.473,3.675l0.437,4.875l-0.036,1.019l-0.182,0.619l-2.001,1.892
		l0.182,3.602l0.073,1.128l-0.509,1.128l0.255,0.582l5.312,0.182l3.857,5.93l1.164,0.109l1.201,1.019l1.273-1.492l1.128,0.764
		l-0.837,1.346l1.31,0.218v4.22l-1.565,0.109l0.873,0.873l-0.982,1.419l-2.328-1.819l-0.982,0.691l-1.092,2.911l-5.094,0.146
		l-0.146,0.655l-0.437,0.109l-3.966-5.639l7.507,23.2l5.627-2.037c0,0,12.419-27.215,18.434-32.066
		c6.015-4.851,19.016-15.329,32.017,6.986s15.718,56.661,14.941,71.602l9.338,3.444l-0.219,0.582l0.946-0.073
		c0,0,0.655-2.547,2.183-2.838s1.819,2.547,1.819,2.547s1.455,0.218,1.092,2.183c-0.364,1.965-0.51,2.256-1.383,2.62
		c0,0-0.146,1.455-1.092,1.746s-2.329,0.509-2.911-2.62l-0.801,0.073l-0.073,0.655l-9.387,2.838c0,0-4.269,40.458-9.702,48.414
		l77.424,43.563h2.135l0.582,1.164l62.701,36.062l0.037-0.013h0.062l0,0l-6.688,7.062l0,0l0,0l-0.01,0.026l-139.93-78.356
		c0,0-5.627,14.844-14.165,20.084c0,0-8.926,8.732-20.181,0.679s-16.3-25.905-16.3-25.905l-7.762,7.568l-0.388,11.74l-0.243,0.291
		l-1.213,0.048v2.959l1.067,0.388l0.194,0.631v10.527l-1.892,0.728l0.534,0.437v1.94l0.825,0.534v4.512c0,0,4.317,2.62,2.571,7.471
		s-5.142,6.549-10.284,7.471c-5.142,0.922-11.303-3.396-11.691-4.56c0,0-2.474-3.202-1.31-7.131c0,0,0.521-2.899,3.396-4.281v-2.729
		l-8.053,1.819l-25.523,74.66"/>
	<g>
		<polygon fill="#F6F3EB" points="1953.566,46.038 1956.719,46.135 1954.73,49.628 		"/>
		<polygon fill="#F6F3EB" points="1964.772,44.097 1962.298,46.426 1963.22,49.288 1965.5,45.504 		"/>
		<polygon fill="#F6F3EB" points="1959.193,47.154 1960.115,50.161 1962.443,50.452 1962.249,49.628 		"/>
		<polygon fill="#F6F3EB" points="1958.611,48.706 1958.514,50.064 1959.048,50.064 		"/>
		<polygon fill="#F6F3EB" points="1957.253,47.736 1957.156,50.064 1955.603,49.967 		"/>
		<polygon fill="#F6F3EB" points="1955.118,51.131 1957.253,51.228 1957.35,57.583 		"/>
		<polygon fill="#F6F3EB" points="1958.417,51.18 1958.369,58.457 1960.843,54.236 1959.678,51.18 		"/>
		<polygon fill="#F6F3EB" points="1960.552,51.326 1961.182,53.314 1962.346,51.374 		"/>
		<polygon fill="#F6F3EB" points="1965.985,46.377 1963.85,50.21 1968.362,53.606 		"/>
		<polygon fill="#F6F3EB" points="1963.026,51.811 1961.91,53.606 1963.559,53.848 		"/>
		<polygon fill="#F6F3EB" points="1963.85,51.665 1964.578,54.042 1967.295,54.042 		"/>
		<polygon fill="#F6F3EB" points="1961.813,54.479 1963.656,54.479 1964.481,56.807 		"/>
		<polygon fill="#F6F3EB" points="1964.772,54.624 1966.13,58.36 1968.119,55.158 1967.828,54.624 		"/>
		<polygon fill="#F6F3EB" points="1968.895,55.206 1966.712,59.33 1968.653,60.64 1970.205,57.68 		"/>
		<polygon fill="#F6F3EB" points="1962.007,55.594 1962.201,57.826 1963.22,59.621 1965.257,59.815 1965.548,59.039 		"/>
		<polygon fill="#F6F3EB" points="1961.037,55.594 1961.134,59.524 1958.708,59.281 		"/>
		<polygon fill="#F6F3EB" points="1958.32,60.3 1961.085,60.446 1961.037,67.286 1960.649,67.237 		"/>
		<polygon fill="#F6F3EB" points="1961.764,60.494 1962.686,60.446 1963.268,61.61 1963.559,63.744 1961.91,67.092 		"/>
		<polygon fill="#F6F3EB" points="1963.414,60.446 1964.287,62.24 1965.112,60.882 1964.772,60.543 		"/>
		<polygon fill="#F6F3EB" points="1966.082,60.979 1965.208,62.338 1966.567,62.629 		"/>
		<polygon fill="#F6F3EB" points="1967.343,61.464 1967.489,62.58 1968.265,62.58 1968.313,61.61 		"/>
		<polygon fill="#F6F3EB" points="1965.306,63.405 1966.567,63.55 1967.1,64.181 1967.1,64.715 		"/>
		<polygon fill="#F6F3EB" points="1968.168,63.647 1969.38,67.431 1969.526,66.606 1968.507,63.599 		"/>
		<polygon fill="#F6F3EB" points="1964.141,65.394 1964.287,69.76 1962.055,69.372 		"/>
		<polygon fill="#F6F3EB" points="1964.869,67.237 1964.917,69.76 1966.082,69.857 		"/>
		<polygon fill="#F6F3EB" points="1964.723,63.938 1966.47,69.954 1969.283,70.148 1968.119,66.995 1967.003,65.879 		"/>
		<polygon fill="#F6F3EB" points="1962.298,70.487 1962.637,71.7 1964.335,72.04 1964.238,70.633 		"/>
		<polygon fill="#F6F3EB" points="1964.82,70.778 1965.112,72.573 1965.597,73.01 1965.888,76.454 1967.295,74.514 1967.246,72.961 
			1966.179,70.73 		"/>
		<polygon fill="#F6F3EB" points="1967.1,70.827 1967.537,72.913 1968.75,71.506 1968.507,70.875 		"/>
		<polygon fill="#F6F3EB" points="1979.665,76.454 1979.762,77.715 1978.695,80.238 1977.239,76.406 		"/>
		<polygon fill="#F6F3EB" points="1969.72,71.652 1970.302,73.447 1968.507,73.349 		"/>
		<polygon fill="#F6F3EB" points="1971.515,73.98 1973.213,79.025 1975.541,75.241 		"/>
		<polygon fill="#F6F3EB" points="1968.216,74.174 1970.496,74.174 1971.466,76.648 		"/>
		<polygon fill="#F6F3EB" points="1968.701,75.484 1971.078,77.182 1972.437,79.51 1969.672,79.462 		"/>
		<polygon fill="#F6F3EB" points="1968.459,78.007 1968.459,79.268 1969.138,79.316 		"/>
		<polygon fill="#F6F3EB" points="1967.295,76.309 1967.295,79.219 1965.597,79.122 		"/>
		<polygon fill="#F6F3EB" points="1965.16,80.238 1967.295,80.19 1967.295,86.593 		"/>
		<polygon fill="#F6F3EB" points="1968.459,80.19 1968.41,87.563 1970.496,84.216 1970.496,83.149 1969.332,80.044 		"/>
		<polygon fill="#F6F3EB" points="1970.302,80.287 1971.127,82.761 1972.388,81.111 1972.146,80.432 		"/>
		<polygon fill="#F6F3EB" points="1976.221,76.018 1973.989,79.607 1978.549,82.858 1978.452,81.305 		"/>
		<polygon fill="#F6F3EB" points="1973.989,81.257 1974.765,84.264 1978.064,84.264 		"/>
		<polygon fill="#F6F3EB" points="1973.019,81.402 1973.989,83.925 1971.612,84.022 		"/>
		<polygon fill="#F6F3EB" points="1973.116,84.895 1974.426,86.011 1974.232,84.847 		"/>
		<polygon fill="#F6F3EB" points="1975.299,85.089 1976.124,87.903 1977.918,85.429 1977.773,85.138 		"/>
		<polygon fill="#F6F3EB" points="1971.903,84.992 1975.299,88.048 1975.638,89.213 1973.019,89.213 		"/>
		<polygon fill="#F6F3EB" points="1971.709,87.127 1971.709,88.97 1972.437,88.97 		"/>
		<polygon fill="#F6F3EB" points="1970.933,85.429 1970.69,88.824 1968.798,88.727 		"/>
		<polygon fill="#F6F3EB" points="1979.374,85.089 1976.851,88.582 1981.702,92.511 		"/>
		<polygon fill="#F6F3EB" points="1976.948,90.328 1977.821,93.239 1980.829,93.239 		"/>
		<polygon fill="#F6F3EB" points="1976.075,90.716 1974.911,92.754 1976.851,92.899 		"/>
		<polygon fill="#F6F3EB" points="1973.455,89.746 1974.28,91.881 1975.735,89.94 		"/>
		<polygon fill="#F6F3EB" points="1971.758,89.698 1971.661,96.877 1973.649,93.821 1973.844,92.511 1972.582,89.746 		"/>
		<polygon fill="#F6F3EB" points="1968.313,89.552 1970.836,96.586 1970.981,89.552 		"/>
		<polygon fill="#F6F3EB" points="1975.784,93.579 1977.579,95.228 1977.336,93.53 		"/>
		<polygon fill="#F6F3EB" points="1978.161,93.87 1979.519,97.653 1981.605,94.064 		"/>
		<polygon fill="#F6F3EB" points="1982.43,94.355 1980.392,98.284 1984.904,102.019 1984.904,101.049 		"/>
		<polygon fill="#F6F3EB" points="1974.814,93.773 1976.463,98.721 1978.792,98.963 1978.646,97.993 		"/>
		<polygon fill="#F6F3EB" points="1974.668,96.053 1974.571,98.672 1975.638,98.818 		"/>
		<polygon fill="#F6F3EB" points="1973.844,95.519 1973.795,98.672 1971.854,98.575 		"/>
		<polygon fill="#F6F3EB" points="1976.657,99.691 1977.579,101.874 1978.549,99.691 		"/>
		<polygon fill="#F6F3EB" points="1979.325,100.128 1980.053,102.65 1978.161,102.65 		"/>
		<polygon fill="#F6F3EB" points="1980.587,100.564 1981.12,102.844 1984.225,102.844 		"/>
		<polygon fill="#F6F3EB" points="1981.314,103.523 1982.187,106.725 1983.303,107.307 1985.001,103.766 		"/>
		<polygon fill="#F6F3EB" points="1985.68,104.008 1987.233,109.102 1985.826,109.83 1983.691,107.744 		"/>
		<polygon fill="#F6F3EB" points="1978.5,103.378 1980.295,103.475 1980.975,104.494 1980.829,105.561 		"/>
		<polygon fill="#F6F3EB" points="1974.523,99.545 1975.978,99.739 1976.997,102.456 1974.717,107.162 		"/>
		<polygon fill="#F6F3EB" points="1972.146,99.545 1973.844,99.497 1973.941,105.076 		"/>
		<polygon fill="#F6F3EB" points="1977.142,104.736 1975.299,108.035 1977.336,108.326 		"/>
		<polygon fill="#F6F3EB" points="1978.015,106.434 1978.015,108.471 1979.034,108.617 		"/>
		<polygon fill="#F6F3EB" points="1978.452,104.396 1979.81,108.762 1981.945,108.811 1981.702,107.065 		"/>
		<polygon fill="#F6F3EB" points="1982.721,110.703 1981.702,112.207 1982.575,112.255 1982.964,111.673 		"/>
		<polygon fill="#F6F3EB" points="1980.101,109.539 1980.975,111.722 1981.896,110.121 1981.751,109.539 		"/>
		<polygon fill="#F6F3EB" points="1978.209,109.296 1979.325,109.393 1980.392,112.207 1980.15,112.789 1978.209,113.42 		"/>
		<polygon fill="#F6F3EB" points="1977.336,109.248 1975.056,109.005 1976.657,112.74 1977.288,112.74 		"/>
		<polygon fill="#F6F3EB" points="1971.127,100.273 1969.429,103.669 1970.108,110.994 1970.836,111.867 1974.911,112.158 		"/>
		<polygon fill="#F6F3EB" points="1967.586,107.938 1965.936,110.848 1967.974,110.945 		"/>
		<polygon fill="#F6F3EB" points="1947.065,112.304 1928.777,121.812 1931.59,123.17 1946.726,113.08 		"/>
		<polygon fill="#F6F3EB" points="1942.505,117.349 1930.669,124.917 1921.306,144.175 1921.015,144.321 1921.015,146.989 
			1932.076,150.433 1937.072,124.868 		"/>
		<polygon fill="#F6F3EB" points="1896.566,134.473 1896.905,137.19 1899.719,135.783 		"/>
		<polygon fill="#F6F3EB" points="1901.126,136.22 1897.002,138.257 1897.196,139.809 1919.754,146.844 1919.754,143.884 		"/>
		<polygon fill="#F6F3EB" points="1926.06,156.885 1899.282,170.856 1899.234,173.331 1900.204,174.107 1930.863,185.216 
			1932.852,182.257 1930.572,180.995 1928.777,182.208 1928.292,180.074 1912.138,172.263 1911.507,172.7 1910.779,172.603 
			1910.391,171.293 1911.943,167.121 1912.817,166.733 1913.253,166.976 1913.253,167.655 1926.545,162.755 		"/>
		<polygon fill="#F6F3EB" points="1926.545,163.919 1913.011,169.159 1912.283,170.662 1912.768,171.536 1928.195,179.006 		"/>
		<path fill="#F6F3EB" d="M1982.43,203.844c0,0,4.269,2.037,5.821,2.086l-6.792,6.5l-1.455-3.687l0.631-0.534l1.019-0.146
			l0.97-0.679L1982.43,203.844z"/>
		<polygon fill="#F6F3EB" points="1979.18,208.938 1977.53,209.326 1976.948,210.15 1976.609,211.606 1979.374,214.031 
			1980.781,213.012 		"/>
		<polygon fill="#F6F3EB" points="1980.732,214.516 1981.266,215.972 1978.404,216.505 1980.392,214.468 		"/>
		<path fill="#F6F3EB" d="M1989.416,206.172l-7.907,7.131l1.067,2.426l10.236-2.426c0,0-2.911-6.84-2.911-7.034
			S1989.416,206.172,1989.416,206.172z"/>
		<polygon fill="#F6F3EB" points="1993.199,214.177 1982.721,216.408 1984.079,220.192 1993.005,214.71 		"/>
		<polygon fill="#F6F3EB" points="1993.587,215.632 1994.267,216.796 1991.259,219.173 		"/>
		<polygon fill="#F6F3EB" points="1991.307,217.039 1986.505,224.316 1985.486,224.413 1984.225,221.308 		"/>
		<polygon fill="#F6F3EB" points="1969.089,233.678 1968.119,235.813 1969.478,236.734 		"/>
		<polygon fill="#F6F3EB" points="1963.85,235.279 1966.761,236.54 1966.373,237.559 		"/>
		<polygon fill="#F6F3EB" points="1964.093,238.529 1966.13,238.093 1965.936,239.063 		"/>
		<polygon fill="#F6F3EB" points="1967.391,237.802 1967.343,238.772 1968.798,239.451 1968.895,238.044 		"/>
		<polygon fill="#F6F3EB" points="1968.701,240.955 1968.653,240.47 1966.518,240.082 1966.13,242.071 		"/>
		<polygon fill="#F6F3EB" points="1968.895,242.071 1968.75,245.127 1965.306,243.526 		"/>
		<polygon fill="#F6F3EB" points="1964.141,244.302 1953.663,249.105 1953.711,249.832 1961.522,251.87 		"/>
		<polygon fill="#F6F3EB" points="1965.208,244.302 1968.701,246.242 1968.75,249.396 1969.575,250.56 1969.526,252.306 
			1968.75,252.694 1968.507,253.713 1962.346,252.161 		"/>
		<polygon fill="#F6F3EB" points="1962.249,253.083 1961.037,256.09 1968.168,254.683 		"/>
		<polygon fill="#F6F3EB" points="2057.234,218.967 2048.793,213.837 2047.738,216.821 		"/>
		<polygon fill="#F6F3EB" points="2047.447,217.694 2053.013,223.551 2049.521,222.169 2046.683,219.549 		"/>
		<polygon fill="#F6F3EB" points="2046.501,220.168 2047.592,221.223 2046.137,220.859 		"/>
		<polygon fill="#F6F3EB" points="2045.955,221.478 2045.7,221.914 2053.304,226.207 2051.885,224.497 		"/>
		<polygon fill="#F6F3EB" points="2052.795,224.679 2054.614,226.717 2055.014,226.426 2055.014,225.698 		"/>
		<path fill="#F6F3EB" d="M2048.211,217.657l6.804,6.804c0,0,1.31-3.602,3.02-4.439l-0.182-0.255L2048.211,217.657z"/>
		<path fill="#F6F3EB" d="M2058.58,220.968c0,0-2.183,0.91-2.911,4.002l1.201,0.728c0,0,1.856-2.11,1.856-2.583
			S2059.017,221.987,2058.58,220.968z"/>
		<polygon fill="#F6F3EB" points="2057.307,226.79 2056.215,227.444 2063.564,229.555 2057.78,226.717 		"/>
		<path fill="#F6F3EB" d="M2059.999,220.568c0,0-0.582,4.002-2.038,5.239l13.68,5.021L2059.999,220.568z"/>
		<polygon fill="#F6F3EB" points="2062.291,221.696 2073.352,231.556 2090.488,237.377 		"/>
		<polygon fill="#F6F3EB" points="2058.653,228.936 2088.269,245.672 2088.087,244.981 2078.372,236.322 2076.881,235.303 
			2073.606,233.921 2068.112,231.847 2060.945,229.555 		"/>
		<polygon fill="#F6F3EB" points="2073.679,232.805 2073.582,232.368 2066.305,229.652 		"/>
		<polygon fill="#F6F3EB" points="2075.328,232.902 2075.425,233.484 2080.761,234.891 		"/>
		<polygon fill="#F6F3EB" points="2078.627,235.133 2092.065,238.917 2092.113,239.257 2090.658,240.615 		"/>
		<polygon fill="#F6F3EB" points="2079.888,236.977 2089.979,241.537 2089.396,242.944 2089.009,245.03 		"/>
		<path fill="#F6F3EB" d="M2090.755,241.828l1.601,1.164c0,0-0.97,1.795-2.086,1.892
			C2090.27,244.884,2089.882,242.459,2090.755,241.828z"/>
		<polygon fill="#F6F3EB" points="2091.24,240.809 2092.598,239.791 2093.277,240.033 2093.083,241.876 		"/>
		<path fill="#F6F3EB" d="M2094.248,239.888c0,0,0.243,1.746-0.533,2.28s6.84,3.153,6.84,3.153l-5.87-5.288L2094.248,239.888z"/>
		<polygon fill="#F6F3EB" points="2093.18,243.477 2090.124,246.194 2101.379,249.59 		"/>
		<polygon fill="#F6F3EB" points="2095.315,244.108 2104.095,248.037 2108.316,251.627 2105.017,251.094 		"/>
		<polygon fill="#F6F3EB" points="2097.158,241.149 2097.789,241.149 2120.298,253.859 2119.473,253.81 2107.831,248.862 
			2103.853,247.261 		"/>
		<polygon fill="#F6F3EB" points="2106.861,249.202 2123.888,256.818 2110.741,252.937 		"/>
		<polygon fill="#F6F3EB" points="2091.143,247.164 2102.688,250.511 2104.581,251.482 2121.753,263.949 2122.239,264.337 
			2091.58,247.649 		"/>
		<polygon fill="#F6F3EB" points="2106.327,251.967 2109.771,252.791 2118.697,260.844 		"/>
		<path fill="#F6F3EB" d="M2111.712,253.665l14.117,4.415c0,0-2.377,4.317-2.571,5.579L2111.712,253.665z"/>
		<path fill="#F6F3EB" d="M2126.459,258.467l1.455-0.048c0,0-1.31,5.191-3.638,5.239
			C2124.276,263.658,2125.44,259.146,2126.459,258.467z"/>
		<path fill="#F6F3EB" d="M2129.078,259.049l11.788,10.818l-16.348-4.706C2124.519,265.162,2129.272,260.99,2129.078,259.049z"/>
		<polygon fill="#F6F3EB" points="2129.37,267.102 2142.322,271.129 2143.826,272.632 		"/>
		<polygon fill="#F6F3EB" points="2132.523,261.426 2142.953,270.935 2151.345,273.215 		"/>
		<polygon fill="#F6F3EB" points="2151.103,271.953 2155.954,275.106 2156.924,274.961 		"/>
		<polygon fill="#F6F3EB" points="2157.409,276.077 2159.64,276.513 2160.32,276.998 2159.543,277.289 		"/>
		<polygon fill="#F6F3EB" points="2160.805,277.629 2160.708,278.26 2161.435,278.405 2161.387,277.726 		"/>
		<polygon fill="#F6F3EB" points="2143.971,271.759 2146.348,273.894 2158.961,278.357 2153.334,274.427 		"/>
		<polygon fill="#F6F3EB" points="2147.707,275.009 2156.681,283.208 2158.379,279.181 		"/>
		<polygon fill="#F6F3EB" points="2127.284,267.248 2155.177,282.82 2146.057,274.282 		"/>
		<path fill="#F6F3EB" d="M2159.107,279.23l0.873-0.194l1.019,0.97c0,0-1.116,2.232-2.717,2.62
			C2158.282,282.626,2158.234,280.006,2159.107,279.23z"/>
		<polygon fill="#F6F3EB" points="2162.551,279.327 2162.842,278.89 2164.152,280.394 		"/>
		<polygon fill="#F6F3EB" points="2162.211,280.152 2169.779,285.003 2175.601,289.902 2158.04,284.227 		"/>
		<polygon fill="#F6F3EB" points="2164.686,279.666 2169.779,284.324 2176.037,288.107 2180.063,290.921 2183.023,292.473 
			2191.27,295.044 2190.687,294.462 		"/>
		<polygon fill="#F6F3EB" points="2175.698,288.932 2177.007,290.484 2178.802,290.775 		"/>
		<polygon fill="#F6F3EB" points="2179.093,291.843 2180.16,291.843 2190.979,298.828 2185.109,296.694 2182.683,295.141 		"/>
		<polygon fill="#F6F3EB" points="2163.618,286.749 2176.813,290.824 2181.131,294.559 		"/>
		<polygon fill="#F6F3EB" points="2164.346,287.768 2182.829,295.869 2189.62,302.03 2189.038,301.982 		"/>
		<path fill="#F6F3EB" d="M2185.109,293.735l8.829,2.862c0,0-1.795,1.892-1.795,2.086S2185.109,293.735,2185.109,293.735z"/>
		<path fill="#F6F3EB" d="M2191.706,299.993c0,0-0.485,1.698-0.437,2.086c0.049,0.388-5.579-4.609-5.579-4.609L2191.706,299.993z"/>
	</g>
</g>
<circle fill="#F6F3EB" cx="216.299" cy="143.961" r="216.299"/>
<circle fill="none" cx="215.961" cy="144.299" r="202.791"/>
<circle fill="none" cx="216.64" cy="144.621" r="154.262"/>
<circle fill="#F6F3EB" cx="2498.088" cy="160.564" r="216.169"/>
<circle fill="none" cx="2497.75" cy="160.902" r="202.669"/>
<circle fill="none" cx="2498.43" cy="161.223" r="154.169"/>
<path fill="#262224" d="M2331.81,277.973l43.591-25.414c0,0-6.687-4.436-6.754-10.329c0,0-0.728-6.356,5.297-9.203
	c0,0,4.436-0.993,6.489,1.589l4.436-1.258l0.596-1.39l0.464-0.331l1.324,0.132l0.927-0.662v-0.662l24.962-6.621l4.502-6.621
	l0.861-0.728l0.132-0.596l8.409-7.945l0.132-2.317l1.258,0.53l1.39-9.27l-2.384-2.317h-0.464c0,0-2.847-0.993-2.781-4.237
	c0,0,1.258-7.051,7.714-7.846l0.497-3.377l0.198-1.241l-0.149-1.092l0.099-1.142l0.397-1.49l1.291,0.05l1.589,0.546l-0.149,1.341
	l1.241,0.348l0.745,0.348l-0.099,0.397l-0.596,0.199l-0.546,0.348l0.745,0.149l2.533,0.447l2.83,0.497l2.384,0.099l0.05-5.115
	c0,0-41.365-12.266-53.879-30.142c0,0-5.76-17.48,73.891-22.843l3.774-9.534l-0.646-0.298l-0.198-1.291l0.646-0.646l2.086-0.298
	l0.347-0.099c0,0,1.44-2.135,13.755-2.93l0.348-3.228l0.695-0.596l0.05-0.447l-0.646-0.348l-0.149-0.745l1.49-0.745l0.943-0.199
	l0.745,0.05l0.944,0.348l0.596,0.397l0.198,0.298v0.695l-0.877,0.149v0.397l0.662,0.463l0.198,0.265l0.464,3.046
	c0,0,6.29,0,9.667,1.523h2.582l0.993,0.463l0.066,0.993c0,0,1.92,1.258,2.052,2.119v1.457l-0.132,0.728l5.363,7.548
	c0,0,50.85,3.906,62.371,10.66c0,0,25.16,8.343,7.548,19.201l4.933-0.745l0.099-0.397l1.986-0.298l3.377-4.767l-1.39-4.37
	l-0.05-0.894l-0.844-0.149v-1.738l0.149-2.533l-0.348-2.036l-0.05-1.986l-0.944-2.632c0,0,3.923-3.426,5.462-3.327l1.192,0.348
	l5.164-0.149c0,0,1.241-0.745,1.937-0.099l1.738,0.099l4.618-0.05l2.384-0.695l1.986,2.036l0.149,0.199l-0.993,2.979l-0.248,2.533
	l-0.149,2.036l0.348,1.937l0.05,1.539l-0.149,1.092l-0.546,1.241l-0.248,0.894l1.539,1.44l0.397,0.894l0.05,1.688v0.795l6.952-1.092
	c0,0,1.49-1.341,2.284-1.341l-2.831-6.654l-0.794,0.099l-0.695-1.887l-0.794-0.248l11.124-4.767l6.306-1.837l4.618-0.199l7.2,1.142
	l2.036,0.844l0.596-0.149l1.341,1.092l4.122,1.837l0.447,2.483c0,0-0.099,1.589-0.546,1.986l8.243-1.341l0.894-0.149l-0.397-9.882
	c0,0,1.291-1.142,3.526-0.397l0.894,10.428l4.171,0.596l0.596,0.348l0.795,4.718l0.198,2.781l0.546,7.548l-0.248,0.497l-2.235,1.539
	l-1.837,0.497l0.943,13.358l6.307-1.937l2.135-0.993l8.094-0.447l3.427,3.923l0.099,2.682l-0.447,1.44l3.476,3.426l2.979,0.695
	c0,0,1.639-0.149,1.341,2.831v1.639l0.397,1.192l-0.298,4.32l-0.844,0.745l-2.731,0.894l0.695,2.582l2.582-0.348l0.199-0.05
	l0.099,2.781c0,0-0.166,8.607-8.972,11.521l-9.005,3.509c0,0-19.797,5.893-21.519-13.838l-2.946,0.828c0,0,1.059-1.986,1.059-2.715
	c0,0-4.238,0.96-4.469-3.476l-3.973,0.695c0,0-0.662-1.324,0.265-2.715l-0.265-0.298c0,0-2.748,0-3.211,0.265
	c0,0-6.125,1.324-7.714-3.906c0,0-1.655-3.575,1.258-7.018l0.066-2.053l0.728-1.589l0.133-2.516l2.185-2.119
	c0,0-0.166-2.185,1.755-2.979l0.993-0.629l2.814-1.523l0.861-0.132l2.748-1.324l2.814-0.364l2.119-0.563l8.409-0.331l-0.265-4.436
	c0,0-7.349,0.563-9.038-0.761l-3.195,0.96l-0.331,0.281l-0.861,0.199l-2.384,0.05l-15.386,2.069l-0.497,0.422l-2.036,0.174
	l-2.309,0.05l-15.609,2.483l-0.133,0.795l-3.956,10.792l1.755,0.844l-0.033,2.367v2.607l0.174,1.192l-1.738,2.036l-2.582,0.646
	l-0.05,0.819l-0.67,0.894l-2.384,0.919l-4.817-1.862l-3.128-1.39l-1.713-1.142l-0.373-0.621l0.795-1.738l0.149-1.39l1.44-3.501
	l0.472-2.483l0.546-1.39l-2.334-2.607l-1.241,5.115l0.025,0.397l-0.124,0.323l-0.223,0.124v0.695l-0.497,0.074l-0.124-0.72
	l-0.273-0.273l-0.124-0.521l0.124-0.422l-2.433-7.697l-16.76,2.657l-19.623,14.823l0.166,0.331l-2.052,1.424h-0.397l-0.099,0.298
	l-1.721,1.324l-0.861,0.099l-13.176,9.766l-0.695,3.741l-0.464,1.192l-0.331,1.556l1.424,0.629l1.026-0.728l3.642-0.463l0.927,0.199
	l1.357,0.364l0.265,1.258l0.364,0.331l-0.166,0.397l-0.232,0.331l0.182,2.88l0.149,2.632l-0.198,4.42l-5.313,1.291l0.248,7.101
	l0.546,0.795h6.803l0.745,0.099l0.099,0.447l-0.397,0.447l-11.918,3.675l0.546,4.42l-0.05,0.894l-0.149,0.695l-0.248,0.67
	l-1.142,0.819l-0.596,1.266l0.695,0.819l0.124,0.497l-1.241,3.203l-0.074,0.944l-0.124,0.745l-0.323,1.142l16.106,24.424l-0.29,0.43
	l-10.18,0.124l-16.387,7.945l-0.025,3.973l-4.345,0.124l-4.594,0.05l-0.248-0.174v-0.894l-0.844-0.025l-2.036,0.05l-0.422,0.298
	l-0.596,0.025l-1.092-0.348l-2.086-0.199l-0.621-0.074l-0.621-1.763l-0.174-3.948l0.323-0.298l2.011-0.025l-0.77-1.241l-0.223,0.199
	h-0.422l-0.298-0.323l-0.273-0.695l-12.928-28.702l-12.514,30.06l-0.397,0.397l-0.927-0.132l-0.662,1.324h2.648l0.199,1.457
	l-0.133,2.317l-0.53,2.582l-2.119,0.397l-2.317-0.132l-1.39-0.331l-0.927,0.199l-2.648-0.132l-0.397-0.861l-3.642-0.132
	l-0.265-5.893l2.913-0.199l-0.397-0.795l-0.927-0.132l-0.662-0.397l-0.331-0.927l-2.384-5.297l4.105,48.466h-1.125l-4.171-50.188
	l-10.925-25.359l-0.265-0.927l0.993-0.927l-0.728-1.589l-0.993-0.397l-0.795-1.324l0.662-4.9l-1.059-0.861h-1.788l-0.927-0.993
	l-0.331-1.589l-2.119-0.132l-2.715-0.596l-7.747-1.721l-6.621,3.708l-6.025,9.667c0,0-0.133,4.304-5.363,3.84l-6.489,1.854
	l-1.473,17.182l-0.099,0.596l-0.298,0.447l-0.447-0.348l-8.938-13.507l-0.248,0.348l0.944,11.769l-0.149,0.397l-0.497-0.149
	l-0.794-7.598l-1.142-0.646l-3.278,7.896l-0.745,1.291l-0.248,0.397h-0.397l-0.646-1.39l0.199-0.695l-2.185-8.194l-0.546,0.248
	l-0.149,0.397l-0.497,0.745l-0.298,0.199l-0.646,6.555l-0.149,0.348l-0.248,0.447l-0.397-0.248l0.497-6.108
	c0,0-2.085,2.086-5.76,1.688l-44.318,25.956"/>
<polygon fill="#F6F3EB" points="2469.486,114.045 2467.036,120.435 2470.446,120.269 "/>
<path fill="#F6F3EB" d="M2471.473,115.105l0.96,5.065l15.526-0.397l0.066-0.166l-3.377-0.132
	C2484.648,119.475,2474.121,117.555,2471.473,115.105z"/>
<polygon fill="#F6F3EB" points="2490.045,119.806 2490.442,119.541 2491.733,119.276 2492.23,119.806 "/>
<path fill="#F6F3EB" d="M2493.455,119.044l0.861,0.828l0.662-1.225C2494.978,118.647,2493.852,119.044,2493.455,119.044z"/>
<path fill="#F6F3EB" d="M2496.335,119.971l1.258-2.152c0,0,5.826-1.821,7.052-3.41l4.204,5.893
	C2508.849,120.302,2496.566,119.905,2496.335,119.971z"/>
<polygon fill="#F6F3EB" points="2433.07,178.138 2433.534,178.171 2433.567,179.991 2432.574,182.077 2432.805,179.396 "/>
<polygon fill="#F6F3EB" points="2433.6,181.382 2433.103,182.474 2433.567,182.607 "/>
<path fill="#F6F3EB" d="M2434.361,179.495l-0.331,3.277c0,0,1.424,0.795,1.788,1.92l0.794,0.728l7.267-5.578l-8.963-1.316
	L2434.361,179.495z"/>
<polygon fill="#F6F3EB" points="2442.836,182.176 2437.796,186.124 2440.254,187.564 "/>
<polygon fill="#F6F3EB" points="2444.276,183.343 2442.042,189.551 2443.531,190.842 2444.847,190.047 "/>
<polygon fill="#F6F3EB" points="2446.312,188.607 2448.522,188.26 2447.628,186.944 2447.455,186.348 2447.405,185.454 
	2447.33,184.982 2446.834,183.021 2446.114,182.524 "/>
<polygon fill="#F6F3EB" points="2447.579,183.294 2448.646,183.691 2454.01,187.589 2455.127,190.345 2452.47,197.769 
	2446.685,193.027 2446.511,191.686 2448.646,191.487 2450.037,191.363 2450.086,190.593 2450.26,190.246 2449.938,188.806 
	2449.292,188.384 2448.771,187.713 2448.249,186.968 2448.175,186.497 2448.051,185.081 2447.877,184.188 "/>
<polygon fill="#F6F3EB" points="2456.468,193.474 2454.903,198.439 2458.528,197.769 "/>
<polygon fill="#F6F3EB" points="2457.759,190.37 2460.564,196.875 2462.551,196.18 2460.614,192.158 "/>
<polygon fill="#F6F3EB" points="2458.156,188.831 2458.901,189.004 2458.578,188.409 "/>
<polygon fill="#F6F3EB" points="2457.138,185.901 2455.971,186.695 2455.425,185.851 "/>
<polygon fill="#F6F3EB" points="2459.77,186.298 2463.445,192.456 2466.647,194.69 2470.992,187.117 2462.054,186.447 "/>
<polygon fill="#F6F3EB" points="2473.972,187.266 2470.794,192.878 2471.315,192.952 2472.557,192.381 2482.19,187.738 "/>
<polygon fill="#F6F3EB" points="2497.113,187.688 2500.241,187.49 2503.221,187.391 2504.015,187.291 2502.029,189.873 
	2500.291,189.178 2498.404,188.533 2497.212,188.086 "/>
<path fill="#F6F3EB" d="M2522.637,185.106l-1.093,12.861l-12.017-0.745l-1.54-1.241l-0.05-0.894l-1.589-0.248l-2.284-2.831
	l3.973-4.916C2508.038,187.093,2520.8,186.099,2522.637,185.106z"/>
<polygon fill="#F6F3EB" points="2529.291,183.765 2530.632,183.319 2530.284,184.709 "/>
<polygon fill="#F6F3EB" points="2527.503,188.781 2528.05,190.171 2525.716,196.726 2525.418,198.067 2524.325,198.067 
	2524.623,195.485 "/>
<polygon fill="#F6F3EB" points="2532.072,186.745 2531.724,190.618 2531.228,192.654 2530.831,190.618 "/>
<polygon fill="#F6F3EB" points="2534.704,191.264 2535.052,188.086 2538.875,172.096 2545.48,169.563 2546.076,169.762 
	2547.118,169.812 2547.963,169.563 2549.353,169.265 2550.446,169.067 2563.704,167.18 2568.77,166.137 2569.018,166.137 
	2550.843,179.644 2550.247,179.396 2548.26,180.736 2548.112,181.084 2547.615,181.183 2545.976,182.574 2546.026,183.17 "/>
<polygon fill="#F6F3EB" points="2526.626,234.218 2525.302,236.668 2526.03,236.933 2527.09,235.145 2528.149,234.615 
	2528.414,233.887 "/>
<polygon fill="#F6F3EB" points="2522.687,231.884 2522.736,228.855 2523.531,228.507 "/>
<polygon fill="#F6F3EB" points="2475.213,260.785 2483.506,239.184 2483.655,238.489 2483.01,237.943 2483.606,236.502 
	2485.542,236.602 "/>
<path fill="#F6F3EB" d="M2470.397,229.302c0,0-2.185,3.029-1.986,3.973l0.894,1.44v0.596l-0.447,0.447l-0.894,0.298l-7.647,0.447
	l-1.49,0.199l-0.546-0.099l0.397,6.456l10.18,22.346l11.124-28.057l1.043-0.248l0.348-0.298l-1.688-0.497l-0.099-2.086l0.745-4.42
	L2470.397,229.302z"/>
<polygon fill="#F6F3EB" points="2495.275,231.984 2491.203,232.083 2490.409,234.218 2490.757,234.814 2490.856,235.46 
	2490.458,236.8 2505.008,269.029 2505.058,269.823 2504.363,270.469 2505.455,272.554 2506.746,270.568 2506.2,269.823 
	2506.2,269.376 2507.69,266.496 2496.07,234.864 2496.02,234.218 "/>
<path fill="#F6F3EB" d="M2509.577,271.685c0,0,0.521,0.695,1.167,0.596l-0.074,0.248h-0.869h-1.539l0.298-0.894L2509.577,271.685z"
	/>
<polygon fill="#F6F3EB" points="2513.649,270.816 2512.979,271.511 2513.525,272.629 2514.046,271.164 "/>
<polygon fill="#F6F3EB" points="2512.457,265.975 2512.407,266.868 2513.55,269.252 2516.802,261.108 2515.71,259.469 "/>
<polygon fill="#F6F3EB" points="2513.053,255.075 2510.173,259.867 2505.877,248.743 2501.929,237.396 "/>
<polygon fill="#F6F3EB" points="2532.221,267.886 2518.59,274.342 2518.59,273.299 2517.845,273.001 2515.809,273.076 
	2516.33,272.132 2516.877,272.132 2517.224,271.834 2517.547,271.238 2519.707,265.801 2521.098,267.886 "/>
<path fill="#F6F3EB" d="M2498.751,231.901l0.563,1.059c0,0,0.828-0.265,1.093,0.497l0.662,1.523l0.53,0.795l0.066-0.463l5.727,0.199
	c0,0,0.265-1.291,2.02-1.291s2.88,1.821,2.88,1.821l10.296,0.695l-0.265-0.629l2.45-1.026l-0.695-0.563l-1.291-0.298l-0.248-0.422
	l0.149-1.018l-1.589,0.05l-4.37,0.099l-3.849,0.099l-1.589-0.323l-0.894-0.397l-0.298-0.372l-0.348-1.291l-0.323,0.596l-0.273,0.149
	l-0.323-0.149l-0.348-1.092l0.074-0.298l0.323-0.348l0.298-0.099l0.298,0.124l0.124,0.199l0.074-0.323l-1.961-0.199l-0.447,0.223
	l-2.731,0.199l-0.273,0.248l-0.447,0.074l-0.273-0.199l-0.348-0.248l-3.054,0.05l-0.025,1.688L2498.751,231.901z"/>
<polygon fill="#F6F3EB" points="2508.633,235.733 2508.807,235.261 2509.229,235.162 2509.602,235.187 2509.949,235.236 
	2510.297,235.435 2510.595,235.758 2510.57,235.857 2508.683,235.857 "/>
<polygon fill="#F6F3EB" points="2440.155,209.488 2436.679,212.418 2439.807,214.851 2443.234,212.964 "/>
<polygon fill="#F6F3EB" points="2438.02,206.459 2439.162,207.8 2433.898,207.204 "/>
<polygon fill="#F6F3EB" points="2430.471,207.85 2439.162,208.744 2435.338,211.524 "/>
<polygon fill="#F6F3EB" points="2432.557,199.259 2433.103,199.557 2432.11,200.699 "/>
<polygon fill="#F6F3EB" points="2430.819,198.266 2431.663,198.812 2430.323,201.444 "/>
<polygon fill="#F6F3EB" points="2434.096,200.252 2430.372,206.012 2437.275,204.92 "/>
<polygon fill="#F6F3EB" points="2443.085,214.703 2443.134,217.285 2441.148,215.795 "/>
<polygon fill="#F6F3EB" points="2435.09,213.56 2435.338,213.213 2438.615,215.547 2437.473,216.242 "/>
<polygon fill="#F6F3EB" points="2439.758,216.59 2438.764,217.434 2443.035,222.4 2443.085,218.874 "/>
<polygon fill="#F6F3EB" points="2429.23,209.141 2433.054,213.411 2428.584,217.136 2428.783,211.326 "/>
<polygon fill="#F6F3EB" points="2427.79,214.603 2427.74,217.334 2427.095,217.334 "/>
<polygon fill="#F6F3EB" points="2427.691,209.141 2425.307,217.185 2419.646,216.739 "/>
<polygon fill="#F6F3EB" points="2433.898,214.256 2436.232,216.987 2429.429,220.91 2427.144,220.463 2427.79,219.37 "/>
<polygon fill="#F6F3EB" points="2437.275,218.079 2441.943,223.393 2431.564,221.406 "/>
<polygon fill="#F6F3EB" points="2426.648,221.357 2428.386,221.456 2425.605,223.144 "/>
<polygon fill="#F6F3EB" points="2420.391,217.384 2422.178,218.576 2423.37,217.682 "/>
<polygon fill="#F6F3EB" points="2418.852,217.434 2422.079,219.37 2416.418,222.846 "/>
<polygon fill="#F6F3EB" points="2423.321,221.357 2416.319,228.011 2414.78,226.521 "/>
<polygon fill="#F6F3EB" points="2420.838,227.713 2418.256,231.735 2417.411,229.749 "/>
<polygon fill="#F6F3EB" points="2409.764,226.67 2409.433,226.24 2409.632,226.107 2410.228,226.306 2410.625,226.472 "/>
<polygon fill="#F6F3EB" points="2408.969,225.876 2409.069,226.405 2409.433,226.869 2402.613,228.656 2403.176,228.061 
	2403.375,227.531 "/>
<polygon fill="#F6F3EB" points="2402.911,227.73 2402.348,227.73 2401.951,228.226 2402.216,228.325 2402.746,227.961 "/>
<polygon fill="#F6F3EB" points="2398.376,228.855 2397.846,229.186 2397.846,229.782 2399.203,229.451 2399.568,229.153 
	2399.038,228.855 "/>
<polygon fill="#F6F3EB" points="2397.449,229.021 2397.416,229.716 2397.085,230.047 2390.497,231.868 2391.159,230.841 "/>
<polygon fill="#F6F3EB" points="2387.219,232.364 2386.789,232.364 2386.259,232.099 2385.928,232.199 2385.663,232.563 
	2385.498,233.126 2386.259,232.96 2387.319,232.563 2387.583,232.199 "/>
<polygon fill="#F6F3EB" points="2390.761,230.941 2390.298,231.636 2389.172,231.603 2389.669,231.007 "/>
<polygon fill="#F6F3EB" points="2386.226,248.073 2388.312,256.664 2388.858,256.664 2392.235,249.116 2388.759,246.434 "/>
<polygon fill="#F6F3EB" points="2389.454,246.037 2392.384,248.47 2393.625,245.093 2393.625,244.299 2392.483,244.299 "/>
<polygon fill="#F6F3EB" points="2393.625,247.924 2392.979,249.066 2393.874,249.463 "/>
<polygon fill="#F6F3EB" points="2395.612,243.554 2394.916,244.994 2403.259,256.862 2403.855,256.763 2404.302,248.569 
	2403.507,252.343 2403.358,253.237 2403.01,253.237 2402.365,252.244 2397.796,243.107 "/>
<polygon fill="#F6F3EB" points="2398.392,242.908 2402.663,251.648 2403.06,251.698 2404.897,242.859 2405.047,241.419 
	2402.166,242.213 2400.031,242.561 "/>
<polygon fill="#F6F3EB" points="2533.049,173.9 2534.042,173.437 2533.049,175.886 "/>
<polygon fill="#F6F3EB" points="2565.889,160.128 2568.174,161.519 2566.386,163.207 2562.811,163.604 2562.811,161.717 "/>
<polygon fill="#F6F3EB" points="2562.115,162.065 2562.115,163.704 2558.788,163.853 "/>
<polygon fill="#F6F3EB" points="2571.848,159.334 2569.862,161.171 2571.153,161.966 2571.997,162.015 "/>
<polygon fill="#F6F3EB" points="2571.848,156.454 2571.848,158.489 2568.968,161.121 2566.485,159.632 "/>
<polygon fill="#F6F3EB" points="2572.692,161.916 2575.97,156.106 2572.543,158.539 "/>
<polygon fill="#F6F3EB" points="2568.918,161.817 2567.677,163.008 2569.564,162.909 2570.061,162.512 "/>
<polygon fill="#F6F3EB" points="2576.864,153.226 2579.645,151.19 2584.859,150.346 2580.24,152.63 "/>
<polygon fill="#F6F3EB" points="2572.643,156.056 2572.593,157.794 2575.92,155.013 2574.853,154.864 "/>
<polygon fill="#F6F3EB" points="2577.484,155.411 2577.559,161.097 2573.735,161.866 2577.137,155.46 "/>
<polygon fill="#F6F3EB" points="2578.254,155.684 2578.403,161.097 2582.525,160.699 2584.412,158.986 "/>
<polygon fill="#F6F3EB" points="2588.062,152.58 2578.329,154.368 2584.983,158.44 2588.161,155.609 "/>
<polygon fill="#F6F3EB" points="2583.443,152.034 2587.938,151.215 2587.938,150.519 2586.895,150.37 "/>
<polygon fill="#F6F3EB" points="2588.931,150.37 2588.956,151.19 2590.296,150.966 "/>
<polygon fill="#F6F3EB" points="2589.005,152.506 2589.129,154.864 2591.488,152.531 2591.041,152.307 "/>
<polygon fill="#F6F3EB" points="2588.211,156.627 2588.285,159.359 2587.54,159.458 2586.646,159.011 2585.926,158.912 "/>
<polygon fill="#F6F3EB" points="2585.132,159.557 2585.877,159.905 2584.188,160.277 "/>
<polygon fill="#F6F3EB" points="2589.104,155.907 2589.154,159.21 2592.208,153.623 2592.059,153.35 2591.811,153.35 "/>
<polygon fill="#F6F3EB" points="2590.569,149.452 2592.854,150.221 2592.68,149.154 "/>
<polygon fill="#F6F3EB" points="2591.587,145.529 2592.307,148.185 2589.502,148.359 "/>
<polygon fill="#F6F3EB" points="2593.872,148.955 2594.765,148.831 2594.12,149.65 "/>
<polygon fill="#F6F3EB" points="2593.648,153.027 2593.797,158.216 2590.42,158.912 "/>
<polygon fill="#F6F3EB" points="2593.574,148.111 2592.432,144.486 2594.294,142.4 2595.61,142.996 2600.352,142.773 
	2595.709,147.738 "/>
<polygon fill="#F6F3EB" points="2592.034,142.748 2593.698,140.886 2592.581,140.215 2591.463,140.712 "/>
<polygon fill="#F6F3EB" points="2596.802,148.359 2595.361,150.172 2596.057,150.221 2601.295,147.788 "/>
<polygon fill="#F6F3EB" points="2597.844,147.292 2603.009,146.522 2603.009,146.174 2604.672,145.901 2601.618,142.872 "/>
<polygon fill="#F6F3EB" points="2608.173,145.703 2608.943,145.578 2606.385,141.308 2604.995,142.425 2603.058,142.5 "/>
<polygon fill="#F6F3EB" points="2606.112,147.614 2606.063,148.831 2608.521,148.483 2608.421,148.235 2607.9,148.21 
	2606.385,147.565 "/>
<polygon fill="#F6F3EB" points="2598.589,150.023 2605.194,149.054 2605.194,147.664 2603.952,147.49 2603.282,147.614 "/>
<polygon fill="#F6F3EB" points="2595.312,152.108 2601.767,155.733 2605.392,152.58 2605.293,151.09 "/>
<polygon fill="#F6F3EB" points="2606.286,151.91 2607.875,150.519 2606.212,150.693 "/>
<polygon fill="#F6F3EB" points="2605.467,153.598 2605.541,156.9 2604.672,157.025 2603.977,156.553 2603.083,156.454 
	2602.612,156.156 "/>
<polygon fill="#F6F3EB" points="2594.542,152.779 2594.716,158.241 2599.756,157.596 2601.097,156.354 "/>
<polygon fill="#F6F3EB" points="2606.435,156.851 2606.286,152.804 2608.819,150.743 2609.241,150.743 2609.415,150.892 "/>
<polygon fill="#F6F3EB" points="2607.503,156.702 2611.029,156.429 2610.706,150.197 "/>
<polygon fill="#F6F3EB" points="2611.6,149.948 2611.823,156.305 2615.672,156.305 2618.726,153.499 2611.699,149.874 "/>
<polygon fill="#F6F3EB" points="2610.532,146.199 2610.88,146.894 2611.053,146.174 "/>
<polygon fill="#F6F3EB" points="2610.085,145.305 2611.227,145.305 2611.227,142.773 2610.118,141.523 2608.066,141.722 "/>
<polygon fill="#F6F3EB" points="2612.518,145.777 2612.121,147.416 2613.064,147.614 2618.775,144.933 "/>
<polygon fill="#F6F3EB" points="2618.179,146.77 2623.294,146.075 2623.244,144.734 2621.755,144.585 2620.613,144.883 "/>
<polygon fill="#F6F3EB" points="2624.089,144.536 2624.138,146.075 2626.125,145.727 2626.125,145.38 2624.486,144.536 "/>
<polygon fill="#F6F3EB" points="2623.344,146.919 2623.393,149.75 2619.421,152.977 2612.518,149.303 2613.462,148.707 "/>
<polygon fill="#F6F3EB" points="2624.287,146.721 2624.337,148.707 2626.224,147.366 2626.025,146.373 "/>
<polygon fill="#F6F3EB" points="2626.423,147.962 2626.522,149.7 2624.486,154.07 2624.337,149.75 "/>
<polygon fill="#F6F3EB" points="2623.493,150.445 2623.642,154.318 2622.897,154.418 2621.655,153.772 2621.407,154.169 
	2620.116,153.275 "/>
<polygon fill="#F6F3EB" points="2619.52,153.921 2616.988,155.957 2621.506,155.013 "/>
<polygon fill="#F6F3EB" points="2629.054,150.461 2626.936,150.594 2625.347,154.169 2629.054,153.176 "/>
<polygon fill="#F6F3EB" points="2629.849,150.13 2629.783,152.977 2636.139,151.984 2637.728,150.726 2635.013,149.468 "/>
<polygon fill="#F6F3EB" points="2638.241,150.842 2637.248,151.637 2639.681,151.587 "/>
<polygon fill="#F6F3EB" points="2638.937,150.246 2640.476,149.005 2642.71,148.806 2642.859,151.339 2641.568,151.438 
	2640.575,151.041 2640.575,151.289 "/>
<polygon fill="#F6F3EB" points="2621.01,138.229 2622.748,142.351 2624.238,142.202 2624.238,141.755 "/>
<polygon fill="#F6F3EB" points="2643.753,148.508 2644.697,148.31 2643.853,150.594 "/>
<polygon fill="#F6F3EB" points="2644.846,150.693 2647.875,150.346 2647.676,144.089 "/>
<polygon fill="#F6F3EB" points="2648.918,140.066 2648.123,141.854 2646.236,141.357 2647.13,140.265 "/>
<polygon fill="#F6F3EB" points="2650.01,139.719 2649.464,141.705 2651.202,141.109 2651.45,139.52 "/>
<polygon fill="#F6F3EB" points="2649.812,142.847 2651.5,143.691 2651.202,142.351 "/>
<polygon fill="#F6F3EB" points="2648.868,143.443 2648.222,143.84 2648.669,150.346 2651.947,150.147 2651.748,144.883 "/>
<polygon fill="#F6F3EB" points="2589.328,163.041 2591.182,169.861 2592.638,165.756 2590.056,162.71 "/>
<polygon fill="#F6F3EB" points="2605.814,161.254 2603.894,161.386 2600.915,168.405 2601.445,169.398 2603.563,170.722 
	2606.013,166.286 "/>
<polygon fill="#F6F3EB" points="2606.741,160.724 2606.874,164.299 2609.655,160.525 "/>
<polygon fill="#F6F3EB" points="2610.582,160.923 2606.94,166.153 2607.271,170.126 "/>
<polygon fill="#F6F3EB" points="2606.079,168.14 2604.292,170.854 2606.212,172.046 "/>
<polyline fill="none" stroke="#252123" stroke-width="0.2979" stroke-miterlimit="10" points="2430.687,182.905 2389.371,151.322 
	2363.417,131.591 2312.831,93.984 2307.434,89.839 "/>
<polyline fill="none" stroke="#252123" stroke-width="0.2979" stroke-miterlimit="10" points="2427.045,185.156 2425.91,184.148 
	2387.981,150.461 2380.565,144.105 2331.701,101.863 2310.501,84.789 "/>
<polyline fill="none" stroke="#252123" stroke-width="0.2979" stroke-miterlimit="10" points="2424.198,190.32 2361.894,138.146 
	2334.218,114.045 2312.235,93.785 2307.661,89.611 "/>
<polyline fill="none" stroke="#252123" stroke-width="0.149" stroke-miterlimit="10" points="2426.549,185.553 2427.343,180.389 
	2428.237,183.666 "/>
<polyline fill="none" stroke="#252123" stroke-width="0.149" stroke-miterlimit="10" points="2424.86,188.284 2421.632,187.688 
	2425.208,187.341 "/>
<polyline fill="none" stroke="#252123" stroke-width="0.149" stroke-miterlimit="10" points="2425.853,186.348 2417.958,184.957 
	2420.093,174.877 2422.377,180.985 2414.631,182.276 2425.804,184.063 2423.569,177.36 2418.156,184.858 "/>
<polyline fill="none" stroke="#252123" stroke-width="0.149" stroke-miterlimit="10" points="2427.343,180.389 2421.434,188.036 
	2423.569,177.36 "/>
<polyline fill="none" stroke="#252123" stroke-width="0.149" stroke-miterlimit="10" points="2422.03,180.885 2410.956,179.247 
	2419.1,178.154 2416.468,172.096 2411.403,179.644 2415.028,182.673 2416.418,171.897 2419.894,174.728 2414.78,182.027 "/>
<line fill="none" stroke="#252123" stroke-width="0.149" stroke-miterlimit="10" x1="2417.958" y1="184.957" x2="2425.555" y2="184.113"/>
<polyline fill="none" stroke="#252123" stroke-width="0.149" stroke-miterlimit="10" points="2418.901,178.005 2407.976,176.714 
	2412.694,169.265 2411.75,179.942 2407.728,176.664 2415.872,175.175 2412.992,169.414 "/>
<polyline fill="none" stroke="#252123" stroke-width="0.149" stroke-miterlimit="10" points="2408.423,177.211 2409.565,166.782 
	2412.346,172.195 2404.997,174.281 2415.524,175.026 2412.644,172.394 2401.769,171.599 2409.417,169.414 2398.541,169.017 
	2406.387,166.782 "/>
<polyline fill="none" stroke="#252123" stroke-width="0.149" stroke-miterlimit="10" points="2409.367,166.633 2404.997,174.281 
	2406.238,164.101 2401.769,171.599 2402.862,161.618 2398.79,169.017 2399.534,159.085 2399.137,158.787 2395.711,166.534 
	2406.139,166.584 2403.01,161.866 2406.437,164.349 2408.821,168.918 "/>
<polyline fill="none" stroke="#252123" stroke-width="0.149" stroke-miterlimit="10" points="2403.259,163.952 2395.959,166.633 
	2396.307,156.503 2398.69,159.681 2400.23,161.469 2392.831,164.101 2403.01,163.853 2399.534,159.085 "/>
<polyline fill="none" stroke="#252123" stroke-width="0.149" stroke-miterlimit="10" points="2400.081,161.27 2389.802,161.568 
	2389.901,151.835 2393.029,154.07 2392.831,164.101 2396.108,156.404 "/>
<polyline fill="none" stroke="#252123" stroke-width="0.149" stroke-miterlimit="10" points="2389.802,161.568 2397.3,158.787 
	2386.772,159.036 2394.32,156.156 2391.49,153.573 2384.14,156.851 2394.569,156.205 "/>
<line fill="none" stroke="#252123" stroke-width="0.149" stroke-miterlimit="10" x1="2390.099" y1="161.717" x2="2393.029" y2="154.07"/>
<polyline fill="none" stroke="#252123" stroke-width="0.149" stroke-miterlimit="10" points="2391.49,153.573 2381.211,154.318 
	2383.495,146.919 2386.524,149.203 2384.14,156.851 2383.942,147.068 2382.651,146.224 2375.798,149.849 2385.581,148.657 
	2378.529,152.133 2388.759,151.041 2381.26,154.566 2387.07,159.185 2386.971,149.501 2389.503,151.885 2387.319,159.383 "/>
<polyline fill="none" stroke="#252123" stroke-width="0.149" stroke-miterlimit="10" points="2381.509,154.566 2381.012,145.032 
	2380.416,144.635 2378.529,152.133 2377.884,142.698 2379.671,143.989 2373.116,147.565 2382.651,146.224 2377.536,142.4 
	2375.798,149.849 2375.103,140.613 2376.841,141.804 2370.484,145.33 2379.423,143.642 "/>
<polyline fill="none" stroke="#252123" stroke-width="0.149" stroke-miterlimit="10" points="2373.116,147.565 2374.606,140.017 
	2376.493,141.506 2367.753,143.095 2373.911,139.47 2372.272,138.378 2373.365,147.763 2370.633,145.628 2371.726,137.881 
	2373.265,139.272 2365.121,140.911 2371.031,137.285 2369.342,136.143 2370.931,145.578 "/>
<polyline fill="none" stroke="#252123" stroke-width="0.149" stroke-miterlimit="10" points="2368.846,135.796 2368.101,143.493 
	2366.562,133.909 2370.832,137.285 2374.259,138.577 2371.875,136.441 2371.08,137.087 2362.688,138.974 2369.392,134.455 
	2364.079,132.121 2365.667,141.407 2366.065,133.561 2363.234,131.475 2363.085,139.172 2360.304,136.839 2366.661,132.171 
	2371.428,136.243 2367.356,134.753 2360.106,136.59 2363.334,139.321 2361.149,129.886 2366.214,131.724 2364.178,129.886 
	2357.871,134.753 2364.625,132.717 "/>
<polyline fill="none" stroke="#252123" stroke-width="0.149" stroke-miterlimit="10" points="2363.88,129.588 2360.652,128.595 
	2360.553,137.087 2358.616,128.099 2361.695,127.85 2355.438,132.717 2361.894,130.482 2357.971,127.552 2358.219,134.952 
	2355.885,125.963 2359.162,125.715 2353.253,130.681 2359.361,128.397 2355.488,125.616 2355.935,133.065 2353.303,124.126 
	2356.729,123.53 2350.919,128.645 2359.063,125.467 2356.332,123.133 2350.72,122.14 2353.7,131.078 2352.806,123.53 
	2358.566,125.318 "/>
<polyline fill="none" stroke="#252123" stroke-width="0.149" stroke-miterlimit="10" points="2355.885,125.963 2361.298,127.403 
	2356.729,123.53 2348.635,126.659 2354.246,121.246 2347.94,120.153 2351.316,128.993 2350.274,121.792 2345.606,118.366 
	2349.032,127.056 2347.741,120.302 2351.763,119.21 2346.351,124.772 2354.296,121.494 "/>
<polyline fill="none" stroke="#252123" stroke-width="0.149" stroke-miterlimit="10" points="2351.565,119.111 2345.606,118.366 
	2346.599,124.97 2343.272,116.677 2349.429,117.025 2344.116,122.736 2351.763,119.21 2349.628,117.273 2342.03,120.799 
	2347.145,115.188 2339.895,118.912 2344.712,113.152 2337.71,117.174 2342.527,111.215 2335.575,115.237 2340.193,109.328 
	2333.439,113.4 2337.909,107.292 2331.404,111.563 2335.674,105.455 2329.417,109.725 2333.489,103.568 2327.48,107.987 
	2331.453,101.631 2325.544,106.15 2329.119,99.744 2323.607,104.312 2327.083,98.006 2321.869,102.624 2324.799,96.268 
	2320.032,101.085 2322.713,94.679 2318.145,99.247 2320.628,92.792 2316.258,97.509 2318.542,91.103 2314.52,95.97 2316.705,89.663 
	2310.001,91.799 2309.455,91.302 2310.547,84.797 "/>
<polyline fill="none" stroke="#252123" stroke-width="0.149" stroke-miterlimit="10" points="2344.513,123.133 2340.988,114.89 
	2347.145,115.188 2342.974,116.479 2344.116,122.736 2342.279,121.047 2340.342,114.443 2338.107,112.754 2344.712,113.152 
	2342.229,111.066 2335.724,110.967 2338.107,117.273 2334.333,110.073 2333.439,109.229 2340.193,109.328 2337.909,107.292 
	2331.105,107.59 2333.837,113.648 2336.022,115.585 2332.099,108.285 2336.518,111.612 2340.193,119.16 2337.909,112.556 
	2338.902,113.549 2342.279,120.551 "/>
<polyline fill="none" stroke="#252123" stroke-width="0.149" stroke-miterlimit="10" points="2307.766,89.812 2308.362,90.359 
	2314.569,88.174 "/>
<polyline fill="none" stroke="#252123" stroke-width="0.149" stroke-miterlimit="10" points="2335.972,105.604 2328.672,105.852 
	2330.112,106.845 2332.794,111.314 2333.638,113.45 2331.751,111.761 2329.169,106.05 2326.636,104.312 2333.737,103.717 
	2331.453,101.631 2324.302,102.624 2322.266,100.936 2329.467,99.992 2327.033,98.204 2320.181,99.446 2318.244,97.857 
	2324.799,96.268 2322.713,94.679 2316.059,96.367 2313.775,94.728 2320.777,93.04 2318.443,91.302 2311.888,93.388 2313.129,94.282 
	2314.371,87.925 2311.193,92.792 2312.583,86.436 2308.615,87.944 "/>
<polyline fill="none" stroke="#252123" stroke-width="0.149" stroke-miterlimit="10" points="2309.455,91.302 2312.583,86.436 
	2308.362,90.359 2310.547,84.797 2307.766,89.564 "/>
<polyline fill="none" stroke="#252123" stroke-width="0.149" stroke-miterlimit="10" points="2316.705,89.663 2313.129,94.282 
	2311.888,93.388 2316.953,89.912 "/>
<path fill="none" stroke="#252123" stroke-width="0.149" stroke-miterlimit="10" d="M2296.047,81.221"/>
<path fill="none" stroke="#252123" stroke-width="0.149" stroke-miterlimit="10" d="M2300.665,83.357"/>
<path fill="#262224" d="M342.803,302.4l-27.454-74.208l1.75,0.025l1.299-0.296l-2.355-4.13l-0.451-2.702l1.557-1.133l2.985-3.037
	l0.103-2.239l33.331,35.701l-2.676,3.462l0.245,2.419l11.182,6.149l2.779-0.94l3.627-8.699l-6.01-7.964l-6.845,1.301l-39.366-41.914
	l33.874-32.867l-2.433-6.021l69.659,1.249l0.123-1.351l-63.143-1.482l-0.361-1.686l1.106-1.454l-3.308-8.414l-1.364-2.47
	l-1.647,0.116l-0.849,0.618l-1.222-0.193l-0.926,1.107l1.338,1.84l-0.746,0.759l-0.978-0.154l-1.415,1.03l-1.725-4.156l0.514-1.673
	l3.68-0.297l3.808-1.905l-4.428-10.846l-1.158,0.193l-3.59,1.313l-0.09,1.364l-2.02-0.695l-0.849,0.618l-2.484-4.902l1.66-0.991
	l1.016-2.471l-1.313-1.209l-1.3,0.296l-1.274,0.927l-3.141-7.887l62.974-62.479c0,0,2.612,0.913,2.869-2.304l1.408-1.664
	l-0.983-1.228l-1.88,1.786c0,0-2.895-0.707-2.766,2.445l-63.36,62.543l-6.614-0.166l-3.384-3.165l-29.182-0.845l-1.582,2.882
	l-8.608-0.23l-4.284,3.333L237.64,21.124l-1.184-0.437l-23.08-61.77l-0.747-4.001l-1.416-1.351l-1.377,0.785l0.219,1.788
	l2.329,3.499l23.209,62.542l-1.068,1.21l1.583,1.878l36.325,96.934l-2.83,2.059l0.219,1.788l-5.095,1.326l-5.313,4.298l-3.732-0.964
	l-15.914,15.906l-18.35-9.158l-1.107-0.926l-1.634-0.759l-1.184-0.437l-1.918-2.933l-3.14-0.746l-2.432,1.12l-1.428,1.905
	l0.528,2.213l1.416,1.351l1.519,1.492l2.625,0.038l1.686-0.361l0.013,1.505l-1.132,0.824l1.48,1.737l2.753-1.57l17.423,7.885
	l-1.414,5.79l-5.751,5.482l-92.346-2.289c0,0-2.162-2.972-4.902,0.104l-59.458-1.11c0,0-1.532-5.378-5.508-4.001
	c-3.976,1.377-4.143,3.23-4.143,3.23s-1.363,4.671,3.243,5.648c4.607,0.977,6.176-3.411,6.176-3.411l59.947,1.187
	c0,0,1.48,4.117,5.108,0.179l93.054,1.774l4.608,12.879l-1.866,0.708l-0.836-0.257c0,0-4.632,3.153-3.434,7.476l3.205,8.273
	c0,0,6.177,3.73,9.174-0.182l4.75,12.776l-62.254,61.089c0,0-3.32-0.398-3.589,3.693l-40.666,40.19c0,0-2.87-2.457-5.108-0.179
	c0,0-4.13,2.355-1.003,6.356c3.127,4.001,7.308,0.526,7.308,0.526s2.045-3.436,0.012-5.636l40.988-40.64
	c0,0,2.638,1.544,3.872-3.899l61.224-60.124l1.365,4.851l50.709,0.983l1.132-0.824l0.708,1.866l-3.448,3.59l2.176,6.858l4.234,2.547
	l3.165-1.004l1.287,2.959l-0.206,2.097l2.792,0.566l-0.155-1.402l1.055-0.335l28.376,76.062L342.803,302.4z"/>
<g>
	<path fill="#262224" d="M78.18,79.743l4.18,11.147l-0.139,0.697l21.04-6.688l1.254-2.229l1.254-0.279l1.533,1.672l0.279,2.09
		h-4.598L82.5,92.701l-0.279,1.951l-0.418-1.115l-1.115-0.697l-0.418-0.836l-6.688,5.573L74,99.389l1.115,0.418l0.418,1.811
		L74,103.151l-3.483-0.139l0.139-2.09l0.836-0.697l-0.836-1.393l-1.393,0.418l-9.475,0.139l-34.277,12.262
		c0,0-1.533-0.418-0.139-1.393l33.441-11.565v-1.115l-4.041-8.5l2.508-2.09l0.279-1.254l7.942-3.762l3.483-0.975l1.811-1.115h1.811
		c0,0,1.393-1.951,3.483-0.279L78.18,79.743z"/>
	
		<line fill="#262224" stroke="#262224" stroke-width="0.836" stroke-miterlimit="10" x1="46.829" y1="34.179" x2="91.766" y2="148.923"/>
	
		<line fill="#262224" stroke="#262224" stroke-width="0.418" stroke-miterlimit="10" x1="111.412" y1="61.35" x2="14.643" y2="122.171"/>
	<circle fill="#262224" cx="14.904" cy="121.909" r="0.679"/>
	<circle fill="#262224" cx="111.151" cy="61.507" r="0.679"/>
	<circle fill="#262224" cx="127.61" cy="84.654" r="1.045"/>
	
		<line fill="#262224" stroke="#262224" stroke-width="0.836" stroke-miterlimit="10" x1="127.61" y1="84.654" x2="77.553" y2="88.103"/>
	
		<line fill="#262224" stroke="#262224" stroke-width="0.627" stroke-miterlimit="10" x1="35.857" y1="91.029" x2="57.698" y2="89.67"/>
</g>
</svg>
