<?xml version="1.0" encoding="UTF-8" standalone="no"?>
<!-- Generator: Adobe Illustrator 17.0.0, SVG Export Plug-In . SVG Version: 6.00 Build 0)  -->

<svg
   xmlns:dc="http://purl.org/dc/elements/1.1/"
   xmlns:cc="http://creativecommons.org/ns#"
   xmlns:rdf="http://www.w3.org/1999/02/22-rdf-syntax-ns#"
   xmlns:svg="http://www.w3.org/2000/svg"
   xmlns="http://www.w3.org/2000/svg"
   xmlns:sodipodi="http://sodipodi.sourceforge.net/DTD/sodipodi-0.dtd"
   xmlns:inkscape="http://www.inkscape.org/namespaces/inkscape"
   version="1.1"
   id="Layer_1"
   x="0px"
   y="0px"
   width="1024"
   height="1024"
   viewBox="0 0 1024 1024"
   enable-background="new 0 0 432.338 432.338"
   xml:space="preserve"
   inkscape:version="0.48.3.1 r9886"
   sodipodi:docname="cassini.svg"><metadata
   id="metadata47"><rdf:RDF><cc:Work
       rdf:about=""><dc:format>image/svg+xml</dc:format><dc:type
         rdf:resource="http://purl.org/dc/dcmitype/StillImage" /></cc:Work></rdf:RDF></metadata><defs
   id="defs45" /><sodipodi:namedview
   pagecolor="#ffffff"
   bordercolor="#666666"
   borderopacity="1"
   objecttolerance="10"
   gridtolerance="10"
   guidetolerance="10"
   inkscape:pageopacity="0"
   inkscape:pageshadow="2"
   inkscape:window-width="1280"
   inkscape:window-height="749"
   id="namedview43"
   showgrid="true"
   borderlayer="true"
   inkscape:showpageshadow="false"
   inkscape:zoom="0.51855469"
   inkscape:cx="512"
   inkscape:cy="512"
   inkscape:window-x="0"
   inkscape:window-y="27"
   inkscape:window-maximized="1"
   inkscape:current-layer="Layer_1"><inkscape:grid
     type="xygrid"
     id="grid3024"
     empspacing="5"
     visible="true"
     enabled="true"
     snapvisiblegridlinesonly="true"
     spacingx="512px"
     spacingy="512px" /></sodipodi:namedview>

<circle
   cx="215.83099"
   cy="216.507"
   r="202.66901"
   id="circle5"
   sodipodi:cx="215.83099"
   sodipodi:cy="216.507"
   sodipodi:rx="202.66901"
   sodipodi:ry="202.66901"
   style="fill:none"
   transform="translate(0,591.66199)" />
<g
   id="g3026"
   transform="matrix(2.3685172,0,0,2.3685172,0,-1401.3616)"><circle
     transform="translate(0,591.66199)"
     style="fill:#f6f3eb"
     sodipodi:ry="216.16901"
     sodipodi:rx="216.16901"
     sodipodi:cy="216.16901"
     sodipodi:cx="216.16901"
     id="circle3"
     r="216.16901"
     cy="216.16901"
     cx="216.16901"
     d="m 432.33801,216.16901 c 0,119.38684 -96.78216,216.169 -216.169,216.169 C 96.782161,432.33801 0,335.55585 0,216.16901 0,96.782161 96.782161,0 216.16901,0 c 119.38684,0 216.169,96.782161 216.169,216.16901 z" /><g
     transform="translate(0,591.66199)"
     id="g7">
	<path
   style="fill:#262224"
   inkscape:connector-curvature="0"
   id="path9"
   d="m 18.377,170.109 89.409,19.729 c 0,0 1.722,-3.498 4.198,-1.184 l 5.113,1.13 c 0,0 3.175,-0.915 4.251,2.96 l 78.195,17.167 c 0,0 5.274,-28.792 31.267,-36.702 l -72.9,-151.092 0.982,-0.284 72.806,150.972 0.323,0.323 c 0,0 20.262,-5.731 37.214,15.176 h 0.969 l 0.565,-0.404 -0.484,-4.036 0.969,-0.161 1.049,-0.807 v -2.099 h 2.745 l 0.565,-8.637 0.565,-0.484 2.26,-0.081 0.646,0.565 5.086,-1.049 0.727,-0.646 h 1.857 l 2.18,0.727 0.081,1.776 2.422,3.068 28.818,-43.187 c 0,0 1.857,-0.404 1.615,1.453 l -28.98,41.654 -0.081,0.646 1.292,0.404 1.776,-0.404 1.292,0.727 0.727,-1.292 1.453,-0.161 0.646,-0.404 -0.081,-0.727 -2.664,-0.727 -1.695,-0.161 -0.081,-0.807 4.682,-0.646 1.13,-0.646 -0.161,-1.614 2.906,-2.825 c 0,0 1.695,0.081 2.906,-1.049 l -0.969,-3.229 c 0,0 6.942,-5.005 20.342,-8.637 l 1.453,3.068 c 0,0 0.646,1.776 3.068,0.484 l 4.682,14.934 -1.554,0.787 v 0.666 l 1.756,-0.545 3.249,11.402 0.141,0.141 6.377,-0.525 4.016,-0.02 c 0,0 2.805,-0.121 11.443,6.619 0,0 10.494,-3.673 14.894,-3.794 l 2.139,0.081 c 0,0 2.664,0.484 5.005,3.189 v 1.937 l -0.727,1.453 h -1.171 c 0,0 -6.296,10.212 -10.212,13.36 0,0 1.857,2.825 2.099,8.315 0,0 3.108,0.727 2.906,3.955 l 0.04,3.269 9.606,2.987 -1.493,1.534 c 0,0 1.413,1.534 1.372,2.422 h 1.049 v 0.686 h -1.13 c 0,0 0.444,1.897 -1.332,3.068 l 1.009,1.453 -2.301,-0.444 -1.453,0.202 v 2.583 l -8.193,-2.301 c 0,0 -1.937,3.875 -2.381,4.036 0,0 0.848,3.431 4.642,6.458 0,0 -3.794,0.767 -6.942,-2.381 l -1.453,1.736 -0.04,1.09 c 0,0 8.597,11.988 9.727,18.688 h 0.605 v 0.404 h 1.292 v 1.211 h 0.323 v 1.292 h -0.404 v 1.049 h -1.534 l -0.928,1.776 h -7.467 l -13.36,-6.014 c 0,0 -24.056,14.571 -35.519,16.185 0,0 -10.978,1.534 -19.051,-1.695 0,0 -11.705,-4.44 -23.491,-14.046 0,0 -8.234,14.127 -15.338,16.629 v 2.018 h -1.292 v -1.292 c 0,0 -2.825,2.422 -6.296,3.148 l -0.646,1.453 -3.31,4.278 -0.081,1.211 c 0,0 -0.161,0.646 -1.13,0.511 -0.969,-0.135 -0.646,-0.996 -0.646,-0.996 0,0 0.188,-0.861 0.996,-0.888 l 3.148,-4.467 0.027,-0.7 c 0,0 -10.225,3.875 -21.93,-1.534 -11.705,-5.409 -15.257,-10.252 -15.257,-10.252 l -87.098,125.179 -1.147,-0.555 87.68,-125.754 c 0,0 -21.338,-21.957 -16.387,-54.892 l -79.378,-16.898 c 0,0 -1.453,1.614 -4.198,0.269 l -6.942,-1.238 c 0,0 -0.915,0.108 -1.668,-1.614 L 16.25,180.215" />
	<path
   style="fill:#f6f3eb"
   inkscape:connector-curvature="0"
   id="path11"
   d="m 332.01,256.354 h 0.996 v 0.942 c 0,0 -0.646,-0.027 -0.996,-0.942 z" />
	<path
   style="fill:#f6f3eb"
   inkscape:connector-curvature="0"
   id="path13"
   d="m 334.647,256.031 v 1.884 c 0,0 1.48,0.511 2.718,0.619 0,0 0.511,-2.153 0.457,-2.422 0,0 -2.394,-0.377 -3.175,-0.081 z" />
	<path
   style="fill:#f6f3eb"
   inkscape:connector-curvature="0"
   id="path15"
   d="m 339.437,256.973 -0.35,1.722 4.547,0.915 0.027,-0.646 c 0,0 -3.255,-1.856 -4.224,-1.991 z" />
	<polygon
   style="fill:#f6f3eb"
   id="polygon17"
   points="113.397,198.556 113.397,198.959 112.428,198.879 112.388,198.515 111.822,198.515 112.226,197.506 " />
	<polygon
   style="fill:#f6f3eb"
   id="polygon19"
   points="112.408,199.181 111.136,199.161 111.136,199.545 112.408,199.545 " />
	<polygon
   style="fill:#f6f3eb"
   id="polygon21"
   points="110.854,200.493 110.854,200.15 112.428,200.15 112.428,199.868 114.163,199.868 114.708,200.776 114.708,201.139 113.861,201.139 " />
	<polygon
   style="fill:#f6f3eb"
   id="polygon23"
   points="112.771,189.858 112.791,189.192 115.657,189.959 115.657,190.181 114.729,190.181 114.729,190.483 113.094,190.483 113.094,189.858 " />
	<rect
   style="fill:#f6f3eb"
   id="rect25"
   height="0.40400001"
   width="0.68599999"
   y="190.786"
   x="115.354" />
	<polygon
   style="fill:#f6f3eb"
   id="polygon27"
   points="115.314,191.735 114.486,191.735 114.486,191.432 114.042,191.432 114.042,192.078 114.688,192.078 114.688,192.421 115.011,192.421 115.011,192.098 115.314,192.098 " />
	<polygon
   style="fill:#f6f3eb"
   id="polygon29"
   points="114.385,193.147 114.385,192.764 113.719,192.078 113.397,192.098 113.397,193.147 " />
</g></g>
<g
   id="g31"
   transform="translate(0,591.66199)">
</g>
<g
   id="g33"
   transform="translate(0,591.66199)">
</g>
<g
   id="g35"
   transform="translate(0,591.66199)">
</g>
<g
   id="g37"
   transform="translate(0,591.66199)">
</g>
<g
   id="g39"
   transform="translate(0,591.66199)">
</g>
<g
   id="g41"
   transform="translate(0,591.66199)">
</g>
</svg>