<?xml version="1.0" encoding="utf-8"?>
<!-- Generator: Adobe Illustrator 17.0.0, SVG Export Plug-In . SVG Version: 6.00 Build 0)  -->
<!DOCTYPE svg PUBLIC "-//W3C//DTD SVG 1.1//EN" "http://www.w3.org/Graphics/SVG/1.1/DTD/svg11.dtd">
<svg version="1.1" id="Layer_1" xmlns="http://www.w3.org/2000/svg" xmlns:xlink="http://www.w3.org/1999/xlink" x="0px" y="0px"
	 width="432.338px" height="432.338px" viewBox="0 0 432.338 432.338" enable-background="new 0 0 432.338 432.338"
	 xml:space="preserve">
<circle fill="#F6F3EB" cx="216.169" cy="216.169" r="216.169"/>
<circle fill="none" cx="215.831" cy="216.507" r="202.669"/>
<g>
	<path fill="#262224" d="M18.377,170.109l89.409,19.729c0,0,1.722-3.498,4.198-1.184l5.113,1.13c0,0,3.175-0.915,4.251,2.96
		l78.195,17.167c0,0,5.274-28.792,31.267-36.702l-72.9-151.092l0.982-0.284l72.806,150.972l0.323,0.323
		c0,0,20.262-5.731,37.214,15.176h0.969l0.565-0.404l-0.484-4.036l0.969-0.161l1.049-0.807v-2.099h2.745l0.565-8.637l0.565-0.484
		l2.26-0.081l0.646,0.565l5.086-1.049l0.727-0.646h1.857l2.18,0.727l0.081,1.776l2.422,3.068l28.818-43.187
		c0,0,1.857-0.404,1.615,1.453l-28.98,41.654l-0.081,0.646l1.292,0.404l1.776-0.404l1.292,0.727l0.727-1.292l1.453-0.161
		l0.646-0.404l-0.081-0.727l-2.664-0.727l-1.695-0.161l-0.081-0.807l4.682-0.646l1.13-0.646l-0.161-1.614l2.906-2.825
		c0,0,1.695,0.081,2.906-1.049l-0.969-3.229c0,0,6.942-5.005,20.342-8.637l1.453,3.068c0,0,0.646,1.776,3.068,0.484l4.682,14.934
		l-1.554,0.787v0.666l1.756-0.545l3.249,11.402l0.141,0.141l6.377-0.525l4.016-0.02c0,0,2.805-0.121,11.443,6.619
		c0,0,10.494-3.673,14.894-3.794l2.139,0.081c0,0,2.664,0.484,5.005,3.189v1.937l-0.727,1.453h-1.171c0,0-6.296,10.212-10.212,13.36
		c0,0,1.857,2.825,2.099,8.315c0,0,3.108,0.727,2.906,3.955l0.04,3.269l9.606,2.987l-1.493,1.534c0,0,1.413,1.534,1.372,2.422h1.049
		v0.686h-1.13c0,0,0.444,1.897-1.332,3.068l1.009,1.453l-2.301-0.444l-1.453,0.202v2.583l-8.193-2.301c0,0-1.937,3.875-2.381,4.036
		c0,0,0.848,3.431,4.642,6.458c0,0-3.794,0.767-6.942-2.381l-1.453,1.736l-0.04,1.09c0,0,8.597,11.988,9.727,18.688h0.605v0.404
		h1.292v1.211h0.323v1.292h-0.404v1.049h-1.534l-0.928,1.776h-7.467l-13.36-6.014c0,0-24.056,14.571-35.519,16.185
		c0,0-10.978,1.534-19.051-1.695c0,0-11.705-4.44-23.491-14.046c0,0-8.234,14.127-15.338,16.629v2.018h-1.292v-1.292
		c0,0-2.825,2.422-6.296,3.148l-0.646,1.453l-3.31,4.278l-0.081,1.211c0,0-0.161,0.646-1.13,0.511
		c-0.969-0.135-0.646-0.996-0.646-0.996s0.188-0.861,0.996-0.888l3.148-4.467l0.027-0.7c0,0-10.225,3.875-21.93-1.534
		c-11.705-5.409-15.257-10.252-15.257-10.252l-87.098,125.179l-1.147-0.555l87.68-125.754c0,0-21.338-21.957-16.387-54.892
		l-79.378-16.898c0,0-1.453,1.614-4.198,0.269l-6.942-1.238c0,0-0.915,0.108-1.668-1.614L16.25,180.215"/>
	<path fill="#F6F3EB" d="M332.01,256.354h0.996v0.942C333.006,257.296,332.36,257.269,332.01,256.354z"/>
	<path fill="#F6F3EB" d="M334.647,256.031v1.884c0,0,1.48,0.511,2.718,0.619c0,0,0.511-2.153,0.457-2.422
		C337.822,256.112,335.428,255.735,334.647,256.031z"/>
	<path fill="#F6F3EB" d="M339.437,256.973l-0.35,1.722l4.547,0.915l0.027-0.646C343.661,258.964,340.406,257.108,339.437,256.973z"
		/>
	<polygon fill="#F6F3EB" points="112.226,197.506 113.397,198.556 113.397,198.959 112.428,198.879 112.388,198.515 
		111.822,198.515 	"/>
	<polygon fill="#F6F3EB" points="111.136,199.161 111.136,199.545 112.408,199.545 112.408,199.181 	"/>
	<polygon fill="#F6F3EB" points="110.854,200.15 112.428,200.15 112.428,199.868 114.163,199.868 114.708,200.776 114.708,201.139 
		113.861,201.139 110.854,200.493 	"/>
	<polygon fill="#F6F3EB" points="112.791,189.192 115.657,189.959 115.657,190.181 114.729,190.181 114.729,190.483 
		113.094,190.483 113.094,189.858 112.771,189.858 	"/>
	<rect x="115.354" y="190.786" fill="#F6F3EB" width="0.686" height="0.404"/>
	<polygon fill="#F6F3EB" points="114.042,191.432 114.042,192.078 114.688,192.078 114.688,192.421 115.011,192.421 
		115.011,192.098 115.314,192.098 115.314,191.735 114.486,191.735 114.486,191.432 	"/>
	<polygon fill="#F6F3EB" points="113.397,192.098 113.397,193.147 114.385,193.147 114.385,192.764 113.719,192.078 	"/>
</g>
<g>
</g>
<g>
</g>
<g>
</g>
<g>
</g>
<g>
</g>
<g>
</g>
</svg>
