<?xml version="1.0" encoding="utf-8"?>
<!-- Generator: Adobe Illustrator 19.2.0, SVG Export Plug-In . SVG Version: 6.00 Build 0)  -->
<svg version="1.1" id="Layer_1" xmlns="http://www.w3.org/2000/svg" xmlns:xlink="http://www.w3.org/1999/xlink" x="0px" y="0px"
	 viewBox="0 0 432.3 432.3" enable-background="new 0 0 432.3 432.3" xml:space="preserve">
<circle fill="#F6F3EB" cx="671.2" cy="209.2" r="216.2"/>
<circle fill="none" cx="670.8" cy="209.5" r="202.7"/>
<g>
	<path fill="#262224" d="M473.4,163.1l89.4,19.7c0,0,1.7-3.5,4.2-1.2l5.1,1.1c0,0,3.2-0.9,4.3,3l78.2,17.2c0,0,5.3-28.8,31.3-36.7
		L612.9,15.1l1-0.3l72.8,151l0.3,0.3c0,0,20.3-5.7,37.2,15.2h1l0.6-0.4l-0.5-4l1-0.2l1-0.8v-2.1h2.7l0.6-8.6l0.6-0.5l2.3-0.1
		l0.6,0.6l5.1-1l0.7-0.6h1.9l2.2,0.7l0.1,1.8l2.4,3.1l28.8-43.2c0,0,1.9-0.4,1.6,1.5l-29,41.7l-0.1,0.6l1.3,0.4l1.8-0.4l1.3,0.7
		l0.7-1.3l1.5-0.2l0.6-0.4l-0.1-0.7l-2.7-0.7l-1.7-0.2l-0.1-0.8l4.7-0.6l1.1-0.6l-0.2-1.6l2.9-2.8c0,0,1.7,0.1,2.9-1l-1-3.2
		c0,0,6.9-5,20.3-8.6l1.5,3.1c0,0,0.6,1.8,3.1,0.5l4.7,14.9l-1.6,0.8v0.7l1.8-0.5l3.2,11.4l0.1,0.1l6.4-0.5l4,0
		c0,0,2.8-0.1,11.4,6.6c0,0,10.5-3.7,14.9-3.8l2.1,0.1c0,0,2.7,0.5,5,3.2v1.9l-0.7,1.5h-1.2c0,0-6.3,10.2-10.2,13.4
		c0,0,1.9,2.8,2.1,8.3c0,0,3.1,0.7,2.9,4l0,3.3l9.6,3l-1.5,1.5c0,0,1.4,1.5,1.4,2.4h1v0.7h-1.1c0,0,0.4,1.9-1.3,3.1l1,1.5l-2.3-0.4
		l-1.5,0.2v2.6l-8.2-2.3c0,0-1.9,3.9-2.4,4c0,0,0.8,3.4,4.6,6.5c0,0-3.8,0.8-6.9-2.4l-1.5,1.7l0,1.1c0,0,8.6,12,9.7,18.7h0.6v0.4
		h1.3v1.2h0.3v1.3h-0.4v1h-1.5l-0.9,1.8h-7.5l-13.4-6c0,0-24.1,14.6-35.5,16.2c0,0-11,1.5-19.1-1.7c0,0-11.7-4.4-23.5-14
		c0,0-8.2,14.1-15.3,16.6v2h-1.3v-1.3c0,0-2.8,2.4-6.3,3.1l-0.6,1.5l-3.3,4.3l-0.1,1.2c0,0-0.2,0.6-1.1,0.5c-1-0.1-0.6-1-0.6-1
		s0.2-0.9,1-0.9l3.1-4.5l0-0.7c0,0-10.2,3.9-21.9-1.5s-15.3-10.3-15.3-10.3l-87.1,125.2l-1.1-0.6l87.7-125.8c0,0-21.3-22-16.4-54.9
		L574,194.4c0,0-1.5,1.6-4.2,0.3l-6.9-1.2c0,0-0.9,0.1-1.7-1.6l-89.9-18.6"/>
	<path fill="#F6F3EB" d="M787,249.4h1v0.9C788,250.3,787.4,250.3,787,249.4z"/>
	<path fill="#F6F3EB" d="M789.6,249v1.9c0,0,1.5,0.5,2.7,0.6c0,0,0.5-2.2,0.5-2.4C792.8,249.1,790.4,248.7,789.6,249z"/>
	<path fill="#F6F3EB" d="M794.4,250l-0.3,1.7l4.5,0.9l0-0.6C798.7,252,795.4,250.1,794.4,250z"/>
	<polygon fill="#F6F3EB" points="567.2,190.5 568.4,191.6 568.4,192 567.4,191.9 567.4,191.5 566.8,191.5 	"/>
	<polygon fill="#F6F3EB" points="566.1,192.2 566.1,192.5 567.4,192.5 567.4,192.2 	"/>
	<polygon fill="#F6F3EB" points="565.9,193.2 567.4,193.2 567.4,192.9 569.2,192.9 569.7,193.8 569.7,194.1 568.9,194.1 
		565.9,193.5 	"/>
	<polygon fill="#F6F3EB" points="567.8,182.2 570.7,183 570.7,183.2 569.7,183.2 569.7,183.5 568.1,183.5 568.1,182.9 567.8,182.9 	
		"/>
	<rect x="570.4" y="183.8" fill="#F6F3EB" width="0.7" height="0.4"/>
	<polygon fill="#F6F3EB" points="569,184.4 569,185.1 569.7,185.1 569.7,185.4 570,185.4 570,185.1 570.3,185.1 570.3,184.7 
		569.5,184.7 569.5,184.4 	"/>
	<polygon fill="#F6F3EB" points="568.4,185.1 568.4,186.1 569.4,186.1 569.4,185.8 568.7,185.1 	"/>
</g>
<circle fill="#F6F3EB" cx="1130.2" cy="212.2" r="216.2"/>
<circle fill="none" cx="1129.8" cy="212.5" r="202.7"/>
<g>
	<path fill="#262224" d="M1134.6,211.7v0.7l-1.5,2.3c0,0,0.6,0,0.8,0.5l0.3,0.1l0.2-0.1c0,0,0.2-0.7,0.7-0.3c0,0,0.4,0.4,0.2,0.8
		c-0.2,0.5-0.3,0.5-0.3,0.5s-0.4,0.1-0.7-0.4l-0.4,0c0,0-0.2,0.4-0.6,0.4c-0.4-0.1-0.5-0.3-0.5-0.3l-0.2,0.1l-2.7,3.7l1.8,0l0.4,0.4
		l-7.5,10.8l-1.3-0.1l0.4,1.6l-0.6,0.5l0.1,0.5l0.2,0c0,0,0.6-0.3,0.6,0.3c0,0,0,0.4-0.6,0.4l-0.4,0l-0.3-0.2l-0.3-0.8l-0.2,0.2
		l0.1,0.5l0.2,0.1l0.2,0.3l0.2,0l0.2,0.1l-0.1,0.2l-0.2,0.2l-0.4,0l-0.3-0.2l-0.3-0.3l-0.1-0.4l-0.2-0.4l-0.2,0l0.1,0.4l0.1,0.5
		l0,0.4l-0.2,0.1l-0.3,0l-0.5,0l-0.2-0.1v-0.3l0.2-0.2h0.4l-0.1-0.2l-0.3-0.6l-0.6,0l-0.6,0.9l0.2,0.5l0.1,0.1l0.4,0
		c0,0,0.2-0.2,0.3-0.2c0.2,0,0.6-0.2,0.8,0.4c0.2,0.5-0.2,0.8-0.2,0.8s-0.7,0.2-0.8-0.3l-0.3,0l-0.4,0.2l-1.1,0.1l-0.9,0.8l-0.9,0
		l-0.1,0.4l-0.6,0.2l-0.4,0l-1.1-0.5l-12.4,1.3v0.2l0.1,0.1l0,0.3l-0.8,0.1l-1.5-0.6l-2.1,0.4l0,0.4l0,0.2l-0.2,0.2l-0.1,0.2
		l4.1,1.4l-5.4,38h-0.7l-4.2-1.7l0,0.6l6.6,2.6l-5.4,37l-0.7,0.2l-5.4-2.5l0,0.4l5.8,2.6l0.1,0.1l-4.1,28.9l-0.9,7.2l-0.6,0.3
		l-6.3-3l0,0.3l6.2,3.2l0.2,0.2l-6.5,45.8l-0.6,0.2l-33.2-19.3l-0.1-0.2l5.8-43.7l0.8-0.4l4.6,2.5l0.3-0.1l-5.2-2.7l-0.3-0.3
		l4.6-34.2l0.2-0.3l0.4-0.1l5.6,2.5l0.1-0.3l-6-2.7l4.6-35.4l0.5-0.2l4.9,1.9l0.4-0.4l-3.7-1.5l-0.1-0.3l4.7-34.8c0,0-4-0.7-7.3-3.7
		c-3.3-3-5.7-7.6-5.7-7.6s-1.2-1.9-2.5-6.5c0,0-0.2-4.1-0.4-4.5c0,0-0.2-7.2,0.1-9.5c0,0,0.9-3.2,1-3.3l1-3.4l-12.6-15.8l-0.7,1.4
		l-0.6,0.1l-18.6-23.4l0.4-0.6l-0.7,0l-17.5-22.2l0.3-0.5l-0.7-0.1l-21.5-27.3v-0.4l18-36.7h0.6l23,27.1l-0.1,0.6l0.5,0l18.7,22
		l-0.2,0.5l0.7,0.1l19.6,23.1v0.3l-1.4,2.3l0.7,0.1l20.9,24.6l-2.7,4.2l0.1,0.2c0,0,0.8-0.2,1.2,0.5l2.1,0.2v-0.9l21,0.5l0.8,0.3
		l28.5-13.4l0.7,0.1l-0.8-3.1l4.4-2.3l2.8-11.7c0,0,0.4-0.3,0.4,0.1l-2.7,11.4l27.3-12.8h0.6l-0.1-0.4l35.3-16.6l0.5,0.1l2.6,9.1
		l0.4,0.1l0.4,0.1l-0.3-0.6l0.2-0.2l7.1-3.3c0,0,3.6-2.2,7.1-2.3c0,0,5.1-1.1,5.6-1.2c0,0,3.2-0.2,6.1-3.3c0,0,3.9-3.3,3.9-3.6
		c0,0,2.1-2.4,4.9-1.1l7.3,2.7l0.5,0.2c0,0,2.4-0.2,3.2-0.5c0,0,5.1-1.1,5.4-1c0,0,2.8-1.1,4.9-1.2c0,0,4.8-0.8,4.9-0.8
		c0.1,0,6-1.2,6-1.2s9.1-2,9.3-2s7.9-1.5,7.9-1.5s3.7-0.8,4.3-0.6l0.3-0.4l3.1-1.4l0.6-0.3l1.2,3.7l-0.1,0.2l-2.5,0.7l0.3,1.3
		l-0.4,0.9l4,0.8l0.5,3.3l-3.4,1.6l-2.7-3.4l-7.2,5.5l-20.6,14.4l-1.2,1l-1.2,1.1l-1,0.7l-1.1,0.6l-1,0.8l-1.4,1l-4.3,3l-0.3,0.4
		l-0.4,0.6l-3.8,7l-0.4,0.6l-0.5,0.6c0,0-1,1.4-2.9,1.5l-7.4,0.5c0,0-1.4,0-2.4,1.1l-8.4,5.7c0,0-4.9,2.3-5.2,2.3s-7.8,3.2-7.8,3.2
		l-0.7-1.3l0.1,0.6l-0.2,0.1l-0.3,0.1l-0.2,0.3l2.9,9.5l0.1,0.4l-0.4,0.3l-35.5,14.3l-0.8,0.1l-2.7-8.8l2.4,8.8l0,0.3l-0.4,0.3
		l-32.5,12.8l-0.7,0l-2-7.1l1,4.3v0.4l-6.7,2.6l27.1,29.7c0,0,0.3,0.5-0.2,0.4l-27.5-29.8L1134.6,211.7z"/>
	<path fill="#F6F3EB" d="M1263.4,137c0,0-2.1,1.2-3.2-0.1l-1.1-1.3l-1.9-6c0,0-0.6-4,2.3-5.4l20.5-4.5c0,0,1.6-0.4,2,0
		c0,0,0.6,0.8,0.7,1.9c0,0,0.8,1.8-0.5,2.6L1263.4,137z"/>
	<path fill="#F6F3EB" d="M1215.6,135.1c0,0-2.8,2.3-2.6,5.4l5.9,20.5c0,0,1.8,3.5,5.6,1.6l2.3-1.5l5.7-3.8l4.3-3.2
		c0,0,5.1-3.3,4.9-10.4c-0.2-7-3.9-9.8-3.9-9.8s-2.6-3.1-9-2.4C1222.5,132.3,1215.6,135.1,1215.6,135.1z"/>
	<path fill="#F6F3EB" d="M1206.8,136l0.5,0.7l0.8,2.8l0.9,0.9c0,0,0.6,1.1,0.7,1.6l2.5,9.1l-1.5,0.4l-4.4-14.6l0.2-0.3h0.3
		L1206.8,136z"/>
	<path fill="#F6F3EB" d="M1212.8,153.2l2.2,7.1l0.4,1.6c0,0,0.5,1.2-0.1,3l-0.4,0.1l-3.7-11.2L1212.8,153.2z"/>
	<polygon fill="#F6F3EB" points="1215.6,166 1215.4,166.1 1215.2,165.8 1215,165.9 1215.2,168 1215.8,168 1216.1,168.4 	"/>
	<polygon fill="#F6F3EB" points="1090.6,236.2 1092.6,237 1092.3,237.2 1092.2,237.8 1088.2,236.4 	"/>
	<polygon fill="#F6F3EB" points="1084.1,233.9 1084.1,234.9 1076,232.2 1076.3,231.7 1076.1,231.2 1076.2,231.1 	"/>
	<polygon fill="#F6F3EB" points="1073.4,270.1 1073.1,270.5 1079.5,273 1079.7,272.7 	"/>
	<polygon fill="#F6F3EB" points="1081.2,273.2 1080.9,273.5 1088.7,276.8 1089.1,276.5 	"/>
</g>
<circle fill="#F6F3EB" cx="1589.6" cy="220.7" r="216.2"/>
<circle fill="none" cx="1589.3" cy="221" r="202.7"/>
<g>
	<path fill="#262224" d="M1477,245.1l-0.2-1.2l-7.8-24c0,0-2.9-0.7-2.7-8l-1.6,1.7l-2.4-1l-0.8,1.3l-1.3-3.4v-0.8l-1.5-1l-0.1-0.7
		l0.6-0.6l1.6-0.1l0.5-1.4l0.7-1.2l-0.1-2.9c0,0-2.7-20.1,4.9-26.8l1.6-2.8l1.1-3.4l0.7-3.3l1.7-3.6l-0.2-0.6c0,0-2,4.6-7.8,4.3
		l-0.9-2.6c0,0,7.6,0.2,9-6.5l-1.3-3.3l-0.3-1.5l-0.8-1.2v-0.8l1.1-1.2l-0.4-1.3l0.1-3.9c0,0,1-3.5,1.7-4c0,0,0.6-3.2,4.6-5
		c3.9-1.8,7.6,0,7.6,0l4.6,2.2l2.3-7.2l0.5-0.8l1.3,0.2l2.3,1.7l5-6.6l1.3,0.2l4.2-0.3c0,0,3.6-4.7,8-2.5c4.4,2.2,0.9,8.5,0.9,8.5
		s-2.3,4-5.2,4.5l-4,3.9l1.6,2l0.2,0.5l-2.1,5.9l16.9,4.1c0,0-6-13.9-5.9-16.5c0,0-1.2-11.3,6.6-17c0,0,8.4-8,33.7-5.2
		c25.3,2.7,57.6,16.1,57.6,16.1l1.9-1.3c0,0-0.1-2.5,3.5-2.6l25.3-17.2l0.6-0.1l0.6-1.2l3.8-4.5l0.7-0.2l0.2-0.3l0.2-0.4l0.6,0
		l0.8,0.2l4.6-7.3c0,0-1.6-1.3-1.7-1.8c0,0-0.2-0.8,0.5-0.9c0,0,0.8-0.1,1.7,0.2l1.6-1.9l-1.2-2.3c0,0-0.4-0.9,0.6-0.6l2.1,1.2
		l0.3-0.5c0,0-0.5-0.7-0.5-0.9c0-0.2,0.5-0.6,1-0.3l1.8,0.9c0,0,0.9,0.7,0.2,1l-0.6-0.1l-0.3,0.8c0,0,2.8,1.2,2.5,1.8
		c0,0-0.9,0.3-1.3,0.2l-0.7,0.1l-0.9,0.1h-0.5l-0.9,2.2c0,0,1.9,1,1.8,1.7c-0.1,0.7-0.8,0.5-0.8,0.5l-1.2-0.1l-0.3-0.1l-3.7,7.9
		l0.2,0.7l0.4,0.7l-0.2,0.4v1.5l-2.1,5.6l-0.4,28.9c0,0,4.3,4.1,2.2,6l-1.2,1.4l-0.4,1.1c0,0,54.7,31.8,63.3,60.5
		c0,0,8.1,19.3-15,26.1c0,0-20.4,3.8-41.4-0.7l3.3,11l-1.5-7.5l24.9,3.3v2.5l3.7,0.6v-2.6l26.3,3.7l0.1,2.6l9.3,1.4l-2.6,4.6
		c0,0,4,2.6,4.3,6.8l3,0.5l-2.9,0.9c0,0-0.1,7.2-4.2,7.8l3.6,4.4l-10.1-0.8l0.4,6.6l-26.8-2.3l-0.3-6.1l-3.6-0.1l0.4,5.7l-28.4-2.6
		l-0.5,0.4l-0.8,0.9l-15,9.7l-8.8-5.7l-25,21l0.2,1.7l-0.3,1.1l-0.5,1.5l0.6,2.6l-0.7,0.3c0,0,1,1.1,1.5,1.5c0,0,0.9,1.7-0.4,3.1
		l-1.1,1.8l0.5,1.6l-0.3,1.5l-1,0.6l-0.5,0.1l-0.1,2.4l-0.4,0.4l-1.9-0.9l-2,0.2l-0.4,0.5l-0.8,0.4l-1.2-0.9l-2.7-0.1l-0.7,0.4
		l-1.1-0.2l-1.2-0.1h-1.5l-0.9,0.5l-1.3-0.3l-2.2-0.3l-2.1-0.1l-3.5,3.6l-1.2-0.1c0,0-6.6,7.1-9.8,6.2l-0.6,0.4l0.1,1.5l-1.2,0.2
		l-1,0.6l-0.5,3.3c0,0,6.1,14.8-22.2,26.8c0,0-9.1,2.6-18.8,0.9c-9.7-1.7-10.2-11.8-5.9-18.9l-1.7-2.9l-9-0.2c0,0-3.3,0.5-3-7.9
		l-4.6-1.7l-1.5-0.9l-3.3-8.2l-3.4,1.5l-1.4,0.5h-0.9l-1.3-0.8l-1.3-5.9l-2.4-1l-0.1-0.7l0.4-0.9l1.3-0.4l0.8-1.3l0.3-1.7l0.8-0.4
		l0.7-2.3l-0.1-3.5l1.3-0.1l-5-3.6c0,0-6.5,0.2-9-4.2c0,0-4.1-5.3-0.3-11.7c0,0,0.9-0.9,2.1-1.1l-1.5-0.5l2.2-2.4L1479,269l0.2-0.5
		c0,0-1.6-6-8.5-8.5l-1.6-2.9l-0.2-1.6C1468.9,255.5,1473.1,246.3,1477,245.1z"/>
	<path fill="#F6F3EB" d="M1644.1,108l-23.4,16c0,0,11.2,1.5,19.1,6.5l0.8-1.6c0,0-3.6-2.2-3.8-2.9l0.4-0.7c0,0-0.6-1.3,0.7-1.3
		l0.2-0.2c0,0-0.2-1.1,1.4-0.8l4.8-7.7l-1.5-1.4l1.1-3.7L1644.1,108z"/>
	<path fill="#F6F3EB" d="M1642.2,129.2l0.9,0.1l0.4-0.8l0.1-0.3h0.4l0.1-0.4l-0.1-0.5l-0.2-0.3l0.4-0.2l0.2-0.4l-0.1-0.6l-0.2-0.5
		l3.7-8.1l1.7,0l0.5-0.3l0.7-1.2l2-2.7l0.3,0l-0.5,26c0,0-8.5-6.5-11.6-7.8L1642.2,129.2z"/>
</g>
<circle fill="none" cx="1590" cy="221.3" r="154.2"/>
<circle fill="#F6F3EB" cx="2040.7" cy="231.2" r="216.2"/>
<circle fill="none" cx="2040.3" cy="231.5" r="202.7"/>
<circle fill="none" cx="2041" cy="231.8" r="154.2"/>
<g>
	<path fill="#262224" d="M1933.9,404.1l25.3-74.1l-6.5,1l0,0.8l-0.2,0.3l-0.6,0.1l-0.3-3h0.5l0.3,0.8l0.2,0.2l7.3-1.3l1.2-3.8
		l-8.1-2.2l-0.6,0l-0.2,0.8l-0.5-0.3l-0.3-2.7l0.6-0.1l0.4,0.6l0.3,0l10.5-5.5l-1-0.7l-0.2,0.6l-0.6-0.1l-0.2-2.1l0.4-0.4l0.6,0.2
		l0.1,1.1l1.8,1.3l1.4-3.1l-2.1-0.8l-0.3,0.3l-0.4,0.4l-0.5-0.3l0.1-2.1h0.6l0.4,0.5l1.5-0.5l-2.3-2.3l-0.7,0l-0.7-0.2l0.3-1.8
		l0.5-0.3l0.3,0.3l0,0.7l4.7,2.2l1.5-3.3v-10l0.2-1l0.9,0c0,0,0.8-3.8,7.2-4.8l2.1-2.3l-2.7-2.2l-1.6,4.3l-0.4,0.3l-0.6-0.3v-0.4
		l1.9-4.6l-1.4-1.3l-3.9,0l-65.3,99.7l-0.9-0.7l65-98.8l-0.4-0.2h-7.6v-7.4l3.2-1.4l-3.7-3.7l-18.2-0.9v0.8l-1.4,1.5l-2.7-3.9
		l-0.5,1l-0.4,0.6l-1.2,0l-0.3-0.7l1.4-1.6l-3-0.3l-4.7-7.1l0.4-0.8l-30.8-11.2l-0.2,0.7l-0.5,0.6l-0.6,0.1l-1-0.5l-0.6-1.2
		l-0.4-5.6l0.3-0.8h0.9l0.8,0.5l0.4,0.3l27.3-14l-0.1-1.2l5.6-1.8l0-0.7l-35.4-11.3l-0.6,0.6l-0.5,0.4l-1.1-0.7l0.7-0.9l-0.1-0.7
		l1.5-2.6l-0.5-3l10.9-21.4l1,0.1l20.9,9.3l19.8-10.6l0.9-0.8l16.3,0.9l1.9-3.7l-0.3-0.4l-1.8,0l-0.3-0.8l-0.4-0.6l-0.1-0.6l0.5-0.4
		h2.8l0.1-1.6l1.4,0l2.1-3.8l-6.6-18.1l-4.1,2.5l-0.4,0.2l-6.5-2.9l-1-7.1l2.7-1.4l-0.1-4.2l3.8-2.1l0.7,0.3l-6.8-20.3l-1.2-1.1
		l0.1,6l-4,1.4l0.1,2.7l-8,2.5l0,4.9c0,0-0.1,1.9-1.8,2.6l0.4,5.3c0,0-0.7,3.3-3.5,3.8c-2.8,0.5-5.7-0.1-6.5-2.3l0-5.1l-0.6,0
		l-1.6-2.4l-0.1,2.3l-1.6,2.2l-0.1,1.2l-0.9,0.2l-0.3,1.7l-2,1.4l-1.1,0.2l-0.6-0.2l-1.4-1.3l-0.3-0.9l-0.7-0.3l-0.3-0.8l0-1.3
		l-2-2.3l-0.1-4.8l-2.5-3.2l-0.4-3.9l2.4-1.2l0.9-7.7l-1-1.7l-1.2-0.4l-4.2,1.4l0.1,3c0,0,0.7,3.5-1.6,4.7c0,0-1.6,1.3-4.7,0.7
		c0,0-1.9-0.2-2.2-2l-3.7,1.3l-5.4-12.7l-0.7,0.1l-1.5-2.8l-0.7-3.8c0,0-2.7-14.5,15.9-16.1l0.3-0.8l3.6-1.4l0-2l0.5-1.2l1,0
		l0.8,1.2l0.2,1.8l0.6,0.2l2.3,5.3l3-2.2l2.7-0.2l1.3,1.3l7.5-2.3l0.6,0.1l2,3.9h1.8l2.2,4.6l0.1,1.3l0.1,5.5l-1.8,1l0.4,1.8
		l3.1,0.4l1.8-1.3l9-3.1h1.8l2.1,4.5l1.1-1.1l10.2,0.5c0,0,2.6,0.3,2.9,6.4l5.2,14.3l2.2-4.8l-0.9-1l1.1-3.3l1.1-0.3l0.9,0.3
		l0.7,0.4l0.1,1.5l0.7,0.5l0.1,1.6h2l3.2,3.3h1l0.4,1.2l0.5,3.7l0.4,4.9l0,1l-0.2,0.6l-2,1.9l0.2,3.6l0.1,1.1l-0.5,1.1l0.3,0.6
		l5.3,0.2l3.9,5.9l1.2,0.1l1.2,1l1.3-1.5l1.1,0.8l-0.8,1.3l1.3,0.2v4.2l-1.6,0.1l0.9,0.9l-1,1.4l-2.3-1.8l-1,0.7l-1.1,2.9l-5.1,0.1
		l-0.1,0.7l-0.4,0.1l-4-5.6l7.5,23.2l5.6-2c0,0,12.4-27.2,18.4-32.1c6-4.9,19-15.3,32,7s15.7,56.7,14.9,71.6l9.3,3.4l-0.2,0.6
		l0.9-0.1c0,0,0.7-2.5,2.2-2.8c1.5-0.3,1.8,2.5,1.8,2.5s1.5,0.2,1.1,2.2c-0.4,2-0.5,2.3-1.4,2.6c0,0-0.1,1.5-1.1,1.7
		c-0.9,0.3-2.3,0.5-2.9-2.6l-0.8,0.1l-0.1,0.7l-9.4,2.8c0,0-4.3,40.5-9.7,48.4l77.4,43.6h2.1l0.6,1.2l62.7,36.1l0,0h0.1l0,0
		l-6.7,7.1l0,0l0,0l0,0l-139.9-78.4c0,0-5.6,14.8-14.2,20.1c0,0-8.9,8.7-20.2,0.7c-11.3-8.1-16.3-25.9-16.3-25.9l-7.8,7.6l-0.4,11.7
		l-0.2,0.3l-1.2,0v3l1.1,0.4l0.2,0.6v10.5l-1.9,0.7l0.5,0.4v1.9l0.8,0.5v4.5c0,0,4.3,2.6,2.6,7.5c-1.7,4.9-5.1,6.5-10.3,7.5
		c-5.1,0.9-11.3-3.4-11.7-4.6c0,0-2.5-3.2-1.3-7.1c0,0,0.5-2.9,3.4-4.3v-2.7l-8.1,1.8l-25.5,74.7"/>
	<g>
		<polygon fill="#F6F3EB" points="1953.6,118.4 1956.7,118.5 1954.7,122 		"/>
		<polygon fill="#F6F3EB" points="1964.8,116.4 1962.3,118.8 1963.2,121.6 1965.5,117.8 		"/>
		<polygon fill="#F6F3EB" points="1959.2,119.5 1960.1,122.5 1962.4,122.8 1962.2,122 		"/>
		<polygon fill="#F6F3EB" points="1958.6,121 1958.5,122.4 1959,122.4 		"/>
		<polygon fill="#F6F3EB" points="1957.3,120.1 1957.2,122.4 1955.6,122.3 		"/>
		<polygon fill="#F6F3EB" points="1955.1,123.5 1957.3,123.6 1957.3,129.9 		"/>
		<polygon fill="#F6F3EB" points="1958.4,123.5 1958.4,130.8 1960.8,126.6 1959.7,123.5 		"/>
		<polygon fill="#F6F3EB" points="1960.6,123.7 1961.2,125.7 1962.3,123.7 		"/>
		<polygon fill="#F6F3EB" points="1966,118.7 1963.9,122.5 1968.4,125.9 		"/>
		<polygon fill="#F6F3EB" points="1963,124.1 1961.9,125.9 1963.6,126.2 		"/>
		<polygon fill="#F6F3EB" points="1963.9,124 1964.6,126.4 1967.3,126.4 		"/>
		<polygon fill="#F6F3EB" points="1961.8,126.8 1963.7,126.8 1964.5,129.1 		"/>
		<polygon fill="#F6F3EB" points="1964.8,127 1966.1,130.7 1968.1,127.5 1967.8,127 		"/>
		<polygon fill="#F6F3EB" points="1968.9,127.5 1966.7,131.7 1968.7,133 1970.2,130 		"/>
		<polygon fill="#F6F3EB" points="1962,127.9 1962.2,130.2 1963.2,132 1965.3,132.2 1965.5,131.4 		"/>
		<polygon fill="#F6F3EB" points="1961,127.9 1961.1,131.9 1958.7,131.6 		"/>
		<polygon fill="#F6F3EB" points="1958.3,132.6 1961.1,132.8 1961,139.6 1960.6,139.6 		"/>
		<polygon fill="#F6F3EB" points="1961.8,132.8 1962.7,132.8 1963.3,133.9 1963.6,136.1 1961.9,139.4 		"/>
		<polygon fill="#F6F3EB" points="1963.4,132.8 1964.3,134.6 1965.1,133.2 1964.8,132.9 		"/>
		<polygon fill="#F6F3EB" points="1966.1,133.3 1965.2,134.7 1966.6,135 		"/>
		<polygon fill="#F6F3EB" points="1967.3,133.8 1967.5,134.9 1968.3,134.9 1968.3,133.9 		"/>
		<polygon fill="#F6F3EB" points="1965.3,135.7 1966.6,135.9 1967.1,136.5 1967.1,137.1 		"/>
		<polygon fill="#F6F3EB" points="1968.2,136 1969.4,139.8 1969.5,138.9 1968.5,135.9 		"/>
		<polygon fill="#F6F3EB" points="1964.1,137.7 1964.3,142.1 1962.1,141.7 		"/>
		<polygon fill="#F6F3EB" points="1964.9,139.6 1964.9,142.1 1966.1,142.2 		"/>
		<polygon fill="#F6F3EB" points="1964.7,136.3 1966.5,142.3 1969.3,142.5 1968.1,139.3 1967,138.2 		"/>
		<polygon fill="#F6F3EB" points="1962.3,142.8 1962.6,144 1964.3,144.4 1964.2,143 		"/>
		<polygon fill="#F6F3EB" points="1964.8,143.1 1965.1,144.9 1965.6,145.3 1965.9,148.8 1967.3,146.9 1967.2,145.3 1966.2,143.1 		
			"/>
		<polygon fill="#F6F3EB" points="1967.1,143.2 1967.5,145.3 1968.7,143.8 1968.5,143.2 		"/>
		<polygon fill="#F6F3EB" points="1979.7,148.8 1979.8,150.1 1978.7,152.6 1977.2,148.7 		"/>
		<polygon fill="#F6F3EB" points="1969.7,144 1970.3,145.8 1968.5,145.7 		"/>
		<polygon fill="#F6F3EB" points="1971.5,146.3 1973.2,151.4 1975.5,147.6 		"/>
		<polygon fill="#F6F3EB" points="1968.2,146.5 1970.5,146.5 1971.5,149 		"/>
		<polygon fill="#F6F3EB" points="1968.7,147.8 1971.1,149.5 1972.4,151.8 1969.7,151.8 		"/>
		<polygon fill="#F6F3EB" points="1968.5,150.3 1968.5,151.6 1969.1,151.7 		"/>
		<polygon fill="#F6F3EB" points="1967.3,148.6 1967.3,151.6 1965.6,151.5 		"/>
		<polygon fill="#F6F3EB" points="1965.2,152.6 1967.3,152.5 1967.3,158.9 		"/>
		<polygon fill="#F6F3EB" points="1968.5,152.5 1968.4,159.9 1970.5,156.6 1970.5,155.5 1969.3,152.4 		"/>
		<polygon fill="#F6F3EB" points="1970.3,152.6 1971.1,155.1 1972.4,153.4 1972.1,152.8 		"/>
		<polygon fill="#F6F3EB" points="1976.2,148.4 1974,151.9 1978.5,155.2 1978.5,153.6 		"/>
		<polygon fill="#F6F3EB" points="1974,153.6 1974.8,156.6 1978.1,156.6 		"/>
		<polygon fill="#F6F3EB" points="1973,153.7 1974,156.3 1971.6,156.4 		"/>
		<polygon fill="#F6F3EB" points="1973.1,157.2 1974.4,158.3 1974.2,157.2 		"/>
		<polygon fill="#F6F3EB" points="1975.3,157.4 1976.1,160.2 1977.9,157.8 1977.8,157.5 		"/>
		<polygon fill="#F6F3EB" points="1971.9,157.3 1975.3,160.4 1975.6,161.6 1973,161.6 		"/>
		<polygon fill="#F6F3EB" points="1971.7,159.5 1971.7,161.3 1972.4,161.3 		"/>
		<polygon fill="#F6F3EB" points="1970.9,157.8 1970.7,161.2 1968.8,161.1 		"/>
		<polygon fill="#F6F3EB" points="1979.4,157.4 1976.9,160.9 1981.7,164.8 		"/>
		<polygon fill="#F6F3EB" points="1976.9,162.7 1977.8,165.6 1980.8,165.6 		"/>
		<polygon fill="#F6F3EB" points="1976.1,163.1 1974.9,165.1 1976.9,165.2 		"/>
		<polygon fill="#F6F3EB" points="1973.5,162.1 1974.3,164.2 1975.7,162.3 		"/>
		<polygon fill="#F6F3EB" points="1971.8,162 1971.7,169.2 1973.6,166.2 1973.8,164.8 1972.6,162.1 		"/>
		<polygon fill="#F6F3EB" points="1968.3,161.9 1970.8,168.9 1971,161.9 		"/>
		<polygon fill="#F6F3EB" points="1975.8,165.9 1977.6,167.6 1977.3,165.9 		"/>
		<polygon fill="#F6F3EB" points="1978.2,166.2 1979.5,170 1981.6,166.4 		"/>
		<polygon fill="#F6F3EB" points="1982.4,166.7 1980.4,170.6 1984.9,174.4 1984.9,173.4 		"/>
		<polygon fill="#F6F3EB" points="1974.8,166.1 1976.5,171.1 1978.8,171.3 1978.6,170.3 		"/>
		<polygon fill="#F6F3EB" points="1974.7,168.4 1974.6,171 1975.6,171.2 		"/>
		<polygon fill="#F6F3EB" points="1973.8,167.9 1973.8,171 1971.9,170.9 		"/>
		<polygon fill="#F6F3EB" points="1976.7,172 1977.6,174.2 1978.5,172 		"/>
		<polygon fill="#F6F3EB" points="1979.3,172.5 1980.1,175 1978.2,175 		"/>
		<polygon fill="#F6F3EB" points="1980.6,172.9 1981.1,175.2 1984.2,175.2 		"/>
		<polygon fill="#F6F3EB" points="1981.3,175.9 1982.2,179.1 1983.3,179.6 1985,176.1 		"/>
		<polygon fill="#F6F3EB" points="1985.7,176.3 1987.2,181.4 1985.8,182.2 1983.7,180.1 		"/>
		<polygon fill="#F6F3EB" points="1978.5,175.7 1980.3,175.8 1981,176.8 1980.8,177.9 		"/>
		<polygon fill="#F6F3EB" points="1974.5,171.9 1976,172.1 1977,174.8 1974.7,179.5 		"/>
		<polygon fill="#F6F3EB" points="1972.1,171.9 1973.8,171.8 1973.9,177.4 		"/>
		<polygon fill="#F6F3EB" points="1977.1,177.1 1975.3,180.4 1977.3,180.7 		"/>
		<polygon fill="#F6F3EB" points="1978,178.8 1978,180.8 1979,181 		"/>
		<polygon fill="#F6F3EB" points="1978.5,176.7 1979.8,181.1 1981.9,181.1 1981.7,179.4 		"/>
		<polygon fill="#F6F3EB" points="1982.7,183 1981.7,184.5 1982.6,184.6 1983,184 		"/>
		<polygon fill="#F6F3EB" points="1980.1,181.9 1981,184.1 1981.9,182.5 1981.8,181.9 		"/>
		<polygon fill="#F6F3EB" points="1978.2,181.6 1979.3,181.7 1980.4,184.5 1980.1,185.1 1978.2,185.8 		"/>
		<polygon fill="#F6F3EB" points="1977.3,181.6 1975.1,181.3 1976.7,185.1 1977.3,185.1 		"/>
		<polygon fill="#F6F3EB" points="1971.1,172.6 1969.4,176 1970.1,183.3 1970.8,184.2 1974.9,184.5 		"/>
		<polygon fill="#F6F3EB" points="1967.6,180.3 1965.9,183.2 1968,183.3 		"/>
		<polygon fill="#F6F3EB" points="1947.1,184.6 1928.8,194.1 1931.6,195.5 1946.7,185.4 		"/>
		<polygon fill="#F6F3EB" points="1942.5,189.7 1930.7,197.3 1921.3,216.5 1921,216.7 1921,219.3 1932.1,222.8 1937.1,197.2 		"/>
		<polygon fill="#F6F3EB" points="1896.6,206.8 1896.9,209.5 1899.7,208.1 		"/>
		<polygon fill="#F6F3EB" points="1901.1,208.6 1897,210.6 1897.2,212.1 1919.8,219.2 1919.8,216.2 		"/>
		<polygon fill="#F6F3EB" points="1926.1,229.2 1899.3,243.2 1899.2,245.7 1900.2,246.4 1930.9,257.6 1932.9,254.6 1930.6,253.3 
			1928.8,254.5 1928.3,252.4 1912.1,244.6 1911.5,245 1910.8,244.9 1910.4,243.6 1911.9,239.5 1912.8,239.1 1913.3,239.3 
			1913.3,240 1926.5,235.1 		"/>
		<polygon fill="#F6F3EB" points="1926.5,236.3 1913,241.5 1912.3,243 1912.8,243.9 1928.2,251.3 		"/>
		<path fill="#F6F3EB" d="M1982.4,276.2c0,0,4.3,2,5.8,2.1l-6.8,6.5l-1.5-3.7l0.6-0.5l1-0.1l1-0.7L1982.4,276.2z"/>
		<polygon fill="#F6F3EB" points="1979.2,281.3 1977.5,281.7 1976.9,282.5 1976.6,283.9 1979.4,286.4 1980.8,285.4 		"/>
		<polygon fill="#F6F3EB" points="1980.7,286.9 1981.3,288.3 1978.4,288.8 1980.4,286.8 		"/>
		<path fill="#F6F3EB" d="M1989.4,278.5l-7.9,7.1l1.1,2.4l10.2-2.4c0,0-2.9-6.8-2.9-7S1989.4,278.5,1989.4,278.5z"/>
		<polygon fill="#F6F3EB" points="1993.2,286.5 1982.7,288.7 1984.1,292.5 1993,287 		"/>
		<polygon fill="#F6F3EB" points="1993.6,288 1994.3,289.1 1991.3,291.5 		"/>
		<polygon fill="#F6F3EB" points="1991.3,289.4 1986.5,296.7 1985.5,296.8 1984.2,293.6 		"/>
		<polygon fill="#F6F3EB" points="1969.1,306 1968.1,308.2 1969.5,309.1 		"/>
		<polygon fill="#F6F3EB" points="1963.9,307.6 1966.8,308.9 1966.4,309.9 		"/>
		<polygon fill="#F6F3EB" points="1964.1,310.9 1966.1,310.4 1965.9,311.4 		"/>
		<polygon fill="#F6F3EB" points="1967.4,310.1 1967.3,311.1 1968.8,311.8 1968.9,310.4 		"/>
		<polygon fill="#F6F3EB" points="1968.7,313.3 1968.7,312.8 1966.5,312.4 1966.1,314.4 		"/>
		<polygon fill="#F6F3EB" points="1968.9,314.4 1968.7,317.5 1965.3,315.9 		"/>
		<polygon fill="#F6F3EB" points="1964.1,316.6 1953.7,321.4 1953.7,322.2 1961.5,324.2 		"/>
		<polygon fill="#F6F3EB" points="1965.2,316.6 1968.7,318.6 1968.7,321.7 1969.6,322.9 1969.5,324.6 1968.7,325 1968.5,326.1 
			1962.3,324.5 		"/>
		<polygon fill="#F6F3EB" points="1962.2,325.4 1961,328.4 1968.2,327 		"/>
		<polygon fill="#F6F3EB" points="2057.2,291.3 2048.8,286.2 2047.7,289.2 		"/>
		<polygon fill="#F6F3EB" points="2047.4,290 2053,295.9 2049.5,294.5 2046.7,291.9 		"/>
		<polygon fill="#F6F3EB" points="2046.5,292.5 2047.6,293.6 2046.1,293.2 		"/>
		<polygon fill="#F6F3EB" points="2046,293.8 2045.7,294.3 2053.3,298.5 2051.9,296.8 		"/>
		<polygon fill="#F6F3EB" points="2052.8,297 2054.6,299.1 2055,298.8 2055,298 		"/>
		<path fill="#F6F3EB" d="M2048.2,290l6.8,6.8c0,0,1.3-3.6,3-4.4l-0.2-0.3L2048.2,290z"/>
		<path fill="#F6F3EB" d="M2058.6,293.3c0,0-2.2,0.9-2.9,4l1.2,0.7c0,0,1.9-2.1,1.9-2.6S2059,294.3,2058.6,293.3z"/>
		<polygon fill="#F6F3EB" points="2057.3,299.1 2056.2,299.8 2063.6,301.9 2057.8,299.1 		"/>
		<path fill="#F6F3EB" d="M2060,292.9c0,0-0.6,4-2,5.2l13.7,5L2060,292.9z"/>
		<polygon fill="#F6F3EB" points="2062.3,294 2073.4,303.9 2090.5,309.7 		"/>
		<polygon fill="#F6F3EB" points="2058.7,301.3 2088.3,318 2088.1,317.3 2078.4,308.7 2076.9,307.6 2073.6,306.3 2068.1,304.2 
			2060.9,301.9 		"/>
		<polygon fill="#F6F3EB" points="2073.7,305.1 2073.6,304.7 2066.3,302 		"/>
		<polygon fill="#F6F3EB" points="2075.3,305.2 2075.4,305.8 2080.8,307.2 		"/>
		<polygon fill="#F6F3EB" points="2078.6,307.5 2092.1,311.3 2092.1,311.6 2090.7,313 		"/>
		<polygon fill="#F6F3EB" points="2079.9,309.3 2090,313.9 2089.4,315.3 2089,317.4 		"/>
		<path fill="#F6F3EB" d="M2090.8,314.2l1.6,1.2c0,0-1,1.8-2.1,1.9C2090.3,317.2,2089.9,314.8,2090.8,314.2z"/>
		<polygon fill="#F6F3EB" points="2091.2,313.1 2092.6,312.1 2093.3,312.4 2093.1,314.2 		"/>
		<path fill="#F6F3EB" d="M2094.2,312.2c0,0,0.2,1.7-0.5,2.3c-0.8,0.5,6.8,3.2,6.8,3.2l-5.9-5.3L2094.2,312.2z"/>
		<polygon fill="#F6F3EB" points="2093.2,315.8 2090.1,318.5 2101.4,321.9 		"/>
		<polygon fill="#F6F3EB" points="2095.3,316.4 2104.1,320.4 2108.3,324 2105,323.4 		"/>
		<polygon fill="#F6F3EB" points="2097.2,313.5 2097.8,313.5 2120.3,326.2 2119.5,326.1 2107.8,321.2 2103.9,319.6 		"/>
		<polygon fill="#F6F3EB" points="2106.9,321.5 2123.9,329.2 2110.7,325.3 		"/>
		<polygon fill="#F6F3EB" points="2091.1,319.5 2102.7,322.8 2104.6,323.8 2121.8,336.3 2122.2,336.7 2091.6,320 		"/>
		<polygon fill="#F6F3EB" points="2106.3,324.3 2109.8,325.1 2118.7,333.2 		"/>
		<path fill="#F6F3EB" d="M2111.7,326l14.1,4.4c0,0-2.4,4.3-2.6,5.6L2111.7,326z"/>
		<path fill="#F6F3EB" d="M2126.5,330.8l1.5,0c0,0-1.3,5.2-3.6,5.2C2124.3,336,2125.4,331.5,2126.5,330.8z"/>
		<path fill="#F6F3EB" d="M2129.1,331.4l11.8,10.8l-16.3-4.7C2124.5,337.5,2129.3,333.3,2129.1,331.4z"/>
		<polygon fill="#F6F3EB" points="2129.4,339.4 2142.3,343.5 2143.8,345 		"/>
		<polygon fill="#F6F3EB" points="2132.5,333.8 2143,343.3 2151.3,345.6 		"/>
		<polygon fill="#F6F3EB" points="2151.1,344.3 2156,347.4 2156.9,347.3 		"/>
		<polygon fill="#F6F3EB" points="2157.4,348.4 2159.6,348.9 2160.3,349.3 2159.5,349.6 		"/>
		<polygon fill="#F6F3EB" points="2160.8,350 2160.7,350.6 2161.4,350.7 2161.4,350.1 		"/>
		<polygon fill="#F6F3EB" points="2144,344.1 2146.3,346.2 2159,350.7 2153.3,346.8 		"/>
		<polygon fill="#F6F3EB" points="2147.7,347.3 2156.7,355.5 2158.4,351.5 		"/>
		<polygon fill="#F6F3EB" points="2127.3,339.6 2155.2,355.2 2146.1,346.6 		"/>
		<path fill="#F6F3EB" d="M2159.1,351.6l0.9-0.2l1,1c0,0-1.1,2.2-2.7,2.6C2158.3,355,2158.2,352.3,2159.1,351.6z"/>
		<polygon fill="#F6F3EB" points="2162.6,351.7 2162.8,351.2 2164.2,352.7 		"/>
		<polygon fill="#F6F3EB" points="2162.2,352.5 2169.8,357.3 2175.6,362.2 2158,356.6 		"/>
		<polygon fill="#F6F3EB" points="2164.7,352 2169.8,356.7 2176,360.4 2180.1,363.3 2183,364.8 2191.3,367.4 2190.7,366.8 		"/>
		<polygon fill="#F6F3EB" points="2175.7,361.3 2177,362.8 2178.8,363.1 		"/>
		<polygon fill="#F6F3EB" points="2179.1,364.2 2180.2,364.2 2191,371.2 2185.1,369 2182.7,367.5 		"/>
		<polygon fill="#F6F3EB" points="2163.6,359.1 2176.8,363.2 2181.1,366.9 		"/>
		<polygon fill="#F6F3EB" points="2164.3,360.1 2182.8,368.2 2189.6,374.4 2189,374.3 		"/>
		<path fill="#F6F3EB" d="M2185.1,366.1l8.8,2.9c0,0-1.8,1.9-1.8,2.1C2192.1,371.2,2185.1,366.1,2185.1,366.1z"/>
		<path fill="#F6F3EB" d="M2191.7,372.3c0,0-0.5,1.7-0.4,2.1c0,0.4-5.6-4.6-5.6-4.6L2191.7,372.3z"/>
	</g>
</g>
<circle fill="#F6F3EB" cx="216.2" cy="216.2" r="216.2"/>
<circle fill="none" cx="215.8" cy="216.5" r="202.7"/>
<circle fill="none" cx="216.5" cy="216.8" r="154.2"/>
<polygon fill="#F6F3EB" points="328.6,201.8 329,202.5 329.1,201.8 "/>
<polygon fill="#F6F3EB" points="330.6,201.4 330.2,203 331.1,203.2 336.9,200.5 "/>
<polygon fill="#F6F3EB" points="336.3,202.4 341.4,201.7 341.3,200.3 339.8,200.2 338.7,200.5 "/>
<polygon fill="#F6F3EB" points="342.2,200.1 342.2,201.7 344.2,201.3 344.2,201 342.6,200.1 "/>
<polygon fill="#F6F3EB" points="339.1,193.8 340.8,198 342.3,197.8 342.3,197.4 "/>
<polygon fill="#F6F3EB" points="367,195.7 366.2,197.5 364.3,197 365.2,195.9 "/>
<polygon fill="#F6F3EB" points="368.1,195.3 367.5,197.3 369.3,196.7 369.5,195.1 "/>
<polygon fill="#F6F3EB" points="367.9,198.5 369.6,199.3 369.3,198 "/>
<circle fill="#F6F3EB" cx="2498.1" cy="232.9" r="216.2"/>
<circle fill="none" cx="2497.8" cy="233.2" r="202.7"/>
<circle fill="none" cx="2498.4" cy="233.6" r="154.2"/>
<path fill="#262224" d="M2331.8,350.3l43.6-25.4c0,0-6.7-4.4-6.8-10.3c0,0-0.7-6.4,5.3-9.2c0,0,4.4-1,6.5,1.6l4.4-1.3l0.6-1.4
	l0.5-0.3l1.3,0.1l0.9-0.7v-0.7l25-6.6l4.5-6.6l0.9-0.7l0.1-0.6l8.4-7.9l0.1-2.3l1.3,0.5l1.4-9.3l-2.4-2.3h-0.5c0,0-2.8-1-2.8-4.2
	c0,0,1.3-7.1,7.7-7.8l0.5-3.4l0.2-1.2l-0.1-1.1l0.1-1.1l0.4-1.5l1.3,0l1.6,0.5l-0.1,1.3l1.2,0.3l0.7,0.3l-0.1,0.4l-0.6,0.2l-0.5,0.3
	l0.7,0.1l2.5,0.4l2.8,0.5l2.4,0.1l0-5.1c0,0-41.4-12.3-53.9-30.1c0,0-5.8-17.5,73.9-22.8l3.8-9.5l-0.6-0.3l-0.2-1.3l0.6-0.6l2.1-0.3
	l0.3-0.1c0,0,1.4-2.1,13.8-2.9l0.3-3.2l0.7-0.6l0-0.4l-0.6-0.3l-0.1-0.7l1.5-0.7l0.9-0.2l0.7,0l0.9,0.3l0.6,0.4l0.2,0.3v0.7
	l-0.9,0.1v0.4l0.7,0.5l0.2,0.3l0.5,3c0,0,6.3,0,9.7,1.5h2.6l1,0.5l0.1,1c0,0,1.9,1.3,2.1,2.1v1.5l-0.1,0.7l5.4,7.5
	c0,0,50.8,3.9,62.4,10.7c0,0,25.2,8.3,7.5,19.2l4.9-0.7l0.1-0.4l2-0.3l3.4-4.8l-1.4-4.4l0-0.9l-0.8-0.1v-1.7l0.1-2.5l-0.3-2l0-2
	l-0.9-2.6c0,0,3.9-3.4,5.5-3.3l1.2,0.3l5.2-0.1c0,0,1.2-0.7,1.9-0.1l1.7,0.1l4.6,0l2.4-0.7l2,2l0.1,0.2l-1,3l-0.2,2.5l-0.1,2
	l0.3,1.9l0,1.5l-0.1,1.1l-0.5,1.2l-0.2,0.9l1.5,1.4l0.4,0.9l0,1.7v0.8l7-1.1c0,0,1.5-1.3,2.3-1.3l-2.8-6.7l-0.8,0.1l-0.7-1.9
	l-0.8-0.2l11.1-4.8l6.3-1.8l4.6-0.2l7.2,1.1l2,0.8l0.6-0.1l1.3,1.1l4.1,1.8l0.4,2.5c0,0-0.1,1.6-0.5,2l8.2-1.3l0.9-0.1l-0.4-9.9
	c0,0,1.3-1.1,3.5-0.4l0.9,10.4l4.2,0.6l0.6,0.3l0.8,4.7l0.2,2.8l0.5,7.5l-0.2,0.5l-2.2,1.5l-1.8,0.5l0.9,13.4l6.3-1.9l2.1-1l8.1-0.4
	l3.4,3.9l0.1,2.7l-0.4,1.4l3.5,3.4l3,0.7c0,0,1.6-0.1,1.3,2.8v1.6l0.4,1.2l-0.3,4.3l-0.8,0.7l-2.7,0.9l0.7,2.6l2.6-0.3l0.2,0
	l0.1,2.8c0,0-0.2,8.6-9,11.5l-9,3.5c0,0-19.8,5.9-21.5-13.8l-2.9,0.8c0,0,1.1-2,1.1-2.7c0,0-4.2,1-4.5-3.5l-4,0.7
	c0,0-0.7-1.3,0.3-2.7l-0.3-0.3c0,0-2.7,0-3.2,0.3c0,0-6.1,1.3-7.7-3.9c0,0-1.7-3.6,1.3-7l0.1-2.1l0.7-1.6l0.1-2.5l2.2-2.1
	c0,0-0.2-2.2,1.8-3l1-0.6l2.8-1.5l0.9-0.1l2.7-1.3l2.8-0.4l2.1-0.6l8.4-0.3l-0.3-4.4c0,0-7.3,0.6-9-0.8l-3.2,1l-0.3,0.3l-0.9,0.2
	l-2.4,0l-15.4,2.1l-0.5,0.4l-2,0.2l-2.3,0l-15.6,2.5l-0.1,0.8l-4,10.8l1.8,0.8l0,2.4v2.6l0.2,1.2l-1.7,2l-2.6,0.6l0,0.8l-0.7,0.9
	l-2.4,0.9l-4.8-1.9l-3.1-1.4l-1.7-1.1l-0.4-0.6l0.8-1.7l0.1-1.4l1.4-3.5l0.5-2.5l0.5-1.4l-2.3-2.6l-1.2,5.1l0,0.4l-0.1,0.3l-0.2,0.1
	v0.7l-0.5,0.1l-0.1-0.7l-0.3-0.3l-0.1-0.5l0.1-0.4l-2.4-7.7l-16.8,2.7l-19.6,14.8l0.2,0.3l-2.1,1.4h-0.4l-0.1,0.3l-1.7,1.3l-0.9,0.1
	l-13.2,9.8l-0.7,3.7l-0.5,1.2l-0.3,1.6l1.4,0.6l1-0.7l3.6-0.5l0.9,0.2l1.4,0.4l0.3,1.3l0.4,0.3l-0.2,0.4l-0.2,0.3l0.2,2.9l0.1,2.6
	l-0.2,4.4l-5.3,1.3l0.2,7.1l0.5,0.8h6.8l0.7,0.1l0.1,0.4l-0.4,0.4l-11.9,3.7l0.5,4.4l0,0.9l-0.1,0.7l-0.2,0.7l-1.1,0.8l-0.6,1.3
	l0.7,0.8l0.1,0.5l-1.2,3.2l-0.1,0.9l-0.1,0.7l-0.3,1.1l16.1,24.4l-0.3,0.4l-10.2,0.1l-16.4,7.9l0,4l-4.3,0.1l-4.6,0l-0.2-0.2v-0.9
	l-0.8,0l-2,0l-0.4,0.3l-0.6,0l-1.1-0.3l-2.1-0.2l-0.6-0.1l-0.6-1.8l-0.2-3.9l0.3-0.3l2,0l-0.8-1.2l-0.2,0.2h-0.4l-0.3-0.3l-0.3-0.7
	l-12.9-28.7l-12.5,30.1l-0.4,0.4l-0.9-0.1l-0.7,1.3h2.6l0.2,1.5l-0.1,2.3l-0.5,2.6l-2.1,0.4l-2.3-0.1l-1.4-0.3l-0.9,0.2l-2.6-0.1
	l-0.4-0.9l-3.6-0.1l-0.3-5.9l2.9-0.2l-0.4-0.8l-0.9-0.1l-0.7-0.4l-0.3-0.9l-2.4-5.3l4.1,48.5h-1.1l-4.2-50.2l-10.9-25.4l-0.3-0.9
	l1-0.9l-0.7-1.6l-1-0.4l-0.8-1.3l0.7-4.9l-1.1-0.9h-1.8l-0.9-1l-0.3-1.6l-2.1-0.1l-2.7-0.6l-7.7-1.7l-6.6,3.7l-6,9.7
	c0,0-0.1,4.3-5.4,3.8l-6.5,1.9l-1.5,17.2l-0.1,0.6l-0.3,0.4l-0.4-0.3l-8.9-13.5l-0.2,0.3l0.9,11.8l-0.1,0.4l-0.5-0.1l-0.8-7.6
	l-1.1-0.6l-3.3,7.9l-0.7,1.3l-0.2,0.4h-0.4l-0.6-1.4l0.2-0.7l-2.2-8.2l-0.5,0.2l-0.1,0.4l-0.5,0.7l-0.3,0.2l-0.6,6.6l-0.1,0.3
	l-0.2,0.4l-0.4-0.2l0.5-6.1c0,0-2.1,2.1-5.8,1.7l-44.3,26"/>
<polygon fill="#F6F3EB" points="2469.5,186.4 2467,192.8 2470.4,192.6 "/>
<path fill="#F6F3EB" d="M2471.5,187.4l1,5.1l15.5-0.4l0.1-0.2l-3.4-0.1C2484.6,191.8,2474.1,189.9,2471.5,187.4z"/>
<polygon fill="#F6F3EB" points="2490,192.1 2490.4,191.9 2491.7,191.6 2492.2,192.1 "/>
<path fill="#F6F3EB" d="M2493.5,191.4l0.9,0.8l0.7-1.2C2495,191,2493.9,191.4,2493.5,191.4z"/>
<path fill="#F6F3EB" d="M2496.3,192.3l1.3-2.2c0,0,5.8-1.8,7.1-3.4l4.2,5.9C2508.8,192.6,2496.6,192.2,2496.3,192.3z"/>
<polygon fill="#F6F3EB" points="2433.1,250.5 2433.5,250.5 2433.6,252.3 2432.6,254.4 2432.8,251.7 "/>
<polygon fill="#F6F3EB" points="2433.6,253.7 2433.1,254.8 2433.6,254.9 "/>
<path fill="#F6F3EB" d="M2434.4,251.8l-0.3,3.3c0,0,1.4,0.8,1.8,1.9l0.8,0.7l7.3-5.6l-9-1.3L2434.4,251.8z"/>
<polygon fill="#F6F3EB" points="2442.8,254.5 2437.8,258.5 2440.3,259.9 "/>
<polygon fill="#F6F3EB" points="2444.3,255.7 2442,261.9 2443.5,263.2 2444.8,262.4 "/>
<polygon fill="#F6F3EB" points="2446.3,260.9 2448.5,260.6 2447.6,259.3 2447.5,258.7 2447.4,257.8 2447.3,257.3 2446.8,255.4 
	2446.1,254.9 "/>
<polygon fill="#F6F3EB" points="2447.6,255.6 2448.6,256 2454,259.9 2455.1,262.7 2452.5,270.1 2446.7,265.4 2446.5,264 
	2448.6,263.8 2450,263.7 2450.1,262.9 2450.3,262.6 2449.9,261.1 2449.3,260.7 2448.8,260.1 2448.2,259.3 2448.2,258.8 
	2448.1,257.4 2447.9,256.5 "/>
<polygon fill="#F6F3EB" points="2456.5,265.8 2454.9,270.8 2458.5,270.1 "/>
<polygon fill="#F6F3EB" points="2457.8,262.7 2460.6,269.2 2462.6,268.5 2460.6,264.5 "/>
<polygon fill="#F6F3EB" points="2458.2,261.2 2458.9,261.3 2458.6,260.7 "/>
<polygon fill="#F6F3EB" points="2457.1,258.2 2456,259 2455.4,258.2 "/>
<polygon fill="#F6F3EB" points="2459.8,258.6 2463.4,264.8 2466.6,267 2471,259.5 2462.1,258.8 "/>
<polygon fill="#F6F3EB" points="2474,259.6 2470.8,265.2 2471.3,265.3 2472.6,264.7 2482.2,260.1 "/>
<polygon fill="#F6F3EB" points="2497.1,260 2500.2,259.8 2503.2,259.7 2504,259.6 2502,262.2 2500.3,261.5 2498.4,260.9 
	2497.2,260.4 "/>
<path fill="#F6F3EB" d="M2522.6,257.4l-1.1,12.9l-12-0.7l-1.5-1.2l0-0.9l-1.6-0.2l-2.3-2.8l4-4.9
	C2508,259.4,2520.8,258.4,2522.6,257.4z"/>
<polygon fill="#F6F3EB" points="2529.3,256.1 2530.6,255.7 2530.3,257 "/>
<polygon fill="#F6F3EB" points="2527.5,261.1 2528,262.5 2525.7,269.1 2525.4,270.4 2524.3,270.4 2524.6,267.8 "/>
<polygon fill="#F6F3EB" points="2532.1,259.1 2531.7,263 2531.2,265 2530.8,263 "/>
<polygon fill="#F6F3EB" points="2534.7,263.6 2535.1,260.4 2538.9,244.4 2545.5,241.9 2546.1,242.1 2547.1,242.1 2548,241.9 
	2549.4,241.6 2550.4,241.4 2563.7,239.5 2568.8,238.5 2569,238.5 2550.8,252 2550.2,251.7 2548.3,253.1 2548.1,253.4 2547.6,253.5 
	2546,254.9 2546,255.5 "/>
<polygon fill="#F6F3EB" points="2526.6,306.6 2525.3,309 2526,309.3 2527.1,307.5 2528.1,307 2528.4,306.2 "/>
<polygon fill="#F6F3EB" points="2522.7,304.2 2522.7,301.2 2523.5,300.8 "/>
<polygon fill="#F6F3EB" points="2475.2,333.1 2483.5,311.5 2483.7,310.8 2483,310.3 2483.6,308.8 2485.5,308.9 "/>
<path fill="#F6F3EB" d="M2470.4,301.6c0,0-2.2,3-2,4l0.9,1.4v0.6l-0.4,0.4l-0.9,0.3l-7.6,0.4l-1.5,0.2l-0.5-0.1l0.4,6.5l10.2,22.3
	l11.1-28.1l1-0.2l0.3-0.3l-1.7-0.5l-0.1-2.1l0.7-4.4L2470.4,301.6z"/>
<polygon fill="#F6F3EB" points="2495.3,304.3 2491.2,304.4 2490.4,306.6 2490.8,307.2 2490.9,307.8 2490.5,309.1 2505,341.4 
	2505.1,342.2 2504.4,342.8 2505.5,344.9 2506.7,342.9 2506.2,342.2 2506.2,341.7 2507.7,338.8 2496.1,307.2 2496,306.6 "/>
<path fill="#F6F3EB" d="M2509.6,344c0,0,0.5,0.7,1.2,0.6l-0.1,0.2h-0.9h-1.5l0.3-0.9L2509.6,344z"/>
<polygon fill="#F6F3EB" points="2513.6,343.2 2513,343.8 2513.5,345 2514,343.5 "/>
<polygon fill="#F6F3EB" points="2512.5,338.3 2512.4,339.2 2513.5,341.6 2516.8,333.4 2515.7,331.8 "/>
<polygon fill="#F6F3EB" points="2513.1,327.4 2510.2,332.2 2505.9,321.1 2501.9,309.7 "/>
<polygon fill="#F6F3EB" points="2532.2,340.2 2518.6,346.7 2518.6,345.6 2517.8,345.3 2515.8,345.4 2516.3,344.5 2516.9,344.5 
	2517.2,344.2 2517.5,343.6 2519.7,338.1 2521.1,340.2 "/>
<path fill="#F6F3EB" d="M2498.8,304.2l0.6,1.1c0,0,0.8-0.3,1.1,0.5l0.7,1.5l0.5,0.8l0.1-0.5l5.7,0.2c0,0,0.3-1.3,2-1.3
	s2.9,1.8,2.9,1.8l10.3,0.7l-0.3-0.6l2.4-1l-0.7-0.6l-1.3-0.3l-0.2-0.4l0.1-1l-1.6,0l-4.4,0.1l-3.8,0.1l-1.6-0.3l-0.9-0.4l-0.3-0.4
	l-0.3-1.3l-0.3,0.6l-0.3,0.1l-0.3-0.1l-0.3-1.1l0.1-0.3l0.3-0.3l0.3-0.1l0.3,0.1l0.1,0.2l0.1-0.3l-2-0.2l-0.4,0.2l-2.7,0.2l-0.3,0.2
	l-0.4,0.1l-0.3-0.2l-0.3-0.2l-3.1,0l0,1.7L2498.8,304.2z"/>
<polygon fill="#F6F3EB" points="2508.6,308.1 2508.8,307.6 2509.2,307.5 2509.6,307.5 2509.9,307.6 2510.3,307.8 2510.6,308.1 
	2510.6,308.2 2508.7,308.2 "/>
<polygon fill="#F6F3EB" points="2440.2,281.8 2436.7,284.8 2439.8,287.2 2443.2,285.3 "/>
<polygon fill="#F6F3EB" points="2438,278.8 2439.2,280.1 2433.9,279.5 "/>
<polygon fill="#F6F3EB" points="2430.5,280.2 2439.2,281.1 2435.3,283.9 "/>
<polygon fill="#F6F3EB" points="2432.6,271.6 2433.1,271.9 2432.1,273 "/>
<polygon fill="#F6F3EB" points="2430.8,270.6 2431.7,271.1 2430.3,273.8 "/>
<polygon fill="#F6F3EB" points="2434.1,272.6 2430.4,278.4 2437.3,277.3 "/>
<polygon fill="#F6F3EB" points="2443.1,287 2443.1,289.6 2441.1,288.1 "/>
<polygon fill="#F6F3EB" points="2435.1,285.9 2435.3,285.6 2438.6,287.9 2437.5,288.6 "/>
<polygon fill="#F6F3EB" points="2439.8,288.9 2438.8,289.8 2443,294.7 2443.1,291.2 "/>
<polygon fill="#F6F3EB" points="2429.2,281.5 2433.1,285.7 2428.6,289.5 2428.8,283.7 "/>
<polygon fill="#F6F3EB" points="2427.8,286.9 2427.7,289.7 2427.1,289.7 "/>
<polygon fill="#F6F3EB" points="2427.7,281.5 2425.3,289.5 2419.6,289.1 "/>
<polygon fill="#F6F3EB" points="2433.9,286.6 2436.2,289.3 2429.4,293.2 2427.1,292.8 2427.8,291.7 "/>
<polygon fill="#F6F3EB" points="2437.3,290.4 2441.9,295.7 2431.6,293.7 "/>
<polygon fill="#F6F3EB" points="2426.6,293.7 2428.4,293.8 2425.6,295.5 "/>
<polygon fill="#F6F3EB" points="2420.4,289.7 2422.2,290.9 2423.4,290 "/>
<polygon fill="#F6F3EB" points="2418.9,289.8 2422.1,291.7 2416.4,295.2 "/>
<polygon fill="#F6F3EB" points="2423.3,293.7 2416.3,300.3 2414.8,298.9 "/>
<polygon fill="#F6F3EB" points="2420.8,300.1 2418.3,304.1 2417.4,302.1 "/>
<polygon fill="#F6F3EB" points="2409.8,299 2409.4,298.6 2409.6,298.4 2410.2,298.6 2410.6,298.8 "/>
<polygon fill="#F6F3EB" points="2409,298.2 2409.1,298.7 2409.4,299.2 2402.6,301 2403.2,300.4 2403.4,299.9 "/>
<polygon fill="#F6F3EB" points="2402.9,300.1 2402.3,300.1 2402,300.6 2402.2,300.7 2402.7,300.3 "/>
<polygon fill="#F6F3EB" points="2398.4,301.2 2397.8,301.5 2397.8,302.1 2399.2,301.8 2399.6,301.5 2399,301.2 "/>
<polygon fill="#F6F3EB" points="2397.4,301.4 2397.4,302.1 2397.1,302.4 2390.5,304.2 2391.2,303.2 "/>
<polygon fill="#F6F3EB" points="2387.2,304.7 2386.8,304.7 2386.3,304.4 2385.9,304.5 2385.7,304.9 2385.5,305.5 2386.3,305.3 
	2387.3,304.9 2387.6,304.5 "/>
<polygon fill="#F6F3EB" points="2390.8,303.3 2390.3,304 2389.2,303.9 2389.7,303.3 "/>
<polygon fill="#F6F3EB" points="2386.2,320.4 2388.3,329 2388.9,329 2392.2,321.5 2388.8,318.8 "/>
<polygon fill="#F6F3EB" points="2389.5,318.4 2392.4,320.8 2393.6,317.4 2393.6,316.6 2392.5,316.6 "/>
<polygon fill="#F6F3EB" points="2393.6,320.3 2393,321.4 2393.9,321.8 "/>
<polygon fill="#F6F3EB" points="2395.6,315.9 2394.9,317.3 2403.3,329.2 2403.9,329.1 2404.3,320.9 2403.5,324.7 2403.4,325.6 
	2403,325.6 2402.4,324.6 2397.8,315.4 "/>
<polygon fill="#F6F3EB" points="2398.4,315.2 2402.7,324 2403.1,324 2404.9,315.2 2405,313.8 2402.2,314.6 2400,314.9 "/>
<polygon fill="#F6F3EB" points="2533,246.2 2534,245.8 2533,248.2 "/>
<polygon fill="#F6F3EB" points="2565.9,232.5 2568.2,233.9 2566.4,235.5 2562.8,235.9 2562.8,234.1 "/>
<polygon fill="#F6F3EB" points="2562.1,234.4 2562.1,236 2558.8,236.2 "/>
<polygon fill="#F6F3EB" points="2571.8,231.7 2569.9,233.5 2571.2,234.3 2572,234.4 "/>
<polygon fill="#F6F3EB" points="2571.8,228.8 2571.8,230.8 2569,233.5 2566.5,232 "/>
<polygon fill="#F6F3EB" points="2572.7,234.3 2576,228.4 2572.5,230.9 "/>
<polygon fill="#F6F3EB" points="2568.9,234.2 2567.7,235.3 2569.6,235.2 2570.1,234.8 "/>
<polygon fill="#F6F3EB" points="2576.9,225.6 2579.6,223.5 2584.9,222.7 2580.2,225 "/>
<polygon fill="#F6F3EB" points="2572.6,228.4 2572.6,230.1 2575.9,227.4 2574.9,227.2 "/>
<polygon fill="#F6F3EB" points="2577.5,227.7 2577.6,233.4 2573.7,234.2 2577.1,227.8 "/>
<polygon fill="#F6F3EB" points="2578.3,228 2578.4,233.4 2582.5,233 2584.4,231.3 "/>
<polygon fill="#F6F3EB" points="2588.1,224.9 2578.3,226.7 2585,230.8 2588.2,227.9 "/>
<polygon fill="#F6F3EB" points="2583.4,224.4 2587.9,223.6 2587.9,222.9 2586.9,222.7 "/>
<polygon fill="#F6F3EB" points="2588.9,222.7 2589,223.5 2590.3,223.3 "/>
<polygon fill="#F6F3EB" points="2589,224.8 2589.1,227.2 2591.5,224.9 2591,224.6 "/>
<polygon fill="#F6F3EB" points="2588.2,229 2588.3,231.7 2587.5,231.8 2586.6,231.3 2585.9,231.2 "/>
<polygon fill="#F6F3EB" points="2585.1,231.9 2585.9,232.2 2584.2,232.6 "/>
<polygon fill="#F6F3EB" points="2589.1,228.2 2589.2,231.5 2592.2,226 2592.1,225.7 2591.8,225.7 "/>
<polygon fill="#F6F3EB" points="2590.6,221.8 2592.9,222.6 2592.7,221.5 "/>
<polygon fill="#F6F3EB" points="2591.6,217.9 2592.3,220.5 2589.5,220.7 "/>
<polygon fill="#F6F3EB" points="2593.9,221.3 2594.8,221.2 2594.1,222 "/>
<polygon fill="#F6F3EB" points="2593.6,225.4 2593.8,230.6 2590.4,231.2 "/>
<polygon fill="#F6F3EB" points="2593.6,220.4 2592.4,216.8 2594.3,214.7 2595.6,215.3 2600.4,215.1 2595.7,220.1 "/>
<polygon fill="#F6F3EB" points="2592,215.1 2593.7,213.2 2592.6,212.6 2591.5,213 "/>
<polygon fill="#F6F3EB" points="2596.8,220.7 2595.4,222.5 2596.1,222.6 2601.3,220.1 "/>
<polygon fill="#F6F3EB" points="2597.8,219.6 2603,218.9 2603,218.5 2604.7,218.2 2601.6,215.2 "/>
<polygon fill="#F6F3EB" points="2608.2,218 2608.9,217.9 2606.4,213.6 2605,214.8 2603.1,214.8 "/>
<polygon fill="#F6F3EB" points="2606.1,220 2606.1,221.2 2608.5,220.8 2608.4,220.6 2607.9,220.5 2606.4,219.9 "/>
<polygon fill="#F6F3EB" points="2598.6,222.4 2605.2,221.4 2605.2,220 2604,219.8 2603.3,220 "/>
<polygon fill="#F6F3EB" points="2595.3,224.4 2601.8,228.1 2605.4,224.9 2605.3,223.4 "/>
<polygon fill="#F6F3EB" points="2606.3,224.2 2607.9,222.9 2606.2,223 "/>
<polygon fill="#F6F3EB" points="2605.5,225.9 2605.5,229.2 2604.7,229.4 2604,228.9 2603.1,228.8 2602.6,228.5 "/>
<polygon fill="#F6F3EB" points="2594.5,225.1 2594.7,230.6 2599.8,229.9 2601.1,228.7 "/>
<polygon fill="#F6F3EB" points="2606.4,229.2 2606.3,225.1 2608.8,223.1 2609.2,223.1 2609.4,223.2 "/>
<polygon fill="#F6F3EB" points="2607.5,229 2611,228.8 2610.7,222.5 "/>
<polygon fill="#F6F3EB" points="2611.6,222.3 2611.8,228.6 2615.7,228.6 2618.7,225.8 2611.7,222.2 "/>
<polygon fill="#F6F3EB" points="2610.5,218.5 2610.9,219.2 2611.1,218.5 "/>
<polygon fill="#F6F3EB" points="2610.1,217.6 2611.2,217.6 2611.2,215.1 2610.1,213.9 2608.1,214.1 "/>
<polygon fill="#F6F3EB" points="2612.5,218.1 2612.1,219.8 2613.1,220 2618.8,217.3 "/>
<polygon fill="#F6F3EB" points="2618.2,219.1 2623.3,218.4 2623.2,217.1 2621.8,216.9 2620.6,217.2 "/>
<polygon fill="#F6F3EB" points="2624.1,216.9 2624.1,218.4 2626.1,218.1 2626.1,217.7 2624.5,216.9 "/>
<polygon fill="#F6F3EB" points="2623.3,219.3 2623.4,222.1 2619.4,225.3 2612.5,221.6 2613.5,221 "/>
<polygon fill="#F6F3EB" points="2624.3,219.1 2624.3,221 2626.2,219.7 2626,218.7 "/>
<polygon fill="#F6F3EB" points="2626.4,220.3 2626.5,222 2624.5,226.4 2624.3,222.1 "/>
<polygon fill="#F6F3EB" points="2623.5,222.8 2623.6,226.7 2622.9,226.8 2621.7,226.1 2621.4,226.5 2620.1,225.6 "/>
<polygon fill="#F6F3EB" points="2619.5,226.3 2617,228.3 2621.5,227.4 "/>
<polygon fill="#F6F3EB" points="2629.1,222.8 2626.9,222.9 2625.3,226.5 2629.1,225.5 "/>
<polygon fill="#F6F3EB" points="2629.8,222.5 2629.8,225.3 2636.1,224.3 2637.7,223.1 2635,221.8 "/>
<polygon fill="#F6F3EB" points="2638.2,223.2 2637.2,224 2639.7,223.9 "/>
<polygon fill="#F6F3EB" points="2638.9,222.6 2640.5,221.3 2642.7,221.1 2642.9,223.7 2641.6,223.8 2640.6,223.4 2640.6,223.6 "/>
<polygon fill="#F6F3EB" points="2621,210.6 2622.7,214.7 2624.2,214.5 2624.2,214.1 "/>
<polygon fill="#F6F3EB" points="2643.8,220.8 2644.7,220.6 2643.9,222.9 "/>
<polygon fill="#F6F3EB" points="2644.8,223 2647.9,222.7 2647.7,216.4 "/>
<polygon fill="#F6F3EB" points="2648.9,212.4 2648.1,214.2 2646.2,213.7 2647.1,212.6 "/>
<polygon fill="#F6F3EB" points="2650,212.1 2649.5,214 2651.2,213.4 2651.5,211.9 "/>
<polygon fill="#F6F3EB" points="2649.8,215.2 2651.5,216 2651.2,214.7 "/>
<polygon fill="#F6F3EB" points="2648.9,215.8 2648.2,216.2 2648.7,222.7 2651.9,222.5 2651.7,217.2 "/>
<polygon fill="#F6F3EB" points="2589.3,235.4 2591.2,242.2 2592.6,238.1 2590.1,235 "/>
<polygon fill="#F6F3EB" points="2605.8,233.6 2603.9,233.7 2600.9,240.7 2601.4,241.7 2603.6,243.1 2606,238.6 "/>
<polygon fill="#F6F3EB" points="2606.7,233.1 2606.9,236.6 2609.7,232.9 "/>
<polygon fill="#F6F3EB" points="2610.6,233.3 2606.9,238.5 2607.3,242.5 "/>
<polygon fill="#F6F3EB" points="2606.1,240.5 2604.3,243.2 2606.2,244.4 "/>
<polyline fill="none" stroke="#252123" stroke-width="0.2979" stroke-miterlimit="10" points="2430.7,255.2 2389.4,223.7 
	2363.4,203.9 2312.8,166.3 2307.4,162.2 "/>
<polyline fill="none" stroke="#252123" stroke-width="0.2979" stroke-miterlimit="10" points="2427,257.5 2425.9,256.5 2388,222.8 
	2380.6,216.4 2331.7,174.2 2310.5,157.1 "/>
<polyline fill="none" stroke="#252123" stroke-width="0.2979" stroke-miterlimit="10" points="2424.2,262.7 2361.9,210.5 
	2334.2,186.4 2312.2,166.1 2307.7,161.9 "/>
<polyline fill="none" stroke="#252123" stroke-width="0.149" stroke-miterlimit="10" points="2426.5,257.9 2427.3,252.7 2428.2,256 
	"/>
<polyline fill="none" stroke="#252123" stroke-width="0.149" stroke-miterlimit="10" points="2424.9,260.6 2421.6,260 2425.2,259.7 
	"/>
<polyline fill="none" stroke="#252123" stroke-width="0.149" stroke-miterlimit="10" points="2425.9,258.7 2418,257.3 2420.1,247.2 
	2422.4,253.3 2414.6,254.6 2425.8,256.4 2423.6,249.7 2418.2,257.2 "/>
<polyline fill="none" stroke="#252123" stroke-width="0.149" stroke-miterlimit="10" points="2427.3,252.7 2421.4,260.4 
	2423.6,249.7 "/>
<polyline fill="none" stroke="#252123" stroke-width="0.149" stroke-miterlimit="10" points="2422,253.2 2411,251.6 2419.1,250.5 
	2416.5,244.4 2411.4,252 2415,255 2416.4,244.2 2419.9,247.1 2414.8,254.4 "/>
<line fill="none" stroke="#252123" stroke-width="0.149" stroke-miterlimit="10" x1="2418" y1="257.3" x2="2425.6" y2="256.5"/>
<polyline fill="none" stroke="#252123" stroke-width="0.149" stroke-miterlimit="10" points="2418.9,250.3 2408,249.1 2412.7,241.6 
	2411.8,252.3 2407.7,249 2415.9,247.5 2413,241.8 "/>
<polyline fill="none" stroke="#252123" stroke-width="0.149" stroke-miterlimit="10" points="2408.4,249.5 2409.6,239.1 
	2412.3,244.5 2405,246.6 2415.5,247.4 2412.6,244.7 2401.8,243.9 2409.4,241.8 2398.5,241.4 2406.4,239.1 "/>
<polyline fill="none" stroke="#252123" stroke-width="0.149" stroke-miterlimit="10" points="2409.4,239 2405,246.6 2406.2,236.4 
	2401.8,243.9 2402.9,234 2398.8,241.4 2399.5,231.4 2399.1,231.1 2395.7,238.9 2406.1,238.9 2403,234.2 2406.4,236.7 2408.8,241.3 
	"/>
<polyline fill="none" stroke="#252123" stroke-width="0.149" stroke-miterlimit="10" points="2403.3,236.3 2396,239 2396.3,228.8 
	2398.7,232 2400.2,233.8 2392.8,236.4 2403,236.2 2399.5,231.4 "/>
<polyline fill="none" stroke="#252123" stroke-width="0.149" stroke-miterlimit="10" points="2400.1,233.6 2389.8,233.9 
	2389.9,224.2 2393,226.4 2392.8,236.4 2396.1,228.7 "/>
<polyline fill="none" stroke="#252123" stroke-width="0.149" stroke-miterlimit="10" points="2389.8,233.9 2397.3,231.1 
	2386.8,231.4 2394.3,228.5 2391.5,225.9 2384.1,229.2 2394.6,228.5 "/>
<line fill="none" stroke="#252123" stroke-width="0.149" stroke-miterlimit="10" x1="2390.1" y1="234.1" x2="2393" y2="226.4"/>
<polyline fill="none" stroke="#252123" stroke-width="0.149" stroke-miterlimit="10" points="2391.5,225.9 2381.2,226.7 
	2383.5,219.3 2386.5,221.5 2384.1,229.2 2383.9,219.4 2382.7,218.6 2375.8,222.2 2385.6,221 2378.5,224.5 2388.8,223.4 
	2381.3,226.9 2387.1,231.5 2387,221.8 2389.5,224.2 2387.3,231.7 "/>
<polyline fill="none" stroke="#252123" stroke-width="0.149" stroke-miterlimit="10" points="2381.5,226.9 2381,217.4 2380.4,217 
	2378.5,224.5 2377.9,215 2379.7,216.3 2373.1,219.9 2382.7,218.6 2377.5,214.7 2375.8,222.2 2375.1,213 2376.8,214.1 2370.5,217.7 
	2379.4,216 "/>
<polyline fill="none" stroke="#252123" stroke-width="0.149" stroke-miterlimit="10" points="2373.1,219.9 2374.6,212.4 
	2376.5,213.8 2367.8,215.4 2373.9,211.8 2372.3,210.7 2373.4,220.1 2370.6,218 2371.7,210.2 2373.3,211.6 2365.1,213.2 2371,209.6 
	2369.3,208.5 2370.9,217.9 "/>
<polyline fill="none" stroke="#252123" stroke-width="0.149" stroke-miterlimit="10" points="2368.8,208.1 2368.1,215.8 
	2366.6,206.2 2370.8,209.6 2374.3,210.9 2371.9,208.8 2371.1,209.4 2362.7,211.3 2369.4,206.8 2364.1,204.5 2365.7,213.7 
	2366.1,205.9 2363.2,203.8 2363.1,211.5 2360.3,209.2 2366.7,204.5 2371.4,208.6 2367.4,207.1 2360.1,208.9 2363.3,211.7 
	2361.1,202.2 2366.2,204.1 2364.2,202.2 2357.9,207.1 2364.6,205.1 "/>
<polyline fill="none" stroke="#252123" stroke-width="0.149" stroke-miterlimit="10" points="2363.9,201.9 2360.7,200.9 
	2360.6,209.4 2358.6,200.4 2361.7,200.2 2355.4,205.1 2361.9,202.8 2358,199.9 2358.2,207.3 2355.9,198.3 2359.2,198.1 2353.3,203 
	2359.4,200.7 2355.5,198 2355.9,205.4 2353.3,196.5 2356.7,195.9 2350.9,201 2359.1,197.8 2356.3,195.5 2350.7,194.5 2353.7,203.4 
	2352.8,195.9 2358.6,197.7 "/>
<polyline fill="none" stroke="#252123" stroke-width="0.149" stroke-miterlimit="10" points="2355.9,198.3 2361.3,199.7 
	2356.7,195.9 2348.6,199 2354.2,193.6 2347.9,192.5 2351.3,201.3 2350.3,194.1 2345.6,190.7 2349,199.4 2347.7,192.6 2351.8,191.5 
	2346.4,197.1 2354.3,193.8 "/>
<polyline fill="none" stroke="#252123" stroke-width="0.149" stroke-miterlimit="10" points="2351.6,191.4 2345.6,190.7 
	2346.6,197.3 2343.3,189 2349.4,189.4 2344.1,195.1 2351.8,191.5 2349.6,189.6 2342,193.1 2347.1,187.5 2339.9,191.2 2344.7,185.5 
	2337.7,189.5 2342.5,183.6 2335.6,187.6 2340.2,181.7 2333.4,185.7 2337.9,179.6 2331.4,183.9 2335.7,177.8 2329.4,182.1 
	2333.5,175.9 2327.5,180.3 2331.5,174 2325.5,178.5 2329.1,172.1 2323.6,176.7 2327.1,170.3 2321.9,175 2324.8,168.6 2320,173.4 
	2322.7,167 2318.1,171.6 2320.6,165.1 2316.3,169.8 2318.5,163.4 2314.5,168.3 2316.7,162 2310,164.1 2309.5,163.6 2310.5,157.1 "/>
<polyline fill="none" stroke="#252123" stroke-width="0.149" stroke-miterlimit="10" points="2344.5,195.5 2341,187.2 2347.1,187.5 
	2343,188.8 2344.1,195.1 2342.3,193.4 2340.3,186.8 2338.1,185.1 2344.7,185.5 2342.2,183.4 2335.7,183.3 2338.1,189.6 
	2334.3,182.4 2333.4,181.6 2340.2,181.7 2337.9,179.6 2331.1,179.9 2333.8,186 2336,187.9 2332.1,180.6 2336.5,184 2340.2,191.5 
	2337.9,184.9 2338.9,185.9 2342.3,192.9 "/>
<polyline fill="none" stroke="#252123" stroke-width="0.149" stroke-miterlimit="10" points="2307.8,162.2 2308.4,162.7 
	2314.6,160.5 "/>
<polyline fill="none" stroke="#252123" stroke-width="0.149" stroke-miterlimit="10" points="2336,177.9 2328.7,178.2 2330.1,179.2 
	2332.8,183.7 2333.6,185.8 2331.8,184.1 2329.2,178.4 2326.6,176.7 2333.7,176.1 2331.5,174 2324.3,175 2322.3,173.3 2329.5,172.3 
	2327,170.5 2320.2,171.8 2318.2,170.2 2324.8,168.6 2322.7,167 2316.1,168.7 2313.8,167.1 2320.8,165.4 2318.4,163.6 2311.9,165.7 
	2313.1,166.6 2314.4,160.3 2311.2,165.1 2312.6,158.8 2308.6,160.3 "/>
<polyline fill="none" stroke="#252123" stroke-width="0.149" stroke-miterlimit="10" points="2309.5,163.6 2312.6,158.8 
	2308.4,162.7 2310.5,157.1 2307.8,161.9 "/>
<polyline fill="none" stroke="#252123" stroke-width="0.149" stroke-miterlimit="10" points="2316.7,162 2313.1,166.6 2311.9,165.7 
	2317,162.2 "/>
<path fill="none" stroke="#252123" stroke-width="0.149" stroke-miterlimit="10" d="M2296,153.6"/>
<path fill="none" stroke="#252123" stroke-width="0.149" stroke-miterlimit="10" d="M2300.7,155.7"/>
<circle fill="#F6F3EB" cx="680.2" cy="-249.8" r="216.2"/>
<circle fill="none" cx="679.8" cy="-249.5" r="202.7"/>
<circle fill="none" cx="680.5" cy="-249.2" r="154.2"/>
<polygon fill="#F6F3EB" points="651.6,-296.3 649.1,-290 652.5,-290.1 "/>
<path fill="#F6F3EB" d="M653.6-295.3l1,5.1l15.5-0.4l0.1-0.2l-3.4-0.1C666.7-290.9,656.2-292.8,653.6-295.3z"/>
<polygon fill="#F6F3EB" points="672.1,-290.6 672.5,-290.9 673.8,-291.1 674.3,-290.6 "/>
<path fill="#F6F3EB" d="M675.5-291.4l0.9,0.8l0.7-1.2C677.1-291.7,675.9-291.4,675.5-291.4z"/>
<path fill="#F6F3EB" d="M678.4-290.4l1.3-2.2c0,0,5.8-1.8,7.1-3.4l4.2,5.9C690.9-290.1,678.6-290.5,678.4-290.4z"/>
<polygon fill="#F6F3EB" points="773.7,-264.9 774.4,-262.2 771.6,-262 "/>
<polygon fill="#F6F3EB" points="775.7,-262.3 774.5,-265.9 776.4,-268 777.7,-267.4 782.4,-267.6 777.8,-262.7 "/>
<polygon fill="#F6F3EB" points="774.1,-267.6 775.8,-269.5 774.7,-270.2 773.5,-269.7 "/>
<polygon fill="#F6F3EB" points="779.9,-263.1 785.1,-263.9 785.1,-264.2 786.8,-264.5 783.7,-267.5 "/>
<polygon fill="#F6F3EB" points="790.3,-264.7 791,-264.8 788.5,-269.1 787.1,-268 785.1,-267.9 "/>
<polygon fill="#F6F3EB" points="792.6,-264.2 793,-263.5 793.1,-264.2 "/>
<polygon fill="#F6F3EB" points="792.2,-265.1 793.3,-265.1 793.3,-267.6 792.2,-268.9 790.1,-268.7 "/>
<polygon fill="#F6F3EB" points="794.6,-264.6 794.2,-263 795.1,-262.8 800.9,-265.5 "/>
<polygon fill="#F6F3EB" points="800.3,-263.6 805.4,-264.3 805.3,-265.7 803.8,-265.8 802.7,-265.5 "/>
<polygon fill="#F6F3EB" points="806.2,-265.9 806.2,-264.3 808.2,-264.7 808.2,-265 806.6,-265.9 "/>
<polygon fill="#F6F3EB" points="803.1,-272.2 804.8,-268 806.3,-268.2 806.3,-268.6 "/>
<polygon fill="#F6F3EB" points="831,-270.3 830.2,-268.5 828.3,-269 829.2,-270.1 "/>
<polygon fill="#F6F3EB" points="832.1,-270.7 831.5,-268.7 833.3,-269.3 833.5,-270.9 "/>
<polygon fill="#F6F3EB" points="831.9,-267.5 833.6,-266.7 833.3,-268 "/>
<g>
	<polygon fill="#262224" points="738.1,-250.3 736,-245.4 714.1,-234.8 759.5,-195.7 755.3,-187.5 755.9,-186.9 756.2,-187.2 
		756.6,-187.4 757.1,-187.3 757.3,-186.9 757.4,-186.5 757.1,-186 758.4,-184.7 762.7,-192.9 763,-192.8 816.1,-147.1 775.8,-85.8 
		730.2,-129.8 733.7,-136.7 732.5,-137.8 732.2,-137.3 731.7,-137.3 731.4,-137.5 731.2,-137.9 731.5,-138.7 730.8,-139.3 
		727.3,-132.5 685.7,-172.6 688.5,-179.5 687.5,-180.3 687.3,-180.1 687.2,-180 686.7,-180 686.4,-180.2 686.3,-180.5 686.3,-180.7 
		686.6,-181.2 685.8,-181.8 683.1,-175.1 682.8,-175.1 677.1,-180.7 679.7,-187.8 677.5,-189.9 664.9,-183.2 663.5,-183.3 
		661.5,-182.2 645.3,-184 629.9,-199.2 627.5,-195.1 627.7,-194.6 627.7,-194.1 627.6,-193.8 627.2,-193.7 626.8,-193.5 
		626.4,-193.2 626,-193 625.9,-192.7 625.7,-192.4 625.3,-192.1 624.9,-191.9 624.5,-191.6 623.7,-190.8 623.8,-192.3 623.9,-193.6 
		623.9,-195 623.7,-195.4 623.7,-195.9 624.2,-196.3 624.6,-196.5 627.1,-201.9 609.2,-219.7 600.8,-241.5 602.9,-251.8 
		597.9,-256.5 599.4,-263.9 599,-264.1 598.8,-263.9 598.4,-263.9 597.9,-263.9 597.8,-264.2 598,-265.1 597.6,-265.5 595.9,-258.2 
		566.2,-286.7 567.2,-294.4 566.7,-294.8 566.7,-294.5 566.5,-294.5 566,-294.5 565.7,-294.6 565.7,-295.8 565.3,-296.1 564,-288.9 
		536.6,-315.1 543.9,-380.3 544.2,-380.4 574.3,-354.4 573.1,-345.9 573.4,-345.7 573.7,-345.9 573.9,-346 574.2,-346 574.5,-345.9 
		574.6,-345.7 574.6,-344.8 575.2,-344.2 576.5,-352.3 576.8,-352.4 609.9,-324 608.1,-315.6 608.6,-315.1 608.6,-315.4 
		608.9,-315.6 609.2,-315.6 609.4,-315.5 609.7,-315.2 609.7,-314.7 609.5,-314.2 610.1,-313.9 612,-322.1 617.4,-317.4 
		615.6,-308.9 615.9,-309.7 616.3,-309.9 617.3,-310.3 622.6,-312.6 648.5,-320.2 664.4,-322.9 665.4,-322.6 666.5,-321.6 
		670,-322.2 670.3,-322.3 675.5,-323.6 676,-323.2 676.1,-323.8 677.3,-324.3 677.4,-325 677.7,-325.1 678.1,-325.1 678.4,-325 
		678.6,-324.7 678.6,-324 679.3,-323.3 679.4,-323 679.2,-322.2 678.6,-321.4 678.2,-320.8 677.8,-320.5 677.4,-320.3 677,-320.2 
		676.7,-320.3 676.3,-320.1 675.6,-319.8 681.2,-310.9 685.1,-312.3 685.6,-312.3 688.6,-320.9 691,-321.6 690.6,-319.8 
		691.4,-319.1 692.1,-320.8 692.5,-321.1 692.6,-321.1 692.9,-321.5 693.4,-324.1 693.7,-324.2 693.9,-324.4 694.2,-324.6 
		694.6,-324.6 694.8,-324.5 695.1,-324.3 695.2,-324 695.4,-323.6 695.5,-323.2 695.3,-322.7 694.6,-320.9 694.3,-320.8 
		694.2,-320.7 694.7,-320 694.7,-319.7 694.5,-319.1 694.3,-318.7 694.3,-318.2 695.1,-318.3 695.4,-318.2 695.1,-316.9 702,-319.1 
		701.9,-320.8 703.6,-321.5 705.2,-320.2 715,-323 714.4,-325.5 715.2,-328.6 719.9,-326.9 725.6,-322.6 725.6,-322.1 726,-322 
		728.5,-320.2 732.1,-321.4 733.5,-320.3 735.7,-321 736.8,-320.2 737.9,-323.1 738.5,-323.1 749,-315.4 748.9,-315.1 750.3,-314.1 
		750.3,-313.7 746.4,-304.4 746.7,-304.3 747.7,-305.2 750.4,-304.8 752,-300.5 750.7,-297.4 757.4,-292.3 756.9,-290 759,-286.6 
		758.9,-286.1 758.6,-285.7 758.8,-284.6 755.4,-277 754.5,-277 754.6,-276.3 754.3,-276.1 753.2,-273.4 752.4,-273.1 752,-273.2 
		751.7,-272.6 752,-272.3 750.4,-268.7 751,-268.2 749.1,-263.9 748.2,-263.5 747.7,-263.7 747.4,-264 745.8,-264.8 744.1,-261.4 
		746.9,-259 745.7,-256 744.6,-255.6 742.3,-257.3 741.1,-254.5 741.3,-253.5 741.3,-252.5 741.1,-252 740.8,-251.6 	"/>
	<g>
		<polygon fill="#F6F3EB" points="754.1,-185.3 754.9,-184.8 754.6,-183.9 754.8,-183.6 755.3,-183.4 755.6,-183.3 755.9,-183.8 
			757.3,-182.7 734.5,-138.5 733.4,-139.5 733.7,-140.2 733.6,-140.5 733.4,-140.8 733.1,-140.9 732.7,-140.8 732.4,-140.6 
			731.7,-141.1 		"/>
		<polygon fill="#F6F3EB" points="686.5,-183.7 687.2,-183.1 687.4,-183.4 687.7,-183.5 688,-183.5 688.3,-183.3 688.4,-183.1 
			688.5,-182.7 688.4,-182.5 688.3,-182.2 689.2,-181.4 701.1,-211.3 700.7,-211.2 700.7,-210.8 699.9,-210.8 696.3,-208.8 		"/>
		<polygon fill="#F6F3EB" points="698.4,-213.8 699.3,-214.2 699.6,-214 699.9,-214.3 699.9,-214.6 700.8,-215.1 702.1,-214 
			707.1,-226.2 702.2,-223.8 		"/>
		<polygon fill="#F6F3EB" points="609.6,-311.8 609.1,-312.1 609.1,-311.8 608.8,-311.8 608.2,-311.8 607.9,-312.1 607.8,-312.3 
			607.9,-312.9 607.9,-313.2 607.6,-313.5 598,-267.3 598.4,-266.9 598.5,-267.2 598.7,-267.3 599,-267.3 599.2,-267.3 599.4,-267 
			599.5,-266.7 599.4,-266.1 599.8,-265.6 		"/>
		<polygon fill="#F6F3EB" points="567.6,-296.1 567,-296.5 567,-297.3 567,-297.6 566.8,-297.7 566.5,-297.7 566.2,-297.7 
			566.1,-297.6 566,-297.4 565.6,-297.8 572.7,-343.8 573.2,-343.5 573.2,-342.5 573.4,-342.4 573.8,-342.3 574,-342.3 
			574.2,-342.5 574.8,-342.1 		"/>
	</g>
</g>
<path fill="#262224" d="M361.9,181l31.5-18l-2.8-46.8l-0.7,0l-35.2,15.9l0.1,0.6l-0.2,0.1l-0.2-0.3l-0.7,0l-42.5,19.2l-0.1,0.8
	l-0.4,0.1l-0.1-0.4l-0.6,0l-9.9,4.4l-1.9,7.6l-1.8,0.1l-1.8,0.8l-14.4-0.3l-0.8-0.1l-0.7-0.2l-0.9-0.1c0,0-2.5,0.3-3.7,3.9
	l-10.9-0.3l-8.4-7.5l-1.6-1.3l-2-0.1l-7.6-9.5c0,0,0.7-0.8-0.7-1.3c0,0-0.8-0.3-1.1,0.4l-0.5,1.4c0,0,0,0.5,0.4,0.6l-2.4,7.5
	c0,0-0.5,0.1-0.5,0.8l-0.6,0c0,0,0.1-2-1.2-2l-2-0.1l-2.5,0.9l-0.4,0c0,0-0.1-0.5-1.9-0.2l-1,0.4l-1.7,0.6l-1.5,0.7l-0.5,0.6
	l-1.1,0.4l-1.2-1.5l-1.2-1.5l-1.1-1.4l-1.1-1.6l-4-5.4l-2.2-2.8l-2.7-3.6c0,0,0.1-4.5-2.4-4l0.8-1.8l0.5-3.4l0.6-5.1l1-8.1
	c0,0,1.1-9.7-0.3-12.8l-0.4-5.5c0,0-0.2-5-4.9-6.2l-2.9-8.8l-3.5-7.7c0,0-3.6-5.9-4.2-6.4l0.3-0.3l-1.3-1.7l-0.4,0.4l-1.3-1.7
	l-3.4-3.3l-1.5-1.2c0,0-2-2.2-5.9-0.8c0,0-1.2,2.3-0.8,8.3s0.9,9.7,0.9,9.7l2.3,14.1l-0.9,2.7l-0.7,0.2c0,0-0.3,1.3,0.5,4.6
	c0,0,0.9,4.4,1.6,4.8l2.4,1.7l2,8.4l2.1,7.3l2,6.4l1.8,4.3c0,0,1.4,3,2.1,3.4c0,0,0.8,0.8,2.1,0.3l1.3-0.7l0.9-0.4l1.2-1.4l2.4-5.5
	l0.1-0.7l0.9-2.8l0.2-0.9l0.3,4.9l-0.1,0.4l-0.5,1.7l-0.4,0.7l-0.3,2.4l0.3,0.4l-0.2,1.5l-1.8,0.6c0,0-0.7,0.4-0.4,2l0.3,2.2
	l0.1,1.9l0.3,0.7l-0.3,1.3l0.1,1l0,0.8l-0.1,0.3l0.1,2.2l-0.1,2.7l0.1,3.8l0.2,2.2l0.3,2.4l0.7,3.6l-0.7,0.4l-0.1-0.5l-0.7-1
	l-2.5-0.1l-1,0.2l-10.4,4.1c0,0-1.5-0.1-1.8,1.7c-0.3,1.8,1.4,2.4,1.4,2.4s0.7,0.3,1.1,0.1l-0.1,0.4l-1-0.4c0,0-0.6,0.5-0.2,1
	l0.7-0.1l0.3-0.1l-0.6,1.7l0.4,0.6l-0.5,0.7l1.2,1.5l-0.1,0.2c0,0-1,0.4-1.1,0.8c0,0,0.2,0.4,0.7,0.6c0,0,0.4-0.3,0.6-1.2l0.1-0.3
	l0.2,0.4l1.2,0.6c0,0-1,0.7-1,0.9c0,0,0.4,0.4,0.6,0.5c0,0,0.6-0.3,0.6-1.3l1.8,1h0.4l0.1-0.1l1.2,9.4l0.6,6l0.5,4.8l-2.6,1.2
	c0,0-0.8,0.2-0.6,0.9l-40.5,18.3l0,1.1l-1,0.4l-0.2-0.5h-1l-98.1,44.3l13.3,83.2l1,0.3l94.3-54.5l0.1-1.1l0.7-0.2l1.4,0.1l71.7-41.5
	l0-0.9l0.3-0.1l1.4-0.1l12.2-7.2l4.4-16.7l0.3,3.3l6.7,4.5l3.4-0.1l3.4,4.1h1.2l0.5,4.7c0,0-0.3,1.7,1.3,2.2l2.9,0l1.9,0.6l0.7,0.6
	l1.4,0.2l1.9-0.3c0,0,1.1,2.1,3.5,1.1c2.4-0.9,1.9-3.4,1.9-3.4s-0.3-1.7-2-2.1l-0.2-2.5l2.9,0.1l0.6-0.3l5.1,0.3l0.8,2.2l1-0.5
	l1.1-1.3l3.7,0.2l1.1,1.6l1.1-0.7l1.8-3.5l4.1-2.6c0,0,0.7-0.3,1.1-2c0.4-1.7,1.1-2.7,1.1-2.7l4.3-2.8l0,0.6l1.9,0.1l0.8-0.4l1.1-1
	l0.3-0.7l0.7,0.1l0.8,1.2l0.9,0.1l0.7-0.6l-0.1-0.8l0.5-0.2l0.2-0.5l1.8-1.1l0.1-0.7l6.2,10c0,0,9.2,20.2,22.5,6
	c13.3-14.2,12.6-41.7,12.6-41.7S364.2,190.2,361.9,181z M162.6,294.2l-0.6,0.2l-1-0.7l-8.6-67.1l0.3-0.2l-0.1-0.8l1.1-0.6l0.3,0.4
	l8.8,67.5L162.6,294.2z M236.1,251.9l-0.5,0.5l-0.4-0.7l-1.9-17.6l1-0.6l1.8,17.3V251.9z M242.6,157.4l-2,0.8l2-6.2l1.5,5.4
	L242.6,157.4z M247.8,159.5c-0.2-1.9-1.1-2-1.1-2l-1.5-0.1l-1.8-6.1l6.5,8.3H247.8z M311.4,161.3l-0.6-7.8l0.6,0.2l0.7,8.4
	L311.4,161.3z M356.7,165.9l-2.2-31.5l0.1-0.7l0.2-0.2l2.4,33.2L356.7,165.9z"/>
</svg>
