<?xml version="1.0" encoding="UTF-8" standalone="no"?>
<!-- Generator: Adobe Illustrator 17.0.0, SVG Export Plug-In . SVG Version: 6.00 Build 0)  -->

<svg
   xmlns:dc="http://purl.org/dc/elements/1.1/"
   xmlns:cc="http://creativecommons.org/ns#"
   xmlns:rdf="http://www.w3.org/1999/02/22-rdf-syntax-ns#"
   xmlns:svg="http://www.w3.org/2000/svg"
   xmlns="http://www.w3.org/2000/svg"
   xmlns:sodipodi="http://sodipodi.sourceforge.net/DTD/sodipodi-0.dtd"
   xmlns:inkscape="http://www.inkscape.org/namespaces/inkscape"
   version="1.1"
   id="Layer_1"
   x="0px"
   y="0px"
   width="1024"
   height="1024"
   viewBox="0 0 1024 1024"
   enable-background="new 0 0 432.338 432.338"
   xml:space="preserve"
   inkscape:version="0.48.3.1 r9886"
   sodipodi:docname="juno.svg"><metadata
   id="metadata73"><rdf:RDF><cc:Work
       rdf:about=""><dc:format>image/svg+xml</dc:format><dc:type
         rdf:resource="http://purl.org/dc/dcmitype/StillImage" /></cc:Work></rdf:RDF></metadata><defs
   id="defs71" /><sodipodi:namedview
   pagecolor="#ffffff"
   bordercolor="#666666"
   borderopacity="1"
   objecttolerance="10"
   gridtolerance="10"
   guidetolerance="10"
   inkscape:pageopacity="0"
   inkscape:pageshadow="2"
   inkscape:window-width="1280"
   inkscape:window-height="749"
   id="namedview69"
   showgrid="true"
   borderlayer="true"
   inkscape:showpageshadow="false"
   inkscape:zoom="0.36667354"
   inkscape:cx="512"
   inkscape:cy="512"
   inkscape:window-x="0"
   inkscape:window-y="27"
   inkscape:window-maximized="1"
   inkscape:current-layer="Layer_1"><inkscape:grid
     type="xygrid"
     id="grid3050"
     empspacing="5"
     visible="true"
     enabled="true"
     snapvisiblegridlinesonly="true"
     spacingx="512px"
     spacingy="512px" /></sodipodi:namedview>


<g
   id="g3052"
   transform="matrix(2.3685172,0,0,2.3685172,0,-1401.3616)"><circle
     transform="translate(0,591.66199)"
     style="fill:#f6f3eb"
     sodipodi:ry="216.16901"
     sodipodi:rx="216.16901"
     sodipodi:cy="216.16901"
     sodipodi:cx="216.16901"
     id="circle3"
     r="216.16901"
     cy="216.16901"
     cx="216.16901"
     d="m 432.33801,216.16901 c 0,119.38684 -96.78216,216.169 -216.169,216.169 C 96.782161,432.33801 0,335.55585 0,216.16901 0,96.782161 96.782161,0 216.16901,0 c 119.38684,0 216.169,96.782161 216.169,216.16901 z" /><circle
     transform="translate(0,591.66199)"
     style="fill:none"
     sodipodi:ry="202.66901"
     sodipodi:rx="202.66901"
     sodipodi:cy="216.507"
     sodipodi:cx="215.83099"
     id="circle5"
     r="202.66901"
     cy="216.507"
     cx="215.83099"
     d="m 418.5,216.507 c 0,111.93101 -90.738,202.66901 -202.66901,202.66901 -111.931,0 -202.669003,-90.738 -202.669003,-202.66901 0,-111.931 90.738003,-202.669003 202.669003,-202.669003 C 327.762,13.837997 418.5,104.576 418.5,216.507 z" /><g
     transform="translate(0,591.66199)"
     id="g7">
	<path
   style="fill:#262224"
   inkscape:connector-curvature="0"
   id="path9"
   d="m 220.631,215.678 v 0.671 l -1.489,2.335 c 0,0 0.642,0 0.759,0.467 l 0.292,0.058 0.175,-0.117 c 0,0 0.156,-0.701 0.701,-0.331 0,0 0.389,0.35 0.234,0.817 -0.155,0.467 -0.311,0.467 -0.311,0.467 0,0 -0.448,0.117 -0.72,-0.37 l -0.448,0.039 c 0,0 -0.175,0.448 -0.564,0.389 -0.389,-0.058 -0.506,-0.331 -0.506,-0.331 l -0.214,0.058 -2.724,3.736 1.849,-0.019 0.389,0.389 -7.492,10.78 -1.304,-0.058 0.389,1.615 -0.603,0.525 0.078,0.545 0.156,0.019 c 0,0 0.564,-0.292 0.642,0.331 0,0 -0.039,0.428 -0.584,0.35 l -0.409,-0.019 -0.272,-0.195 -0.292,-0.817 -0.195,0.156 0.136,0.545 0.175,0.136 0.175,0.331 0.234,0.019 0.156,0.136 -0.078,0.156 -0.156,0.156 -0.37,-0.019 -0.331,-0.156 -0.272,-0.311 -0.078,-0.389 -0.156,-0.35 -0.175,-0.019 0.058,0.35 0.078,0.467 0.019,0.409 -0.175,0.136 -0.253,0.039 -0.467,0.019 -0.234,-0.078 v -0.253 l 0.175,-0.195 h 0.428 l -0.057,-0.212 -0.331,-0.584 -0.623,0.039 -0.584,0.915 0.234,0.516 0.136,0.068 0.379,0.039 c 0,0 0.156,-0.243 0.311,-0.234 0.156,0.01 0.555,-0.156 0.778,0.379 0.224,0.535 -0.195,0.817 -0.195,0.817 0,0 -0.701,0.214 -0.808,-0.321 l -0.292,-0.01 -0.389,0.165 -1.051,0.078 -0.876,0.778 -0.885,0.019 -0.097,0.438 -0.555,0.19 -0.399,-0.005 -1.051,-0.457 -12.429,1.309 v 0.229 l 0.122,0.088 -0.019,0.272 -0.837,0.117 -1.479,-0.603 -2.102,0.37 0.019,0.37 -0.039,0.214 -0.214,0.214 -0.058,0.175 4.145,1.42 -5.448,37.964 h -0.662 l -4.169,-1.688 0.029,0.569 6.626,2.612 -5.366,37.035 -0.735,0.165 -5.444,-2.496 0.029,0.365 5.823,2.569 0.117,0.102 -4.057,28.882 -0.949,7.209 -0.623,0.253 -6.266,-2.997 -0.029,0.263 6.217,3.211 0.175,0.234 -6.48,45.796 -0.613,0.204 -33.216,-19.293 -0.146,-0.234 5.838,-43.695 0.759,-0.35 4.612,2.452 0.321,-0.146 -5.225,-2.715 -0.263,-0.263 4.612,-34.238 0.204,-0.292 0.35,-0.058 5.633,2.452 0.088,-0.292 -6.042,-2.715 4.583,-35.376 0.496,-0.204 4.904,1.926 0.438,-0.379 -3.736,-1.518 -0.088,-0.321 4.699,-34.792 c 0,0 -3.999,-0.73 -7.297,-3.736 -3.298,-3.006 -5.663,-7.647 -5.663,-7.647 0,0 -1.168,-1.868 -2.51,-6.451 0,0 -0.234,-4.057 -0.438,-4.466 0,0 -0.234,-7.239 0.117,-9.457 0,0 0.905,-3.211 1.022,-3.298 l 0.992,-3.415 -12.609,-15.791 -0.701,1.372 -0.613,0.088 -18.564,-23.351 0.35,-0.555 -0.73,-0.029 -17.484,-22.212 0.263,-0.467 -0.671,-0.088 -21.512,-27.291 v -0.438 L 86.71,71.34 h 0.555 l 22.971,27.116 -0.058,0.584 0.525,0.029 18.68,22.037 -0.175,0.525 0.671,0.088 19.556,23.088 v 0.292 l -1.43,2.335 0.701,0.117 20.87,24.635 -2.656,4.232 0.146,0.234 c 0,0 0.759,-0.175 1.168,0.525 l 2.102,0.234 v -0.905 l 21.045,0.467 0.788,0.321 28.546,-13.427 0.671,0.146 -0.817,-3.094 4.407,-2.277 2.831,-11.734 c 0,0 0.35,-0.292 0.438,0.088 l -2.744,11.383 27.262,-12.843 h 0.555 l -0.058,-0.379 35.318,-16.579 0.525,0.117 2.627,9.107 0.409,0.146 0.399,0.097 -0.311,-0.584 0.195,-0.234 7.122,-3.269 c 0,0 3.58,-2.218 7.083,-2.257 0,0 5.137,-1.051 5.604,-1.206 0,0 3.191,-0.234 6.071,-3.269 0,0 3.931,-3.347 3.931,-3.58 0,0 2.102,-2.413 4.904,-1.051 l 7.278,2.724 0.506,0.156 c 0,0 2.413,-0.156 3.191,-0.467 0,0 5.098,-1.09 5.41,-1.012 0,0 2.841,-1.09 4.865,-1.206 0,0 4.787,-0.778 4.904,-0.778 0.117,0 5.993,-1.245 5.993,-1.245 0,0 9.146,-1.985 9.34,-1.985 0.195,0 7.861,-1.518 7.861,-1.518 0,0 3.697,-0.817 4.32,-0.584 l 0.311,-0.428 3.074,-1.401 0.623,-0.282 1.197,3.707 -0.058,0.234 -2.452,0.701 0.321,1.284 -0.35,0.876 3.97,0.817 0.496,3.327 -3.415,1.605 -2.685,-3.415 -7.239,5.517 -20.578,14.419 -1.197,0.963 -1.226,1.08 -0.992,0.73 -1.138,0.642 -1.022,0.759 -1.401,0.992 -4.349,2.977 -0.292,0.438 -0.35,0.642 -3.794,7.034 -0.35,0.642 -0.467,0.642 c 0,0 -0.963,1.372 -2.948,1.489 l -7.355,0.467 c 0,0 -1.372,0.029 -2.423,1.08 l -8.406,5.721 c 0,0 -4.933,2.277 -5.166,2.335 -0.233,0.058 -7.793,3.182 -7.793,3.182 l -0.73,-1.343 0.117,0.613 -0.204,0.146 -0.292,0.058 -0.204,0.263 2.948,9.545 0.058,0.35 -0.35,0.263 -35.494,14.274 -0.759,0.058 -2.685,-8.844 2.364,8.844 -0.029,0.321 -0.438,0.263 -32.516,12.843 -0.73,-0.029 -1.956,-7.093 1.022,4.291 v 0.409 l -6.713,2.627 27.145,29.655 c 0,0 0.292,0.496 -0.204,0.409 l -27.495,-29.83 -5.575,2.129 z" />
	<path
   style="fill:#f6f3eb"
   inkscape:connector-curvature="0"
   id="path11"
   d="m 349.399,140.966 c 0,0 -2.14,1.168 -3.23,-0.117 l -1.129,-1.284 -1.907,-5.993 c 0,0 -0.584,-4.047 2.335,-5.41 l 20.51,-4.476 c 0,0 1.557,-0.389 2.024,0.039 0,0 0.623,0.817 0.701,1.868 0,0 0.817,1.829 -0.467,2.569 l -18.837,12.804 z" />
	<path
   style="fill:#f6f3eb"
   inkscape:connector-curvature="0"
   id="path13"
   d="m 301.608,139.059 c 0,0 -2.841,2.296 -2.607,5.41 l 5.877,20.471 c 0,0 1.751,3.464 5.604,1.557 l 2.257,-1.479 5.721,-3.775 4.32,-3.152 c 0,0 5.059,-3.347 4.865,-10.352 -0.195,-7.005 -3.853,-9.768 -3.853,-9.768 0,0 -2.569,-3.113 -8.951,-2.374 -6.383,0.738 -13.233,3.462 -13.233,3.462 z" />
	<path
   style="fill:#f6f3eb"
   inkscape:connector-curvature="0"
   id="path15"
   d="m 292.842,140.023 0.496,0.701 0.846,2.831 0.905,0.934 c 0,0 0.613,1.08 0.701,1.635 l 2.481,9.078 -1.459,0.438 -4.378,-14.565 0.233,-0.321 h 0.321 l -0.146,-0.731 z" />
	<path
   style="fill:#f6f3eb"
   inkscape:connector-curvature="0"
   id="path17"
   d="m 298.826,157.185 2.189,7.122 0.438,1.605 c 0,0 0.496,1.226 -0.058,3.006 l -0.409,0.146 -3.707,-11.237 1.547,-0.642 z" />
	<polygon
   style="fill:#f6f3eb"
   id="polygon19"
   points="300.957,169.897 301.234,171.954 301.832,172.042 302.051,172.392 301.647,169.979 301.414,170.135 301.161,169.794 " />
	<polygon
   style="fill:#f6f3eb"
   id="polygon21"
   points="176.586,240.167 178.609,240.984 178.298,241.237 178.24,241.782 174.231,240.362 " />
	<polygon
   style="fill:#f6f3eb"
   id="polygon23"
   points="162.128,235.244 162.186,235.088 170.067,237.871 170.125,238.922 161.992,236.159 162.303,235.731 " />
	<polygon
   style="fill:#f6f3eb"
   id="polygon25"
   points="165.455,277.022 165.728,276.691 159.384,274.142 159.092,274.473 " />
	<polygon
   style="fill:#f6f3eb"
   id="polygon27"
   points="174.737,280.778 175.068,280.466 167.168,277.197 166.856,277.548 " />
</g></g>



<g
   id="g57"
   transform="translate(0,591.66199)">
</g>
<g
   id="g59"
   transform="translate(0,591.66199)">
</g>
<g
   id="g61"
   transform="translate(0,591.66199)">
</g>
<g
   id="g63"
   transform="translate(0,591.66199)">
</g>
<g
   id="g65"
   transform="translate(0,591.66199)">
</g>
<g
   id="g67"
   transform="translate(0,591.66199)">
</g>
</svg>