<?xml version="1.0" encoding="UTF-8" standalone="no"?>
<!-- Generator: Adobe Illustrator 17.0.0, SVG Export Plug-In . SVG Version: 6.00 Build 0)  -->

<svg
   xmlns:dc="http://purl.org/dc/elements/1.1/"
   xmlns:cc="http://creativecommons.org/ns#"
   xmlns:rdf="http://www.w3.org/1999/02/22-rdf-syntax-ns#"
   xmlns:svg="http://www.w3.org/2000/svg"
   xmlns="http://www.w3.org/2000/svg"
   xmlns:sodipodi="http://sodipodi.sourceforge.net/DTD/sodipodi-0.dtd"
   xmlns:inkscape="http://www.inkscape.org/namespaces/inkscape"
   version="1.1"
   id="Layer_1"
   x="0px"
   y="0px"
   width="1024"
   height="1024"
   viewBox="0 0 1024 1024"
   enable-background="new 0 0 432.338 432.338"
   xml:space="preserve"
   inkscape:version="0.48.3.1 r9886"
   sodipodi:docname="newhorizons.svg"><metadata
   id="metadata101"><rdf:RDF><cc:Work
       rdf:about=""><dc:format>image/svg+xml</dc:format><dc:type
         rdf:resource="http://purl.org/dc/dcmitype/StillImage" /></cc:Work></rdf:RDF></metadata><defs
   id="defs99" /><sodipodi:namedview
   pagecolor="#ffffff"
   bordercolor="#666666"
   borderopacity="1"
   objecttolerance="10"
   gridtolerance="10"
   guidetolerance="10"
   inkscape:pageopacity="0"
   inkscape:pageshadow="2"
   inkscape:window-width="1280"
   inkscape:window-height="749"
   id="namedview97"
   showgrid="true"
   borderlayer="true"
   inkscape:showpageshadow="false"
   inkscape:zoom="0.27293459"
   inkscape:cx="87.933156"
   inkscape:cy="243.64812"
   inkscape:window-x="0"
   inkscape:window-y="27"
   inkscape:window-maximized="1"
   inkscape:current-layer="Layer_1"><inkscape:grid
     type="xygrid"
     id="grid3087"
     empspacing="5"
     visible="true"
     enabled="true"
     snapvisiblegridlinesonly="true"
     spacingx="512px"
     spacingy="512px" /></sodipodi:namedview>









<g
   id="g3078"
   transform="matrix(2.3685172,0,0,2.3685172,0,2.6953124e-6)"><circle
     id="circle3"
     r="216.16901"
     cy="216.16901"
     cx="216.16901"
     sodipodi:cx="216.16901"
     sodipodi:cy="216.16901"
     sodipodi:rx="216.16901"
     sodipodi:ry="216.16901"
     style="fill:#f6f3eb"
     d="m 432.33801,216.16901 c 0,119.38684 -96.78216,216.169 -216.169,216.169 C 96.782161,432.33801 0,335.55585 0,216.16901 0,96.782161 96.782161,0 216.16901,0 c 119.38684,0 216.169,96.782161 216.169,216.16901 z" /><circle
     id="circle5"
     r="202.66901"
     cy="216.507"
     cx="215.83099"
     sodipodi:cx="215.83099"
     sodipodi:cy="216.507"
     sodipodi:rx="202.66901"
     sodipodi:ry="202.66901"
     style="fill:none"
     d="m 418.5,216.507 c 0,111.93101 -90.738,202.66901 -202.66901,202.66901 -111.931,0 -202.669003,-90.738 -202.669003,-202.66901 0,-111.931 90.738003,-202.669003 202.669003,-202.669003 C 327.762,13.837997 418.5,104.576 418.5,216.507 z" /><g
     id="g35">
	<path
   id="path37"
   d="m 103.553,240.546 -0.183,-1.158 -7.804,-24.023 c 0,0 -2.866,-0.732 -2.744,-7.987 l -1.646,1.728 -2.439,-0.976 -0.813,1.301 -1.301,-3.414 v -0.813 l -1.484,-0.996 -0.122,-0.732 0.61,-0.61 1.585,-0.061 0.549,-1.402 0.671,-1.158 -0.061,-2.866 c 0,0 -2.723,-20.141 4.918,-26.807 l 1.626,-2.764 1.057,-3.414 0.65,-3.333 1.707,-3.618 -0.203,-0.569 c 0,0 -2.032,4.634 -7.845,4.309 l -0.935,-2.642 c 0,0 7.642,0.163 9.024,-6.544 l -1.26,-3.292 -0.325,-1.463 -0.813,-1.219 v -0.813 l 1.057,-1.219 -0.447,-1.341 0.081,-3.902 c 0,0 0.976,-3.496 1.667,-3.983 0,0 0.61,-3.171 4.553,-4.959 3.943,-1.788 7.601,0.041 7.601,0.041 l 4.634,2.195 2.276,-7.195 0.528,-0.813 1.26,0.163 2.276,1.748 4.959,-6.626 1.26,0.163 4.187,-0.285 c 0,0 3.577,-4.674 7.967,-2.479 4.39,2.195 0.854,8.536 0.854,8.536 0,0 -2.256,3.963 -5.183,4.451 l -3.994,3.933 1.646,1.982 0.213,0.549 -2.134,5.853 16.889,4.085 c 0,0 -5.975,-13.901 -5.853,-16.523 0,0 -1.219,-11.28 6.585,-17.011 0,0 8.353,-7.987 33.656,-5.244 25.303,2.744 57.557,16.096 57.557,16.096 l 1.89,-1.341 c 0,0 -0.061,-2.5 3.536,-2.561 l 25.262,-17.194 0.61,-0.081 0.569,-1.219 3.821,-4.512 0.65,-0.163 0.163,-0.325 0.163,-0.366 0.61,-0.041 0.813,0.203 4.634,-7.276 c 0,0 -1.626,-1.26 -1.667,-1.829 0,0 -0.244,-0.813 0.528,-0.894 0,0 0.823,-0.112 1.677,0.193 l 1.555,-1.921 -1.25,-2.286 c 0,0 -0.427,-0.854 0.61,-0.64 l 2.104,1.25 0.335,-0.488 c 0,0 -0.518,-0.732 -0.518,-0.945 0,-0.213 0.488,-0.579 1.006,-0.335 l 1.829,0.854 c 0,0 0.945,0.732 0.183,0.976 l -0.64,-0.091 -0.335,0.793 c 0,0 2.835,1.189 2.469,1.829 0,0 -0.915,0.305 -1.341,0.183 l -0.701,0.122 -0.854,0.122 h -0.518 l -0.945,2.195 c 0,0 1.921,1.006 1.829,1.738 -0.091,0.732 -0.793,0.549 -0.793,0.549 l -1.219,-0.122 -0.335,-0.061 -3.689,7.926 0.193,0.681 0.447,0.65 -0.203,0.447 v 1.504 l -2.053,5.569 -0.427,28.89 c 0,0 4.298,4.085 2.225,6.006 l -1.189,1.402 -0.396,1.128 c 0,0 54.681,31.837 63.298,60.453 0,0 8.13,19.348 -15.04,26.096 0,0 -20.405,3.821 -41.379,-0.65 l 3.333,10.975 -1.463,-7.479 24.876,3.333 v 2.52 l 3.658,0.569 v -2.601 l 26.258,3.74 0.081,2.601 9.329,1.382 -2.622,4.573 c 0,0 4.024,2.622 4.268,6.829 l 3.049,0.549 -2.866,0.854 c 0,0 -0.061,7.195 -4.207,7.804 l 3.597,4.39 -10.06,-0.793 0.366,6.585 -26.827,-2.317 -0.305,-6.097 -3.597,-0.061 0.427,5.67 -28.413,-2.622 -0.549,0.366 -0.793,0.854 -14.999,9.694 -8.8,-5.711 -24.958,20.974 0.163,1.707 -0.325,1.057 -0.488,1.545 0.569,2.601 -0.65,0.325 c 0,0 0.976,1.138 1.463,1.463 0,0 0.894,1.707 -0.447,3.11 l -1.097,1.829 0.549,1.646 -0.305,1.524 -0.976,0.61 -0.549,0.122 -0.061,2.439 -0.427,0.427 -1.89,-0.915 -2.012,0.183 -0.366,0.488 -0.793,0.366 -1.158,-0.854 -2.683,-0.122 -0.732,0.427 -1.097,-0.244 -1.219,-0.122 h -1.463 l -0.854,0.549 -1.28,-0.305 -2.195,-0.305 -2.073,-0.061 -3.536,3.597 -1.219,-0.122 c 0,0 -6.646,7.073 -9.755,6.158 l -0.61,0.366 0.061,1.524 -1.158,0.183 -1.036,0.61 -0.488,3.292 c 0,0 6.077,14.816 -22.214,26.766 0,0 -9.105,2.601 -18.779,0.894 -9.674,-1.707 -10.162,-11.788 -5.853,-18.86 l -1.707,-2.927 -9.024,-0.163 c 0,0 -3.252,0.488 -3.008,-7.886 l -4.553,-1.707 -1.545,-0.894 -3.292,-8.211 -3.414,1.504 -1.382,0.488 h -0.935 l -1.26,-0.813 -1.301,-5.894 -2.439,-0.976 -0.081,-0.732 0.447,-0.854 1.301,-0.406 0.813,-1.26 0.285,-1.667 0.772,-0.447 0.732,-2.276 -0.122,-3.496 1.341,-0.122 -5.04,-3.618 c 0,0 -6.504,0.163 -9.024,-4.227 0,0 -4.105,-5.284 -0.325,-11.747 0,0 0.894,-0.894 2.114,-1.098 l -1.504,-0.488 2.236,-2.398 -3.943,-13.495 0.163,-0.549 c 0,0 -1.585,-6.036 -8.475,-8.475 l -1.585,-2.866 -0.183,-1.646 c -0.003,-0.004 4.205,-9.149 8.107,-10.43 z"
   inkscape:connector-curvature="0"
   style="fill:#262224" />
	<path
   id="path39"
   d="m 270.675,103.483 -23.352,15.974 c 0,0 11.158,1.524 19.084,6.463 l 0.772,-1.606 c 0,0 -3.618,-2.236 -3.821,-2.927 l 0.447,-0.691 c 0,0 -0.569,-1.301 0.691,-1.341 l 0.163,-0.203 c 0,0 -0.203,-1.097 1.382,-0.772 l 4.796,-7.682 -1.504,-1.423 1.138,-3.699 0.204,-2.093 z"
   inkscape:connector-curvature="0"
   style="fill:#f6f3eb" />
	<path
   id="path41"
   d="m 268.724,124.681 0.935,0.081 0.406,-0.813 0.122,-0.325 h 0.447 l 0.122,-0.447 -0.122,-0.528 -0.163,-0.325 0.406,-0.163 0.203,-0.447 -0.08,-0.57 -0.244,-0.488 3.658,-8.13 1.748,-0.041 0.488,-0.325 0.732,-1.179 1.951,-2.683 0.325,0.041 -0.488,26.014 c 0,0 -8.536,-6.544 -11.625,-7.804 l 1.179,-1.868 z"
   inkscape:connector-curvature="0"
   style="fill:#f6f3eb" />
</g><circle
     id="circle69"
     r="154.16901"
     cy="216.828"
     cx="216.50999"
     sodipodi:cx="216.50999"
     sodipodi:cy="216.828"
     sodipodi:rx="154.16901"
     sodipodi:ry="154.16901"
     style="fill:none"
     d="m 370.679,216.828 c 0,85.14519 -69.02381,154.16901 -154.16901,154.16901 -85.14519,0 -154.169002,-69.02382 -154.169002,-154.16901 0,-85.14519 69.023812,-154.169003 154.169002,-154.169003 85.1452,0 154.16901,69.023813 154.16901,154.169003 z" /></g>




<g
   id="g85"
   transform="translate(0,591.66199)">
</g>
<g
   id="g87"
   transform="translate(0,591.66199)">
</g>
<g
   id="g89"
   transform="translate(0,591.66199)">
</g>
<g
   id="g91"
   transform="translate(0,591.66199)">
</g>
<g
   id="g93"
   transform="translate(0,591.66199)">
</g>
<g
   id="g95"
   transform="translate(0,591.66199)">
</g>
</svg>