<?xml version="1.0" encoding="utf-8"?>
<!-- Generator: Adobe Illustrator 17.0.0, SVG Export Plug-In . SVG Version: 6.00 Build 0)  -->
<!DOCTYPE svg PUBLIC "-//W3C//DTD SVG 1.1//EN" "http://www.w3.org/Graphics/SVG/1.1/DTD/svg11.dtd">
<svg version="1.1" id="Layer_1" xmlns="http://www.w3.org/2000/svg" xmlns:xlink="http://www.w3.org/1999/xlink" x="0px" y="0px"
	 width="432.338px" height="432.338px" viewBox="0 0 432.338 432.338" enable-background="new 0 0 432.338 432.338"
	 xml:space="preserve">
<circle fill="#F6F3EB" cx="216.169" cy="216.169" r="216.169"/>
<circle fill="none" cx="215.831" cy="216.507" r="202.669"/>
<circle fill="#F6F3EB" cx="671.169" cy="209.169" r="216.169"/>
<circle fill="none" cx="670.831" cy="209.507" r="202.669"/>
<g>
	<path fill="#262224" d="M473.377,163.109l89.409,19.729c0,0,1.722-3.498,4.198-1.184l5.113,1.13c0,0,3.175-0.915,4.251,2.96
		l78.195,17.167c0,0,5.274-28.792,31.267-36.702l-72.9-151.092l0.982-0.284l72.806,150.972l0.323,0.323
		c0,0,20.262-5.731,37.214,15.176h0.969l0.565-0.404l-0.484-4.036l0.969-0.161l1.049-0.807v-2.099h2.745l0.565-8.637l0.565-0.484
		l2.26-0.081l0.646,0.565l5.086-1.049l0.727-0.646h1.857l2.18,0.727l0.081,1.776l2.422,3.068l28.818-43.187
		c0,0,1.857-0.404,1.615,1.453l-28.98,41.654l-0.081,0.646l1.292,0.404l1.776-0.404l1.292,0.727l0.727-1.292l1.453-0.161
		l0.646-0.404l-0.081-0.727l-2.664-0.727l-1.695-0.161l-0.081-0.807l4.682-0.646l1.13-0.646l-0.161-1.614l2.906-2.825
		c0,0,1.695,0.081,2.906-1.049l-0.969-3.229c0,0,6.942-5.005,20.342-8.637l1.453,3.068c0,0,0.646,1.776,3.068,0.484l4.682,14.934
		l-1.554,0.787v0.666l1.756-0.545l3.249,11.402l0.141,0.141l6.377-0.525l4.016-0.02c0,0,2.805-0.121,11.443,6.619
		c0,0,10.494-3.673,14.894-3.794l2.139,0.081c0,0,2.664,0.484,5.005,3.189v1.937l-0.727,1.453h-1.171c0,0-6.296,10.212-10.212,13.36
		c0,0,1.857,2.825,2.099,8.315c0,0,3.108,0.727,2.906,3.955l0.04,3.269l9.606,2.987l-1.493,1.534c0,0,1.413,1.534,1.372,2.422h1.049
		v0.686h-1.13c0,0,0.444,1.897-1.332,3.068l1.009,1.453l-2.301-0.444l-1.453,0.202v2.583l-8.193-2.301c0,0-1.937,3.875-2.381,4.036
		c0,0,0.848,3.431,4.642,6.458c0,0-3.794,0.767-6.942-2.381l-1.453,1.736l-0.04,1.09c0,0,8.597,11.988,9.727,18.688h0.605v0.404
		h1.292v1.211h0.323v1.292h-0.404v1.049h-1.534l-0.928,1.776h-7.467l-13.36-6.014c0,0-24.056,14.571-35.518,16.185
		c0,0-10.978,1.534-19.051-1.695c0,0-11.705-4.44-23.491-14.046c0,0-8.234,14.127-15.338,16.629v2.018h-1.292v-1.292
		c0,0-2.825,2.422-6.296,3.148l-0.646,1.453l-3.31,4.278l-0.081,1.211c0,0-0.161,0.646-1.13,0.511
		c-0.969-0.135-0.646-0.996-0.646-0.996s0.188-0.861,0.996-0.888l3.148-4.467l0.027-0.7c0,0-10.225,3.875-21.93-1.534
		s-15.257-10.252-15.257-10.252l-87.098,125.179l-1.147-0.555l87.68-125.754c0,0-21.338-21.957-16.387-54.892l-79.378-16.898
		c0,0-1.453,1.614-4.198,0.269l-6.942-1.238c0,0-0.915,0.108-1.668-1.614l-89.922-18.556"/>
	<path fill="#F6F3EB" d="M787.01,249.354h0.996v0.942C788.006,250.296,787.36,250.269,787.01,249.354z"/>
	<path fill="#F6F3EB" d="M789.647,249.031v1.884c0,0,1.48,0.511,2.718,0.619c0,0,0.511-2.153,0.457-2.422
		C792.822,249.112,790.428,248.735,789.647,249.031z"/>
	<path fill="#F6F3EB" d="M794.437,249.973l-0.35,1.722l4.547,0.915l0.027-0.646C798.661,251.964,795.406,250.108,794.437,249.973z"
		/>
	<polygon fill="#F6F3EB" points="567.226,190.506 568.397,191.556 568.397,191.959 567.428,191.879 567.388,191.515 
		566.822,191.515 	"/>
	<polygon fill="#F6F3EB" points="566.136,192.161 566.136,192.545 567.408,192.545 567.408,192.181 	"/>
	<polygon fill="#F6F3EB" points="565.854,193.15 567.428,193.15 567.428,192.868 569.163,192.868 569.708,193.776 569.708,194.139 
		568.861,194.139 565.854,193.493 	"/>
	<polygon fill="#F6F3EB" points="567.791,182.192 570.657,182.959 570.657,183.181 569.729,183.181 569.729,183.483 
		568.094,183.483 568.094,182.858 567.771,182.858 	"/>
	<rect x="570.354" y="183.786" fill="#F6F3EB" width="0.686" height="0.404"/>
	<polygon fill="#F6F3EB" points="569.042,184.432 569.042,185.078 569.688,185.078 569.688,185.421 570.011,185.421 
		570.011,185.098 570.314,185.098 570.314,184.735 569.486,184.735 569.486,184.432 	"/>
	<polygon fill="#F6F3EB" points="568.397,185.098 568.397,186.147 569.385,186.147 569.385,185.764 568.719,185.078 	"/>
</g>
<g>
	<path fill="#262224" d="M103.553,240.546l-0.183-1.158l-7.804-24.023c0,0-2.866-0.732-2.744-7.987l-1.646,1.728l-2.439-0.976
		l-0.813,1.301l-1.301-3.414v-0.813l-1.484-0.996l-0.122-0.732l0.61-0.61l1.585-0.061l0.549-1.402l0.671-1.158l-0.061-2.866
		c0,0-2.723-20.141,4.918-26.807l1.626-2.764l1.057-3.414l0.65-3.333l1.707-3.618l-0.203-0.569c0,0-2.032,4.634-7.845,4.309
		l-0.935-2.642c0,0,7.642,0.163,9.024-6.544l-1.26-3.292l-0.325-1.463l-0.813-1.219v-0.813l1.057-1.219l-0.447-1.341l0.081-3.902
		c0,0,0.976-3.496,1.667-3.983c0,0,0.61-3.171,4.553-4.959c3.943-1.788,7.601,0.041,7.601,0.041l4.634,2.195l2.276-7.195
		l0.528-0.813l1.26,0.163l2.276,1.748l4.959-6.626l1.26,0.163l4.187-0.285c0,0,3.577-4.674,7.967-2.479s0.854,8.536,0.854,8.536
		s-2.256,3.963-5.183,4.451l-3.994,3.933l1.646,1.982l0.213,0.549l-2.134,5.853l16.889,4.085c0,0-5.975-13.901-5.853-16.523
		c0,0-1.219-11.28,6.585-17.011c0,0,8.353-7.987,33.656-5.244c25.303,2.744,57.557,16.096,57.557,16.096l1.89-1.341
		c0,0-0.061-2.5,3.536-2.561l25.262-17.194l0.61-0.081l0.569-1.219l3.821-4.512l0.65-0.163l0.163-0.325l0.163-0.366l0.61-0.041
		l0.813,0.203l4.634-7.276c0,0-1.626-1.26-1.667-1.829c0,0-0.244-0.813,0.528-0.894c0,0,0.823-0.112,1.677,0.193l1.555-1.921
		l-1.25-2.286c0,0-0.427-0.854,0.61-0.64l2.104,1.25l0.335-0.488c0,0-0.518-0.732-0.518-0.945c0-0.213,0.488-0.579,1.006-0.335
		l1.829,0.854c0,0,0.945,0.732,0.183,0.976l-0.64-0.091l-0.335,0.793c0,0,2.835,1.189,2.469,1.829c0,0-0.915,0.305-1.341,0.183
		l-0.701,0.122l-0.854,0.122h-0.518l-0.945,2.195c0,0,1.921,1.006,1.829,1.738c-0.091,0.732-0.793,0.549-0.793,0.549l-1.219-0.122
		l-0.335-0.061l-3.689,7.926l0.193,0.681l0.447,0.65l-0.203,0.447v1.504l-2.053,5.569l-0.427,28.89c0,0,4.298,4.085,2.225,6.006
		l-1.189,1.402l-0.396,1.128c0,0,54.681,31.837,63.298,60.453c0,0,8.13,19.348-15.04,26.096c0,0-20.405,3.821-41.379-0.65
		l3.333,10.975l-1.463-7.479l24.876,3.333v2.52l3.658,0.569v-2.601l26.258,3.74l0.081,2.601l9.329,1.382l-2.622,4.573
		c0,0,4.024,2.622,4.268,6.829l3.049,0.549l-2.866,0.854c0,0-0.061,7.195-4.207,7.804l3.597,4.39l-10.06-0.793l0.366,6.585
		l-26.827-2.317l-0.305-6.097l-3.597-0.061l0.427,5.67l-28.413-2.622l-0.549,0.366l-0.793,0.854l-14.999,9.694l-8.8-5.711
		l-24.958,20.974l0.163,1.707l-0.325,1.057l-0.488,1.545l0.569,2.601l-0.65,0.325c0,0,0.976,1.138,1.463,1.463
		c0,0,0.894,1.707-0.447,3.11l-1.097,1.829l0.549,1.646l-0.305,1.524l-0.976,0.61l-0.549,0.122l-0.061,2.439l-0.427,0.427
		l-1.89-0.915l-2.012,0.183l-0.366,0.488l-0.793,0.366l-1.158-0.854l-2.683-0.122l-0.732,0.427l-1.097-0.244l-1.219-0.122h-1.463
		l-0.854,0.549l-1.28-0.305l-2.195-0.305l-2.073-0.061l-3.536,3.597l-1.219-0.122c0,0-6.646,7.073-9.755,6.158l-0.61,0.366
		l0.061,1.524l-1.158,0.183l-1.036,0.61l-0.488,3.292c0,0,6.077,14.816-22.214,26.766c0,0-9.105,2.601-18.779,0.894
		c-9.674-1.707-10.162-11.788-5.853-18.86l-1.707-2.927l-9.024-0.163c0,0-3.252,0.488-3.008-7.886l-4.553-1.707l-1.545-0.894
		l-3.292-8.211l-3.414,1.504l-1.382,0.488h-0.935l-1.26-0.813l-1.301-5.894l-2.439-0.976l-0.081-0.732l0.447-0.854l1.301-0.406
		l0.813-1.26l0.285-1.667l0.772-0.447l0.732-2.276l-0.122-3.496l1.341-0.122l-5.04-3.618c0,0-6.504,0.163-9.024-4.227
		c0,0-4.105-5.284-0.325-11.747c0,0,0.894-0.894,2.114-1.098l-1.504-0.488l2.236-2.398l-3.943-13.495l0.163-0.549
		c0,0-1.585-6.036-8.475-8.475l-1.585-2.866l-0.183-1.646C95.443,250.972,99.651,241.827,103.553,240.546z"/>
	<path fill="#F6F3EB" d="M270.675,103.483l-23.352,15.974c0,0,11.158,1.524,19.084,6.463l0.772-1.606c0,0-3.618-2.236-3.821-2.927
		l0.447-0.691c0,0-0.569-1.301,0.691-1.341l0.163-0.203c0,0-0.203-1.097,1.382-0.772l4.796-7.682l-1.504-1.423l1.138-3.699
		L270.675,103.483z"/>
	<path fill="#F6F3EB" d="M268.724,124.681l0.935,0.081l0.406-0.813l0.122-0.325h0.447l0.122-0.447l-0.122-0.528l-0.163-0.325
		l0.406-0.163l0.203-0.447L271,121.144l-0.244-0.488l3.658-8.13l1.748-0.041l0.488-0.325l0.732-1.179l1.951-2.683l0.325,0.041
		l-0.488,26.014c0,0-8.536-6.544-11.625-7.804L268.724,124.681z"/>
</g>
<circle fill="#F6F3EB" cx="1130.169" cy="212.169" r="216.169"/>
<circle fill="none" cx="1129.831" cy="212.507" r="202.669"/>
<g>
	<path fill="#262224" d="M1134.631,211.678v0.671l-1.489,2.335c0,0,0.642,0,0.759,0.467l0.292,0.058l0.175-0.117
		c0,0,0.156-0.701,0.701-0.331c0,0,0.389,0.35,0.234,0.817c-0.156,0.467-0.311,0.467-0.311,0.467s-0.448,0.117-0.72-0.37
		l-0.448,0.039c0,0-0.175,0.448-0.564,0.389c-0.389-0.058-0.506-0.331-0.506-0.331l-0.214,0.058l-2.724,3.736l1.849-0.019
		l0.389,0.389l-7.492,10.78l-1.304-0.058l0.389,1.615l-0.603,0.525l0.078,0.545l0.156,0.019c0,0,0.564-0.292,0.642,0.331
		c0,0-0.039,0.428-0.584,0.35l-0.409-0.019l-0.272-0.195l-0.292-0.817l-0.195,0.156l0.136,0.545l0.175,0.136l0.175,0.331
		l0.234,0.019l0.156,0.136l-0.078,0.156l-0.156,0.156l-0.37-0.019l-0.331-0.156l-0.272-0.311l-0.078-0.389l-0.156-0.35l-0.175-0.019
		l0.058,0.35l0.078,0.467l0.019,0.409l-0.175,0.136l-0.253,0.039l-0.467,0.019l-0.233-0.078v-0.253l0.175-0.195h0.428l-0.058-0.214
		l-0.331-0.584l-0.623,0.039l-0.584,0.915l0.234,0.516l0.136,0.068l0.379,0.039c0,0,0.156-0.243,0.311-0.234
		c0.156,0.01,0.555-0.156,0.778,0.379c0.224,0.535-0.195,0.817-0.195,0.817s-0.701,0.214-0.808-0.321l-0.292-0.01l-0.389,0.165
		l-1.051,0.078l-0.876,0.778l-0.885,0.019l-0.097,0.438l-0.555,0.19l-0.399-0.005l-1.051-0.457l-12.429,1.309v0.229l0.122,0.088
		l-0.019,0.272l-0.837,0.117l-1.479-0.603l-2.102,0.37l0.019,0.37l-0.039,0.214l-0.214,0.214l-0.058,0.175l4.145,1.42l-5.448,37.964
		h-0.661l-4.169-1.688l0.029,0.569l6.626,2.612l-5.366,37.035l-0.734,0.165l-5.444-2.496l0.029,0.365l5.823,2.569l0.117,0.102
		l-4.057,28.882l-0.949,7.209l-0.623,0.253l-6.266-2.997l-0.029,0.263l6.217,3.211l0.175,0.234l-6.48,45.796l-0.613,0.204
		l-33.216-19.293l-0.146-0.234l5.838-43.695l0.759-0.35l4.612,2.452l0.321-0.146l-5.225-2.715l-0.263-0.263l4.612-34.238
		l0.204-0.292l0.35-0.058l5.633,2.452l0.088-0.292l-6.042-2.715l4.583-35.376l0.496-0.204l4.904,1.926l0.438-0.379l-3.736-1.518
		l-0.088-0.321l4.699-34.792c0,0-3.999-0.73-7.297-3.736c-3.298-3.006-5.662-7.647-5.662-7.647s-1.167-1.868-2.51-6.451
		c0,0-0.234-4.057-0.438-4.466c0,0-0.234-7.239,0.117-9.457c0,0,0.905-3.211,1.021-3.298l0.992-3.415l-12.609-15.791l-0.701,1.372
		l-0.613,0.088l-18.564-23.351l0.35-0.555l-0.73-0.029l-17.484-22.212l0.263-0.467l-0.671-0.088l-21.512-27.291v-0.438
		l17.951-36.719h0.555l22.971,27.116l-0.058,0.584l0.525,0.029l18.68,22.037l-0.175,0.525l0.671,0.088l19.556,23.088v0.292
		l-1.43,2.335l0.701,0.117l20.87,24.635l-2.656,4.232l0.146,0.234c0,0,0.759-0.175,1.167,0.525l2.102,0.234v-0.905l21.045,0.467
		l0.788,0.321l28.546-13.427l0.671,0.146l-0.817-3.094l4.407-2.277l2.831-11.734c0,0,0.35-0.292,0.438,0.088l-2.744,11.383
		l27.262-12.843h0.555l-0.058-0.379l35.318-16.579l0.525,0.117l2.627,9.107l0.409,0.146l0.399,0.097l-0.311-0.584l0.195-0.234
		l7.122-3.269c0,0,3.58-2.218,7.083-2.257c0,0,5.137-1.051,5.604-1.206c0,0,3.191-0.234,6.071-3.269c0,0,3.931-3.347,3.931-3.58
		c0,0,2.102-2.413,4.904-1.051l7.278,2.724l0.506,0.156c0,0,2.413-0.156,3.191-0.467c0,0,5.098-1.09,5.41-1.012
		c0,0,2.841-1.09,4.865-1.206c0,0,4.787-0.778,4.904-0.778c0.117,0,5.993-1.245,5.993-1.245s9.146-1.985,9.34-1.985
		s7.861-1.518,7.861-1.518s3.697-0.817,4.32-0.584l0.311-0.428l3.074-1.401l0.623-0.282l1.197,3.707l-0.058,0.234l-2.452,0.701
		l0.321,1.284l-0.35,0.876l3.97,0.817l0.496,3.327l-3.415,1.605l-2.685-3.415l-7.239,5.517l-20.578,14.419l-1.197,0.963l-1.226,1.08
		l-0.992,0.73l-1.138,0.642l-1.022,0.759l-1.401,0.992l-4.349,2.977l-0.292,0.438l-0.35,0.642l-3.794,7.034l-0.35,0.642
		l-0.467,0.642c0,0-0.963,1.372-2.948,1.489l-7.355,0.467c0,0-1.372,0.029-2.423,1.08l-8.406,5.721c0,0-4.933,2.277-5.166,2.335
		s-7.793,3.182-7.793,3.182l-0.73-1.343l0.117,0.613l-0.204,0.146l-0.292,0.058l-0.204,0.263l2.948,9.545l0.058,0.35l-0.35,0.263
		l-35.493,14.273l-0.759,0.058l-2.685-8.844l2.364,8.844l-0.029,0.321l-0.438,0.263l-32.516,12.843l-0.73-0.029l-1.956-7.093
		l1.021,4.291v0.409l-6.713,2.627l27.145,29.655c0,0,0.292,0.496-0.204,0.409l-27.495-29.83L1134.631,211.678z"/>
	<path fill="#F6F3EB" d="M1263.399,136.966c0,0-2.14,1.168-3.23-0.117l-1.129-1.284l-1.907-5.993c0,0-0.584-4.047,2.335-5.41
		l20.51-4.476c0,0,1.557-0.389,2.024,0.039c0,0,0.623,0.817,0.701,1.868c0,0,0.817,1.829-0.467,2.569L1263.399,136.966z"/>
	<path fill="#F6F3EB" d="M1215.608,135.059c0,0-2.841,2.296-2.607,5.41l5.876,20.471c0,0,1.751,3.464,5.604,1.557l2.257-1.479
		l5.721-3.775l4.32-3.152c0,0,5.059-3.347,4.865-10.352c-0.195-7.005-3.853-9.768-3.853-9.768s-2.568-3.113-8.951-2.374
		C1222.458,132.335,1215.608,135.059,1215.608,135.059z"/>
	<path fill="#F6F3EB" d="M1206.842,136.023l0.496,0.701l0.847,2.831l0.905,0.934c0,0,0.613,1.08,0.701,1.635l2.481,9.078
		l-1.459,0.438l-4.378-14.565l0.234-0.321h0.321L1206.842,136.023z"/>
	<path fill="#F6F3EB" d="M1212.826,153.185l2.189,7.122l0.438,1.605c0,0,0.496,1.226-0.058,3.006l-0.409,0.146l-3.707-11.237
		L1212.826,153.185z"/>
	<polygon fill="#F6F3EB" points="1215.647,165.979 1215.414,166.135 1215.161,165.794 1214.957,165.897 1215.234,167.954 
		1215.832,168.042 1216.051,168.392 	"/>
	<polygon fill="#F6F3EB" points="1090.586,236.167 1092.609,236.984 1092.298,237.237 1092.24,237.782 1088.231,236.362 	"/>
	<polygon fill="#F6F3EB" points="1084.067,233.871 1084.125,234.922 1075.992,232.159 1076.303,231.731 1076.128,231.244 
		1076.186,231.088 	"/>
	<polygon fill="#F6F3EB" points="1073.384,270.142 1073.092,270.473 1079.455,273.022 1079.728,272.691 	"/>
	<polygon fill="#F6F3EB" points="1081.168,273.197 1080.856,273.548 1088.737,276.778 1089.068,276.466 	"/>
</g>
<circle fill="none" cx="216.51" cy="216.828" r="154.169"/>
<circle fill="#F6F3EB" cx="1589.632" cy="220.675" r="216.169"/>
<circle fill="none" cx="1589.294" cy="221.013" r="202.669"/>
<g>
	<path fill="#262224" d="M1477.016,245.053l-0.183-1.158l-7.804-24.023c0,0-2.866-0.732-2.744-7.987l-1.646,1.728l-2.439-0.976
		l-0.813,1.301l-1.301-3.414v-0.813l-1.484-0.996l-0.122-0.732l0.61-0.61l1.585-0.061l0.549-1.402l0.671-1.158l-0.061-2.866
		c0,0-2.723-20.141,4.918-26.807l1.626-2.764l1.057-3.414l0.65-3.333l1.707-3.618l-0.203-0.569c0,0-2.032,4.634-7.845,4.309
		l-0.935-2.642c0,0,7.642,0.163,9.024-6.544l-1.26-3.292l-0.325-1.463l-0.813-1.219v-0.813l1.057-1.219l-0.447-1.341l0.081-3.902
		c0,0,0.976-3.496,1.667-3.983c0,0,0.61-3.171,4.552-4.959c3.943-1.788,7.601,0.041,7.601,0.041l4.634,2.195l2.276-7.195
		l0.528-0.813l1.26,0.163l2.276,1.748l4.959-6.626l1.26,0.163l4.187-0.285c0,0,3.577-4.674,7.967-2.479
		c4.39,2.195,0.854,8.536,0.854,8.536s-2.256,3.963-5.182,4.451l-3.994,3.933l1.646,1.982l0.213,0.549l-2.134,5.853l16.889,4.085
		c0,0-5.975-13.901-5.853-16.523c0,0-1.219-11.28,6.585-17.011c0,0,8.353-7.987,33.656-5.244
		c25.303,2.744,57.557,16.096,57.557,16.096l1.89-1.341c0,0-0.061-2.5,3.536-2.561l25.262-17.194l0.61-0.081l0.569-1.219
		l3.821-4.512l0.65-0.163l0.163-0.325l0.163-0.366l0.61-0.041l0.813,0.203l4.634-7.276c0,0-1.626-1.26-1.667-1.829
		c0,0-0.244-0.813,0.528-0.894c0,0,0.823-0.112,1.677,0.193l1.555-1.921l-1.25-2.286c0,0-0.427-0.854,0.61-0.64l2.104,1.25
		l0.335-0.488c0,0-0.518-0.732-0.518-0.945c0-0.213,0.488-0.579,1.006-0.335l1.829,0.854c0,0,0.945,0.732,0.183,0.976l-0.64-0.091
		l-0.335,0.793c0,0,2.835,1.189,2.469,1.829c0,0-0.915,0.305-1.341,0.183l-0.701,0.122l-0.854,0.122h-0.518l-0.945,2.195
		c0,0,1.921,1.006,1.829,1.738c-0.091,0.732-0.793,0.549-0.793,0.549l-1.219-0.122l-0.335-0.061l-3.689,7.926l0.193,0.681
		l0.447,0.65l-0.203,0.447v1.504l-2.053,5.569l-0.427,28.89c0,0,4.298,4.085,2.225,6.006l-1.189,1.402l-0.396,1.128
		c0,0,54.681,31.837,63.298,60.453c0,0,8.13,19.348-15.04,26.096c0,0-20.405,3.821-41.379-0.65l3.333,10.975l-1.463-7.479
		l24.876,3.333v2.52l3.658,0.569v-2.601l26.258,3.74l0.081,2.601l9.329,1.382l-2.622,4.573c0,0,4.024,2.622,4.268,6.829l3.049,0.549
		l-2.866,0.854c0,0-0.061,7.195-4.207,7.804l3.597,4.39l-10.06-0.793l0.366,6.585l-26.827-2.317l-0.305-6.097l-3.597-0.061
		l0.427,5.67l-28.413-2.622l-0.549,0.366l-0.793,0.854l-14.999,9.694l-8.8-5.711l-24.958,20.974l0.163,1.707l-0.325,1.057
		l-0.488,1.545l0.569,2.601l-0.65,0.325c0,0,0.976,1.138,1.463,1.463c0,0,0.894,1.707-0.447,3.11l-1.098,1.829l0.549,1.646
		l-0.305,1.524l-0.975,0.61l-0.549,0.122l-0.061,2.439l-0.427,0.427l-1.89-0.915l-2.012,0.183l-0.366,0.488l-0.793,0.366
		l-1.158-0.854l-2.683-0.122l-0.732,0.427l-1.097-0.244l-1.219-0.122h-1.463l-0.854,0.549l-1.28-0.305l-2.195-0.305l-2.073-0.061
		l-3.536,3.597l-1.219-0.122c0,0-6.646,7.073-9.755,6.158l-0.61,0.366l0.061,1.524l-1.158,0.183l-1.036,0.61l-0.488,3.292
		c0,0,6.077,14.816-22.214,26.766c0,0-9.105,2.601-18.779,0.894c-9.674-1.707-10.162-11.788-5.853-18.86l-1.707-2.927l-9.024-0.163
		c0,0-3.252,0.488-3.008-7.886l-4.552-1.707l-1.545-0.894l-3.292-8.211l-3.414,1.504l-1.382,0.488h-0.935l-1.26-0.813l-1.301-5.894
		l-2.439-0.976l-0.081-0.732l0.447-0.854l1.301-0.406l0.813-1.26l0.285-1.667l0.772-0.447l0.732-2.276l-0.122-3.496l1.341-0.122
		l-5.04-3.618c0,0-6.504,0.163-9.024-4.227c0,0-4.105-5.284-0.325-11.747c0,0,0.894-0.894,2.114-1.098l-1.504-0.488l2.236-2.398
		l-3.943-13.495l0.163-0.549c0,0-1.585-6.036-8.475-8.475l-1.585-2.866l-0.183-1.646
		C1468.907,255.479,1473.114,246.333,1477.016,245.053z"/>
	<path fill="#F6F3EB" d="M1644.138,107.989l-23.352,15.974c0,0,11.158,1.524,19.084,6.463l0.772-1.606c0,0-3.618-2.236-3.821-2.927
		l0.447-0.691c0,0-0.569-1.301,0.691-1.341l0.163-0.203c0,0-0.203-1.097,1.382-0.772l4.796-7.682l-1.504-1.423l1.138-3.699
		L1644.138,107.989z"/>
	<path fill="#F6F3EB" d="M1642.187,129.187l0.935,0.081l0.406-0.813l0.122-0.325h0.447l0.122-0.447l-0.122-0.528l-0.163-0.325
		l0.406-0.163l0.203-0.447l-0.081-0.569l-0.244-0.488l3.658-8.13l1.748-0.041l0.488-0.325l0.732-1.179l1.951-2.683l0.325,0.041
		l-0.488,26.014c0,0-8.536-6.544-11.625-7.804L1642.187,129.187z"/>
</g>
<circle fill="none" cx="1589.974" cy="221.335" r="154.169"/>
<g>
</g>
<g>
</g>
<g>
</g>
<g>
</g>
<g>
</g>
<g>
</g>
</svg>
