<?xml version="1.0" encoding="utf-8"?>
<!-- Generator: Adobe Illustrator 17.0.0, SVG Export Plug-In . SVG Version: 6.00 Build 0)  -->
<!DOCTYPE svg PUBLIC "-//W3C//DTD SVG 1.1//EN" "http://www.w3.org/Graphics/SVG/1.1/DTD/svg11.dtd">
<svg version="1.1" id="Layer_1" xmlns="http://www.w3.org/2000/svg" xmlns:xlink="http://www.w3.org/1999/xlink" x="0px" y="0px"
	 width="432.338px" height="432.338px" viewBox="0 0 432.338 432.338" enable-background="new 0 0 432.338 432.338"
	 xml:space="preserve">
<circle fill="#F6F3EB" cx="671.169" cy="209.169" r="216.169"/>
<circle fill="none" cx="670.831" cy="209.507" r="202.669"/>
<g>
	<path fill="#262224" d="M473.377,163.109l89.409,19.729c0,0,1.722-3.498,4.198-1.184l5.113,1.13c0,0,3.175-0.915,4.251,2.96
		l78.195,17.167c0,0,5.274-28.792,31.267-36.702l-72.9-151.092l0.982-0.284l72.806,150.972l0.323,0.323
		c0,0,20.262-5.731,37.214,15.176h0.969l0.565-0.404l-0.484-4.036l0.969-0.161l1.049-0.807v-2.099h2.745l0.565-8.637l0.565-0.484
		l2.26-0.081l0.646,0.565l5.086-1.049l0.727-0.646h1.857l2.18,0.727l0.081,1.776l2.422,3.068l28.818-43.187
		c0,0,1.857-0.404,1.615,1.453l-28.98,41.654l-0.081,0.646l1.292,0.404l1.776-0.404l1.292,0.727l0.727-1.292l1.453-0.161
		l0.646-0.404l-0.081-0.727l-2.664-0.727l-1.695-0.161l-0.081-0.807l4.682-0.646l1.13-0.646l-0.161-1.614l2.906-2.825
		c0,0,1.695,0.081,2.906-1.049l-0.969-3.229c0,0,6.942-5.005,20.342-8.637l1.453,3.068c0,0,0.646,1.776,3.068,0.484l4.682,14.934
		l-1.554,0.787v0.666l1.756-0.545l3.249,11.402l0.141,0.141l6.377-0.525l4.016-0.02c0,0,2.805-0.121,11.443,6.619
		c0,0,10.494-3.673,14.894-3.794l2.139,0.081c0,0,2.664,0.484,5.005,3.189v1.937l-0.727,1.453h-1.171c0,0-6.296,10.212-10.212,13.36
		c0,0,1.857,2.825,2.099,8.315c0,0,3.108,0.727,2.906,3.955l0.04,3.269l9.606,2.987l-1.493,1.534c0,0,1.413,1.534,1.372,2.422h1.049
		v0.686h-1.13c0,0,0.444,1.897-1.332,3.068l1.009,1.453l-2.301-0.444l-1.453,0.202v2.583l-8.193-2.301c0,0-1.937,3.875-2.381,4.036
		c0,0,0.848,3.431,4.642,6.458c0,0-3.794,0.767-6.942-2.381l-1.453,1.736l-0.04,1.09c0,0,8.597,11.988,9.727,18.688h0.605v0.404
		h1.292v1.211h0.323v1.292h-0.404v1.049h-1.534l-0.928,1.776h-7.467l-13.36-6.014c0,0-24.056,14.571-35.518,16.185
		c0,0-10.978,1.534-19.051-1.695c0,0-11.705-4.44-23.491-14.046c0,0-8.234,14.127-15.338,16.629v2.018h-1.292v-1.292
		c0,0-2.825,2.422-6.296,3.148l-0.646,1.453l-3.31,4.278l-0.081,1.211c0,0-0.161,0.646-1.13,0.511
		c-0.969-0.135-0.646-0.996-0.646-0.996s0.188-0.861,0.996-0.888l3.148-4.467l0.027-0.7c0,0-10.225,3.875-21.93-1.534
		s-15.257-10.252-15.257-10.252l-87.098,125.179l-1.147-0.555l87.68-125.754c0,0-21.338-21.957-16.387-54.892l-79.378-16.898
		c0,0-1.453,1.614-4.198,0.269l-6.942-1.238c0,0-0.915,0.108-1.668-1.614l-89.922-18.556"/>
	<path fill="#F6F3EB" d="M787.01,249.354h0.996v0.942C788.006,250.296,787.36,250.269,787.01,249.354z"/>
	<path fill="#F6F3EB" d="M789.647,249.031v1.884c0,0,1.48,0.511,2.718,0.619c0,0,0.511-2.153,0.457-2.422
		C792.822,249.112,790.428,248.735,789.647,249.031z"/>
	<path fill="#F6F3EB" d="M794.437,249.973l-0.35,1.722l4.547,0.915l0.027-0.646C798.661,251.964,795.406,250.108,794.437,249.973z"
		/>
	<polygon fill="#F6F3EB" points="567.226,190.506 568.397,191.556 568.397,191.959 567.428,191.879 567.388,191.515 
		566.822,191.515 	"/>
	<polygon fill="#F6F3EB" points="566.136,192.161 566.136,192.545 567.408,192.545 567.408,192.181 	"/>
	<polygon fill="#F6F3EB" points="565.854,193.15 567.428,193.15 567.428,192.868 569.163,192.868 569.708,193.776 569.708,194.139 
		568.861,194.139 565.854,193.493 	"/>
	<polygon fill="#F6F3EB" points="567.791,182.192 570.657,182.959 570.657,183.181 569.729,183.181 569.729,183.483 
		568.094,183.483 568.094,182.858 567.771,182.858 	"/>
	<rect x="570.354" y="183.786" fill="#F6F3EB" width="0.686" height="0.404"/>
	<polygon fill="#F6F3EB" points="569.042,184.432 569.042,185.078 569.688,185.078 569.688,185.421 570.011,185.421 
		570.011,185.098 570.314,185.098 570.314,184.735 569.486,184.735 569.486,184.432 	"/>
	<polygon fill="#F6F3EB" points="568.397,185.098 568.397,186.147 569.385,186.147 569.385,185.764 568.719,185.078 	"/>
</g>
<circle fill="#F6F3EB" cx="1130.169" cy="212.169" r="216.169"/>
<circle fill="none" cx="1129.831" cy="212.507" r="202.669"/>
<g>
	<path fill="#262224" d="M1134.631,211.678v0.671l-1.489,2.335c0,0,0.642,0,0.759,0.467l0.292,0.058l0.175-0.117
		c0,0,0.156-0.701,0.701-0.331c0,0,0.389,0.35,0.234,0.817c-0.156,0.467-0.311,0.467-0.311,0.467s-0.448,0.117-0.72-0.37
		l-0.448,0.039c0,0-0.175,0.448-0.564,0.389c-0.389-0.058-0.506-0.331-0.506-0.331l-0.214,0.058l-2.724,3.736l1.849-0.019
		l0.389,0.389l-7.492,10.78l-1.304-0.058l0.389,1.615l-0.603,0.525l0.078,0.545l0.156,0.019c0,0,0.564-0.292,0.642,0.331
		c0,0-0.039,0.428-0.584,0.35l-0.409-0.019l-0.272-0.195l-0.292-0.817l-0.195,0.156l0.136,0.545l0.175,0.136l0.175,0.331
		l0.234,0.019l0.156,0.136l-0.078,0.156l-0.156,0.156l-0.37-0.019l-0.331-0.156l-0.272-0.311l-0.078-0.389l-0.156-0.35l-0.175-0.019
		l0.058,0.35l0.078,0.467l0.019,0.409l-0.175,0.136l-0.253,0.039l-0.467,0.019l-0.233-0.078v-0.253l0.175-0.195h0.428l-0.058-0.214
		l-0.331-0.584l-0.623,0.039l-0.584,0.915l0.234,0.516l0.136,0.068l0.379,0.039c0,0,0.156-0.243,0.311-0.234
		c0.156,0.01,0.555-0.156,0.778,0.379c0.224,0.535-0.195,0.817-0.195,0.817s-0.701,0.214-0.808-0.321l-0.292-0.01l-0.389,0.165
		l-1.051,0.078l-0.876,0.778l-0.885,0.019l-0.097,0.438l-0.555,0.19l-0.399-0.005l-1.051-0.457l-12.429,1.309v0.229l0.122,0.088
		l-0.019,0.272l-0.837,0.117l-1.479-0.603l-2.102,0.37l0.019,0.37l-0.039,0.214l-0.214,0.214l-0.058,0.175l4.145,1.42l-5.448,37.964
		h-0.661l-4.169-1.688l0.029,0.569l6.626,2.612l-5.366,37.035l-0.734,0.165l-5.444-2.496l0.029,0.365l5.823,2.569l0.117,0.102
		l-4.057,28.882l-0.949,7.209l-0.623,0.253l-6.266-2.997l-0.029,0.263l6.217,3.211l0.175,0.234l-6.48,45.796l-0.613,0.204
		l-33.216-19.293l-0.146-0.234l5.838-43.695l0.759-0.35l4.612,2.452l0.321-0.146l-5.225-2.715l-0.263-0.263l4.612-34.238
		l0.204-0.292l0.35-0.058l5.633,2.452l0.088-0.292l-6.042-2.715l4.583-35.376l0.496-0.204l4.904,1.926l0.438-0.379l-3.736-1.518
		l-0.088-0.321l4.699-34.792c0,0-3.999-0.73-7.297-3.736c-3.298-3.006-5.662-7.647-5.662-7.647s-1.167-1.868-2.51-6.451
		c0,0-0.234-4.057-0.438-4.466c0,0-0.234-7.239,0.117-9.457c0,0,0.905-3.211,1.021-3.298l0.992-3.415l-12.609-15.791l-0.701,1.372
		l-0.613,0.088l-18.564-23.351l0.35-0.555l-0.73-0.029l-17.484-22.212l0.263-0.467l-0.671-0.088l-21.512-27.291v-0.438
		l17.951-36.719h0.555l22.971,27.116l-0.058,0.584l0.525,0.029l18.68,22.037l-0.175,0.525l0.671,0.088l19.556,23.088v0.292
		l-1.43,2.335l0.701,0.117l20.87,24.635l-2.656,4.232l0.146,0.234c0,0,0.759-0.175,1.167,0.525l2.102,0.234v-0.905l21.045,0.467
		l0.788,0.321l28.546-13.427l0.671,0.146l-0.817-3.094l4.407-2.277l2.831-11.734c0,0,0.35-0.292,0.438,0.088l-2.744,11.383
		l27.262-12.843h0.555l-0.058-0.379l35.318-16.579l0.525,0.117l2.627,9.107l0.409,0.146l0.399,0.097l-0.311-0.584l0.195-0.234
		l7.122-3.269c0,0,3.58-2.218,7.083-2.257c0,0,5.137-1.051,5.604-1.206c0,0,3.191-0.234,6.071-3.269c0,0,3.931-3.347,3.931-3.58
		c0,0,2.102-2.413,4.904-1.051l7.278,2.724l0.506,0.156c0,0,2.413-0.156,3.191-0.467c0,0,5.098-1.09,5.41-1.012
		c0,0,2.841-1.09,4.865-1.206c0,0,4.787-0.778,4.904-0.778c0.117,0,5.993-1.245,5.993-1.245s9.146-1.985,9.34-1.985
		s7.861-1.518,7.861-1.518s3.697-0.817,4.32-0.584l0.311-0.428l3.074-1.401l0.623-0.282l1.197,3.707l-0.058,0.234l-2.452,0.701
		l0.321,1.284l-0.35,0.876l3.97,0.817l0.496,3.327l-3.415,1.605l-2.685-3.415l-7.239,5.517l-20.578,14.419l-1.197,0.963l-1.226,1.08
		l-0.992,0.73l-1.138,0.642l-1.022,0.759l-1.401,0.992l-4.349,2.977l-0.292,0.438l-0.35,0.642l-3.794,7.034l-0.35,0.642
		l-0.467,0.642c0,0-0.963,1.372-2.948,1.489l-7.355,0.467c0,0-1.372,0.029-2.423,1.08l-8.406,5.721c0,0-4.933,2.277-5.166,2.335
		s-7.793,3.182-7.793,3.182l-0.73-1.343l0.117,0.613l-0.204,0.146l-0.292,0.058l-0.204,0.263l2.948,9.545l0.058,0.35l-0.35,0.263
		l-35.493,14.273l-0.759,0.058l-2.685-8.844l2.364,8.844l-0.029,0.321l-0.438,0.263l-32.516,12.843l-0.73-0.029l-1.956-7.093
		l1.021,4.291v0.409l-6.713,2.627l27.145,29.655c0,0,0.292,0.496-0.204,0.409l-27.495-29.83L1134.631,211.678z"/>
	<path fill="#F6F3EB" d="M1263.399,136.966c0,0-2.14,1.168-3.23-0.117l-1.129-1.284l-1.907-5.993c0,0-0.584-4.047,2.335-5.41
		l20.51-4.476c0,0,1.557-0.389,2.024,0.039c0,0,0.623,0.817,0.701,1.868c0,0,0.817,1.829-0.467,2.569L1263.399,136.966z"/>
	<path fill="#F6F3EB" d="M1215.608,135.059c0,0-2.841,2.296-2.607,5.41l5.876,20.471c0,0,1.751,3.464,5.604,1.557l2.257-1.479
		l5.721-3.775l4.32-3.152c0,0,5.059-3.347,4.865-10.352c-0.195-7.005-3.853-9.768-3.853-9.768s-2.568-3.113-8.951-2.374
		C1222.458,132.335,1215.608,135.059,1215.608,135.059z"/>
	<path fill="#F6F3EB" d="M1206.842,136.023l0.496,0.701l0.847,2.831l0.905,0.934c0,0,0.613,1.08,0.701,1.635l2.481,9.078
		l-1.459,0.438l-4.378-14.565l0.234-0.321h0.321L1206.842,136.023z"/>
	<path fill="#F6F3EB" d="M1212.826,153.185l2.189,7.122l0.438,1.605c0,0,0.496,1.226-0.058,3.006l-0.409,0.146l-3.707-11.237
		L1212.826,153.185z"/>
	<polygon fill="#F6F3EB" points="1215.647,165.979 1215.414,166.135 1215.161,165.794 1214.957,165.897 1215.234,167.954 
		1215.832,168.042 1216.051,168.392 	"/>
	<polygon fill="#F6F3EB" points="1090.586,236.167 1092.609,236.984 1092.298,237.237 1092.24,237.782 1088.231,236.362 	"/>
	<polygon fill="#F6F3EB" points="1084.067,233.871 1084.125,234.922 1075.992,232.159 1076.303,231.731 1076.128,231.244 
		1076.186,231.088 	"/>
	<polygon fill="#F6F3EB" points="1073.384,270.142 1073.092,270.473 1079.455,273.022 1079.728,272.691 	"/>
	<polygon fill="#F6F3EB" points="1081.168,273.197 1080.856,273.548 1088.737,276.778 1089.068,276.466 	"/>
</g>
<circle fill="#F6F3EB" cx="1589.632" cy="220.675" r="216.169"/>
<circle fill="none" cx="1589.294" cy="221.013" r="202.669"/>
<g>
	<path fill="#262224" d="M1477.016,245.053l-0.183-1.158l-7.804-24.023c0,0-2.866-0.732-2.744-7.987l-1.646,1.728l-2.439-0.976
		l-0.813,1.301l-1.301-3.414v-0.813l-1.484-0.996l-0.122-0.732l0.61-0.61l1.585-0.061l0.549-1.402l0.671-1.158l-0.061-2.866
		c0,0-2.723-20.141,4.918-26.807l1.626-2.764l1.057-3.414l0.65-3.333l1.707-3.618l-0.203-0.569c0,0-2.032,4.634-7.845,4.309
		l-0.935-2.642c0,0,7.642,0.163,9.024-6.544l-1.26-3.292l-0.325-1.463l-0.813-1.219v-0.813l1.057-1.219l-0.447-1.341l0.081-3.902
		c0,0,0.976-3.496,1.667-3.983c0,0,0.61-3.171,4.552-4.959c3.943-1.788,7.601,0.041,7.601,0.041l4.634,2.195l2.276-7.195
		l0.528-0.813l1.26,0.163l2.276,1.748l4.959-6.626l1.26,0.163l4.187-0.285c0,0,3.577-4.674,7.967-2.479
		c4.39,2.195,0.854,8.536,0.854,8.536s-2.256,3.963-5.182,4.451l-3.994,3.933l1.646,1.982l0.213,0.549l-2.134,5.853l16.889,4.085
		c0,0-5.975-13.901-5.853-16.523c0,0-1.219-11.28,6.585-17.011c0,0,8.353-7.987,33.656-5.244
		c25.303,2.744,57.557,16.096,57.557,16.096l1.89-1.341c0,0-0.061-2.5,3.536-2.561l25.262-17.194l0.61-0.081l0.569-1.219
		l3.821-4.512l0.65-0.163l0.163-0.325l0.163-0.366l0.61-0.041l0.813,0.203l4.634-7.276c0,0-1.626-1.26-1.667-1.829
		c0,0-0.244-0.813,0.528-0.894c0,0,0.823-0.112,1.677,0.193l1.555-1.921l-1.25-2.286c0,0-0.427-0.854,0.61-0.64l2.104,1.25
		l0.335-0.488c0,0-0.518-0.732-0.518-0.945c0-0.213,0.488-0.579,1.006-0.335l1.829,0.854c0,0,0.945,0.732,0.183,0.976l-0.64-0.091
		l-0.335,0.793c0,0,2.835,1.189,2.469,1.829c0,0-0.915,0.305-1.341,0.183l-0.701,0.122l-0.854,0.122h-0.518l-0.945,2.195
		c0,0,1.921,1.006,1.829,1.738c-0.091,0.732-0.793,0.549-0.793,0.549l-1.219-0.122l-0.335-0.061l-3.689,7.926l0.193,0.681
		l0.447,0.65l-0.203,0.447v1.504l-2.053,5.569l-0.427,28.89c0,0,4.298,4.085,2.225,6.006l-1.189,1.402l-0.396,1.128
		c0,0,54.681,31.837,63.298,60.453c0,0,8.13,19.348-15.04,26.096c0,0-20.405,3.821-41.379-0.65l3.333,10.975l-1.463-7.479
		l24.876,3.333v2.52l3.658,0.569v-2.601l26.258,3.74l0.081,2.601l9.329,1.382l-2.622,4.573c0,0,4.024,2.622,4.268,6.829l3.049,0.549
		l-2.866,0.854c0,0-0.061,7.195-4.207,7.804l3.597,4.39l-10.06-0.793l0.366,6.585l-26.827-2.317l-0.305-6.097l-3.597-0.061
		l0.427,5.67l-28.413-2.622l-0.549,0.366l-0.793,0.854l-14.999,9.694l-8.8-5.711l-24.958,20.974l0.163,1.707l-0.325,1.057
		l-0.488,1.545l0.569,2.601l-0.65,0.325c0,0,0.976,1.138,1.463,1.463c0,0,0.894,1.707-0.447,3.11l-1.098,1.829l0.549,1.646
		l-0.305,1.524l-0.975,0.61l-0.549,0.122l-0.061,2.439l-0.427,0.427l-1.89-0.915l-2.012,0.183l-0.366,0.488l-0.793,0.366
		l-1.158-0.854l-2.683-0.122l-0.732,0.427l-1.097-0.244l-1.219-0.122h-1.463l-0.854,0.549l-1.28-0.305l-2.195-0.305l-2.073-0.061
		l-3.536,3.597l-1.219-0.122c0,0-6.646,7.073-9.755,6.158l-0.61,0.366l0.061,1.524l-1.158,0.183l-1.036,0.61l-0.488,3.292
		c0,0,6.077,14.816-22.214,26.766c0,0-9.105,2.601-18.779,0.894c-9.674-1.707-10.162-11.788-5.853-18.86l-1.707-2.927l-9.024-0.163
		c0,0-3.252,0.488-3.008-7.886l-4.552-1.707l-1.545-0.894l-3.292-8.211l-3.414,1.504l-1.382,0.488h-0.935l-1.26-0.813l-1.301-5.894
		l-2.439-0.976l-0.081-0.732l0.447-0.854l1.301-0.406l0.813-1.26l0.285-1.667l0.772-0.447l0.732-2.276l-0.122-3.496l1.341-0.122
		l-5.04-3.618c0,0-6.504,0.163-9.024-4.227c0,0-4.105-5.284-0.325-11.747c0,0,0.894-0.894,2.114-1.098l-1.504-0.488l2.236-2.398
		l-3.943-13.495l0.163-0.549c0,0-1.585-6.036-8.475-8.475l-1.585-2.866l-0.183-1.646
		C1468.907,255.479,1473.114,246.333,1477.016,245.053z"/>
	<path fill="#F6F3EB" d="M1644.138,107.989l-23.352,15.974c0,0,11.158,1.524,19.084,6.463l0.772-1.606c0,0-3.618-2.236-3.821-2.927
		l0.447-0.691c0,0-0.569-1.301,0.691-1.341l0.163-0.203c0,0-0.203-1.097,1.382-0.772l4.796-7.682l-1.504-1.423l1.138-3.699
		L1644.138,107.989z"/>
	<path fill="#F6F3EB" d="M1642.187,129.187l0.935,0.081l0.406-0.813l0.122-0.325h0.447l0.122-0.447l-0.122-0.528l-0.163-0.325
		l0.406-0.163l0.203-0.447l-0.081-0.569l-0.244-0.488l3.658-8.13l1.748-0.041l0.488-0.325l0.732-1.179l1.951-2.683l0.325,0.041
		l-0.488,26.014c0,0-8.536-6.544-11.625-7.804L1642.187,129.187z"/>
</g>
<circle fill="none" cx="1589.974" cy="221.335" r="154.169"/>
<circle fill="#F6F3EB" cx="2040.659" cy="231.172" r="216.169"/>
<circle fill="none" cx="2040.321" cy="231.51" r="202.669"/>
<circle fill="none" cx="2041" cy="231.832" r="154.169"/>
<g>
	<path fill="#262224" d="M1933.943,404.132l25.299-74.103l-6.452,0.97l0.048,0.776l-0.243,0.291l-0.631,0.097l-0.291-3.008h0.485
		l0.34,0.825l0.243,0.194l7.277-1.31l1.213-3.832l-8.15-2.183l-0.582,0.049l-0.243,0.776l-0.485-0.34l-0.291-2.668l0.582-0.146
		l0.437,0.582l0.34,0.049l10.527-5.53l-1.019-0.728l-0.194,0.631l-0.631-0.097l-0.243-2.086l0.388-0.437l0.631,0.194l0.146,1.067
		l1.795,1.261l1.358-3.056l-2.135-0.825l-0.291,0.291l-0.388,0.388l-0.485-0.291l0.097-2.134h0.582l0.388,0.485l1.504-0.485
		l-2.329-2.28l-0.728-0.048l-0.679-0.243l0.339-1.843l0.534-0.34l0.34,0.291l0.048,0.679l4.657,2.183l1.504-3.299v-10.042
		l0.194-0.97l0.873-0.049c0,0,0.776-3.784,7.228-4.803l2.086-2.28l-2.668-2.183l-1.552,4.317l-0.388,0.291l-0.582-0.291v-0.388
		l1.94-4.56l-1.407-1.261l-3.929-0.049l-65.328,99.708l-0.857-0.717l65.02-98.846l-0.388-0.243h-7.568v-7.374l3.202-1.358
		l-3.687-3.735l-18.24-0.922v0.776l-1.358,1.504l-2.668-3.929l-0.485,1.019l-0.437,0.631l-1.164,0.048l-0.34-0.679l1.358-1.552
		l-2.959-0.291l-4.657-7.131l0.388-0.825l-30.756-11.158l-0.194,0.728l-0.485,0.631l-0.631,0.097l-1.019-0.534l-0.582-1.164
		l-0.437-5.579l0.291-0.825h0.922l0.776,0.485l0.437,0.34l27.312-14.02l-0.146-1.213l5.579-1.843l-0.048-0.728l-35.365-11.255
		l-0.582,0.582l-0.534,0.437l-1.116-0.728l0.728-0.922l-0.097-0.728l1.504-2.571l-0.534-2.959l10.866-21.393l0.97,0.097
		l20.908,9.314l19.792-10.575l0.922-0.825l16.3,0.873l1.94-3.687l-0.339-0.437l-1.844,0.049l-0.339-0.825l-0.437-0.631l-0.097-0.582
		l0.534-0.388h2.814l0.146-1.552l1.407-0.049l2.134-3.784l-6.597-18.095l-4.123,2.523l-0.388,0.194l-6.549-2.862l-1.019-7.083
		l2.668-1.407l-0.097-4.22l3.784-2.134l0.728,0.291l-6.84-20.278l-1.213-1.116l0.146,5.967l-3.978,1.358l0.146,2.668l-8.004,2.474
		l0.048,4.948c0,0-0.097,1.892-1.843,2.571l0.437,5.336c0,0-0.679,3.25-3.493,3.784c-2.814,0.534-5.724-0.097-6.452-2.329
		l-0.048-5.094l-0.582,0.049l-1.552-2.426l-0.097,2.28l-1.552,2.183l-0.146,1.213l-0.873,0.243l-0.291,1.746l-1.989,1.407
		l-1.116,0.243l-0.631-0.243l-1.407-1.261l-0.34-0.873l-0.679-0.291l-0.34-0.776l0.048-1.31l-2.037-2.329l-0.097-4.754l-2.523-3.153
		l-0.388-3.881l2.426-1.213l0.873-7.713l-1.019-1.698l-1.213-0.388l-4.172,1.407l0.146,2.959c0,0,0.728,3.493-1.552,4.657
		c0,0-1.649,1.31-4.706,0.728c0,0-1.892-0.243-2.231-1.989l-3.687,1.31l-5.433-12.661l-0.679,0.146l-1.455-2.765l-0.679-3.784
		c0,0-2.717-14.505,15.912-16.106l0.255-0.8l3.638-1.419l0.036-2.037l0.473-1.164l0.982-0.036l0.837,1.164l0.182,1.783l0.619,0.182
		l2.328,5.348l2.983-2.183l2.656-0.182l1.31,1.346l7.458-2.256l0.619,0.073l1.965,3.857h1.819l2.183,4.621l0.146,1.346l0.109,5.457
		l-1.819,1.019l0.364,1.783l3.129,0.4l1.783-1.273l9.023-3.056h1.783l2.11,4.475l1.128-1.128l10.224,0.546
		c0,0,2.62,0.327,2.874,6.403l5.239,14.262l2.219-4.803l-0.946-0.982l1.128-3.274l1.128-0.327l0.946,0.291l0.691,0.4l0.073,1.455
		l0.728,0.473l0.109,1.601h2.001l3.238,3.311h1.019l0.364,1.201l0.473,3.675l0.437,4.875l-0.036,1.019l-0.182,0.619l-2.001,1.892
		l0.182,3.602l0.073,1.128l-0.509,1.128l0.255,0.582l5.312,0.182l3.857,5.93l1.164,0.109l1.201,1.019l1.273-1.492l1.128,0.764
		l-0.837,1.346l1.31,0.218v4.22l-1.565,0.109l0.873,0.873l-0.982,1.419l-2.328-1.819l-0.982,0.691l-1.092,2.911l-5.094,0.146
		l-0.146,0.655l-0.437,0.109l-3.966-5.639l7.507,23.2l5.627-2.037c0,0,12.419-27.215,18.434-32.066
		c6.015-4.851,19.016-15.329,32.017,6.986s15.718,56.661,14.941,71.602l9.338,3.444l-0.219,0.582l0.946-0.073
		c0,0,0.655-2.547,2.183-2.838c1.528-0.291,1.819,2.547,1.819,2.547s1.455,0.218,1.092,2.183c-0.364,1.965-0.51,2.256-1.383,2.62
		c0,0-0.146,1.455-1.092,1.746c-0.946,0.291-2.329,0.509-2.911-2.62l-0.801,0.073l-0.073,0.655l-9.387,2.838
		c0,0-4.269,40.458-9.702,48.414l77.424,43.563h2.135l0.582,1.164l62.701,36.062l0.037-0.013h0.062l0,0l-6.688,7.062l0,0l0,0
		l-0.01,0.026l-139.93-78.356c0,0-5.627,14.844-14.165,20.084c0,0-8.926,8.732-20.181,0.679c-11.255-8.053-16.3-25.905-16.3-25.905
		l-7.762,7.568l-0.388,11.74l-0.243,0.291l-1.213,0.048v2.959l1.067,0.388l0.194,0.631v10.527l-1.892,0.728l0.534,0.437v1.94
		l0.825,0.534v4.512c0,0,4.317,2.62,2.571,7.471c-1.746,4.851-5.142,6.549-10.284,7.471c-5.142,0.922-11.303-3.396-11.691-4.56
		c0,0-2.474-3.202-1.31-7.131c0,0,0.521-2.899,3.396-4.281v-2.729l-8.053,1.819l-25.523,74.66"/>
	<g>
		<polygon fill="#F6F3EB" points="1953.566,118.376 1956.719,118.473 1954.73,121.966 		"/>
		<polygon fill="#F6F3EB" points="1964.772,116.435 1962.298,118.764 1963.22,121.626 1965.5,117.842 		"/>
		<polygon fill="#F6F3EB" points="1959.193,119.492 1960.115,122.499 1962.443,122.79 1962.249,121.966 		"/>
		<polygon fill="#F6F3EB" points="1958.611,121.044 1958.514,122.402 1959.048,122.402 		"/>
		<polygon fill="#F6F3EB" points="1957.253,120.074 1957.156,122.402 1955.603,122.305 		"/>
		<polygon fill="#F6F3EB" points="1955.118,123.469 1957.253,123.566 1957.35,129.921 		"/>
		<polygon fill="#F6F3EB" points="1958.417,123.518 1958.369,130.795 1960.843,126.574 1959.678,123.518 		"/>
		<polygon fill="#F6F3EB" points="1960.552,123.664 1961.182,125.652 1962.346,123.712 		"/>
		<polygon fill="#F6F3EB" points="1965.985,118.715 1963.85,122.548 1968.362,125.944 		"/>
		<polygon fill="#F6F3EB" points="1963.026,124.149 1961.91,125.944 1963.559,126.186 		"/>
		<polygon fill="#F6F3EB" points="1963.85,124.003 1964.578,126.38 1967.295,126.38 		"/>
		<polygon fill="#F6F3EB" points="1961.813,126.817 1963.656,126.817 1964.481,129.145 		"/>
		<polygon fill="#F6F3EB" points="1964.772,126.962 1966.13,130.698 1968.119,127.496 1967.828,126.962 		"/>
		<polygon fill="#F6F3EB" points="1968.895,127.544 1966.712,131.668 1968.653,132.978 1970.205,130.018 		"/>
		<polygon fill="#F6F3EB" points="1962.007,127.932 1962.201,130.164 1963.22,131.959 1965.257,132.153 1965.548,131.377 		"/>
		<polygon fill="#F6F3EB" points="1961.037,127.932 1961.134,131.862 1958.708,131.619 		"/>
		<polygon fill="#F6F3EB" points="1958.32,132.638 1961.085,132.784 1961.037,139.624 1960.649,139.575 		"/>
		<polygon fill="#F6F3EB" points="1961.764,132.832 1962.686,132.784 1963.268,133.948 1963.559,136.082 1961.91,139.43 		"/>
		<polygon fill="#F6F3EB" points="1963.414,132.784 1964.287,134.578 1965.112,133.22 1964.772,132.881 		"/>
		<polygon fill="#F6F3EB" points="1966.082,133.317 1965.208,134.676 1966.567,134.967 		"/>
		<polygon fill="#F6F3EB" points="1967.343,133.802 1967.489,134.918 1968.265,134.918 1968.313,133.948 		"/>
		<polygon fill="#F6F3EB" points="1965.306,135.743 1966.567,135.888 1967.1,136.519 1967.1,137.053 		"/>
		<polygon fill="#F6F3EB" points="1968.168,135.985 1969.38,139.769 1969.526,138.944 1968.507,135.937 		"/>
		<polygon fill="#F6F3EB" points="1964.141,137.732 1964.287,142.098 1962.055,141.71 		"/>
		<polygon fill="#F6F3EB" points="1964.869,139.575 1964.917,142.098 1966.082,142.195 		"/>
		<polygon fill="#F6F3EB" points="1964.723,136.276 1966.47,142.292 1969.283,142.486 1968.119,139.333 1967.003,138.217 		"/>
		<polygon fill="#F6F3EB" points="1962.298,142.825 1962.637,144.038 1964.335,144.378 1964.238,142.971 		"/>
		<polygon fill="#F6F3EB" points="1964.82,143.116 1965.112,144.911 1965.597,145.348 1965.888,148.792 1967.295,146.852 
			1967.246,145.299 1966.179,143.068 		"/>
		<polygon fill="#F6F3EB" points="1967.1,143.165 1967.537,145.251 1968.75,143.844 1968.507,143.213 		"/>
		<polygon fill="#F6F3EB" points="1979.665,148.792 1979.762,150.053 1978.695,152.576 1977.239,148.744 		"/>
		<polygon fill="#F6F3EB" points="1969.72,143.99 1970.302,145.785 1968.507,145.687 		"/>
		<polygon fill="#F6F3EB" points="1971.515,146.318 1973.213,151.363 1975.541,147.579 		"/>
		<polygon fill="#F6F3EB" points="1968.216,146.512 1970.496,146.512 1971.466,148.986 		"/>
		<polygon fill="#F6F3EB" points="1968.701,147.822 1971.078,149.52 1972.437,151.848 1969.672,151.8 		"/>
		<polygon fill="#F6F3EB" points="1968.459,150.345 1968.459,151.606 1969.138,151.654 		"/>
		<polygon fill="#F6F3EB" points="1967.295,148.647 1967.295,151.557 1965.597,151.46 		"/>
		<polygon fill="#F6F3EB" points="1965.16,152.576 1967.295,152.528 1967.295,158.931 		"/>
		<polygon fill="#F6F3EB" points="1968.459,152.528 1968.41,159.901 1970.496,156.554 1970.496,155.487 1969.332,152.382 		"/>
		<polygon fill="#F6F3EB" points="1970.302,152.625 1971.127,155.099 1972.388,153.449 1972.146,152.77 		"/>
		<polygon fill="#F6F3EB" points="1976.221,148.356 1973.989,151.945 1978.549,155.196 1978.452,153.643 		"/>
		<polygon fill="#F6F3EB" points="1973.989,153.595 1974.765,156.602 1978.064,156.602 		"/>
		<polygon fill="#F6F3EB" points="1973.019,153.74 1973.989,156.263 1971.612,156.36 		"/>
		<polygon fill="#F6F3EB" points="1973.116,157.233 1974.426,158.349 1974.232,157.185 		"/>
		<polygon fill="#F6F3EB" points="1975.299,157.427 1976.124,160.241 1977.918,157.767 1977.773,157.476 		"/>
		<polygon fill="#F6F3EB" points="1971.903,157.33 1975.299,160.386 1975.638,161.551 1973.019,161.551 		"/>
		<polygon fill="#F6F3EB" points="1971.709,159.465 1971.709,161.308 1972.437,161.308 		"/>
		<polygon fill="#F6F3EB" points="1970.933,157.767 1970.69,161.162 1968.798,161.065 		"/>
		<polygon fill="#F6F3EB" points="1979.374,157.427 1976.851,160.92 1981.702,164.849 		"/>
		<polygon fill="#F6F3EB" points="1976.948,162.666 1977.821,165.577 1980.829,165.577 		"/>
		<polygon fill="#F6F3EB" points="1976.075,163.054 1974.911,165.092 1976.851,165.237 		"/>
		<polygon fill="#F6F3EB" points="1973.455,162.084 1974.28,164.219 1975.735,162.278 		"/>
		<polygon fill="#F6F3EB" points="1971.758,162.036 1971.661,169.215 1973.649,166.159 1973.844,164.849 1972.582,162.084 		"/>
		<polygon fill="#F6F3EB" points="1968.313,161.89 1970.836,168.924 1970.981,161.89 		"/>
		<polygon fill="#F6F3EB" points="1975.784,165.917 1977.579,167.566 1977.336,165.868 		"/>
		<polygon fill="#F6F3EB" points="1978.161,166.208 1979.519,169.991 1981.605,166.402 		"/>
		<polygon fill="#F6F3EB" points="1982.43,166.693 1980.392,170.622 1984.904,174.357 1984.904,173.387 		"/>
		<polygon fill="#F6F3EB" points="1974.814,166.111 1976.463,171.059 1978.792,171.301 1978.646,170.331 		"/>
		<polygon fill="#F6F3EB" points="1974.668,168.391 1974.571,171.01 1975.638,171.156 		"/>
		<polygon fill="#F6F3EB" points="1973.844,167.857 1973.795,171.01 1971.854,170.913 		"/>
		<polygon fill="#F6F3EB" points="1976.657,172.029 1977.579,174.212 1978.549,172.029 		"/>
		<polygon fill="#F6F3EB" points="1979.325,172.466 1980.053,174.988 1978.161,174.988 		"/>
		<polygon fill="#F6F3EB" points="1980.587,172.902 1981.12,175.182 1984.225,175.182 		"/>
		<polygon fill="#F6F3EB" points="1981.314,175.861 1982.187,179.063 1983.303,179.645 1985.001,176.104 		"/>
		<polygon fill="#F6F3EB" points="1985.68,176.346 1987.233,181.44 1985.826,182.168 1983.691,180.082 		"/>
		<polygon fill="#F6F3EB" points="1978.5,175.716 1980.295,175.813 1980.975,176.832 1980.829,177.899 		"/>
		<polygon fill="#F6F3EB" points="1974.523,171.883 1975.978,172.077 1976.997,174.794 1974.717,179.5 		"/>
		<polygon fill="#F6F3EB" points="1972.146,171.883 1973.844,171.835 1973.941,177.414 		"/>
		<polygon fill="#F6F3EB" points="1977.142,177.074 1975.299,180.373 1977.336,180.664 		"/>
		<polygon fill="#F6F3EB" points="1978.015,178.772 1978.015,180.809 1979.034,180.955 		"/>
		<polygon fill="#F6F3EB" points="1978.452,176.734 1979.81,181.1 1981.945,181.149 1981.702,179.403 		"/>
		<polygon fill="#F6F3EB" points="1982.721,183.041 1981.702,184.545 1982.575,184.593 1982.964,184.011 		"/>
		<polygon fill="#F6F3EB" points="1980.101,181.877 1980.975,184.06 1981.896,182.459 1981.751,181.877 		"/>
		<polygon fill="#F6F3EB" points="1978.209,181.634 1979.325,181.731 1980.392,184.545 1980.15,185.127 1978.209,185.758 		"/>
		<polygon fill="#F6F3EB" points="1977.336,181.586 1975.056,181.343 1976.657,185.078 1977.288,185.078 		"/>
		<polygon fill="#F6F3EB" points="1971.127,172.611 1969.429,176.007 1970.108,183.332 1970.836,184.205 1974.911,184.496 		"/>
		<polygon fill="#F6F3EB" points="1967.586,180.276 1965.936,183.186 1967.974,183.283 		"/>
		<polygon fill="#F6F3EB" points="1947.065,184.642 1928.777,194.15 1931.59,195.508 1946.726,185.418 		"/>
		<polygon fill="#F6F3EB" points="1942.505,189.687 1930.669,197.255 1921.306,216.513 1921.015,216.659 1921.015,219.327 
			1932.076,222.771 1937.072,197.206 		"/>
		<polygon fill="#F6F3EB" points="1896.566,206.811 1896.905,209.528 1899.719,208.121 		"/>
		<polygon fill="#F6F3EB" points="1901.126,208.558 1897.002,210.595 1897.196,212.147 1919.754,219.182 1919.754,216.222 		"/>
		<polygon fill="#F6F3EB" points="1926.06,229.223 1899.282,243.194 1899.234,245.669 1900.204,246.445 1930.863,257.554 
			1932.852,254.595 1930.572,253.333 1928.777,254.546 1928.292,252.412 1912.138,244.601 1911.507,245.038 1910.779,244.941 
			1910.391,243.631 1911.943,239.459 1912.817,239.071 1913.253,239.314 1913.253,239.993 1926.545,235.093 		"/>
		<polygon fill="#F6F3EB" points="1926.545,236.257 1913.011,241.497 1912.283,243 1912.768,243.874 1928.195,251.344 		"/>
		<path fill="#F6F3EB" d="M1982.43,276.182c0,0,4.269,2.037,5.821,2.086l-6.792,6.5l-1.455-3.687l0.631-0.534l1.019-0.146
			l0.97-0.679L1982.43,276.182z"/>
		<polygon fill="#F6F3EB" points="1979.18,281.276 1977.53,281.664 1976.948,282.488 1976.609,283.944 1979.374,286.369 
			1980.781,285.35 		"/>
		<polygon fill="#F6F3EB" points="1980.732,286.854 1981.266,288.31 1978.404,288.843 1980.392,286.806 		"/>
		<path fill="#F6F3EB" d="M1989.416,278.51l-7.907,7.131l1.067,2.426l10.236-2.426c0,0-2.911-6.84-2.911-7.034
			S1989.416,278.51,1989.416,278.51z"/>
		<polygon fill="#F6F3EB" points="1993.199,286.515 1982.721,288.746 1984.079,292.53 1993.005,287.048 		"/>
		<polygon fill="#F6F3EB" points="1993.587,287.97 1994.267,289.134 1991.259,291.511 		"/>
		<polygon fill="#F6F3EB" points="1991.307,289.377 1986.505,296.654 1985.486,296.751 1984.225,293.646 		"/>
		<polygon fill="#F6F3EB" points="1969.089,306.016 1968.119,308.151 1969.478,309.072 		"/>
		<polygon fill="#F6F3EB" points="1963.85,307.617 1966.761,308.878 1966.373,309.897 		"/>
		<polygon fill="#F6F3EB" points="1964.093,310.867 1966.13,310.431 1965.936,311.401 		"/>
		<polygon fill="#F6F3EB" points="1967.391,310.14 1967.343,311.11 1968.798,311.789 1968.895,310.382 		"/>
		<polygon fill="#F6F3EB" points="1968.701,313.293 1968.653,312.808 1966.518,312.42 1966.13,314.409 		"/>
		<polygon fill="#F6F3EB" points="1968.895,314.409 1968.75,317.465 1965.306,315.864 		"/>
		<polygon fill="#F6F3EB" points="1964.141,316.64 1953.663,321.443 1953.711,322.17 1961.522,324.208 		"/>
		<polygon fill="#F6F3EB" points="1965.208,316.64 1968.701,318.58 1968.75,321.734 1969.575,322.898 1969.526,324.644 
			1968.75,325.032 1968.507,326.051 1962.346,324.499 		"/>
		<polygon fill="#F6F3EB" points="1962.249,325.421 1961.037,328.428 1968.168,327.021 		"/>
		<polygon fill="#F6F3EB" points="2057.234,291.305 2048.793,286.175 2047.738,289.159 		"/>
		<polygon fill="#F6F3EB" points="2047.447,290.032 2053.013,295.889 2049.521,294.507 2046.683,291.887 		"/>
		<polygon fill="#F6F3EB" points="2046.501,292.506 2047.592,293.561 2046.137,293.197 		"/>
		<polygon fill="#F6F3EB" points="2045.955,293.816 2045.7,294.252 2053.304,298.545 2051.885,296.835 		"/>
		<polygon fill="#F6F3EB" points="2052.795,297.017 2054.614,299.055 2055.014,298.764 2055.014,298.036 		"/>
		<path fill="#F6F3EB" d="M2048.211,289.995l6.804,6.804c0,0,1.31-3.602,3.02-4.439l-0.182-0.255L2048.211,289.995z"/>
		<path fill="#F6F3EB" d="M2058.58,293.306c0,0-2.183,0.91-2.911,4.002l1.201,0.728c0,0,1.856-2.11,1.856-2.583
			S2059.017,294.325,2058.58,293.306z"/>
		<polygon fill="#F6F3EB" points="2057.307,299.128 2056.215,299.782 2063.564,301.893 2057.78,299.055 		"/>
		<path fill="#F6F3EB" d="M2059.999,292.906c0,0-0.582,4.002-2.038,5.239l13.68,5.021L2059.999,292.906z"/>
		<polygon fill="#F6F3EB" points="2062.291,294.034 2073.352,303.894 2090.488,309.715 		"/>
		<polygon fill="#F6F3EB" points="2058.653,301.274 2088.269,318.01 2088.087,317.319 2078.372,308.66 2076.881,307.641 
			2073.606,306.259 2068.112,304.185 2060.945,301.893 		"/>
		<polygon fill="#F6F3EB" points="2073.679,305.143 2073.582,304.706 2066.305,301.99 		"/>
		<polygon fill="#F6F3EB" points="2075.328,305.24 2075.425,305.822 2080.761,307.229 		"/>
		<polygon fill="#F6F3EB" points="2078.627,307.471 2092.065,311.255 2092.113,311.595 2090.658,312.953 		"/>
		<polygon fill="#F6F3EB" points="2079.888,309.315 2089.979,313.875 2089.396,315.282 2089.009,317.368 		"/>
		<path fill="#F6F3EB" d="M2090.755,314.166l1.601,1.164c0,0-0.97,1.795-2.086,1.892
			C2090.27,317.222,2089.882,314.797,2090.755,314.166z"/>
		<polygon fill="#F6F3EB" points="2091.24,313.147 2092.598,312.129 2093.277,312.371 2093.083,314.214 		"/>
		<path fill="#F6F3EB" d="M2094.248,312.226c0,0,0.243,1.746-0.533,2.28c-0.776,0.534,6.84,3.153,6.84,3.153l-5.87-5.288
			L2094.248,312.226z"/>
		<polygon fill="#F6F3EB" points="2093.18,315.815 2090.124,318.532 2101.379,321.928 		"/>
		<polygon fill="#F6F3EB" points="2095.315,316.446 2104.095,320.375 2108.316,323.965 2105.017,323.432 		"/>
		<polygon fill="#F6F3EB" points="2097.158,313.487 2097.789,313.487 2120.298,326.197 2119.473,326.148 2107.831,321.2 
			2103.853,319.599 		"/>
		<polygon fill="#F6F3EB" points="2106.861,321.54 2123.888,329.156 2110.741,325.275 		"/>
		<polygon fill="#F6F3EB" points="2091.143,319.502 2102.688,322.849 2104.581,323.82 2121.753,336.287 2122.239,336.675 
			2091.58,319.987 		"/>
		<polygon fill="#F6F3EB" points="2106.327,324.305 2109.771,325.129 2118.697,333.182 		"/>
		<path fill="#F6F3EB" d="M2111.712,326.003l14.117,4.415c0,0-2.377,4.317-2.571,5.579L2111.712,326.003z"/>
		<path fill="#F6F3EB" d="M2126.459,330.805l1.455-0.048c0,0-1.31,5.191-3.638,5.239
			C2124.276,335.996,2125.44,331.484,2126.459,330.805z"/>
		<path fill="#F6F3EB" d="M2129.078,331.387l11.788,10.818l-16.348-4.706C2124.519,337.5,2129.272,333.328,2129.078,331.387z"/>
		<polygon fill="#F6F3EB" points="2129.37,339.44 2142.322,343.467 2143.826,344.97 		"/>
		<polygon fill="#F6F3EB" points="2132.523,333.764 2142.953,343.273 2151.345,345.553 		"/>
		<polygon fill="#F6F3EB" points="2151.103,344.291 2155.954,347.444 2156.924,347.299 		"/>
		<polygon fill="#F6F3EB" points="2157.409,348.415 2159.64,348.851 2160.32,349.336 2159.543,349.627 		"/>
		<polygon fill="#F6F3EB" points="2160.805,349.967 2160.708,350.598 2161.435,350.743 2161.387,350.064 		"/>
		<polygon fill="#F6F3EB" points="2143.971,344.097 2146.348,346.232 2158.961,350.695 2153.334,346.765 		"/>
		<polygon fill="#F6F3EB" points="2147.707,347.347 2156.681,355.546 2158.379,351.519 		"/>
		<polygon fill="#F6F3EB" points="2127.284,339.586 2155.177,355.158 2146.057,346.62 		"/>
		<path fill="#F6F3EB" d="M2159.107,351.568l0.873-0.194l1.019,0.97c0,0-1.116,2.232-2.717,2.62
			C2158.282,354.964,2158.234,352.344,2159.107,351.568z"/>
		<polygon fill="#F6F3EB" points="2162.551,351.665 2162.842,351.228 2164.152,352.732 		"/>
		<polygon fill="#F6F3EB" points="2162.211,352.49 2169.779,357.341 2175.601,362.24 2158.04,356.565 		"/>
		<polygon fill="#F6F3EB" points="2164.686,352.004 2169.779,356.662 2176.037,360.445 2180.063,363.259 2183.023,364.811 
			2191.27,367.382 2190.687,366.8 		"/>
		<polygon fill="#F6F3EB" points="2175.698,361.27 2177.007,362.822 2178.802,363.113 		"/>
		<polygon fill="#F6F3EB" points="2179.093,364.181 2180.16,364.181 2190.979,371.166 2185.109,369.032 2182.683,367.479 		"/>
		<polygon fill="#F6F3EB" points="2163.618,359.087 2176.813,363.162 2181.131,366.897 		"/>
		<polygon fill="#F6F3EB" points="2164.346,360.106 2182.829,368.207 2189.62,374.368 2189.038,374.32 		"/>
		<path fill="#F6F3EB" d="M2185.109,366.073l8.829,2.862c0,0-1.795,1.892-1.795,2.086
			C2192.143,371.215,2185.109,366.073,2185.109,366.073z"/>
		<path fill="#F6F3EB" d="M2191.706,372.331c0,0-0.485,1.698-0.437,2.086c0.049,0.388-5.579-4.609-5.579-4.609L2191.706,372.331z"/>
	</g>
</g>
<circle fill="#F6F3EB" cx="216.169" cy="216.169" r="216.169"/>
<circle fill="none" cx="215.831" cy="216.507" r="202.669"/>
<circle fill="none" cx="216.51" cy="216.828" r="154.169"/>
<polygon fill="#F6F3EB" points="187.567,169.65 185.117,176.04 188.527,175.874 "/>
<path fill="#F6F3EB" d="M189.553,170.71l0.96,5.065l15.526-0.397l0.066-0.166l-3.377-0.132
	C202.729,175.08,192.202,173.16,189.553,170.71z"/>
<polygon fill="#F6F3EB" points="208.125,175.411 208.523,175.146 209.814,174.881 210.31,175.411 "/>
<path fill="#F6F3EB" d="M211.535,174.649l0.861,0.828l0.662-1.225C213.058,174.252,211.933,174.649,211.535,174.649z"/>
<path fill="#F6F3EB" d="M214.415,175.576l1.258-2.152c0,0,5.827-1.821,7.051-3.41l4.204,5.893
	C226.929,175.907,214.647,175.51,214.415,175.576z"/>
<polygon fill="#F6F3EB" points="309.668,201.134 310.388,203.79 307.582,203.964 "/>
<polygon fill="#F6F3EB" points="311.654,203.716 310.512,200.091 312.374,198.005 313.69,198.601 318.433,198.378 313.79,203.344 
	"/>
<polygon fill="#F6F3EB" points="310.115,198.353 311.779,196.491 310.661,195.82 309.544,196.317 "/>
<polygon fill="#F6F3EB" points="315.925,202.897 321.089,202.127 321.089,201.779 322.753,201.506 319.699,198.477 "/>
<polygon fill="#F6F3EB" points="326.254,201.308 327.024,201.183 324.466,196.913 323.076,198.03 321.139,198.105 "/>
<polygon fill="#F6F3EB" points="328.613,201.804 328.96,202.499 329.134,201.779 "/>
<polygon fill="#F6F3EB" points="328.166,200.91 329.308,200.91 329.308,198.378 328.199,197.128 326.146,197.327 "/>
<polygon fill="#F6F3EB" points="330.599,201.382 330.202,203.021 331.145,203.219 336.856,200.538 "/>
<polygon fill="#F6F3EB" points="336.26,202.375 341.375,201.68 341.325,200.339 339.835,200.19 338.693,200.488 "/>
<polygon fill="#F6F3EB" points="342.169,200.141 342.219,201.68 344.205,201.332 344.205,200.985 342.567,200.141 "/>
<polygon fill="#F6F3EB" points="339.091,193.834 340.829,197.956 342.318,197.807 342.318,197.36 "/>
<polygon fill="#F6F3EB" points="366.998,195.671 366.204,197.459 364.317,196.962 365.211,195.87 "/>
<polygon fill="#F6F3EB" points="368.091,195.324 367.545,197.31 369.283,196.714 369.531,195.125 "/>
<polygon fill="#F6F3EB" points="367.892,198.452 369.581,199.296 369.283,197.956 "/>
<circle fill="#F6F3EB" cx="2498.088" cy="232.902" r="216.169"/>
<circle fill="none" cx="2497.75" cy="233.24" r="202.669"/>
<circle fill="none" cx="2498.43" cy="233.561" r="154.169"/>
<path fill="#262224" d="M2331.81,350.311l43.591-25.414c0,0-6.687-4.436-6.754-10.329c0,0-0.728-6.356,5.297-9.203
	c0,0,4.436-0.993,6.489,1.589l4.436-1.258l0.596-1.39l0.464-0.331l1.324,0.132l0.927-0.662v-0.662l24.962-6.621l4.502-6.621
	l0.861-0.728l0.132-0.596l8.409-7.945l0.132-2.317l1.258,0.53l1.39-9.27l-2.384-2.317h-0.464c0,0-2.847-0.993-2.781-4.237
	c0,0,1.258-7.051,7.714-7.846l0.497-3.377l0.198-1.241l-0.149-1.092l0.099-1.142l0.397-1.49l1.291,0.05l1.589,0.546l-0.149,1.341
	l1.241,0.348l0.745,0.348l-0.099,0.397l-0.596,0.199l-0.546,0.348l0.745,0.149l2.533,0.447l2.83,0.497l2.384,0.099l0.05-5.115
	c0,0-41.365-12.266-53.879-30.142c0,0-5.76-17.48,73.891-22.843l3.774-9.534l-0.646-0.298l-0.198-1.291l0.646-0.646l2.086-0.298
	l0.347-0.099c0,0,1.44-2.135,13.755-2.93l0.348-3.228l0.695-0.596l0.05-0.447l-0.646-0.348l-0.149-0.745l1.49-0.745l0.943-0.199
	l0.745,0.05l0.944,0.348l0.596,0.397l0.198,0.298v0.695l-0.877,0.149v0.397l0.662,0.463l0.198,0.265l0.464,3.046
	c0,0,6.29,0,9.667,1.523h2.582l0.993,0.463l0.066,0.993c0,0,1.92,1.258,2.052,2.119v1.457l-0.132,0.728l5.363,7.548
	c0,0,50.85,3.906,62.371,10.66c0,0,25.16,8.343,7.548,19.201l4.933-0.745l0.099-0.397l1.986-0.298l3.377-4.767l-1.39-4.37
	l-0.05-0.894l-0.844-0.149v-1.738l0.149-2.533l-0.348-2.036l-0.05-1.986l-0.944-2.632c0,0,3.923-3.426,5.462-3.327l1.192,0.348
	l5.164-0.149c0,0,1.241-0.745,1.937-0.099l1.738,0.099l4.618-0.05l2.384-0.695l1.986,2.036l0.149,0.199l-0.993,2.979l-0.248,2.533
	l-0.149,2.036l0.348,1.937l0.05,1.539l-0.149,1.092l-0.546,1.241l-0.248,0.894l1.539,1.44l0.397,0.894l0.05,1.688v0.795l6.952-1.092
	c0,0,1.49-1.341,2.284-1.341l-2.831-6.654l-0.794,0.099l-0.695-1.887l-0.794-0.248l11.124-4.767l6.306-1.837l4.618-0.199l7.2,1.142
	l2.036,0.844l0.596-0.149l1.341,1.092l4.122,1.837l0.447,2.483c0,0-0.099,1.589-0.546,1.986l8.243-1.341l0.894-0.149l-0.397-9.882
	c0,0,1.291-1.142,3.526-0.397l0.894,10.428l4.171,0.596l0.596,0.348l0.795,4.718l0.198,2.781l0.546,7.548l-0.248,0.497l-2.235,1.539
	l-1.837,0.497l0.943,13.358l6.307-1.937l2.135-0.993l8.094-0.447l3.427,3.923l0.099,2.682l-0.447,1.44l3.476,3.426l2.979,0.695
	c0,0,1.639-0.149,1.341,2.831v1.639l0.397,1.192l-0.298,4.32l-0.844,0.745l-2.731,0.894l0.695,2.582l2.582-0.348l0.199-0.05
	l0.099,2.781c0,0-0.166,8.607-8.972,11.521l-9.005,3.509c0,0-19.797,5.893-21.519-13.838l-2.946,0.828c0,0,1.059-1.986,1.059-2.715
	c0,0-4.238,0.96-4.469-3.476l-3.973,0.695c0,0-0.662-1.324,0.265-2.715l-0.265-0.298c0,0-2.748,0-3.211,0.265
	c0,0-6.125,1.324-7.714-3.906c0,0-1.655-3.575,1.258-7.018l0.066-2.053l0.728-1.589l0.133-2.516l2.185-2.119
	c0,0-0.166-2.185,1.755-2.979l0.993-0.629l2.814-1.523l0.861-0.132l2.748-1.324l2.814-0.364l2.119-0.563l8.409-0.331l-0.265-4.436
	c0,0-7.349,0.563-9.038-0.761l-3.195,0.96l-0.331,0.281l-0.861,0.199l-2.384,0.05l-15.386,2.069l-0.497,0.422l-2.036,0.174
	l-2.309,0.05l-15.609,2.483l-0.133,0.795l-3.956,10.792l1.755,0.844l-0.033,2.367v2.607l0.174,1.192l-1.738,2.036l-2.582,0.646
	l-0.05,0.819l-0.67,0.894l-2.384,0.919l-4.817-1.862l-3.128-1.39l-1.713-1.142l-0.373-0.621l0.795-1.738l0.149-1.39l1.44-3.501
	l0.472-2.483l0.546-1.39l-2.334-2.607l-1.241,5.115l0.025,0.397l-0.124,0.323l-0.223,0.124v0.695l-0.497,0.074l-0.124-0.72
	l-0.273-0.273l-0.124-0.521l0.124-0.422l-2.433-7.697l-16.76,2.657l-19.623,14.823l0.166,0.331l-2.052,1.424h-0.397l-0.099,0.298
	l-1.721,1.324l-0.861,0.099l-13.176,9.766l-0.695,3.741l-0.464,1.192l-0.331,1.556l1.424,0.629l1.026-0.728l3.642-0.463l0.927,0.199
	l1.357,0.364l0.265,1.258l0.364,0.331l-0.166,0.397l-0.232,0.331l0.182,2.88l0.149,2.632l-0.198,4.42l-5.313,1.291l0.248,7.101
	l0.546,0.795h6.803l0.745,0.099l0.099,0.447l-0.397,0.447l-11.918,3.675l0.546,4.42l-0.05,0.894l-0.149,0.695l-0.248,0.67
	l-1.142,0.819l-0.596,1.266l0.695,0.819l0.124,0.497l-1.241,3.203l-0.074,0.944l-0.124,0.745l-0.323,1.142l16.106,24.424l-0.29,0.43
	l-10.18,0.124l-16.387,7.945l-0.025,3.973l-4.345,0.124l-4.594,0.05l-0.248-0.174v-0.894l-0.844-0.025l-2.036,0.05l-0.422,0.298
	l-0.596,0.025l-1.092-0.348l-2.086-0.199l-0.621-0.074l-0.621-1.763l-0.174-3.948l0.323-0.298l2.011-0.025l-0.77-1.241l-0.223,0.199
	h-0.422l-0.298-0.323l-0.273-0.695l-12.928-28.702l-12.514,30.06l-0.397,0.397l-0.927-0.132l-0.662,1.324h2.648l0.199,1.457
	l-0.133,2.317l-0.53,2.582l-2.119,0.397l-2.317-0.132l-1.39-0.331l-0.927,0.199l-2.648-0.132l-0.397-0.861l-3.642-0.132
	l-0.265-5.893l2.913-0.199l-0.397-0.795l-0.927-0.132l-0.662-0.397l-0.331-0.927l-2.384-5.297l4.105,48.466h-1.125l-4.171-50.188
	l-10.925-25.359l-0.265-0.927l0.993-0.927l-0.728-1.589l-0.993-0.397l-0.795-1.324l0.662-4.9l-1.059-0.861h-1.788l-0.927-0.993
	l-0.331-1.589l-2.119-0.132l-2.715-0.596l-7.747-1.721l-6.621,3.708l-6.025,9.667c0,0-0.133,4.304-5.363,3.84l-6.489,1.854
	l-1.473,17.182l-0.099,0.596l-0.298,0.447l-0.447-0.348l-8.938-13.507l-0.248,0.348l0.944,11.769l-0.149,0.397l-0.497-0.149
	l-0.794-7.598l-1.142-0.646l-3.278,7.896l-0.745,1.291l-0.248,0.397h-0.397l-0.646-1.39l0.199-0.695l-2.185-8.194l-0.546,0.248
	l-0.149,0.397l-0.497,0.745l-0.298,0.199l-0.646,6.555l-0.149,0.348l-0.248,0.447l-0.397-0.248l0.497-6.108
	c0,0-2.085,2.086-5.76,1.688l-44.318,25.956"/>
<polygon fill="#F6F3EB" points="2469.486,186.383 2467.036,192.773 2470.446,192.607 "/>
<path fill="#F6F3EB" d="M2471.473,187.443l0.96,5.065l15.526-0.397l0.066-0.166l-3.377-0.132
	C2484.648,191.813,2474.121,189.893,2471.473,187.443z"/>
<polygon fill="#F6F3EB" points="2490.045,192.144 2490.442,191.879 2491.733,191.614 2492.23,192.144 "/>
<path fill="#F6F3EB" d="M2493.455,191.382l0.861,0.828l0.662-1.225C2494.978,190.985,2493.852,191.382,2493.455,191.382z"/>
<path fill="#F6F3EB" d="M2496.335,192.309l1.258-2.152c0,0,5.826-1.821,7.052-3.41l4.204,5.893
	C2508.849,192.64,2496.566,192.243,2496.335,192.309z"/>
<polygon fill="#F6F3EB" points="2433.07,250.476 2433.534,250.509 2433.567,252.329 2432.574,254.415 2432.805,251.734 "/>
<polygon fill="#F6F3EB" points="2433.6,253.72 2433.103,254.812 2433.567,254.945 "/>
<path fill="#F6F3EB" d="M2434.361,251.833l-0.331,3.277c0,0,1.424,0.795,1.788,1.92l0.794,0.728l7.267-5.578l-8.963-1.316
	L2434.361,251.833z"/>
<polygon fill="#F6F3EB" points="2442.836,254.514 2437.796,258.462 2440.254,259.902 "/>
<polygon fill="#F6F3EB" points="2444.276,255.681 2442.042,261.889 2443.531,263.18 2444.847,262.385 "/>
<polygon fill="#F6F3EB" points="2446.312,260.945 2448.522,260.598 2447.628,259.282 2447.455,258.686 2447.405,257.792 
	2447.33,257.32 2446.834,255.359 2446.114,254.862 "/>
<polygon fill="#F6F3EB" points="2447.579,255.632 2448.646,256.029 2454.01,259.927 2455.127,262.683 2452.47,270.107 
	2446.685,265.365 2446.511,264.024 2448.646,263.825 2450.037,263.701 2450.086,262.931 2450.26,262.584 2449.938,261.144 
	2449.292,260.722 2448.771,260.051 2448.249,259.306 2448.175,258.835 2448.051,257.419 2447.877,256.526 "/>
<polygon fill="#F6F3EB" points="2456.468,265.812 2454.903,270.777 2458.528,270.107 "/>
<polygon fill="#F6F3EB" points="2457.759,262.708 2460.564,269.213 2462.551,268.518 2460.614,264.496 "/>
<polygon fill="#F6F3EB" points="2458.156,261.169 2458.901,261.342 2458.578,260.747 "/>
<polygon fill="#F6F3EB" points="2457.138,258.239 2455.971,259.033 2455.425,258.189 "/>
<polygon fill="#F6F3EB" points="2459.77,258.636 2463.445,264.794 2466.647,267.028 2470.992,259.455 2462.054,258.785 "/>
<polygon fill="#F6F3EB" points="2473.972,259.604 2470.794,265.216 2471.315,265.29 2472.557,264.719 2482.19,260.076 "/>
<polygon fill="#F6F3EB" points="2497.113,260.026 2500.241,259.828 2503.221,259.729 2504.015,259.629 2502.029,262.211 
	2500.291,261.516 2498.404,260.871 2497.212,260.424 "/>
<path fill="#F6F3EB" d="M2522.637,257.444l-1.093,12.861l-12.017-0.745l-1.54-1.241l-0.05-0.894l-1.589-0.248l-2.284-2.831
	l3.973-4.916C2508.038,259.431,2520.8,258.437,2522.637,257.444z"/>
<polygon fill="#F6F3EB" points="2529.291,256.103 2530.632,255.657 2530.284,257.047 "/>
<polygon fill="#F6F3EB" points="2527.503,261.119 2528.05,262.509 2525.716,269.064 2525.418,270.405 2524.325,270.405 
	2524.623,267.823 "/>
<polygon fill="#F6F3EB" points="2532.072,259.083 2531.724,262.956 2531.228,264.992 2530.831,262.956 "/>
<polygon fill="#F6F3EB" points="2534.704,263.602 2535.052,260.424 2538.875,244.434 2545.48,241.901 2546.076,242.1 
	2547.118,242.15 2547.963,241.901 2549.353,241.603 2550.446,241.405 2563.704,239.518 2568.77,238.475 2569.018,238.475 
	2550.843,251.982 2550.247,251.734 2548.26,253.074 2548.112,253.422 2547.615,253.521 2545.976,254.912 2546.026,255.508 "/>
<polygon fill="#F6F3EB" points="2526.626,306.556 2525.302,309.006 2526.03,309.271 2527.09,307.483 2528.149,306.953 
	2528.414,306.225 "/>
<polygon fill="#F6F3EB" points="2522.687,304.222 2522.736,301.193 2523.531,300.845 "/>
<polygon fill="#F6F3EB" points="2475.213,333.123 2483.506,311.522 2483.655,310.827 2483.01,310.281 2483.606,308.84 
	2485.542,308.94 "/>
<path fill="#F6F3EB" d="M2470.397,301.64c0,0-2.185,3.029-1.986,3.973l0.894,1.44v0.596l-0.447,0.447l-0.894,0.298l-7.647,0.447
	l-1.49,0.199l-0.546-0.099l0.397,6.456l10.18,22.346l11.124-28.057l1.043-0.248l0.348-0.298l-1.688-0.497l-0.099-2.086l0.745-4.42
	L2470.397,301.64z"/>
<polygon fill="#F6F3EB" points="2495.275,304.322 2491.203,304.421 2490.409,306.556 2490.757,307.152 2490.856,307.798 
	2490.458,309.138 2505.008,341.367 2505.058,342.161 2504.363,342.807 2505.455,344.892 2506.746,342.906 2506.2,342.161 
	2506.2,341.714 2507.69,338.834 2496.07,307.202 2496.02,306.556 "/>
<path fill="#F6F3EB" d="M2509.577,344.023c0,0,0.521,0.695,1.167,0.596l-0.074,0.248h-0.869h-1.539l0.298-0.894L2509.577,344.023z"
	/>
<polygon fill="#F6F3EB" points="2513.649,343.154 2512.979,343.849 2513.525,344.967 2514.046,343.502 "/>
<polygon fill="#F6F3EB" points="2512.457,338.313 2512.407,339.206 2513.55,341.59 2516.802,333.446 2515.71,331.807 "/>
<polygon fill="#F6F3EB" points="2513.053,327.413 2510.173,332.205 2505.877,321.081 2501.929,309.734 "/>
<polygon fill="#F6F3EB" points="2532.221,340.224 2518.59,346.68 2518.59,345.637 2517.845,345.339 2515.809,345.414 
	2516.33,344.47 2516.877,344.47 2517.224,344.172 2517.547,343.576 2519.707,338.139 2521.098,340.224 "/>
<path fill="#F6F3EB" d="M2498.751,304.239l0.563,1.059c0,0,0.828-0.265,1.093,0.497l0.662,1.523l0.53,0.795l0.066-0.463l5.727,0.199
	c0,0,0.265-1.291,2.02-1.291s2.88,1.821,2.88,1.821l10.296,0.695l-0.265-0.629l2.45-1.026l-0.695-0.563l-1.291-0.298l-0.248-0.422
	l0.149-1.018l-1.589,0.05l-4.37,0.099l-3.849,0.099l-1.589-0.323l-0.894-0.397l-0.298-0.372l-0.348-1.291l-0.323,0.596l-0.273,0.149
	l-0.323-0.149l-0.348-1.092l0.074-0.298l0.323-0.348l0.298-0.099l0.298,0.124l0.124,0.199l0.074-0.323l-1.961-0.199l-0.447,0.223
	l-2.731,0.199l-0.273,0.248l-0.447,0.074l-0.273-0.199l-0.348-0.248l-3.054,0.05l-0.025,1.688L2498.751,304.239z"/>
<polygon fill="#F6F3EB" points="2508.633,308.071 2508.807,307.599 2509.229,307.5 2509.602,307.525 2509.949,307.574 
	2510.297,307.773 2510.595,308.096 2510.57,308.195 2508.683,308.195 "/>
<polygon fill="#F6F3EB" points="2440.155,281.826 2436.679,284.756 2439.807,287.189 2443.234,285.302 "/>
<polygon fill="#F6F3EB" points="2438.02,278.797 2439.162,280.138 2433.898,279.542 "/>
<polygon fill="#F6F3EB" points="2430.471,280.188 2439.162,281.082 2435.338,283.862 "/>
<polygon fill="#F6F3EB" points="2432.557,271.597 2433.103,271.895 2432.11,273.037 "/>
<polygon fill="#F6F3EB" points="2430.819,270.604 2431.663,271.15 2430.323,273.782 "/>
<polygon fill="#F6F3EB" points="2434.096,272.59 2430.372,278.35 2437.275,277.258 "/>
<polygon fill="#F6F3EB" points="2443.085,287.041 2443.134,289.623 2441.148,288.133 "/>
<polygon fill="#F6F3EB" points="2435.09,285.898 2435.338,285.551 2438.615,287.885 2437.473,288.58 "/>
<polygon fill="#F6F3EB" points="2439.758,288.928 2438.764,289.772 2443.035,294.738 2443.085,291.212 "/>
<polygon fill="#F6F3EB" points="2429.23,281.479 2433.054,285.749 2428.584,289.474 2428.783,283.664 "/>
<polygon fill="#F6F3EB" points="2427.79,286.941 2427.74,289.672 2427.095,289.672 "/>
<polygon fill="#F6F3EB" points="2427.691,281.479 2425.307,289.523 2419.646,289.077 "/>
<polygon fill="#F6F3EB" points="2433.898,286.594 2436.232,289.325 2429.429,293.248 2427.144,292.801 2427.79,291.708 "/>
<polygon fill="#F6F3EB" points="2437.275,290.417 2441.943,295.731 2431.564,293.744 "/>
<polygon fill="#F6F3EB" points="2426.648,293.695 2428.386,293.794 2425.605,295.482 "/>
<polygon fill="#F6F3EB" points="2420.391,289.722 2422.178,290.914 2423.37,290.02 "/>
<polygon fill="#F6F3EB" points="2418.852,289.772 2422.079,291.708 2416.418,295.184 "/>
<polygon fill="#F6F3EB" points="2423.321,293.695 2416.319,300.349 2414.78,298.859 "/>
<polygon fill="#F6F3EB" points="2420.838,300.051 2418.256,304.073 2417.411,302.087 "/>
<polygon fill="#F6F3EB" points="2409.764,299.008 2409.433,298.578 2409.632,298.445 2410.228,298.644 2410.625,298.81 "/>
<polygon fill="#F6F3EB" points="2408.969,298.214 2409.069,298.743 2409.433,299.207 2402.613,300.994 2403.176,300.399 
	2403.375,299.869 "/>
<polygon fill="#F6F3EB" points="2402.911,300.068 2402.348,300.068 2401.951,300.564 2402.216,300.663 2402.746,300.299 "/>
<polygon fill="#F6F3EB" points="2398.376,301.193 2397.846,301.524 2397.846,302.12 2399.203,301.789 2399.568,301.491 
	2399.038,301.193 "/>
<polygon fill="#F6F3EB" points="2397.449,301.359 2397.416,302.054 2397.085,302.385 2390.497,304.206 2391.159,303.179 "/>
<polygon fill="#F6F3EB" points="2387.219,304.702 2386.789,304.702 2386.259,304.437 2385.928,304.537 2385.663,304.901 
	2385.498,305.464 2386.259,305.298 2387.319,304.901 2387.583,304.537 "/>
<polygon fill="#F6F3EB" points="2390.761,303.279 2390.298,303.974 2389.172,303.941 2389.669,303.345 "/>
<polygon fill="#F6F3EB" points="2386.226,320.411 2388.312,329.002 2388.858,329.002 2392.235,321.454 2388.759,318.772 "/>
<polygon fill="#F6F3EB" points="2389.454,318.375 2392.384,320.808 2393.625,317.431 2393.625,316.637 2392.483,316.637 "/>
<polygon fill="#F6F3EB" points="2393.625,320.262 2392.979,321.404 2393.874,321.801 "/>
<polygon fill="#F6F3EB" points="2395.612,315.892 2394.916,317.332 2403.259,329.2 2403.855,329.101 2404.302,320.907 
	2403.507,324.681 2403.358,325.575 2403.01,325.575 2402.365,324.582 2397.796,315.445 "/>
<polygon fill="#F6F3EB" points="2398.392,315.246 2402.663,323.986 2403.06,324.036 2404.897,315.197 2405.047,313.757 
	2402.166,314.551 2400.031,314.899 "/>
<polygon fill="#F6F3EB" points="2533.049,246.238 2534.042,245.775 2533.049,248.224 "/>
<polygon fill="#F6F3EB" points="2565.889,232.466 2568.174,233.857 2566.386,235.545 2562.811,235.942 2562.811,234.055 "/>
<polygon fill="#F6F3EB" points="2562.115,234.403 2562.115,236.042 2558.788,236.191 "/>
<polygon fill="#F6F3EB" points="2571.848,231.672 2569.862,233.509 2571.153,234.304 2571.997,234.353 "/>
<polygon fill="#F6F3EB" points="2571.848,228.792 2571.848,230.827 2568.968,233.459 2566.485,231.97 "/>
<polygon fill="#F6F3EB" points="2572.692,234.254 2575.97,228.444 2572.543,230.877 "/>
<polygon fill="#F6F3EB" points="2568.918,234.155 2567.677,235.346 2569.564,235.247 2570.061,234.85 "/>
<polygon fill="#F6F3EB" points="2576.864,225.564 2579.645,223.528 2584.859,222.684 2580.24,224.968 "/>
<polygon fill="#F6F3EB" points="2572.643,228.394 2572.593,230.132 2575.92,227.351 2574.853,227.202 "/>
<polygon fill="#F6F3EB" points="2577.484,227.749 2577.559,233.435 2573.735,234.204 2577.137,227.798 "/>
<polygon fill="#F6F3EB" points="2578.254,228.022 2578.403,233.435 2582.525,233.037 2584.412,231.324 "/>
<polygon fill="#F6F3EB" points="2588.062,224.918 2578.329,226.706 2584.983,230.778 2588.161,227.947 "/>
<polygon fill="#F6F3EB" points="2583.443,224.372 2587.938,223.553 2587.938,222.857 2586.895,222.708 "/>
<polygon fill="#F6F3EB" points="2588.931,222.708 2588.956,223.528 2590.296,223.304 "/>
<polygon fill="#F6F3EB" points="2589.005,224.844 2589.129,227.202 2591.488,224.869 2591.041,224.645 "/>
<polygon fill="#F6F3EB" points="2588.211,228.965 2588.285,231.697 2587.54,231.796 2586.646,231.349 2585.926,231.25 "/>
<polygon fill="#F6F3EB" points="2585.132,231.895 2585.877,232.243 2584.188,232.615 "/>
<polygon fill="#F6F3EB" points="2589.104,228.245 2589.154,231.548 2592.208,225.961 2592.059,225.688 2591.811,225.688 "/>
<polygon fill="#F6F3EB" points="2590.569,221.79 2592.854,222.559 2592.68,221.492 "/>
<polygon fill="#F6F3EB" points="2591.587,217.867 2592.307,220.523 2589.502,220.697 "/>
<polygon fill="#F6F3EB" points="2593.872,221.293 2594.765,221.169 2594.12,221.988 "/>
<polygon fill="#F6F3EB" points="2593.648,225.365 2593.797,230.554 2590.42,231.25 "/>
<polygon fill="#F6F3EB" points="2593.574,220.449 2592.432,216.824 2594.294,214.738 2595.61,215.334 2600.352,215.111 
	2595.709,220.076 "/>
<polygon fill="#F6F3EB" points="2592.034,215.086 2593.698,213.224 2592.581,212.553 2591.463,213.05 "/>
<polygon fill="#F6F3EB" points="2596.802,220.697 2595.361,222.51 2596.057,222.559 2601.295,220.126 "/>
<polygon fill="#F6F3EB" points="2597.844,219.63 2603.009,218.86 2603.009,218.512 2604.672,218.239 2601.618,215.21 "/>
<polygon fill="#F6F3EB" points="2608.173,218.041 2608.943,217.916 2606.385,213.646 2604.995,214.763 2603.058,214.838 "/>
<polygon fill="#F6F3EB" points="2606.112,219.952 2606.063,221.169 2608.521,220.821 2608.421,220.573 2607.9,220.548 
	2606.385,219.903 "/>
<polygon fill="#F6F3EB" points="2598.589,222.361 2605.194,221.392 2605.194,220.002 2603.952,219.828 2603.282,219.952 "/>
<polygon fill="#F6F3EB" points="2595.312,224.446 2601.767,228.071 2605.392,224.918 2605.293,223.428 "/>
<polygon fill="#F6F3EB" points="2606.286,224.248 2607.875,222.857 2606.212,223.031 "/>
<polygon fill="#F6F3EB" points="2605.467,225.936 2605.541,229.238 2604.672,229.363 2603.977,228.891 2603.083,228.792 
	2602.612,228.494 "/>
<polygon fill="#F6F3EB" points="2594.542,225.117 2594.716,230.579 2599.756,229.934 2601.097,228.692 "/>
<polygon fill="#F6F3EB" points="2606.435,229.189 2606.286,225.142 2608.819,223.081 2609.241,223.081 2609.415,223.23 "/>
<polygon fill="#F6F3EB" points="2607.503,229.04 2611.029,228.767 2610.706,222.535 "/>
<polygon fill="#F6F3EB" points="2611.6,222.286 2611.823,228.643 2615.672,228.643 2618.726,225.837 2611.699,222.212 "/>
<polygon fill="#F6F3EB" points="2610.532,218.537 2610.88,219.232 2611.053,218.512 "/>
<polygon fill="#F6F3EB" points="2610.085,217.643 2611.227,217.643 2611.227,215.111 2610.118,213.861 2608.066,214.06 "/>
<polygon fill="#F6F3EB" points="2612.518,218.115 2612.121,219.754 2613.064,219.952 2618.775,217.271 "/>
<polygon fill="#F6F3EB" points="2618.179,219.108 2623.294,218.413 2623.244,217.072 2621.755,216.923 2620.613,217.221 "/>
<polygon fill="#F6F3EB" points="2624.089,216.874 2624.138,218.413 2626.125,218.065 2626.125,217.718 2624.486,216.874 "/>
<polygon fill="#F6F3EB" points="2623.344,219.257 2623.393,222.088 2619.421,225.315 2612.518,221.641 2613.462,221.045 "/>
<polygon fill="#F6F3EB" points="2624.287,219.059 2624.337,221.045 2626.224,219.704 2626.025,218.711 "/>
<polygon fill="#F6F3EB" points="2626.423,220.3 2626.522,222.038 2624.486,226.408 2624.337,222.088 "/>
<polygon fill="#F6F3EB" points="2623.493,222.783 2623.642,226.656 2622.897,226.756 2621.655,226.11 2621.407,226.507 
	2620.116,225.613 "/>
<polygon fill="#F6F3EB" points="2619.52,226.259 2616.988,228.295 2621.506,227.351 "/>
<polygon fill="#F6F3EB" points="2629.054,222.799 2626.936,222.932 2625.347,226.507 2629.054,225.514 "/>
<polygon fill="#F6F3EB" points="2629.849,222.468 2629.783,225.315 2636.139,224.322 2637.728,223.064 2635.013,221.806 "/>
<polygon fill="#F6F3EB" points="2638.241,223.18 2637.248,223.975 2639.681,223.925 "/>
<polygon fill="#F6F3EB" points="2638.937,222.584 2640.476,221.343 2642.71,221.144 2642.859,223.677 2641.568,223.776 
	2640.575,223.379 2640.575,223.627 "/>
<polygon fill="#F6F3EB" points="2621.01,210.567 2622.748,214.689 2624.238,214.54 2624.238,214.093 "/>
<polygon fill="#F6F3EB" points="2643.753,220.846 2644.697,220.648 2643.853,222.932 "/>
<polygon fill="#F6F3EB" points="2644.846,223.031 2647.875,222.684 2647.676,216.427 "/>
<polygon fill="#F6F3EB" points="2648.918,212.404 2648.123,214.192 2646.236,213.695 2647.13,212.603 "/>
<polygon fill="#F6F3EB" points="2650.01,212.057 2649.464,214.043 2651.202,213.447 2651.45,211.858 "/>
<polygon fill="#F6F3EB" points="2649.812,215.185 2651.5,216.029 2651.202,214.689 "/>
<polygon fill="#F6F3EB" points="2648.868,215.781 2648.222,216.178 2648.669,222.684 2651.947,222.485 2651.748,217.221 "/>
<polygon fill="#F6F3EB" points="2589.328,235.379 2591.182,242.199 2592.638,238.094 2590.056,235.048 "/>
<polygon fill="#F6F3EB" points="2605.814,233.592 2603.894,233.724 2600.915,240.743 2601.445,241.736 2603.563,243.06 
	2606.013,238.624 "/>
<polygon fill="#F6F3EB" points="2606.741,233.062 2606.874,236.637 2609.655,232.863 "/>
<polygon fill="#F6F3EB" points="2610.582,233.261 2606.94,238.491 2607.271,242.464 "/>
<polygon fill="#F6F3EB" points="2606.079,240.478 2604.292,243.192 2606.212,244.384 "/>
<polyline fill="none" stroke="#252123" stroke-width="0.2979" stroke-miterlimit="10" points="2430.687,255.243 2389.371,223.66 
	2363.417,203.929 2312.831,166.322 2307.434,162.177 "/>
<polyline fill="none" stroke="#252123" stroke-width="0.2979" stroke-miterlimit="10" points="2427.045,257.494 2425.91,256.486 
	2387.981,222.799 2380.565,216.443 2331.701,174.201 2310.501,157.127 "/>
<polyline fill="none" stroke="#252123" stroke-width="0.2979" stroke-miterlimit="10" points="2424.198,262.658 2361.894,210.484 
	2334.218,186.383 2312.235,166.123 2307.661,161.949 "/>
<polyline fill="none" stroke="#252123" stroke-width="0.149" stroke-miterlimit="10" points="2426.549,257.891 2427.343,252.727 
	2428.237,256.004 "/>
<polyline fill="none" stroke="#252123" stroke-width="0.149" stroke-miterlimit="10" points="2424.86,260.622 2421.632,260.026 
	2425.208,259.679 "/>
<polyline fill="none" stroke="#252123" stroke-width="0.149" stroke-miterlimit="10" points="2425.853,258.686 2417.958,257.295 
	2420.093,247.215 2422.377,253.323 2414.631,254.614 2425.804,256.401 2423.569,249.698 2418.156,257.196 "/>
<polyline fill="none" stroke="#252123" stroke-width="0.149" stroke-miterlimit="10" points="2427.343,252.727 2421.434,260.374 
	2423.569,249.698 "/>
<polyline fill="none" stroke="#252123" stroke-width="0.149" stroke-miterlimit="10" points="2422.03,253.223 2410.956,251.585 
	2419.1,250.492 2416.468,244.434 2411.403,251.982 2415.028,255.011 2416.418,244.235 2419.894,247.066 2414.78,254.365 "/>
<line fill="none" stroke="#252123" stroke-width="0.149" stroke-miterlimit="10" x1="2417.958" y1="257.295" x2="2425.555" y2="256.451"/>
<polyline fill="none" stroke="#252123" stroke-width="0.149" stroke-miterlimit="10" points="2418.901,250.343 2407.976,249.052 
	2412.694,241.603 2411.75,252.28 2407.728,249.002 2415.872,247.513 2412.992,241.752 "/>
<polyline fill="none" stroke="#252123" stroke-width="0.149" stroke-miterlimit="10" points="2408.423,249.549 2409.565,239.12 
	2412.346,244.533 2404.997,246.619 2415.524,247.364 2412.644,244.732 2401.769,243.937 2409.417,241.752 2398.541,241.355 
	2406.387,239.12 "/>
<polyline fill="none" stroke="#252123" stroke-width="0.149" stroke-miterlimit="10" points="2409.367,238.971 2404.997,246.619 
	2406.238,236.439 2401.769,243.937 2402.862,233.956 2398.79,241.355 2399.534,231.423 2399.137,231.125 2395.711,238.872 
	2406.139,238.922 2403.01,234.204 2406.437,236.687 2408.821,241.256 "/>
<polyline fill="none" stroke="#252123" stroke-width="0.149" stroke-miterlimit="10" points="2403.259,236.29 2395.959,238.971 
	2396.307,228.841 2398.69,232.019 2400.23,233.807 2392.831,236.439 2403.01,236.191 2399.534,231.423 "/>
<polyline fill="none" stroke="#252123" stroke-width="0.149" stroke-miterlimit="10" points="2400.081,233.608 2389.802,233.906 
	2389.901,224.173 2393.029,226.408 2392.831,236.439 2396.108,228.742 "/>
<polyline fill="none" stroke="#252123" stroke-width="0.149" stroke-miterlimit="10" points="2389.802,233.906 2397.3,231.125 
	2386.772,231.374 2394.32,228.494 2391.49,225.911 2384.14,229.189 2394.569,228.543 "/>
<line fill="none" stroke="#252123" stroke-width="0.149" stroke-miterlimit="10" x1="2390.099" y1="234.055" x2="2393.029" y2="226.408"/>
<polyline fill="none" stroke="#252123" stroke-width="0.149" stroke-miterlimit="10" points="2391.49,225.911 2381.211,226.656 
	2383.495,219.257 2386.524,221.541 2384.14,229.189 2383.942,219.406 2382.651,218.562 2375.798,222.187 2385.581,220.995 
	2378.529,224.471 2388.759,223.379 2381.26,226.904 2387.07,231.523 2386.971,221.839 2389.503,224.223 2387.319,231.721 "/>
<polyline fill="none" stroke="#252123" stroke-width="0.149" stroke-miterlimit="10" points="2381.509,226.904 2381.012,217.37 
	2380.416,216.973 2378.529,224.471 2377.884,215.036 2379.671,216.327 2373.116,219.903 2382.651,218.562 2377.536,214.738 
	2375.798,222.187 2375.103,212.951 2376.841,214.142 2370.484,217.668 2379.423,215.98 "/>
<polyline fill="none" stroke="#252123" stroke-width="0.149" stroke-miterlimit="10" points="2373.116,219.903 2374.606,212.355 
	2376.493,213.844 2367.753,215.433 2373.911,211.808 2372.272,210.716 2373.365,220.101 2370.633,217.966 2371.726,210.219 
	2373.265,211.61 2365.121,213.249 2371.031,209.623 2369.342,208.481 2370.931,217.916 "/>
<polyline fill="none" stroke="#252123" stroke-width="0.149" stroke-miterlimit="10" points="2368.846,208.134 2368.101,215.831 
	2366.562,206.247 2370.832,209.623 2374.259,210.915 2371.875,208.779 2371.08,209.425 2362.688,211.312 2369.392,206.793 
	2364.079,204.459 2365.667,213.745 2366.065,205.899 2363.234,203.813 2363.085,211.51 2360.304,209.177 2366.661,204.509 
	2371.428,208.581 2367.356,207.091 2360.106,208.928 2363.334,211.659 2361.149,202.224 2366.214,204.062 2364.178,202.224 
	2357.871,207.091 2364.625,205.055 "/>
<polyline fill="none" stroke="#252123" stroke-width="0.149" stroke-miterlimit="10" points="2363.88,201.926 2360.652,200.933 
	2360.553,209.425 2358.616,200.437 2361.695,200.188 2355.438,205.055 2361.894,202.82 2357.971,199.89 2358.219,207.29 
	2355.885,198.301 2359.162,198.053 2353.253,203.019 2359.361,200.735 2355.488,197.954 2355.935,205.403 2353.303,196.464 
	2356.729,195.868 2350.919,200.983 2359.063,197.805 2356.332,195.471 2350.72,194.478 2353.7,203.416 2352.806,195.868 
	2358.566,197.656 "/>
<polyline fill="none" stroke="#252123" stroke-width="0.149" stroke-miterlimit="10" points="2355.885,198.301 2361.298,199.741 
	2356.729,195.868 2348.635,198.997 2354.246,193.584 2347.94,192.491 2351.316,201.331 2350.274,194.13 2345.606,190.704 
	2349.032,199.394 2347.741,192.64 2351.763,191.548 2346.351,197.11 2354.296,193.832 "/>
<polyline fill="none" stroke="#252123" stroke-width="0.149" stroke-miterlimit="10" points="2351.565,191.449 2345.606,190.704 
	2346.599,197.308 2343.272,189.015 2349.429,189.363 2344.116,195.074 2351.763,191.548 2349.628,189.611 2342.03,193.137 
	2347.145,187.526 2339.895,191.25 2344.712,185.49 2337.71,189.512 2342.527,183.553 2335.575,187.575 2340.193,181.666 
	2333.439,185.738 2337.909,179.63 2331.404,183.901 2335.674,177.793 2329.417,182.063 2333.489,175.906 2327.48,180.325 
	2331.453,173.969 2325.544,178.488 2329.119,172.082 2323.607,176.65 2327.083,170.344 2321.869,174.962 2324.799,168.606 
	2320.032,173.423 2322.713,167.017 2318.145,171.585 2320.628,165.13 2316.258,169.847 2318.542,163.441 2314.52,168.308 
	2316.705,162.001 2310.001,164.137 2309.455,163.64 2310.547,157.135 "/>
<polyline fill="none" stroke="#252123" stroke-width="0.149" stroke-miterlimit="10" points="2344.513,195.471 2340.988,187.228 
	2347.145,187.526 2342.974,188.817 2344.116,195.074 2342.279,193.385 2340.342,186.781 2338.107,185.092 2344.712,185.49 
	2342.229,183.404 2335.724,183.305 2338.107,189.611 2334.333,182.411 2333.439,181.567 2340.193,181.666 2337.909,179.63 
	2331.105,179.928 2333.837,185.986 2336.022,187.923 2332.099,180.623 2336.518,183.95 2340.193,191.498 2337.909,184.894 
	2338.902,185.887 2342.279,192.889 "/>
<polyline fill="none" stroke="#252123" stroke-width="0.149" stroke-miterlimit="10" points="2307.766,162.15 2308.362,162.697 
	2314.569,160.512 "/>
<polyline fill="none" stroke="#252123" stroke-width="0.149" stroke-miterlimit="10" points="2335.972,177.942 2328.672,178.19 
	2330.112,179.183 2332.794,183.652 2333.638,185.788 2331.751,184.099 2329.169,178.388 2326.636,176.65 2333.737,176.055 
	2331.453,173.969 2324.302,174.962 2322.266,173.274 2329.467,172.33 2327.033,170.542 2320.181,171.784 2318.244,170.195 
	2324.799,168.606 2322.713,167.017 2316.059,168.705 2313.775,167.066 2320.777,165.378 2318.443,163.64 2311.888,165.726 
	2313.129,166.62 2314.371,160.263 2311.193,165.13 2312.583,158.774 2308.615,160.282 "/>
<polyline fill="none" stroke="#252123" stroke-width="0.149" stroke-miterlimit="10" points="2309.455,163.64 2312.583,158.774 
	2308.362,162.697 2310.547,157.135 2307.766,161.902 "/>
<polyline fill="none" stroke="#252123" stroke-width="0.149" stroke-miterlimit="10" points="2316.705,162.001 2313.129,166.62 
	2311.888,165.726 2316.953,162.25 "/>
<path fill="none" stroke="#252123" stroke-width="0.149" stroke-miterlimit="10" d="M2296.047,153.559"/>
<path fill="none" stroke="#252123" stroke-width="0.149" stroke-miterlimit="10" d="M2300.665,155.695"/>
<g>
	<polygon fill="#262224" points="274.094,215.68 271.961,220.631 250.05,231.218 295.504,270.299 291.291,278.489 291.949,279.094 
		292.186,278.831 292.581,278.62 293.055,278.726 293.345,279.094 293.371,279.489 293.081,280.016 294.398,281.254 
		298.691,273.143 298.98,273.222 352.098,318.86 311.805,380.194 266.246,336.215 269.67,329.315 268.485,328.183 268.248,328.683 
		267.721,328.657 267.379,328.499 267.168,328.077 267.51,327.313 266.773,326.681 263.297,333.529 221.688,293.368 
		224.479,286.468 223.478,285.678 223.347,285.889 223.162,286.021 222.715,285.994 222.372,285.836 222.293,285.546 
		222.293,285.283 222.583,284.783 221.793,284.151 219.133,290.892 218.817,290.866 213.102,285.309 215.736,278.173 
		213.497,276.145 200.883,282.781 199.487,282.702 197.512,283.782 181.29,282.018 165.91,266.822 163.54,270.931 163.698,271.378 
		163.725,271.852 163.593,272.168 163.172,272.3 162.777,272.511 162.382,272.827 162.039,273.011 161.855,273.327 161.671,273.643 
		161.302,273.906 160.854,274.143 160.538,274.354 159.669,275.25 159.801,273.696 159.853,272.353 159.853,271.01 159.722,270.615 
		159.748,270.062 160.196,269.746 160.591,269.535 163.119,264.057 145.211,246.308 136.784,224.529 138.891,214.205 
		133.887,209.492 135.388,202.118 134.967,201.933 134.756,202.091 134.414,202.091 133.94,202.091 133.782,201.802 
		133.966,200.854 133.624,200.485 131.912,207.753 102.154,179.286 103.181,171.648 102.654,171.227 102.681,171.464 
		102.496,171.543 102.049,171.543 101.706,171.438 101.706,170.226 101.311,169.937 99.968,177.126 72.554,150.923 79.875,85.665 
		80.191,85.586 110.344,111.631 109.106,120.138 109.449,120.296 109.659,120.085 109.896,120.032 110.186,120.006 110.502,120.085 
		110.607,120.296 110.555,121.244 111.213,121.77 112.477,113.659 112.767,113.554 145.87,141.969 144.079,150.396 144.553,150.87 
		144.632,150.554 144.869,150.423 145.211,150.37 145.422,150.502 145.685,150.791 145.685,151.292 145.527,151.792 
		146.133,152.108 148.003,143.918 153.375,148.553 151.637,157.085 151.9,156.348 152.269,156.085 153.349,155.742 158.616,153.398 
		184.45,145.788 200.356,143.128 201.436,143.444 202.516,144.418 205.992,143.76 206.255,143.681 211.496,142.417 212.023,142.812 
		212.128,142.18 213.313,141.706 213.445,140.968 213.655,140.916 214.103,140.889 214.446,141.021 214.604,141.284 
		214.551,141.969 215.341,142.706 215.367,143.022 215.157,143.76 214.63,144.603 214.182,145.235 213.787,145.524 213.366,145.682 
		212.971,145.761 212.655,145.709 212.26,145.919 211.601,146.156 217.184,155.057 221.108,153.741 221.609,153.714 
		224.558,145.077 227.034,144.418 226.56,146.235 227.402,146.867 228.061,145.208 228.482,144.919 228.64,144.919 228.851,144.524 
		229.351,141.916 229.693,141.811 229.904,141.574 230.246,141.416 230.589,141.442 230.826,141.548 231.063,141.732 
		231.247,141.969 231.405,142.417 231.458,142.785 231.326,143.338 230.615,145.129 230.299,145.208 230.246,145.34 
		230.668,145.972 230.694,146.288 230.457,146.867 230.325,147.289 230.299,147.815 231.115,147.657 231.352,147.842 
		231.115,149.079 238.015,146.867 237.884,145.156 239.569,144.524 241.202,145.788 250.998,143.049 250.445,140.481 
		251.235,137.36 255.897,139.059 261.624,143.404 261.585,143.918 262.019,143.957 264.508,145.774 268.063,144.589 
		269.485,145.656 271.658,145.024 272.764,145.774 273.87,142.93 274.463,142.891 284.97,150.554 284.931,150.949 286.274,151.937 
		286.274,152.292 282.403,161.615 282.679,161.694 283.706,160.825 286.432,161.18 288.012,165.486 286.669,168.567 
		293.424,173.742 292.91,176.033 295.004,179.391 294.925,179.865 294.609,180.299 294.767,181.366 291.409,188.99 290.5,189.029 
		290.619,189.661 290.342,189.938 289.236,192.585 288.407,192.861 288.012,192.782 287.735,193.375 288.012,193.73 
		286.432,197.285 286.985,197.799 285.128,202.105 284.22,202.5 283.706,202.302 283.43,202.026 281.849,201.236 280.072,204.633 
		282.877,207.042 281.652,210.045 280.625,210.4 278.334,208.701 277.07,211.546 277.267,212.533 277.267,213.481 277.07,214.034 
		276.793,214.429 	"/>
	<g>
		<polygon fill="#F6F3EB" points="290.105,280.701 290.922,281.228 290.553,282.07 290.816,282.439 291.264,282.597 
			291.607,282.676 291.896,282.202 293.318,283.334 270.539,327.524 269.354,326.471 269.67,325.839 269.591,325.549 
			269.406,325.233 269.064,325.128 268.669,325.154 268.379,325.417 267.668,324.864 		"/>
		<polygon fill="#F6F3EB" points="222.53,282.255 223.215,282.86 223.373,282.65 223.715,282.544 224.005,282.544 224.295,282.676 
			224.4,282.887 224.453,283.255 224.4,283.519 224.268,283.782 225.19,284.625 237.12,254.656 236.698,254.84 236.698,255.209 
			235.882,255.209 232.301,257.237 		"/>
		<polygon fill="#F6F3EB" points="234.434,252.207 235.303,251.785 235.566,251.996 235.856,251.654 235.856,251.39 
			236.804,250.916 238.094,252.049 243.098,239.829 238.2,242.173 		"/>
		<polygon fill="#F6F3EB" points="145.633,154.241 145.053,153.872 145.053,154.215 144.764,154.215 144.211,154.162 
			143.947,153.925 143.789,153.714 143.868,153.135 143.947,152.819 143.579,152.529 133.966,198.694 134.388,199.063 
			134.546,198.8 134.73,198.721 135.02,198.694 135.204,198.747 135.362,198.958 135.467,199.3 135.388,199.879 135.836,200.406 		
			"/>
		<polygon fill="#F6F3EB" points="103.556,169.891 103.023,169.476 103.023,168.705 102.983,168.449 102.825,168.31 102.49,168.251 
			102.213,168.291 102.075,168.409 101.996,168.626 101.581,168.152 108.692,122.192 109.166,122.547 109.185,123.515 
			109.403,123.633 109.778,123.732 110.015,123.653 110.193,123.475 110.825,123.851 		"/>
	</g>
</g>
<g>
</g>
<g>
</g>
<g>
</g>
<g>
</g>
<g>
</g>
<g>
</g>
</svg>
