<?xml version="1.0" encoding="utf-8"?>
<!-- Generator: Adobe Illustrator 17.0.0, SVG Export Plug-In . SVG Version: 6.00 Build 0)  -->
<!DOCTYPE svg PUBLIC "-//W3C//DTD SVG 1.1//EN" "http://www.w3.org/Graphics/SVG/1.1/DTD/svg11.dtd">
<svg version="1.1" id="Layer_1" xmlns="http://www.w3.org/2000/svg" xmlns:xlink="http://www.w3.org/1999/xlink" x="0px" y="0px"
	 width="432.338px" height="432.338px" viewBox="0 0 432.338 432.338" enable-background="new 0 0 432.338 432.338"
	 xml:space="preserve">
<circle fill="#F6F3EB" cx="216.169" cy="216.169" r="216.169"/>
<circle fill="none" cx="215.831" cy="216.507" r="202.669"/>
<circle fill="#F6F3EB" cx="671.169" cy="209.169" r="216.169"/>
<circle fill="none" cx="670.831" cy="209.507" r="202.669"/>
<g>
	<path fill="#262224" d="M473.377,163.109l89.409,19.729c0,0,1.722-3.498,4.198-1.184l5.113,1.13c0,0,3.175-0.915,4.251,2.96
		l78.195,17.167c0,0,5.274-28.792,31.267-36.702l-72.9-151.092l0.982-0.284l72.806,150.972l0.323,0.323
		c0,0,20.262-5.731,37.214,15.176h0.969l0.565-0.404l-0.484-4.036l0.969-0.161l1.049-0.807v-2.099h2.745l0.565-8.637l0.565-0.484
		l2.26-0.081l0.646,0.565l5.086-1.049l0.727-0.646h1.857l2.18,0.727l0.081,1.776l2.422,3.068l28.818-43.187
		c0,0,1.857-0.404,1.615,1.453l-28.98,41.654l-0.081,0.646l1.292,0.404l1.776-0.404l1.292,0.727l0.727-1.292l1.453-0.161
		l0.646-0.404l-0.081-0.727l-2.664-0.727l-1.695-0.161l-0.081-0.807l4.682-0.646l1.13-0.646l-0.161-1.614l2.906-2.825
		c0,0,1.695,0.081,2.906-1.049l-0.969-3.229c0,0,6.942-5.005,20.342-8.637l1.453,3.068c0,0,0.646,1.776,3.068,0.484l4.682,14.934
		l-1.554,0.787v0.666l1.756-0.545l3.249,11.402l0.141,0.141l6.377-0.525l4.016-0.02c0,0,2.805-0.121,11.443,6.619
		c0,0,10.494-3.673,14.894-3.794l2.139,0.081c0,0,2.664,0.484,5.005,3.189v1.937l-0.727,1.453h-1.171c0,0-6.296,10.212-10.212,13.36
		c0,0,1.857,2.825,2.099,8.315c0,0,3.108,0.727,2.906,3.955l0.04,3.269l9.606,2.987l-1.493,1.534c0,0,1.413,1.534,1.372,2.422h1.049
		v0.686h-1.13c0,0,0.444,1.897-1.332,3.068l1.009,1.453l-2.301-0.444l-1.453,0.202v2.583l-8.193-2.301c0,0-1.937,3.875-2.381,4.036
		c0,0,0.848,3.431,4.642,6.458c0,0-3.794,0.767-6.942-2.381l-1.453,1.736l-0.04,1.09c0,0,8.597,11.988,9.727,18.688h0.605v0.404
		h1.292v1.211h0.323v1.292h-0.404v1.049h-1.534l-0.928,1.776h-7.467l-13.36-6.014c0,0-24.056,14.571-35.518,16.185
		c0,0-10.978,1.534-19.051-1.695c0,0-11.705-4.44-23.491-14.046c0,0-8.234,14.127-15.338,16.629v2.018h-1.292v-1.292
		c0,0-2.825,2.422-6.296,3.148l-0.646,1.453l-3.31,4.278l-0.081,1.211c0,0-0.161,0.646-1.13,0.511
		c-0.969-0.135-0.646-0.996-0.646-0.996s0.188-0.861,0.996-0.888l3.148-4.467l0.027-0.7c0,0-10.225,3.875-21.93-1.534
		s-15.257-10.252-15.257-10.252l-87.098,125.179l-1.147-0.555l87.68-125.754c0,0-21.338-21.957-16.387-54.892l-79.378-16.898
		c0,0-1.453,1.614-4.198,0.269l-6.942-1.238c0,0-0.915,0.108-1.668-1.614l-89.922-18.556"/>
	<path fill="#F6F3EB" d="M787.01,249.354h0.996v0.942C788.006,250.296,787.36,250.269,787.01,249.354z"/>
	<path fill="#F6F3EB" d="M789.647,249.031v1.884c0,0,1.48,0.511,2.718,0.619c0,0,0.511-2.153,0.457-2.422
		C792.822,249.112,790.428,248.735,789.647,249.031z"/>
	<path fill="#F6F3EB" d="M794.437,249.973l-0.35,1.722l4.547,0.915l0.027-0.646C798.661,251.964,795.406,250.108,794.437,249.973z"
		/>
	<polygon fill="#F6F3EB" points="567.226,190.506 568.397,191.556 568.397,191.959 567.428,191.879 567.388,191.515 
		566.822,191.515 	"/>
	<polygon fill="#F6F3EB" points="566.136,192.161 566.136,192.545 567.408,192.545 567.408,192.181 	"/>
	<polygon fill="#F6F3EB" points="565.854,193.15 567.428,193.15 567.428,192.868 569.163,192.868 569.708,193.776 569.708,194.139 
		568.861,194.139 565.854,193.493 	"/>
	<polygon fill="#F6F3EB" points="567.791,182.192 570.657,182.959 570.657,183.181 569.729,183.181 569.729,183.483 
		568.094,183.483 568.094,182.858 567.771,182.858 	"/>
	<rect x="570.354" y="183.786" fill="#F6F3EB" width="0.686" height="0.404"/>
	<polygon fill="#F6F3EB" points="569.042,184.432 569.042,185.078 569.688,185.078 569.688,185.421 570.011,185.421 
		570.011,185.098 570.314,185.098 570.314,184.735 569.486,184.735 569.486,184.432 	"/>
	<polygon fill="#F6F3EB" points="568.397,185.098 568.397,186.147 569.385,186.147 569.385,185.764 568.719,185.078 	"/>
</g>
<circle fill="#F6F3EB" cx="1130.169" cy="212.169" r="216.169"/>
<circle fill="none" cx="1129.831" cy="212.507" r="202.669"/>
<g>
	<path fill="#262224" d="M1134.631,211.678v0.671l-1.489,2.335c0,0,0.642,0,0.759,0.467l0.292,0.058l0.175-0.117
		c0,0,0.156-0.701,0.701-0.331c0,0,0.389,0.35,0.234,0.817c-0.156,0.467-0.311,0.467-0.311,0.467s-0.448,0.117-0.72-0.37
		l-0.448,0.039c0,0-0.175,0.448-0.564,0.389c-0.389-0.058-0.506-0.331-0.506-0.331l-0.214,0.058l-2.724,3.736l1.849-0.019
		l0.389,0.389l-7.492,10.78l-1.304-0.058l0.389,1.615l-0.603,0.525l0.078,0.545l0.156,0.019c0,0,0.564-0.292,0.642,0.331
		c0,0-0.039,0.428-0.584,0.35l-0.409-0.019l-0.272-0.195l-0.292-0.817l-0.195,0.156l0.136,0.545l0.175,0.136l0.175,0.331
		l0.234,0.019l0.156,0.136l-0.078,0.156l-0.156,0.156l-0.37-0.019l-0.331-0.156l-0.272-0.311l-0.078-0.389l-0.156-0.35l-0.175-0.019
		l0.058,0.35l0.078,0.467l0.019,0.409l-0.175,0.136l-0.253,0.039l-0.467,0.019l-0.233-0.078v-0.253l0.175-0.195h0.428l-0.058-0.214
		l-0.331-0.584l-0.623,0.039l-0.584,0.915l0.234,0.516l0.136,0.068l0.379,0.039c0,0,0.156-0.243,0.311-0.234
		c0.156,0.01,0.555-0.156,0.778,0.379c0.224,0.535-0.195,0.817-0.195,0.817s-0.701,0.214-0.808-0.321l-0.292-0.01l-0.389,0.165
		l-1.051,0.078l-0.876,0.778l-0.885,0.019l-0.097,0.438l-0.555,0.19l-0.399-0.005l-1.051-0.457l-12.429,1.309v0.229l0.122,0.088
		l-0.019,0.272l-0.837,0.117l-1.479-0.603l-2.102,0.37l0.019,0.37l-0.039,0.214l-0.214,0.214l-0.058,0.175l4.145,1.42l-5.448,37.964
		h-0.661l-4.169-1.688l0.029,0.569l6.626,2.612l-5.366,37.035l-0.734,0.165l-5.444-2.496l0.029,0.365l5.823,2.569l0.117,0.102
		l-4.057,28.882l-0.949,7.209l-0.623,0.253l-6.266-2.997l-0.029,0.263l6.217,3.211l0.175,0.234l-6.48,45.796l-0.613,0.204
		l-33.216-19.293l-0.146-0.234l5.838-43.695l0.759-0.35l4.612,2.452l0.321-0.146l-5.225-2.715l-0.263-0.263l4.612-34.238
		l0.204-0.292l0.35-0.058l5.633,2.452l0.088-0.292l-6.042-2.715l4.583-35.376l0.496-0.204l4.904,1.926l0.438-0.379l-3.736-1.518
		l-0.088-0.321l4.699-34.792c0,0-3.999-0.73-7.297-3.736c-3.298-3.006-5.662-7.647-5.662-7.647s-1.167-1.868-2.51-6.451
		c0,0-0.234-4.057-0.438-4.466c0,0-0.234-7.239,0.117-9.457c0,0,0.905-3.211,1.021-3.298l0.992-3.415l-12.609-15.791l-0.701,1.372
		l-0.613,0.088l-18.564-23.351l0.35-0.555l-0.73-0.029l-17.484-22.212l0.263-0.467l-0.671-0.088l-21.512-27.291v-0.438
		l17.951-36.719h0.555l22.971,27.116l-0.058,0.584l0.525,0.029l18.68,22.037l-0.175,0.525l0.671,0.088l19.556,23.088v0.292
		l-1.43,2.335l0.701,0.117l20.87,24.635l-2.656,4.232l0.146,0.234c0,0,0.759-0.175,1.167,0.525l2.102,0.234v-0.905l21.045,0.467
		l0.788,0.321l28.546-13.427l0.671,0.146l-0.817-3.094l4.407-2.277l2.831-11.734c0,0,0.35-0.292,0.438,0.088l-2.744,11.383
		l27.262-12.843h0.555l-0.058-0.379l35.318-16.579l0.525,0.117l2.627,9.107l0.409,0.146l0.399,0.097l-0.311-0.584l0.195-0.234
		l7.122-3.269c0,0,3.58-2.218,7.083-2.257c0,0,5.137-1.051,5.604-1.206c0,0,3.191-0.234,6.071-3.269c0,0,3.931-3.347,3.931-3.58
		c0,0,2.102-2.413,4.904-1.051l7.278,2.724l0.506,0.156c0,0,2.413-0.156,3.191-0.467c0,0,5.098-1.09,5.41-1.012
		c0,0,2.841-1.09,4.865-1.206c0,0,4.787-0.778,4.904-0.778c0.117,0,5.993-1.245,5.993-1.245s9.146-1.985,9.34-1.985
		s7.861-1.518,7.861-1.518s3.697-0.817,4.32-0.584l0.311-0.428l3.074-1.401l0.623-0.282l1.197,3.707l-0.058,0.234l-2.452,0.701
		l0.321,1.284l-0.35,0.876l3.97,0.817l0.496,3.327l-3.415,1.605l-2.685-3.415l-7.239,5.517l-20.578,14.419l-1.197,0.963l-1.226,1.08
		l-0.992,0.73l-1.138,0.642l-1.022,0.759l-1.401,0.992l-4.349,2.977l-0.292,0.438l-0.35,0.642l-3.794,7.034l-0.35,0.642
		l-0.467,0.642c0,0-0.963,1.372-2.948,1.489l-7.355,0.467c0,0-1.372,0.029-2.423,1.08l-8.406,5.721c0,0-4.933,2.277-5.166,2.335
		s-7.793,3.182-7.793,3.182l-0.73-1.343l0.117,0.613l-0.204,0.146l-0.292,0.058l-0.204,0.263l2.948,9.545l0.058,0.35l-0.35,0.263
		l-35.493,14.273l-0.759,0.058l-2.685-8.844l2.364,8.844l-0.029,0.321l-0.438,0.263l-32.516,12.843l-0.73-0.029l-1.956-7.093
		l1.021,4.291v0.409l-6.713,2.627l27.145,29.655c0,0,0.292,0.496-0.204,0.409l-27.495-29.83L1134.631,211.678z"/>
	<path fill="#F6F3EB" d="M1263.399,136.966c0,0-2.14,1.168-3.23-0.117l-1.129-1.284l-1.907-5.993c0,0-0.584-4.047,2.335-5.41
		l20.51-4.476c0,0,1.557-0.389,2.024,0.039c0,0,0.623,0.817,0.701,1.868c0,0,0.817,1.829-0.467,2.569L1263.399,136.966z"/>
	<path fill="#F6F3EB" d="M1215.608,135.059c0,0-2.841,2.296-2.607,5.41l5.876,20.471c0,0,1.751,3.464,5.604,1.557l2.257-1.479
		l5.721-3.775l4.32-3.152c0,0,5.059-3.347,4.865-10.352c-0.195-7.005-3.853-9.768-3.853-9.768s-2.568-3.113-8.951-2.374
		C1222.458,132.335,1215.608,135.059,1215.608,135.059z"/>
	<path fill="#F6F3EB" d="M1206.842,136.023l0.496,0.701l0.847,2.831l0.905,0.934c0,0,0.613,1.08,0.701,1.635l2.481,9.078
		l-1.459,0.438l-4.378-14.565l0.234-0.321h0.321L1206.842,136.023z"/>
	<path fill="#F6F3EB" d="M1212.826,153.185l2.189,7.122l0.438,1.605c0,0,0.496,1.226-0.058,3.006l-0.409,0.146l-3.707-11.237
		L1212.826,153.185z"/>
	<polygon fill="#F6F3EB" points="1215.647,165.979 1215.414,166.135 1215.161,165.794 1214.957,165.897 1215.234,167.954 
		1215.832,168.042 1216.051,168.392 	"/>
	<polygon fill="#F6F3EB" points="1090.586,236.167 1092.609,236.984 1092.298,237.237 1092.24,237.782 1088.231,236.362 	"/>
	<polygon fill="#F6F3EB" points="1084.067,233.871 1084.125,234.922 1075.992,232.159 1076.303,231.731 1076.128,231.244 
		1076.186,231.088 	"/>
	<polygon fill="#F6F3EB" points="1073.384,270.142 1073.092,270.473 1079.455,273.022 1079.728,272.691 	"/>
	<polygon fill="#F6F3EB" points="1081.168,273.197 1080.856,273.548 1088.737,276.778 1089.068,276.466 	"/>
</g>
<circle fill="none" cx="216.51" cy="216.828" r="154.169"/>
<circle fill="#F6F3EB" cx="1589.632" cy="220.675" r="216.169"/>
<circle fill="none" cx="1589.294" cy="221.013" r="202.669"/>
<g>
	<path fill="#262224" d="M1477.016,245.053l-0.183-1.158l-7.804-24.023c0,0-2.866-0.732-2.744-7.987l-1.646,1.728l-2.439-0.976
		l-0.813,1.301l-1.301-3.414v-0.813l-1.484-0.996l-0.122-0.732l0.61-0.61l1.585-0.061l0.549-1.402l0.671-1.158l-0.061-2.866
		c0,0-2.723-20.141,4.918-26.807l1.626-2.764l1.057-3.414l0.65-3.333l1.707-3.618l-0.203-0.569c0,0-2.032,4.634-7.845,4.309
		l-0.935-2.642c0,0,7.642,0.163,9.024-6.544l-1.26-3.292l-0.325-1.463l-0.813-1.219v-0.813l1.057-1.219l-0.447-1.341l0.081-3.902
		c0,0,0.976-3.496,1.667-3.983c0,0,0.61-3.171,4.552-4.959c3.943-1.788,7.601,0.041,7.601,0.041l4.634,2.195l2.276-7.195
		l0.528-0.813l1.26,0.163l2.276,1.748l4.959-6.626l1.26,0.163l4.187-0.285c0,0,3.577-4.674,7.967-2.479
		c4.39,2.195,0.854,8.536,0.854,8.536s-2.256,3.963-5.182,4.451l-3.994,3.933l1.646,1.982l0.213,0.549l-2.134,5.853l16.889,4.085
		c0,0-5.975-13.901-5.853-16.523c0,0-1.219-11.28,6.585-17.011c0,0,8.353-7.987,33.656-5.244
		c25.303,2.744,57.557,16.096,57.557,16.096l1.89-1.341c0,0-0.061-2.5,3.536-2.561l25.262-17.194l0.61-0.081l0.569-1.219
		l3.821-4.512l0.65-0.163l0.163-0.325l0.163-0.366l0.61-0.041l0.813,0.203l4.634-7.276c0,0-1.626-1.26-1.667-1.829
		c0,0-0.244-0.813,0.528-0.894c0,0,0.823-0.112,1.677,0.193l1.555-1.921l-1.25-2.286c0,0-0.427-0.854,0.61-0.64l2.104,1.25
		l0.335-0.488c0,0-0.518-0.732-0.518-0.945c0-0.213,0.488-0.579,1.006-0.335l1.829,0.854c0,0,0.945,0.732,0.183,0.976l-0.64-0.091
		l-0.335,0.793c0,0,2.835,1.189,2.469,1.829c0,0-0.915,0.305-1.341,0.183l-0.701,0.122l-0.854,0.122h-0.518l-0.945,2.195
		c0,0,1.921,1.006,1.829,1.738c-0.091,0.732-0.793,0.549-0.793,0.549l-1.219-0.122l-0.335-0.061l-3.689,7.926l0.193,0.681
		l0.447,0.65l-0.203,0.447v1.504l-2.053,5.569l-0.427,28.89c0,0,4.298,4.085,2.225,6.006l-1.189,1.402l-0.396,1.128
		c0,0,54.681,31.837,63.298,60.453c0,0,8.13,19.348-15.04,26.096c0,0-20.405,3.821-41.379-0.65l3.333,10.975l-1.463-7.479
		l24.876,3.333v2.52l3.658,0.569v-2.601l26.258,3.74l0.081,2.601l9.329,1.382l-2.622,4.573c0,0,4.024,2.622,4.268,6.829l3.049,0.549
		l-2.866,0.854c0,0-0.061,7.195-4.207,7.804l3.597,4.39l-10.06-0.793l0.366,6.585l-26.827-2.317l-0.305-6.097l-3.597-0.061
		l0.427,5.67l-28.413-2.622l-0.549,0.366l-0.793,0.854l-14.999,9.694l-8.8-5.711l-24.958,20.974l0.163,1.707l-0.325,1.057
		l-0.488,1.545l0.569,2.601l-0.65,0.325c0,0,0.976,1.138,1.463,1.463c0,0,0.894,1.707-0.447,3.11l-1.098,1.829l0.549,1.646
		l-0.305,1.524l-0.975,0.61l-0.549,0.122l-0.061,2.439l-0.427,0.427l-1.89-0.915l-2.012,0.183l-0.366,0.488l-0.793,0.366
		l-1.158-0.854l-2.683-0.122l-0.732,0.427l-1.097-0.244l-1.219-0.122h-1.463l-0.854,0.549l-1.28-0.305l-2.195-0.305l-2.073-0.061
		l-3.536,3.597l-1.219-0.122c0,0-6.646,7.073-9.755,6.158l-0.61,0.366l0.061,1.524l-1.158,0.183l-1.036,0.61l-0.488,3.292
		c0,0,6.077,14.816-22.214,26.766c0,0-9.105,2.601-18.779,0.894c-9.674-1.707-10.162-11.788-5.853-18.86l-1.707-2.927l-9.024-0.163
		c0,0-3.252,0.488-3.008-7.886l-4.552-1.707l-1.545-0.894l-3.292-8.211l-3.414,1.504l-1.382,0.488h-0.935l-1.26-0.813l-1.301-5.894
		l-2.439-0.976l-0.081-0.732l0.447-0.854l1.301-0.406l0.813-1.26l0.285-1.667l0.772-0.447l0.732-2.276l-0.122-3.496l1.341-0.122
		l-5.04-3.618c0,0-6.504,0.163-9.024-4.227c0,0-4.105-5.284-0.325-11.747c0,0,0.894-0.894,2.114-1.098l-1.504-0.488l2.236-2.398
		l-3.943-13.495l0.163-0.549c0,0-1.585-6.036-8.475-8.475l-1.585-2.866l-0.183-1.646
		C1468.907,255.479,1473.114,246.333,1477.016,245.053z"/>
	<path fill="#F6F3EB" d="M1644.138,107.989l-23.352,15.974c0,0,11.158,1.524,19.084,6.463l0.772-1.606c0,0-3.618-2.236-3.821-2.927
		l0.447-0.691c0,0-0.569-1.301,0.691-1.341l0.163-0.203c0,0-0.203-1.097,1.382-0.772l4.796-7.682l-1.504-1.423l1.138-3.699
		L1644.138,107.989z"/>
	<path fill="#F6F3EB" d="M1642.187,129.187l0.935,0.081l0.406-0.813l0.122-0.325h0.447l0.122-0.447l-0.122-0.528l-0.163-0.325
		l0.406-0.163l0.203-0.447l-0.081-0.569l-0.244-0.488l3.658-8.13l1.748-0.041l0.488-0.325l0.732-1.179l1.951-2.683l0.325,0.041
		l-0.488,26.014c0,0-8.536-6.544-11.625-7.804L1642.187,129.187z"/>
</g>
<circle fill="none" cx="1589.974" cy="221.335" r="154.169"/>
<g>
	<path fill="#262224" d="M109.453,389.129l25.299-74.103l-6.452,0.97l0.049,0.776l-0.243,0.291l-0.631,0.097l-0.291-3.008h0.485
		l0.34,0.825l0.243,0.194l7.277-1.31l1.213-3.832l-8.15-2.183l-0.582,0.048l-0.243,0.776l-0.485-0.34l-0.291-2.668l0.582-0.146
		l0.437,0.582l0.34,0.049l10.527-5.53l-1.019-0.728l-0.194,0.631l-0.631-0.097l-0.243-2.086l0.388-0.437l0.631,0.194l0.146,1.067
		l1.795,1.261l1.358-3.056l-2.134-0.825l-0.291,0.291l-0.388,0.388l-0.485-0.291l0.097-2.134h0.582l0.388,0.485l1.504-0.485
		l-2.329-2.28l-0.728-0.048l-0.679-0.243l0.34-1.843l0.534-0.34l0.34,0.291l0.049,0.679l4.657,2.183l1.504-3.299v-10.042l0.194-0.97
		l0.873-0.049c0,0,0.776-3.784,7.228-4.803l2.086-2.28l-2.668-2.183l-1.552,4.317l-0.388,0.291l-0.582-0.291V273.5l1.94-4.56
		l-1.407-1.261l-3.929-0.049l-65.327,99.708l-0.857-0.717l65.02-98.846l-0.388-0.243h-7.568v-7.374l3.202-1.358l-3.687-3.735
		l-18.24-0.922v0.776l-1.358,1.504l-2.668-3.929l-0.485,1.019l-0.437,0.631l-1.164,0.049l-0.34-0.679l1.358-1.552l-2.959-0.291
		l-4.657-7.131l0.388-0.825l-30.756-11.158l-0.194,0.728l-0.485,0.631l-0.631,0.097l-1.019-0.534l-0.582-1.164l-0.437-5.579
		l0.291-0.825h0.922l0.776,0.485l0.437,0.34l27.312-14.02l-0.146-1.213l5.579-1.843l-0.049-0.728l-35.364-11.255l-0.582,0.582
		l-0.534,0.437l-1.116-0.728l0.728-0.922l-0.097-0.728l1.504-2.571l-0.534-2.959l10.866-21.393l0.97,0.097l20.908,9.314
		l19.792-10.575l0.922-0.825l16.3,0.873l1.94-3.687l-0.34-0.437l-1.843,0.049l-0.34-0.825l-0.437-0.631l-0.097-0.582l0.534-0.388
		h2.814l0.146-1.552l1.407-0.049l2.134-3.784l-6.597-18.095l-4.123,2.523l-0.388,0.194l-6.549-2.862l-1.019-7.083l2.668-1.407
		l-0.097-4.22l3.784-2.134l0.728,0.291l-6.84-20.278l-1.213-1.116l0.146,5.967l-3.978,1.358l0.146,2.668l-8.004,2.474l0.049,4.948
		c0,0-0.097,1.892-1.843,2.571l0.437,5.336c0,0-0.679,3.25-3.493,3.784c-2.814,0.534-5.724-0.097-6.452-2.329l-0.049-5.094
		l-0.582,0.049l-1.552-2.426l-0.097,2.28l-1.552,2.183l-0.146,1.213l-0.873,0.243l-0.291,1.746l-1.989,1.407l-1.116,0.243
		l-0.631-0.243l-1.407-1.261l-0.34-0.873l-0.679-0.291l-0.34-0.776l0.049-1.31l-2.037-2.329l-0.097-4.754l-2.523-3.153l-0.388-3.881
		l2.426-1.213l0.873-7.713l-1.019-1.698l-1.213-0.388l-4.172,1.407l0.146,2.959c0,0,0.728,3.493-1.552,4.657
		c0,0-1.649,1.31-4.706,0.728c0,0-1.892-0.243-2.232-1.989l-3.687,1.31l-5.433-12.661l-0.679,0.146l-1.455-2.765l-0.679-3.784
		c0,0-2.717-14.505,15.912-16.106l0.255-0.8l3.638-1.419l0.036-2.037l0.473-1.164l0.982-0.036l0.837,1.164l0.182,1.783l0.619,0.182
		l2.329,5.348l2.983-2.183l2.656-0.182l1.31,1.346l7.459-2.256l0.619,0.073l1.965,3.857h1.819l2.183,4.621l0.146,1.346l0.109,5.457
		l-1.819,1.019l0.364,1.783l3.129,0.4l1.783-1.273l9.023-3.056h1.783l2.11,4.475l1.128-1.128l10.224,0.546
		c0,0,2.62,0.327,2.874,6.403l5.239,14.262l2.219-4.803l-0.946-0.982l1.128-3.274l1.128-0.327l0.946,0.291l0.691,0.4l0.073,1.455
		l0.728,0.473l0.109,1.601h2.001l3.238,3.311h1.019l0.364,1.201l0.473,3.675l0.437,4.875l-0.036,1.019l-0.182,0.619l-2.001,1.892
		l0.182,3.602l0.073,1.128l-0.509,1.128l0.255,0.582l5.312,0.182l3.857,5.93l1.164,0.109l1.201,1.019l1.273-1.492l1.128,0.764
		l-0.837,1.346l1.31,0.218v4.22l-1.564,0.109l0.873,0.873l-0.982,1.419l-2.329-1.819l-0.982,0.691l-1.091,2.911l-5.094,0.146
		l-0.146,0.655l-0.437,0.109l-3.966-5.639l7.507,23.2l5.627-2.037c0,0,12.419-27.215,18.434-32.066
		c6.015-4.851,19.016-15.329,32.017,6.986s15.718,56.661,14.941,71.602l9.338,3.444l-0.218,0.582l0.946-0.073
		c0,0,0.655-2.547,2.183-2.838c1.528-0.291,1.819,2.547,1.819,2.547s1.455,0.218,1.091,2.183c-0.364,1.965-0.509,2.256-1.383,2.62
		c0,0-0.146,1.455-1.091,1.746c-0.946,0.291-2.329,0.509-2.911-2.62l-0.8,0.073l-0.073,0.655l-9.387,2.838
		c0,0-4.269,40.458-9.702,48.414l77.423,43.563h2.134l0.582,1.164l62.701,36.062l0.037-0.013h0.062l0,0l-6.688,7.062l0,0l0,0
		l-0.01,0.026l-139.93-78.356c0,0-5.627,14.844-14.165,20.084c0,0-8.926,8.732-20.181,0.679c-11.255-8.053-16.3-25.905-16.3-25.905
		l-7.762,7.568l-0.388,11.74l-0.243,0.291l-1.213,0.049v2.959l1.067,0.388l0.194,0.631v10.527l-1.892,0.728l0.534,0.437v1.94
		l0.825,0.534v4.512c0,0,4.317,2.62,2.571,7.471c-1.746,4.851-5.142,6.549-10.284,7.471c-5.142,0.922-11.303-3.396-11.691-4.56
		c0,0-2.474-3.202-1.31-7.131c0,0,0.521-2.899,3.396-4.281v-2.729l-8.053,1.819l-25.523,74.66"/>
	<g>
		<polygon fill="#F6F3EB" points="129.076,103.373 132.229,103.47 130.24,106.962 		"/>
		<polygon fill="#F6F3EB" points="140.282,101.432 137.808,103.761 138.73,106.623 141.01,102.839 		"/>
		<polygon fill="#F6F3EB" points="134.703,104.488 135.625,107.496 137.954,107.787 137.76,106.962 		"/>
		<polygon fill="#F6F3EB" points="134.121,106.041 134.024,107.399 134.558,107.399 		"/>
		<polygon fill="#F6F3EB" points="132.763,105.07 132.666,107.399 131.114,107.302 		"/>
		<polygon fill="#F6F3EB" points="130.628,108.466 132.763,108.563 132.86,114.918 		"/>
		<polygon fill="#F6F3EB" points="133.927,108.515 133.879,115.791 136.353,111.571 135.188,108.515 		"/>
		<polygon fill="#F6F3EB" points="136.062,108.66 136.692,110.649 137.857,108.709 		"/>
		<polygon fill="#F6F3EB" points="141.495,103.712 139.36,107.544 143.872,110.94 		"/>
		<polygon fill="#F6F3EB" points="138.536,109.145 137.42,110.94 139.069,111.183 		"/>
		<polygon fill="#F6F3EB" points="139.36,109 140.088,111.377 142.805,111.377 		"/>
		<polygon fill="#F6F3EB" points="137.323,111.813 139.166,111.813 139.991,114.142 		"/>
		<polygon fill="#F6F3EB" points="140.282,111.959 141.64,115.694 143.629,112.493 143.338,111.959 		"/>
		<polygon fill="#F6F3EB" points="144.406,112.541 142.223,116.665 144.163,117.974 145.715,115.015 		"/>
		<polygon fill="#F6F3EB" points="137.517,112.929 137.711,115.161 138.73,116.956 140.767,117.15 141.058,116.373 		"/>
		<polygon fill="#F6F3EB" points="136.547,112.929 136.644,116.859 134.218,116.616 		"/>
		<polygon fill="#F6F3EB" points="133.83,117.635 136.595,117.78 136.547,124.62 136.159,124.572 		"/>
		<polygon fill="#F6F3EB" points="137.274,117.829 138.196,117.78 138.778,118.945 139.069,121.079 137.42,124.426 		"/>
		<polygon fill="#F6F3EB" points="138.924,117.78 139.797,119.575 140.622,118.217 140.282,117.877 		"/>
		<polygon fill="#F6F3EB" points="141.592,118.314 140.719,119.672 142.077,119.963 		"/>
		<polygon fill="#F6F3EB" points="142.853,118.799 142.999,119.915 143.775,119.915 143.823,118.945 		"/>
		<polygon fill="#F6F3EB" points="140.816,120.739 142.077,120.885 142.611,121.516 142.611,122.049 		"/>
		<polygon fill="#F6F3EB" points="143.678,120.982 144.891,124.766 145.036,123.941 144.017,120.933 		"/>
		<polygon fill="#F6F3EB" points="139.651,122.728 139.797,127.094 137.565,126.706 		"/>
		<polygon fill="#F6F3EB" points="140.379,124.572 140.428,127.094 141.592,127.191 		"/>
		<polygon fill="#F6F3EB" points="140.234,121.273 141.98,127.288 144.794,127.482 143.629,124.329 142.514,123.214 		"/>
		<polygon fill="#F6F3EB" points="137.808,127.822 138.148,129.035 139.845,129.374 139.748,127.968 		"/>
		<polygon fill="#F6F3EB" points="140.331,128.113 140.622,129.908 141.107,130.345 141.398,133.789 142.805,131.848 
			142.756,130.296 141.689,128.065 		"/>
		<polygon fill="#F6F3EB" points="142.611,128.162 143.047,130.248 144.26,128.841 144.017,128.21 		"/>
		<polygon fill="#F6F3EB" points="155.175,133.789 155.272,135.05 154.205,137.573 152.749,133.74 		"/>
		<polygon fill="#F6F3EB" points="145.23,128.986 145.812,130.781 144.017,130.684 		"/>
		<polygon fill="#F6F3EB" points="147.025,131.315 148.723,136.36 151.051,132.576 		"/>
		<polygon fill="#F6F3EB" points="143.726,131.509 146.006,131.509 146.977,133.983 		"/>
		<polygon fill="#F6F3EB" points="144.211,132.819 146.589,134.517 147.947,136.845 145.182,136.797 		"/>
		<polygon fill="#F6F3EB" points="143.969,135.341 143.969,136.603 144.648,136.651 		"/>
		<polygon fill="#F6F3EB" points="142.805,133.643 142.805,136.554 141.107,136.457 		"/>
		<polygon fill="#F6F3EB" points="140.67,137.573 142.805,137.524 142.805,143.928 		"/>
		<polygon fill="#F6F3EB" points="143.969,137.524 143.92,144.898 146.006,141.551 146.006,140.483 144.842,137.379 		"/>
		<polygon fill="#F6F3EB" points="145.812,137.621 146.637,140.095 147.898,138.446 147.656,137.767 		"/>
		<polygon fill="#F6F3EB" points="151.731,133.352 149.499,136.942 154.059,140.192 153.962,138.64 		"/>
		<polygon fill="#F6F3EB" points="149.499,138.591 150.275,141.599 153.574,141.599 		"/>
		<polygon fill="#F6F3EB" points="148.529,138.737 149.499,141.26 147.122,141.357 		"/>
		<polygon fill="#F6F3EB" points="148.626,142.23 149.936,143.346 149.742,142.181 		"/>
		<polygon fill="#F6F3EB" points="150.809,142.424 151.634,145.237 153.429,142.763 153.283,142.472 		"/>
		<polygon fill="#F6F3EB" points="147.413,142.327 150.809,145.383 151.149,146.547 148.529,146.547 		"/>
		<polygon fill="#F6F3EB" points="147.219,144.461 147.219,146.305 147.947,146.305 		"/>
		<polygon fill="#F6F3EB" points="146.443,142.763 146.2,146.159 144.308,146.062 		"/>
		<polygon fill="#F6F3EB" points="154.884,142.424 152.361,145.917 157.212,149.846 		"/>
		<polygon fill="#F6F3EB" points="152.458,147.663 153.332,150.574 156.339,150.574 		"/>
		<polygon fill="#F6F3EB" points="151.585,148.051 150.421,150.089 152.361,150.234 		"/>
		<polygon fill="#F6F3EB" points="148.966,147.081 149.79,149.215 151.246,147.275 		"/>
		<polygon fill="#F6F3EB" points="147.268,147.032 147.171,154.212 149.16,151.156 149.354,149.846 148.092,147.081 		"/>
		<polygon fill="#F6F3EB" points="143.823,146.887 146.346,153.921 146.491,146.887 		"/>
		<polygon fill="#F6F3EB" points="151.294,150.913 153.089,152.563 152.846,150.865 		"/>
		<polygon fill="#F6F3EB" points="153.671,151.204 155.029,154.988 157.115,151.398 		"/>
		<polygon fill="#F6F3EB" points="157.94,151.689 155.903,155.619 160.414,159.354 160.414,158.384 		"/>
		<polygon fill="#F6F3EB" points="150.324,151.107 151.973,156.055 154.302,156.298 154.156,155.328 		"/>
		<polygon fill="#F6F3EB" points="150.178,153.387 150.081,156.007 151.149,156.152 		"/>
		<polygon fill="#F6F3EB" points="149.354,152.854 149.305,156.007 147.365,155.91 		"/>
		<polygon fill="#F6F3EB" points="152.167,157.026 153.089,159.209 154.059,157.026 		"/>
		<polygon fill="#F6F3EB" points="154.835,157.462 155.563,159.985 153.671,159.985 		"/>
		<polygon fill="#F6F3EB" points="156.097,157.899 156.63,160.179 159.735,160.179 		"/>
		<polygon fill="#F6F3EB" points="156.824,160.858 157.697,164.06 158.813,164.642 160.511,161.101 		"/>
		<polygon fill="#F6F3EB" points="161.19,161.343 162.743,166.437 161.336,167.164 159.201,165.078 		"/>
		<polygon fill="#F6F3EB" points="154.011,160.712 155.806,160.809 156.485,161.828 156.339,162.895 		"/>
		<polygon fill="#F6F3EB" points="150.033,156.88 151.488,157.074 152.507,159.791 150.227,164.496 		"/>
		<polygon fill="#F6F3EB" points="147.656,156.88 149.354,156.832 149.451,162.41 		"/>
		<polygon fill="#F6F3EB" points="152.652,162.071 150.809,165.37 152.846,165.661 		"/>
		<polygon fill="#F6F3EB" points="153.526,163.769 153.526,165.806 154.544,165.952 		"/>
		<polygon fill="#F6F3EB" points="153.962,161.731 155.32,166.097 157.455,166.146 157.212,164.399 		"/>
		<polygon fill="#F6F3EB" points="158.231,168.038 157.212,169.541 158.086,169.59 158.474,169.008 		"/>
		<polygon fill="#F6F3EB" points="155.612,166.873 156.485,169.056 157.406,167.455 157.261,166.873 		"/>
		<polygon fill="#F6F3EB" points="153.72,166.631 154.835,166.728 155.903,169.541 155.66,170.124 153.72,170.754 		"/>
		<polygon fill="#F6F3EB" points="152.846,166.582 150.566,166.34 152.167,170.075 152.798,170.075 		"/>
		<polygon fill="#F6F3EB" points="146.637,157.608 144.939,161.004 145.618,168.329 146.346,169.202 150.421,169.493 		"/>
		<polygon fill="#F6F3EB" points="143.096,165.272 141.446,168.183 143.484,168.28 		"/>
		<polygon fill="#F6F3EB" points="122.576,169.638 104.287,179.147 107.101,180.505 122.236,170.415 		"/>
		<polygon fill="#F6F3EB" points="118.016,174.684 106.179,182.251 96.816,201.51 96.525,201.656 96.525,204.324 107.586,207.768 
			112.582,182.203 		"/>
		<polygon fill="#F6F3EB" points="72.076,191.808 72.415,194.525 75.229,193.118 		"/>
		<polygon fill="#F6F3EB" points="76.636,193.554 72.512,195.592 72.706,197.144 95.264,204.178 95.264,201.219 		"/>
		<polygon fill="#F6F3EB" points="101.57,214.22 74.792,228.191 74.744,230.665 75.714,231.441 106.373,242.55 108.362,239.591 
			106.082,238.33 104.287,239.543 103.802,237.408 87.648,229.598 87.017,230.035 86.289,229.938 85.901,228.628 87.454,224.456 
			88.327,224.068 88.763,224.31 88.763,224.989 102.055,220.09 		"/>
		<polygon fill="#F6F3EB" points="102.055,221.254 88.521,226.493 87.793,227.997 88.278,228.87 103.705,236.341 		"/>
		<path fill="#F6F3EB" d="M157.94,261.179c0,0,4.269,2.037,5.821,2.086l-6.792,6.5l-1.455-3.687l0.631-0.534l1.019-0.146l0.97-0.679
			L157.94,261.179z"/>
		<polygon fill="#F6F3EB" points="154.69,266.272 153.04,266.66 152.458,267.485 152.119,268.94 154.884,271.366 156.291,270.347 		
			"/>
		<polygon fill="#F6F3EB" points="156.242,271.851 156.776,273.306 153.914,273.84 155.903,271.802 		"/>
		<path fill="#F6F3EB" d="M164.926,263.507l-7.907,7.131l1.067,2.426l10.236-2.426c0,0-2.911-6.84-2.911-7.034
			C165.411,263.41,164.926,263.507,164.926,263.507z"/>
		<polygon fill="#F6F3EB" points="168.709,271.511 158.231,273.743 159.589,277.527 168.515,272.045 		"/>
		<polygon fill="#F6F3EB" points="169.098,272.967 169.777,274.131 166.769,276.508 		"/>
		<polygon fill="#F6F3EB" points="166.818,274.374 162.015,281.65 160.996,281.747 159.735,278.643 		"/>
		<polygon fill="#F6F3EB" points="144.6,291.013 143.629,293.147 144.988,294.069 		"/>
		<polygon fill="#F6F3EB" points="139.36,292.614 142.271,293.875 141.883,294.894 		"/>
		<polygon fill="#F6F3EB" points="139.603,295.864 141.64,295.427 141.446,296.398 		"/>
		<polygon fill="#F6F3EB" points="142.902,295.136 142.853,296.106 144.308,296.786 144.406,295.379 		"/>
		<polygon fill="#F6F3EB" points="144.211,298.289 144.163,297.804 142.028,297.416 141.64,299.405 		"/>
		<polygon fill="#F6F3EB" points="144.406,299.405 144.26,302.461 140.816,300.861 		"/>
		<polygon fill="#F6F3EB" points="139.651,301.637 129.173,306.439 129.222,307.167 137.032,309.204 		"/>
		<polygon fill="#F6F3EB" points="140.719,301.637 144.211,303.577 144.26,306.73 145.085,307.895 145.036,309.641 144.26,310.029 
			144.017,311.048 137.857,309.495 		"/>
		<polygon fill="#F6F3EB" points="137.76,310.417 136.547,313.425 143.678,312.018 		"/>
		<polygon fill="#F6F3EB" points="232.744,276.302 224.303,271.172 223.248,274.155 		"/>
		<polygon fill="#F6F3EB" points="222.957,275.028 228.523,280.886 225.031,279.504 222.193,276.884 		"/>
		<polygon fill="#F6F3EB" points="222.011,277.503 223.102,278.558 221.647,278.194 		"/>
		<polygon fill="#F6F3EB" points="221.465,278.812 221.21,279.249 228.815,283.542 227.396,281.832 		"/>
		<polygon fill="#F6F3EB" points="228.305,282.014 230.124,284.052 230.525,283.76 230.525,283.033 		"/>
		<path fill="#F6F3EB" d="M223.721,274.992l6.804,6.804c0,0,1.31-3.602,3.02-4.439l-0.182-0.255L223.721,274.992z"/>
		<path fill="#F6F3EB" d="M234.09,278.303c0,0-2.183,0.91-2.911,4.002l1.201,0.728c0,0,1.856-2.11,1.856-2.583
			C234.236,279.977,234.527,279.322,234.09,278.303z"/>
		<polygon fill="#F6F3EB" points="232.817,284.124 231.725,284.779 239.075,286.889 233.29,284.052 		"/>
		<path fill="#F6F3EB" d="M235.509,277.903c0,0-0.582,4.002-2.037,5.239l13.68,5.021L235.509,277.903z"/>
		<polygon fill="#F6F3EB" points="237.801,279.031 248.862,288.89 265.998,294.712 		"/>
		<polygon fill="#F6F3EB" points="234.163,286.271 263.779,303.007 263.597,302.316 253.883,293.657 252.391,292.638 
			249.116,291.255 243.622,289.182 236.455,286.889 		"/>
		<polygon fill="#F6F3EB" points="249.189,290.14 249.092,289.703 241.815,286.986 		"/>
		<polygon fill="#F6F3EB" points="250.839,290.237 250.936,290.819 256.272,292.226 		"/>
		<polygon fill="#F6F3EB" points="254.137,292.468 267.575,296.252 267.623,296.592 266.168,297.95 		"/>
		<polygon fill="#F6F3EB" points="255.399,294.312 265.489,298.872 264.907,300.278 264.519,302.364 		"/>
		<path fill="#F6F3EB" d="M266.265,299.163l1.601,1.164c0,0-0.97,1.795-2.086,1.892C265.78,302.219,265.392,299.793,266.265,299.163
			z"/>
		<polygon fill="#F6F3EB" points="266.75,298.144 268.108,297.125 268.788,297.368 268.594,299.211 		"/>
		<path fill="#F6F3EB" d="M269.758,297.222c0,0,0.243,1.746-0.534,2.28c-0.776,0.534,6.84,3.153,6.84,3.153l-5.87-5.288
			L269.758,297.222z"/>
		<polygon fill="#F6F3EB" points="268.691,300.812 265.634,303.529 276.889,306.924 		"/>
		<polygon fill="#F6F3EB" points="270.825,301.443 279.605,305.372 283.826,308.962 280.527,308.428 		"/>
		<polygon fill="#F6F3EB" points="272.668,298.484 273.299,298.484 295.808,311.193 294.983,311.145 283.341,306.197 
			279.363,304.596 		"/>
		<polygon fill="#F6F3EB" points="282.371,306.536 299.398,314.153 286.251,310.272 		"/>
		<polygon fill="#F6F3EB" points="266.653,304.499 278.199,307.846 280.091,308.816 297.263,321.284 297.749,321.672 
			267.09,304.984 		"/>
		<polygon fill="#F6F3EB" points="281.837,309.301 285.281,310.126 294.207,318.179 		"/>
		<path fill="#F6F3EB" d="M287.222,310.999l14.117,4.414c0,0-2.377,4.317-2.571,5.579L287.222,310.999z"/>
		<path fill="#F6F3EB" d="M301.969,315.802l1.455-0.048c0,0-1.31,5.191-3.638,5.239C299.786,320.993,300.95,316.481,301.969,315.802
			z"/>
		<path fill="#F6F3EB" d="M304.589,316.384l11.788,10.818l-16.348-4.706C300.029,322.496,304.783,318.324,304.589,316.384z"/>
		<polygon fill="#F6F3EB" points="304.88,324.437 317.832,328.463 319.336,329.967 		"/>
		<polygon fill="#F6F3EB" points="308.033,318.761 318.463,328.269 326.855,330.549 		"/>
		<polygon fill="#F6F3EB" points="326.613,329.288 331.464,332.441 332.434,332.296 		"/>
		<polygon fill="#F6F3EB" points="332.919,333.411 335.151,333.848 335.83,334.333 335.053,334.624 		"/>
		<polygon fill="#F6F3EB" points="336.315,334.964 336.218,335.594 336.945,335.74 336.897,335.061 		"/>
		<polygon fill="#F6F3EB" points="319.481,329.094 321.859,331.228 334.471,335.691 328.844,331.762 		"/>
		<polygon fill="#F6F3EB" points="323.217,332.344 332.191,340.542 333.889,336.516 		"/>
		<polygon fill="#F6F3EB" points="302.794,324.582 330.688,340.154 321.567,331.616 		"/>
		<path fill="#F6F3EB" d="M334.617,336.565l0.873-0.194l1.019,0.97c0,0-1.116,2.232-2.717,2.62
			C333.792,339.96,333.744,337.341,334.617,336.565z"/>
		<polygon fill="#F6F3EB" points="338.061,336.662 338.352,336.225 339.662,337.729 		"/>
		<polygon fill="#F6F3EB" points="337.722,337.486 345.289,342.337 351.111,347.237 333.55,341.561 		"/>
		<polygon fill="#F6F3EB" points="340.196,337.001 345.289,341.658 351.547,345.442 355.574,348.256 358.533,349.808 
			366.78,352.379 366.198,351.797 		"/>
		<polygon fill="#F6F3EB" points="351.208,346.267 352.517,347.819 354.312,348.11 		"/>
		<polygon fill="#F6F3EB" points="354.603,349.177 355.671,349.177 366.489,356.163 360.619,354.029 358.193,352.476 		"/>
		<polygon fill="#F6F3EB" points="339.128,344.084 352.323,348.159 356.641,351.894 		"/>
		<polygon fill="#F6F3EB" points="339.856,345.103 358.339,353.204 365.13,359.365 364.548,359.316 		"/>
		<path fill="#F6F3EB" d="M360.619,351.069l8.829,2.862c0,0-1.795,1.892-1.795,2.086
			C367.653,356.212,360.619,351.069,360.619,351.069z"/>
		<path fill="#F6F3EB" d="M367.216,357.327c0,0-0.485,1.698-0.437,2.086c0.049,0.388-5.579-4.609-5.579-4.609L367.216,357.327z"/>
	</g>
</g>
<g>
</g>
<g>
</g>
<g>
</g>
<g>
</g>
<g>
</g>
<g>
</g>
</svg>
