<?xml version="1.0" encoding="UTF-8" standalone="no"?>
<!-- Generator: Adobe Illustrator 17.0.0, SVG Export Plug-In . SVG Version: 6.00 Build 0)  -->

<svg
   xmlns:dc="http://purl.org/dc/elements/1.1/"
   xmlns:cc="http://creativecommons.org/ns#"
   xmlns:rdf="http://www.w3.org/1999/02/22-rdf-syntax-ns#"
   xmlns:svg="http://www.w3.org/2000/svg"
   xmlns="http://www.w3.org/2000/svg"
   xmlns:sodipodi="http://sodipodi.sourceforge.net/DTD/sodipodi-0.dtd"
   xmlns:inkscape="http://www.inkscape.org/namespaces/inkscape"
   version="1.1"
   id="Layer_1"
   x="0px"
   y="0px"
   width="1024"
   height="1024"
   viewBox="0 0 1024 1024"
   enable-background="new 0 0 432.338 432.338"
   xml:space="preserve"
   inkscape:version="0.48.3.1 r9886"
   sodipodi:docname="voyager1.svg"><metadata
   id="metadata385"><rdf:RDF><cc:Work
       rdf:about=""><dc:format>image/svg+xml</dc:format><dc:type
         rdf:resource="http://purl.org/dc/dcmitype/StillImage" /></cc:Work></rdf:RDF></metadata><defs
   id="defs383" /><sodipodi:namedview
   pagecolor="#ffffff"
   bordercolor="#666666"
   borderopacity="1"
   objecttolerance="10"
   gridtolerance="10"
   guidetolerance="10"
   inkscape:pageopacity="0"
   inkscape:pageshadow="2"
   inkscape:window-width="1280"
   inkscape:window-height="749"
   id="namedview381"
   showgrid="true"
   borderlayer="true"
   inkscape:showpageshadow="false"
   inkscape:zoom="0.1364673"
   inkscape:cx="135.56361"
   inkscape:cy="392.03532"
   inkscape:window-x="0"
   inkscape:window-y="27"
   inkscape:window-maximized="1"
   inkscape:current-layer="Layer_1"><inkscape:grid
     type="xygrid"
     id="grid3362"
     empspacing="5"
     visible="true"
     enabled="true"
     snapvisiblegridlinesonly="true"
     spacingx="512px"
     spacingy="512px" /></sodipodi:namedview>













<g
   id="g3364"
   transform="matrix(2.3685172,0,0,2.3685172,0,-1401.3616)"><circle
     transform="translate(0,591.66199)"
     style="fill:#f6f3eb"
     sodipodi:ry="216.16901"
     sodipodi:rx="216.16901"
     sodipodi:cy="216.16901"
     sodipodi:cx="216.16901"
     id="circle3"
     r="216.16901"
     cy="216.16901"
     cx="216.16901"
     d="m 432.33801,216.16901 c 0,119.38684 -96.78216,216.169 -216.169,216.169 C 96.782161,432.33801 0,335.55585 0,216.16901 0,96.782161 96.782161,0 216.16901,0 c 119.38684,0 216.169,96.782161 216.169,216.16901 z" /><circle
     transform="translate(0,591.66199)"
     style="fill:none"
     sodipodi:ry="202.66901"
     sodipodi:rx="202.66901"
     sodipodi:cy="216.507"
     sodipodi:cx="215.83099"
     id="circle5"
     r="202.66901"
     cy="216.507"
     cx="215.83099"
     d="m 418.5,216.507 c 0,111.93101 -90.738,202.66901 -202.66901,202.66901 -111.931,0 -202.669003,-90.738 -202.669003,-202.66901 0,-111.931 90.738003,-202.669003 202.669003,-202.669003 C 327.762,13.837997 418.5,104.576 418.5,216.507 z" /><circle
     transform="translate(0,591.66199)"
     style="fill:none"
     sodipodi:ry="154.16901"
     sodipodi:rx="154.16901"
     sodipodi:cy="216.828"
     sodipodi:cx="216.50999"
     id="circle61"
     r="154.16901"
     cy="216.828"
     cx="216.50999"
     d="m 370.679,216.828 c 0,85.14519 -69.02381,154.16901 -154.16901,154.16901 -85.14519,0 -154.169002,-69.02382 -154.169002,-154.16901 0,-85.14519 69.023812,-154.169003 154.169002,-154.169003 85.1452,0 154.16901,69.023813 154.16901,154.169003 z" /><g
     transform="translate(0,591.66199)"
     id="g77">
	<path
   style="fill:#262224"
   inkscape:connector-curvature="0"
   id="path79"
   d="m 109.453,389.129 25.299,-74.103 -6.452,0.97 0.049,0.776 -0.243,0.291 -0.631,0.097 -0.291,-3.008 h 0.485 l 0.34,0.825 0.243,0.194 7.277,-1.31 1.213,-3.832 -8.15,-2.183 -0.582,0.048 -0.243,0.776 -0.485,-0.34 -0.291,-2.668 0.582,-0.146 0.437,0.582 0.34,0.049 10.527,-5.53 -1.019,-0.728 -0.194,0.631 -0.631,-0.097 -0.243,-2.086 0.388,-0.437 0.631,0.194 0.146,1.067 1.795,1.261 1.358,-3.056 -2.134,-0.825 -0.291,0.291 -0.388,0.388 -0.485,-0.291 0.097,-2.134 h 0.582 l 0.388,0.485 1.504,-0.485 -2.329,-2.28 -0.728,-0.048 -0.679,-0.243 0.34,-1.843 0.534,-0.34 0.34,0.291 0.049,0.679 4.657,2.183 1.504,-3.299 v -10.042 l 0.194,-0.97 0.873,-0.049 c 0,0 0.776,-3.784 7.228,-4.803 l 2.086,-2.28 -2.668,-2.183 -1.552,4.317 -0.388,0.291 -0.582,-0.291 V 273.5 l 1.94,-4.56 -1.407,-1.261 -3.929,-0.049 -65.327,99.708 -0.857,-0.717 65.02,-98.846 -0.388,-0.243 h -7.568 v -7.374 l 3.202,-1.358 -3.687,-3.735 -18.24,-0.922 v 0.776 l -1.358,1.504 -2.668,-3.929 -0.485,1.019 -0.437,0.631 -1.164,0.049 -0.34,-0.679 1.358,-1.552 -2.959,-0.291 -4.657,-7.131 0.388,-0.825 -30.756,-11.158 -0.194,0.728 -0.485,0.631 -0.631,0.097 -1.019,-0.534 -0.582,-1.164 -0.437,-5.579 0.291,-0.825 h 0.922 l 0.776,0.485 0.437,0.34 27.312,-14.02 -0.146,-1.213 5.579,-1.843 -0.049,-0.728 -35.364,-11.255 -0.582,0.582 -0.534,0.437 -1.116,-0.728 0.728,-0.922 -0.097,-0.728 1.504,-2.571 -0.534,-2.959 10.866,-21.393 0.97,0.097 20.908,9.314 19.792,-10.575 0.922,-0.825 16.3,0.873 1.94,-3.687 -0.34,-0.437 -1.843,0.049 -0.34,-0.825 -0.437,-0.631 -0.097,-0.582 0.534,-0.388 h 2.814 l 0.146,-1.552 1.407,-0.049 2.134,-3.784 -6.597,-18.095 -4.123,2.523 -0.388,0.194 -6.549,-2.862 -1.019,-7.083 2.668,-1.407 -0.097,-4.22 3.784,-2.134 0.728,0.291 -6.84,-20.278 -1.213,-1.116 0.146,5.967 -3.978,1.358 0.146,2.668 -8.004,2.474 0.049,4.948 c 0,0 -0.097,1.892 -1.843,2.571 l 0.437,5.336 c 0,0 -0.679,3.25 -3.493,3.784 -2.814,0.534 -5.724,-0.097 -6.452,-2.329 l -0.049,-5.094 -0.582,0.049 -1.552,-2.426 -0.097,2.28 -1.552,2.183 -0.146,1.213 -0.873,0.243 -0.291,1.746 -1.989,1.407 -1.116,0.243 -0.631,-0.243 -1.407,-1.261 -0.34,-0.873 -0.679,-0.291 -0.34,-0.776 0.049,-1.31 -2.037,-2.329 -0.097,-4.754 -2.523,-3.153 -0.388,-3.881 2.426,-1.213 0.873,-7.713 -1.019,-1.698 -1.213,-0.388 -4.172,1.407 0.146,2.959 c 0,0 0.728,3.493 -1.552,4.657 0,0 -1.649,1.31 -4.706,0.728 0,0 -1.892,-0.243 -2.232,-1.989 l -3.687,1.31 -5.433,-12.661 -0.679,0.146 -1.455,-2.765 -0.679,-3.784 c 0,0 -2.717,-14.505 15.912,-16.106 l 0.255,-0.8 3.638,-1.419 0.036,-2.037 0.473,-1.164 0.982,-0.036 0.837,1.164 0.182,1.783 0.619,0.182 2.329,5.348 2.983,-2.183 2.656,-0.182 1.31,1.346 7.459,-2.256 0.619,0.073 1.965,3.857 h 1.819 l 2.183,4.621 0.146,1.346 0.109,5.457 -1.819,1.019 0.364,1.783 3.129,0.4 1.783,-1.273 9.023,-3.056 h 1.783 l 2.11,4.475 1.128,-1.128 10.224,0.546 c 0,0 2.62,0.327 2.874,6.403 l 5.239,14.262 2.219,-4.803 -0.946,-0.982 1.128,-3.274 1.128,-0.327 0.946,0.291 0.691,0.4 0.073,1.455 0.728,0.473 0.109,1.601 h 2.001 l 3.238,3.311 h 1.019 l 0.364,1.201 0.473,3.675 0.437,4.875 -0.036,1.019 -0.182,0.619 -2.001,1.892 0.182,3.602 0.073,1.128 -0.509,1.128 0.255,0.582 5.312,0.182 3.857,5.93 1.164,0.109 1.201,1.019 1.273,-1.492 1.128,0.764 -0.837,1.346 1.31,0.218 v 4.22 l -1.564,0.109 0.873,0.873 -0.982,1.419 -2.329,-1.819 -0.982,0.691 -1.091,2.911 -5.094,0.146 -0.146,0.655 -0.437,0.109 -3.966,-5.639 7.507,23.2 5.627,-2.037 c 0,0 12.419,-27.215 18.434,-32.066 6.015,-4.851 19.016,-15.329 32.017,6.986 13.001,22.315 15.718,56.661 14.941,71.602 l 9.338,3.444 -0.218,0.582 0.946,-0.073 c 0,0 0.655,-2.547 2.183,-2.838 1.528,-0.291 1.819,2.547 1.819,2.547 0,0 1.455,0.218 1.091,2.183 -0.364,1.965 -0.509,2.256 -1.383,2.62 0,0 -0.146,1.455 -1.091,1.746 -0.946,0.291 -2.329,0.509 -2.911,-2.62 l -0.8,0.073 -0.073,0.655 -9.387,2.838 c 0,0 -4.269,40.458 -9.702,48.414 l 77.423,43.563 h 2.134 l 0.582,1.164 62.701,36.062 0.037,-0.013 h 0.062 l 0,0 -6.688,7.062 0,0 0,0 -0.01,0.026 -139.93,-78.356 c 0,0 -5.627,14.844 -14.165,20.084 0,0 -8.926,8.732 -20.181,0.679 -11.255,-8.053 -16.3,-25.905 -16.3,-25.905 l -7.762,7.568 -0.388,11.74 -0.243,0.291 -1.213,0.049 v 2.959 l 1.067,0.388 0.194,0.631 v 10.527 l -1.892,0.728 0.534,0.437 v 1.94 l 0.825,0.534 v 4.512 c 0,0 4.317,2.62 2.571,7.471 -1.746,4.851 -5.142,6.549 -10.284,7.471 -5.142,0.922 -11.303,-3.396 -11.691,-4.56 0,0 -2.474,-3.202 -1.31,-7.131 0,0 0.521,-2.899 3.396,-4.281 v -2.729 l -8.053,1.819 -25.523,74.66" />
	<g
   id="g81">
		<polygon
   style="fill:#f6f3eb"
   id="polygon83"
   points="130.24,106.962 129.076,103.373 132.229,103.47 " />
		<polygon
   style="fill:#f6f3eb"
   id="polygon85"
   points="140.282,101.432 137.808,103.761 138.73,106.623 141.01,102.839 " />
		<polygon
   style="fill:#f6f3eb"
   id="polygon87"
   points="134.703,104.488 135.625,107.496 137.954,107.787 137.76,106.962 " />
		<polygon
   style="fill:#f6f3eb"
   id="polygon89"
   points="134.558,107.399 134.121,106.041 134.024,107.399 " />
		<polygon
   style="fill:#f6f3eb"
   id="polygon91"
   points="131.114,107.302 132.763,105.07 132.666,107.399 " />
		<polygon
   style="fill:#f6f3eb"
   id="polygon93"
   points="132.86,114.918 130.628,108.466 132.763,108.563 " />
		<polygon
   style="fill:#f6f3eb"
   id="polygon95"
   points="133.927,108.515 133.879,115.791 136.353,111.571 135.188,108.515 " />
		<polygon
   style="fill:#f6f3eb"
   id="polygon97"
   points="137.857,108.709 136.062,108.66 136.692,110.649 " />
		<polygon
   style="fill:#f6f3eb"
   id="polygon99"
   points="143.872,110.94 141.495,103.712 139.36,107.544 " />
		<polygon
   style="fill:#f6f3eb"
   id="polygon101"
   points="139.069,111.183 138.536,109.145 137.42,110.94 " />
		<polygon
   style="fill:#f6f3eb"
   id="polygon103"
   points="142.805,111.377 139.36,109 140.088,111.377 " />
		<polygon
   style="fill:#f6f3eb"
   id="polygon105"
   points="139.991,114.142 137.323,111.813 139.166,111.813 " />
		<polygon
   style="fill:#f6f3eb"
   id="polygon107"
   points="140.282,111.959 141.64,115.694 143.629,112.493 143.338,111.959 " />
		<polygon
   style="fill:#f6f3eb"
   id="polygon109"
   points="144.406,112.541 142.223,116.665 144.163,117.974 145.715,115.015 " />
		<polygon
   style="fill:#f6f3eb"
   id="polygon111"
   points="140.767,117.15 141.058,116.373 137.517,112.929 137.711,115.161 138.73,116.956 " />
		<polygon
   style="fill:#f6f3eb"
   id="polygon113"
   points="134.218,116.616 136.547,112.929 136.644,116.859 " />
		<polygon
   style="fill:#f6f3eb"
   id="polygon115"
   points="133.83,117.635 136.595,117.78 136.547,124.62 136.159,124.572 " />
		<polygon
   style="fill:#f6f3eb"
   id="polygon117"
   points="139.069,121.079 137.42,124.426 137.274,117.829 138.196,117.78 138.778,118.945 " />
		<polygon
   style="fill:#f6f3eb"
   id="polygon119"
   points="138.924,117.78 139.797,119.575 140.622,118.217 140.282,117.877 " />
		<polygon
   style="fill:#f6f3eb"
   id="polygon121"
   points="142.077,119.963 141.592,118.314 140.719,119.672 " />
		<polygon
   style="fill:#f6f3eb"
   id="polygon123"
   points="142.853,118.799 142.999,119.915 143.775,119.915 143.823,118.945 " />
		<polygon
   style="fill:#f6f3eb"
   id="polygon125"
   points="140.816,120.739 142.077,120.885 142.611,121.516 142.611,122.049 " />
		<polygon
   style="fill:#f6f3eb"
   id="polygon127"
   points="143.678,120.982 144.891,124.766 145.036,123.941 144.017,120.933 " />
		<polygon
   style="fill:#f6f3eb"
   id="polygon129"
   points="137.565,126.706 139.651,122.728 139.797,127.094 " />
		<polygon
   style="fill:#f6f3eb"
   id="polygon131"
   points="141.592,127.191 140.379,124.572 140.428,127.094 " />
		<polygon
   style="fill:#f6f3eb"
   id="polygon133"
   points="143.629,124.329 142.514,123.214 140.234,121.273 141.98,127.288 144.794,127.482 " />
		<polygon
   style="fill:#f6f3eb"
   id="polygon135"
   points="137.808,127.822 138.148,129.035 139.845,129.374 139.748,127.968 " />
		<polygon
   style="fill:#f6f3eb"
   id="polygon137"
   points="140.622,129.908 141.107,130.345 141.398,133.789 142.805,131.848 142.756,130.296 141.689,128.065 140.331,128.113 " />
		<polygon
   style="fill:#f6f3eb"
   id="polygon139"
   points="142.611,128.162 143.047,130.248 144.26,128.841 144.017,128.21 " />
		<polygon
   style="fill:#f6f3eb"
   id="polygon141"
   points="155.175,133.789 155.272,135.05 154.205,137.573 152.749,133.74 " />
		<polygon
   style="fill:#f6f3eb"
   id="polygon143"
   points="144.017,130.684 145.23,128.986 145.812,130.781 " />
		<polygon
   style="fill:#f6f3eb"
   id="polygon145"
   points="151.051,132.576 147.025,131.315 148.723,136.36 " />
		<polygon
   style="fill:#f6f3eb"
   id="polygon147"
   points="146.977,133.983 143.726,131.509 146.006,131.509 " />
		<polygon
   style="fill:#f6f3eb"
   id="polygon149"
   points="144.211,132.819 146.589,134.517 147.947,136.845 145.182,136.797 " />
		<polygon
   style="fill:#f6f3eb"
   id="polygon151"
   points="144.648,136.651 143.969,135.341 143.969,136.603 " />
		<polygon
   style="fill:#f6f3eb"
   id="polygon153"
   points="141.107,136.457 142.805,133.643 142.805,136.554 " />
		<polygon
   style="fill:#f6f3eb"
   id="polygon155"
   points="142.805,143.928 140.67,137.573 142.805,137.524 " />
		<polygon
   style="fill:#f6f3eb"
   id="polygon157"
   points="146.006,140.483 144.842,137.379 143.969,137.524 143.92,144.898 146.006,141.551 " />
		<polygon
   style="fill:#f6f3eb"
   id="polygon159"
   points="145.812,137.621 146.637,140.095 147.898,138.446 147.656,137.767 " />
		<polygon
   style="fill:#f6f3eb"
   id="polygon161"
   points="151.731,133.352 149.499,136.942 154.059,140.192 153.962,138.64 " />
		<polygon
   style="fill:#f6f3eb"
   id="polygon163"
   points="153.574,141.599 149.499,138.591 150.275,141.599 " />
		<polygon
   style="fill:#f6f3eb"
   id="polygon165"
   points="147.122,141.357 148.529,138.737 149.499,141.26 " />
		<polygon
   style="fill:#f6f3eb"
   id="polygon167"
   points="149.742,142.181 148.626,142.23 149.936,143.346 " />
		<polygon
   style="fill:#f6f3eb"
   id="polygon169"
   points="150.809,142.424 151.634,145.237 153.429,142.763 153.283,142.472 " />
		<polygon
   style="fill:#f6f3eb"
   id="polygon171"
   points="147.413,142.327 150.809,145.383 151.149,146.547 148.529,146.547 " />
		<polygon
   style="fill:#f6f3eb"
   id="polygon173"
   points="147.947,146.305 147.219,144.461 147.219,146.305 " />
		<polygon
   style="fill:#f6f3eb"
   id="polygon175"
   points="144.308,146.062 146.443,142.763 146.2,146.159 " />
		<polygon
   style="fill:#f6f3eb"
   id="polygon177"
   points="157.212,149.846 154.884,142.424 152.361,145.917 " />
		<polygon
   style="fill:#f6f3eb"
   id="polygon179"
   points="156.339,150.574 152.458,147.663 153.332,150.574 " />
		<polygon
   style="fill:#f6f3eb"
   id="polygon181"
   points="152.361,150.234 151.585,148.051 150.421,150.089 " />
		<polygon
   style="fill:#f6f3eb"
   id="polygon183"
   points="151.246,147.275 148.966,147.081 149.79,149.215 " />
		<polygon
   style="fill:#f6f3eb"
   id="polygon185"
   points="149.354,149.846 148.092,147.081 147.268,147.032 147.171,154.212 149.16,151.156 " />
		<polygon
   style="fill:#f6f3eb"
   id="polygon187"
   points="146.491,146.887 143.823,146.887 146.346,153.921 " />
		<polygon
   style="fill:#f6f3eb"
   id="polygon189"
   points="152.846,150.865 151.294,150.913 153.089,152.563 " />
		<polygon
   style="fill:#f6f3eb"
   id="polygon191"
   points="157.115,151.398 153.671,151.204 155.029,154.988 " />
		<polygon
   style="fill:#f6f3eb"
   id="polygon193"
   points="157.94,151.689 155.903,155.619 160.414,159.354 160.414,158.384 " />
		<polygon
   style="fill:#f6f3eb"
   id="polygon195"
   points="150.324,151.107 151.973,156.055 154.302,156.298 154.156,155.328 " />
		<polygon
   style="fill:#f6f3eb"
   id="polygon197"
   points="151.149,156.152 150.178,153.387 150.081,156.007 " />
		<polygon
   style="fill:#f6f3eb"
   id="polygon199"
   points="147.365,155.91 149.354,152.854 149.305,156.007 " />
		<polygon
   style="fill:#f6f3eb"
   id="polygon201"
   points="154.059,157.026 152.167,157.026 153.089,159.209 " />
		<polygon
   style="fill:#f6f3eb"
   id="polygon203"
   points="153.671,159.985 154.835,157.462 155.563,159.985 " />
		<polygon
   style="fill:#f6f3eb"
   id="polygon205"
   points="159.735,160.179 156.097,157.899 156.63,160.179 " />
		<polygon
   style="fill:#f6f3eb"
   id="polygon207"
   points="156.824,160.858 157.697,164.06 158.813,164.642 160.511,161.101 " />
		<polygon
   style="fill:#f6f3eb"
   id="polygon209"
   points="161.19,161.343 162.743,166.437 161.336,167.164 159.201,165.078 " />
		<polygon
   style="fill:#f6f3eb"
   id="polygon211"
   points="154.011,160.712 155.806,160.809 156.485,161.828 156.339,162.895 " />
		<polygon
   style="fill:#f6f3eb"
   id="polygon213"
   points="150.033,156.88 151.488,157.074 152.507,159.791 150.227,164.496 " />
		<polygon
   style="fill:#f6f3eb"
   id="polygon215"
   points="149.451,162.41 147.656,156.88 149.354,156.832 " />
		<polygon
   style="fill:#f6f3eb"
   id="polygon217"
   points="152.846,165.661 152.652,162.071 150.809,165.37 " />
		<polygon
   style="fill:#f6f3eb"
   id="polygon219"
   points="154.544,165.952 153.526,163.769 153.526,165.806 " />
		<polygon
   style="fill:#f6f3eb"
   id="polygon221"
   points="153.962,161.731 155.32,166.097 157.455,166.146 157.212,164.399 " />
		<polygon
   style="fill:#f6f3eb"
   id="polygon223"
   points="158.231,168.038 157.212,169.541 158.086,169.59 158.474,169.008 " />
		<polygon
   style="fill:#f6f3eb"
   id="polygon225"
   points="155.612,166.873 156.485,169.056 157.406,167.455 157.261,166.873 " />
		<polygon
   style="fill:#f6f3eb"
   id="polygon227"
   points="155.66,170.124 153.72,170.754 153.72,166.631 154.835,166.728 155.903,169.541 " />
		<polygon
   style="fill:#f6f3eb"
   id="polygon229"
   points="152.846,166.582 150.566,166.34 152.167,170.075 152.798,170.075 " />
		<polygon
   style="fill:#f6f3eb"
   id="polygon231"
   points="146.346,169.202 150.421,169.493 146.637,157.608 144.939,161.004 145.618,168.329 " />
		<polygon
   style="fill:#f6f3eb"
   id="polygon233"
   points="143.484,168.28 143.096,165.272 141.446,168.183 " />
		<polygon
   style="fill:#f6f3eb"
   id="polygon235"
   points="122.576,169.638 104.287,179.147 107.101,180.505 122.236,170.415 " />
		<polygon
   style="fill:#f6f3eb"
   id="polygon237"
   points="106.179,182.251 96.816,201.51 96.525,201.656 96.525,204.324 107.586,207.768 112.582,182.203 118.016,174.684 " />
		<polygon
   style="fill:#f6f3eb"
   id="polygon239"
   points="75.229,193.118 72.076,191.808 72.415,194.525 " />
		<polygon
   style="fill:#f6f3eb"
   id="polygon241"
   points="95.264,204.178 95.264,201.219 76.636,193.554 72.512,195.592 72.706,197.144 " />
		<polygon
   style="fill:#f6f3eb"
   id="polygon243"
   points="103.802,237.408 87.648,229.598 87.017,230.035 86.289,229.938 85.901,228.628 87.454,224.456 88.327,224.068 88.763,224.31 88.763,224.989 102.055,220.09 101.57,214.22 74.792,228.191 74.744,230.665 75.714,231.441 106.373,242.55 108.362,239.591 106.082,238.33 104.287,239.543 " />
		<polygon
   style="fill:#f6f3eb"
   id="polygon245"
   points="88.278,228.87 103.705,236.341 102.055,221.254 88.521,226.493 87.793,227.997 " />
		<path
   style="fill:#f6f3eb"
   inkscape:connector-curvature="0"
   id="path247"
   d="m 157.94,261.179 c 0,0 4.269,2.037 5.821,2.086 l -6.792,6.5 -1.455,-3.687 0.631,-0.534 1.019,-0.146 0.97,-0.679 -0.194,-3.54 z" />
		<polygon
   style="fill:#f6f3eb"
   id="polygon249"
   points="152.458,267.485 152.119,268.94 154.884,271.366 156.291,270.347 154.69,266.272 153.04,266.66 " />
		<polygon
   style="fill:#f6f3eb"
   id="polygon251"
   points="156.242,271.851 156.776,273.306 153.914,273.84 155.903,271.802 " />
		<path
   style="fill:#f6f3eb"
   inkscape:connector-curvature="0"
   id="path253"
   d="m 164.926,263.507 -7.907,7.131 1.067,2.426 10.236,-2.426 c 0,0 -2.911,-6.84 -2.911,-7.034 0,-0.194 -0.485,-0.097 -0.485,-0.097 z" />
		<polygon
   style="fill:#f6f3eb"
   id="polygon255"
   points="168.709,271.511 158.231,273.743 159.589,277.527 168.515,272.045 " />
		<polygon
   style="fill:#f6f3eb"
   id="polygon257"
   points="166.769,276.508 169.098,272.967 169.777,274.131 " />
		<polygon
   style="fill:#f6f3eb"
   id="polygon259"
   points="166.818,274.374 162.015,281.65 160.996,281.747 159.735,278.643 " />
		<polygon
   style="fill:#f6f3eb"
   id="polygon261"
   points="144.988,294.069 144.6,291.013 143.629,293.147 " />
		<polygon
   style="fill:#f6f3eb"
   id="polygon263"
   points="141.883,294.894 139.36,292.614 142.271,293.875 " />
		<polygon
   style="fill:#f6f3eb"
   id="polygon265"
   points="141.446,296.398 139.603,295.864 141.64,295.427 " />
		<polygon
   style="fill:#f6f3eb"
   id="polygon267"
   points="142.902,295.136 142.853,296.106 144.308,296.786 144.406,295.379 " />
		<polygon
   style="fill:#f6f3eb"
   id="polygon269"
   points="144.211,298.289 144.163,297.804 142.028,297.416 141.64,299.405 " />
		<polygon
   style="fill:#f6f3eb"
   id="polygon271"
   points="140.816,300.861 144.406,299.405 144.26,302.461 " />
		<polygon
   style="fill:#f6f3eb"
   id="polygon273"
   points="139.651,301.637 129.173,306.439 129.222,307.167 137.032,309.204 " />
		<polygon
   style="fill:#f6f3eb"
   id="polygon275"
   points="140.719,301.637 144.211,303.577 144.26,306.73 145.085,307.895 145.036,309.641 144.26,310.029 144.017,311.048 137.857,309.495 " />
		<polygon
   style="fill:#f6f3eb"
   id="polygon277"
   points="143.678,312.018 137.76,310.417 136.547,313.425 " />
		<polygon
   style="fill:#f6f3eb"
   id="polygon279"
   points="223.248,274.155 232.744,276.302 224.303,271.172 " />
		<polygon
   style="fill:#f6f3eb"
   id="polygon281"
   points="222.957,275.028 228.523,280.886 225.031,279.504 222.193,276.884 " />
		<polygon
   style="fill:#f6f3eb"
   id="polygon283"
   points="221.647,278.194 222.011,277.503 223.102,278.558 " />
		<polygon
   style="fill:#f6f3eb"
   id="polygon285"
   points="221.465,278.812 221.21,279.249 228.815,283.542 227.396,281.832 " />
		<polygon
   style="fill:#f6f3eb"
   id="polygon287"
   points="228.305,282.014 230.124,284.052 230.525,283.76 230.525,283.033 " />
		<path
   style="fill:#f6f3eb"
   inkscape:connector-curvature="0"
   id="path289"
   d="m 223.721,274.992 6.804,6.804 c 0,0 1.31,-3.602 3.02,-4.439 l -0.182,-0.255 -9.642,-2.11 z" />
		<path
   style="fill:#f6f3eb"
   inkscape:connector-curvature="0"
   id="path291"
   d="m 234.09,278.303 c 0,0 -2.183,0.91 -2.911,4.002 l 1.201,0.728 c 0,0 1.856,-2.11 1.856,-2.583 0,-0.473 0.291,-1.128 -0.146,-2.147 z" />
		<polygon
   style="fill:#f6f3eb"
   id="polygon293"
   points="232.817,284.124 231.725,284.779 239.075,286.889 233.29,284.052 " />
		<path
   style="fill:#f6f3eb"
   inkscape:connector-curvature="0"
   id="path295"
   d="m 235.509,277.903 c 0,0 -0.582,4.002 -2.037,5.239 l 13.68,5.021 -11.643,-10.26 z" />
		<polygon
   style="fill:#f6f3eb"
   id="polygon297"
   points="265.998,294.712 237.801,279.031 248.862,288.89 " />
		<polygon
   style="fill:#f6f3eb"
   id="polygon299"
   points="234.163,286.271 263.779,303.007 263.597,302.316 253.883,293.657 252.391,292.638 249.116,291.255 243.622,289.182 236.455,286.889 " />
		<polygon
   style="fill:#f6f3eb"
   id="polygon301"
   points="241.815,286.986 249.189,290.14 249.092,289.703 " />
		<polygon
   style="fill:#f6f3eb"
   id="polygon303"
   points="256.272,292.226 250.839,290.237 250.936,290.819 " />
		<polygon
   style="fill:#f6f3eb"
   id="polygon305"
   points="254.137,292.468 267.575,296.252 267.623,296.592 266.168,297.95 " />
		<polygon
   style="fill:#f6f3eb"
   id="polygon307"
   points="255.399,294.312 265.489,298.872 264.907,300.278 264.519,302.364 " />
		<path
   style="fill:#f6f3eb"
   inkscape:connector-curvature="0"
   id="path309"
   d="m 266.265,299.163 1.601,1.164 c 0,0 -0.97,1.795 -2.086,1.892 0,0 -0.388,-2.426 0.485,-3.056 z" />
		<polygon
   style="fill:#f6f3eb"
   id="polygon311"
   points="266.75,298.144 268.108,297.125 268.788,297.368 268.594,299.211 " />
		<path
   style="fill:#f6f3eb"
   inkscape:connector-curvature="0"
   id="path313"
   d="m 269.758,297.222 c 0,0 0.243,1.746 -0.534,2.28 -0.776,0.534 6.84,3.153 6.84,3.153 l -5.87,-5.288 -0.436,-0.145 z" />
		<polygon
   style="fill:#f6f3eb"
   id="polygon315"
   points="276.889,306.924 268.691,300.812 265.634,303.529 " />
		<polygon
   style="fill:#f6f3eb"
   id="polygon317"
   points="270.825,301.443 279.605,305.372 283.826,308.962 280.527,308.428 " />
		<polygon
   style="fill:#f6f3eb"
   id="polygon319"
   points="295.808,311.193 294.983,311.145 283.341,306.197 279.363,304.596 272.668,298.484 273.299,298.484 " />
		<polygon
   style="fill:#f6f3eb"
   id="polygon321"
   points="286.251,310.272 282.371,306.536 299.398,314.153 " />
		<polygon
   style="fill:#f6f3eb"
   id="polygon323"
   points="280.091,308.816 297.263,321.284 297.749,321.672 267.09,304.984 266.653,304.499 278.199,307.846 " />
		<polygon
   style="fill:#f6f3eb"
   id="polygon325"
   points="294.207,318.179 281.837,309.301 285.281,310.126 " />
		<path
   style="fill:#f6f3eb"
   inkscape:connector-curvature="0"
   id="path327"
   d="m 287.222,310.999 14.117,4.414 c 0,0 -2.377,4.317 -2.571,5.579 l -11.546,-9.993 z" />
		<path
   style="fill:#f6f3eb"
   inkscape:connector-curvature="0"
   id="path329"
   d="m 301.969,315.802 1.455,-0.048 c 0,0 -1.31,5.191 -3.638,5.239 0,0 1.164,-4.512 2.183,-5.191 z" />
		<path
   style="fill:#f6f3eb"
   inkscape:connector-curvature="0"
   id="path331"
   d="m 304.589,316.384 11.788,10.818 -16.348,-4.706 c 0,0 4.754,-4.172 4.56,-6.112 z" />
		<polygon
   style="fill:#f6f3eb"
   id="polygon333"
   points="319.336,329.967 304.88,324.437 317.832,328.463 " />
		<polygon
   style="fill:#f6f3eb"
   id="polygon335"
   points="326.855,330.549 308.033,318.761 318.463,328.269 " />
		<polygon
   style="fill:#f6f3eb"
   id="polygon337"
   points="332.434,332.296 326.613,329.288 331.464,332.441 " />
		<polygon
   style="fill:#f6f3eb"
   id="polygon339"
   points="332.919,333.411 335.151,333.848 335.83,334.333 335.053,334.624 " />
		<polygon
   style="fill:#f6f3eb"
   id="polygon341"
   points="336.315,334.964 336.218,335.594 336.945,335.74 336.897,335.061 " />
		<polygon
   style="fill:#f6f3eb"
   id="polygon343"
   points="319.481,329.094 321.859,331.228 334.471,335.691 328.844,331.762 " />
		<polygon
   style="fill:#f6f3eb"
   id="polygon345"
   points="333.889,336.516 323.217,332.344 332.191,340.542 " />
		<polygon
   style="fill:#f6f3eb"
   id="polygon347"
   points="321.567,331.616 302.794,324.582 330.688,340.154 " />
		<path
   style="fill:#f6f3eb"
   inkscape:connector-curvature="0"
   id="path349"
   d="m 334.617,336.565 0.873,-0.194 1.019,0.97 c 0,0 -1.116,2.232 -2.717,2.62 0,-0.001 -0.048,-2.62 0.825,-3.396 z" />
		<polygon
   style="fill:#f6f3eb"
   id="polygon351"
   points="339.662,337.729 338.061,336.662 338.352,336.225 " />
		<polygon
   style="fill:#f6f3eb"
   id="polygon353"
   points="337.722,337.486 345.289,342.337 351.111,347.237 333.55,341.561 " />
		<polygon
   style="fill:#f6f3eb"
   id="polygon355"
   points="345.289,341.658 351.547,345.442 355.574,348.256 358.533,349.808 366.78,352.379 366.198,351.797 340.196,337.001 " />
		<polygon
   style="fill:#f6f3eb"
   id="polygon357"
   points="354.312,348.11 351.208,346.267 352.517,347.819 " />
		<polygon
   style="fill:#f6f3eb"
   id="polygon359"
   points="360.619,354.029 358.193,352.476 354.603,349.177 355.671,349.177 366.489,356.163 " />
		<polygon
   style="fill:#f6f3eb"
   id="polygon361"
   points="356.641,351.894 339.128,344.084 352.323,348.159 " />
		<polygon
   style="fill:#f6f3eb"
   id="polygon363"
   points="339.856,345.103 358.339,353.204 365.13,359.365 364.548,359.316 " />
		<path
   style="fill:#f6f3eb"
   inkscape:connector-curvature="0"
   id="path365"
   d="m 360.619,351.069 8.829,2.862 c 0,0 -1.795,1.892 -1.795,2.086 0,0.195 -7.034,-4.948 -7.034,-4.948 z" />
		<path
   style="fill:#f6f3eb"
   inkscape:connector-curvature="0"
   id="path367"
   d="m 367.216,357.327 c 0,0 -0.485,1.698 -0.437,2.086 0.049,0.388 -5.579,-4.609 -5.579,-4.609 l 6.016,2.523 z" />
	</g>
</g></g>
<g
   id="g369"
   transform="translate(0,591.66199)">
</g>
<g
   id="g371"
   transform="translate(0,591.66199)">
</g>
<g
   id="g373"
   transform="translate(0,591.66199)">
</g>
<g
   id="g375"
   transform="translate(0,591.66199)">
</g>
<g
   id="g377"
   transform="translate(0,591.66199)">
</g>
<g
   id="g379"
   transform="translate(0,591.66199)">
</g>
</svg>