<?xml version="1.0" encoding="UTF-8" standalone="no"?>
<!-- Generator: Adobe Illustrator 17.0.0, SVG Export Plug-In . SVG Version: 6.00 Build 0)  -->

<svg
   xmlns:dc="http://purl.org/dc/elements/1.1/"
   xmlns:cc="http://creativecommons.org/ns#"
   xmlns:rdf="http://www.w3.org/1999/02/22-rdf-syntax-ns#"
   xmlns:svg="http://www.w3.org/2000/svg"
   xmlns="http://www.w3.org/2000/svg"
   xmlns:sodipodi="http://sodipodi.sourceforge.net/DTD/sodipodi-0.dtd"
   xmlns:inkscape="http://www.inkscape.org/namespaces/inkscape"
   version="1.1"
   id="Layer_1"
   x="0px"
   y="0px"
   width="32"
   height="32"
   viewBox="0 0 32 32"
   enable-background="new 0 0 432.338 432.338"
   xml:space="preserve"
   inkscape:version="0.48.3.1 r9886"
   sodipodi:docname="logo.svg"
   inkscape:export-filename="/home/natronics/Code/spacehackers/spaceprob.es/resources/img/logo.png"
   inkscape:export-xdpi="118.125"
   inkscape:export-ydpi="118.125"><metadata
   id="metadata385"><rdf:RDF><cc:Work
       rdf:about=""><dc:format>image/svg+xml</dc:format><dc:type
         rdf:resource="http://purl.org/dc/dcmitype/StillImage" /><dc:title></dc:title></cc:Work></rdf:RDF></metadata><defs
   id="defs383">
	
	

		
		
		
		
		
		
		
		
		
		
		
		
		
		
		
		
		
		
		
		
		
		
		
		
		
		
		
		
		
		
		
		
		
		
		
		
		
		
		
		
		
		
		
		
		
		
		
		
		
		
		
		
		
		
		
		
		
		
		
		
		
		
		
		
		
		
		
		
		
		
		
		
		
		
		
		
		
		
		
		
		
		
		
		
		
		
		
		
		
		
		
		
		
		
		
		
		
		
		
		
		
		
		
		
		
		
		
		
		
		
		
		
		
		
		
		
		
		
		
		
		
		
		
		
		
		
		
		
		
		
		
		
		
		
		
		
		
		
		
		
		
		
		
	</defs><sodipodi:namedview
   pagecolor="#363636"
   bordercolor="#666666"
   borderopacity="1"
   objecttolerance="10"
   gridtolerance="10"
   guidetolerance="10"
   inkscape:pageopacity="0"
   inkscape:pageshadow="2"
   inkscape:window-width="1280"
   inkscape:window-height="749"
   id="namedview381"
   showgrid="true"
   borderlayer="true"
   inkscape:showpageshadow="false"
   inkscape:zoom="16.59375"
   inkscape:cx="16"
   inkscape:cy="16"
   inkscape:window-x="0"
   inkscape:window-y="27"
   inkscape:window-maximized="1"
   inkscape:current-layer="Layer_1"><inkscape:grid
     type="xygrid"
     id="grid3362"
     empspacing="8"
     visible="true"
     enabled="true"
     snapvisiblegridlinesonly="true"
     spacingx="1px"
     spacingy="1px" /></sodipodi:namedview>













<path
   style="fill:#dddddd;fill-opacity:1"
   d="M 2.9375 1 L 2.875 1.125 L 2.875 1.3125 L 2.53125 1.4375 L 2.5 1.53125 C 0.73007718 1.6833594 1 3.0625 1 3.0625 L 1.0625 3.40625 L 1.1875 3.65625 L 1.28125 3.65625 L 1.78125 4.875 L 2.125 4.75 C 2.157303 4.915886 2.34375 4.9375 2.34375 4.9375 C 2.6341925 4.9927948 2.78125 4.84375 2.78125 4.84375 C 2.997871 4.7331595 2.9375 4.40625 2.9375 4.40625 L 2.9375 4.125 L 3.3125 4 L 3.4375 4.03125 L 3.53125 4.1875 L 3.4375 4.9375 L 3.21875 5.03125 L 3.25 5.40625 L 3.5 5.71875 L 3.5 6.15625 L 3.6875 6.375 L 3.6875 6.5 L 3.71875 6.59375 L 3.78125 6.625 L 3.8125 6.6875 L 3.96875 6.8125 L 4.03125 6.84375 L 4.125 6.8125 L 4.3125 6.6875 L 4.34375 6.5 L 4.4375 6.5 L 4.4375 6.375 L 4.59375 6.15625 L 4.59375 5.9375 L 4.75 6.1875 L 4.8125 6.1875 L 4.8125 6.65625 C 4.8816665 6.8683101 5.1388902 6.9257344 5.40625 6.875 C 5.6736055 6.8242652 5.75 6.53125 5.75 6.53125 L 5.71875 6.03125 C 5.8846316 5.966739 5.875 5.78125 5.875 5.78125 L 5.875 5.3125 L 6.625 5.0625 L 6.625 4.8125 L 7 4.6875 L 7 4.125 L 7.09375 4.21875 L 7.75 6.15625 L 7.6875 6.125 L 7.3125 6.3125 L 7.34375 6.71875 L 7.09375 6.875 L 7.1875 7.53125 L 7.8125 7.8125 L 7.84375 7.78125 L 8.21875 7.5625 L 8.84375 9.28125 L 8.65625 9.625 L 8.53125 9.625 L 8.5 9.78125 L 8.25 9.78125 L 8.1875 9.8125 L 8.1875 9.875 L 8.25 9.9375 L 8.28125 10 L 8.4375 10 L 8.46875 10.03125 L 8.28125 10.40625 L 6.75 10.3125 L 6.65625 10.40625 L 4.78125 11.40625 L 2.78125 10.5 L 2.6875 10.5 L 1.65625 12.53125 L 1.71875 12.8125 L 1.5625 13.0625 L 1.59375 13.125 L 1.5 13.21875 L 1.625 13.28125 L 1.65625 13.25 L 1.71875 13.1875 L 5.09375 14.25 L 5.09375 14.3125 L 4.5625 14.5 L 4.5625 14.625 L 1.96875 15.9375 L 1.9375 15.90625 L 1.875 15.875 L 1.78125 15.875 L 1.75 15.9375 L 1.78125 16.46875 L 1.84375 16.59375 L 1.9375 16.65625 L 2 16.625 L 2.03125 16.5625 L 2.0625 16.5 L 5 17.5625 L 4.9375 17.65625 L 5.40625 18.3125 L 5.6875 18.34375 L 5.53125 18.5 L 5.5625 18.5625 L 5.6875 18.5625 L 5.71875 18.5 L 5.78125 18.40625 L 6.03125 18.78125 L 6.15625 18.625 L 6.15625 18.5625 L 7.875 18.65625 L 8.25 19 L 7.9375 19.125 L 7.9375 19.8125 L 8.65625 19.8125 L 8.6875 19.84375 L 2.5 29.25 L 2.59375 29.3125 L 8.8125 19.84375 L 9.1875 19.84375 L 9.3125 19.96875 L 9.125 20.40625 L 9.125 20.4375 L 9.1875 20.46875 L 9.21875 20.4375 L 9.375 20.03125 L 9.625 20.21875 L 9.40625 20.4375 C 8.7932519 20.53431 8.71875 20.90625 8.71875 20.90625 L 8.65625 20.90625 L 8.625 21 L 8.625 21.9375 L 8.5 22.25 L 8.0625 22.0625 L 8.03125 22 L 8 21.96875 L 7.96875 22 L 7.9375 22.15625 L 8 22.1875 L 8.0625 22.1875 L 8.28125 22.40625 L 8.125 22.46875 L 8.09375 22.40625 L 8.0625 22.40625 L 8.03125 22.625 L 8.09375 22.65625 L 8.125 22.59375 L 8.15625 22.59375 L 8.34375 22.65625 L 8.21875 22.9375 L 8.0625 22.84375 L 8.03125 22.71875 L 7.96875 22.71875 L 7.9375 22.75 L 7.96875 22.9375 L 8.03125 22.96875 L 8.03125 22.90625 L 8.125 22.96875 L 7.125 23.5 L 7.09375 23.5 L 7.0625 23.4375 L 7 23.4375 L 7.03125 23.6875 L 7.09375 23.71875 L 7.09375 23.65625 L 7.15625 23.65625 L 7.9375 23.875 L 7.8125 24.21875 L 7.125 24.34375 L 7.09375 24.34375 L 7.0625 24.25 L 7.03125 24.25 L 7.0625 24.53125 L 7.125 24.53125 L 7.125 24.5 L 7.125 24.4375 L 7.75 24.34375 L 5.34375 31.375 L 5.4375 31.4375 L 7.84375 24.34375 L 8.625 24.15625 L 8.625 24.40625 C 8.3518494 24.537552 8.3125 24.8125 8.3125 24.8125 C 8.2019095 25.18579 8.4375 25.5 8.4375 25.5 C 8.474364 25.61059 9.0427137 26.0251 9.53125 25.9375 C 10.019787 25.8499 10.334114 25.679638 10.5 25.21875 C 10.665886 24.757861 10.28125 24.53125 10.28125 24.53125 L 10.28125 24.09375 L 10.1875 24.03125 L 10.1875 23.84375 L 10.125 23.8125 L 10.3125 23.75 L 10.3125 22.75 L 10.3125 22.6875 L 10.1875 22.65625 L 10.1875 22.375 L 10.3125 22.375 L 10.34375 22.34375 L 10.375 21.21875 L 11.125 20.5 C 11.125 20.5 11.586923 22.203643 12.65625 22.96875 C 13.725576 23.733859 14.59375 22.90625 14.59375 22.90625 C 15.404937 22.408403 15.9375 21 15.9375 21 L 29.21875 28.4375 L 29.28125 28.34375 L 27.21875 27.1875 L 29 27.96875 L 29.34375 28.3125 L 29.40625 28.25 C 29.342251 28.193985 29.25 28.125 29.25 28.125 L 29.4375 28.1875 L 29.5 28.15625 L 29.21875 28.03125 L 28.96875 27.90625 L 28.625 27.59375 L 28.75 27.59375 L 29.5 28.0625 L 29.5 28.15625 L 29.53125 28.09375 L 29.59375 28.03125 C 29.40469 27.896651 29.21875 27.75 29.21875 27.75 L 29.6875 27.90625 L 29.75 27.875 L 29 27.65625 L 28.71875 27.5 L 28.34375 27.21875 L 27.75 26.875 L 27.28125 26.4375 L 29.75 27.84375 L 29.84375 27.75 L 23.875 24.34375 L 23.84375 24.21875 L 23.625 24.21875 L 16.28125 20.09375 C 16.797434 19.337858 17.1875 15.46875 17.1875 15.46875 L 18.09375 15.21875 L 18.09375 15.15625 L 18.15625 15.15625 C 18.21155 15.453534 18.34762 15.4339 18.4375 15.40625 C 18.52728 15.3786 18.5625 15.21875 18.5625 15.21875 C 18.64554 15.18417 18.65292 15.15544 18.6875 14.96875 C 18.72208 14.782055 18.59375 14.78125 18.59375 14.78125 C 18.59375 14.78125 18.55142 14.5036 18.40625 14.53125 C 18.261075 14.5589 18.1875 14.8125 18.1875 14.8125 L 18.09375 14.8125 L 18.125 14.75 L 17.25 14.4375 C 17.323822 13.01797 17.047712 9.745126 15.8125 7.625 C 14.577288 5.5048739 13.352729 6.5078613 12.78125 6.96875 C 12.209771 7.4296387 11.03125 10 11.03125 10 L 10.5 10.1875 L 9.78125 8 L 10.15625 8.53125 L 10.1875 8.53125 L 10.21875 8.46875 L 10.6875 8.4375 L 10.8125 8.15625 L 10.90625 8.09375 L 11.125 8.28125 L 11.21875 8.125 L 11.125 8.0625 L 11.28125 8.03125 L 11.28125 7.65625 L 11.15625 7.625 L 11.21875 7.5 L 11.125 7.4375 L 11 7.5625 L 10.875 7.46875 L 10.78125 7.46875 L 10.40625 6.90625 L 9.90625 6.875 L 9.875 6.8125 L 9.9375 6.71875 L 9.9375 6.59375 L 9.90625 6.25 L 10.09375 6.09375 L 10.125 6.03125 L 10.125 5.9375 L 10.0625 5.46875 L 10.03125 5.125 L 10 5 L 9.90625 5 L 9.59375 4.6875 L 9.40625 4.6875 L 9.40625 4.53125 L 9.3125 4.5 L 9.3125 4.34375 L 9.25 4.3125 L 9.15625 4.28125 L 9.0625 4.3125 L 8.9375 4.625 L 9.03125 4.71875 L 8.8125 5.1875 L 8.3125 3.8125 C 8.2883677 3.2352253 8.0625 3.21875 8.0625 3.21875 L 7.09375 3.15625 L 6.96875 3.28125 L 6.78125 2.84375 L 6.59375 2.84375 L 5.75 3.125 L 5.5625 3.25 L 5.28125 3.21875 L 5.25 3.0625 L 5.40625 2.9375 L 5.40625 2.4375 L 5.40625 2.3125 L 5.1875 1.875 L 5 1.875 L 4.8125 1.5 L 4.78125 1.5 L 4.0625 1.71875 L 3.9375 1.59375 L 3.6875 1.59375 L 3.40625 1.8125 L 3.1875 1.3125 L 3.125 1.28125 L 3.09375 1.125 L 3.03125 1 L 2.9375 1 z M 29.6875 27.90625 L 29.59375 28.03125 C 29.627825 28.05551 29.617212 28.05275 29.625 28.0625 C 29.662861 28.011383 29.75 27.90625 29.75 27.90625 L 29.6875 27.90625 z M 29.625 28.0625 C 29.616671 28.073746 29.59375 28.090427 29.59375 28.09375 C 29.59375 28.09957 29.648363 28.091749 29.625 28.0625 z M 29.4375 28.1875 L 29.40625 28.25 C 29.425767 28.267083 29.425809 28.239897 29.4375 28.25 C 29.4352 28.23157 29.457878 28.218227 29.46875 28.21875 L 29.4375 28.1875 z M 29.34375 28.3125 L 29.28125 28.34375 L 29.34375 28.34375 L 29.34375 28.3125 z M 8.28125 4.03125 L 8.34375 4.1875 L 8.125 4.53125 L 8.03125 4.25 L 8.28125 4.03125 z M 7.21875 4.21875 L 7.5 4.25 L 7.3125 4.5625 L 7.21875 4.21875 z M 8.375 4.25 L 8.625 4.9375 L 8.1875 4.625 L 8.375 4.25 z M 7.75 4.34375 L 8.03125 4.5625 L 8.0625 4.65625 L 7.84375 4.625 L 7.75 4.34375 z M 7.5625 4.375 L 7.5625 4.625 L 7.40625 4.59375 L 7.5625 4.375 z M 7.6875 4.46875 L 7.71875 4.625 L 7.6875 4.625 L 7.6875 4.46875 z M 7.34375 4.71875 L 7.5625 4.71875 L 7.5625 5.3125 L 7.34375 4.71875 z M 7.65625 4.71875 L 7.78125 4.71875 L 7.90625 5 L 7.65625 5.40625 L 7.65625 4.71875 z M 7.875 4.71875 L 8.03125 4.75 L 7.9375 4.90625 L 7.875 4.71875 z M 8.1875 4.75 L 8.5 5 L 8.25 5 L 8.1875 4.75 z M 8.09375 4.78125 L 8.15625 4.96875 L 8 4.9375 L 8.09375 4.78125 z M 8 5.03125 L 8.15625 5.03125 L 8.25 5.25 L 8 5.03125 z M 8.28125 5.03125 L 8.5625 5.03125 L 8.59375 5.09375 L 8.40625 5.40625 L 8.28125 5.03125 z M 8.65625 5.09375 L 8.78125 5.34375 L 8.65625 5.625 L 8.46875 5.5 L 8.65625 5.09375 z M 7.90625 5.125 L 7.9375 5.5 L 7.6875 5.5 L 7.90625 5.125 z M 8 5.125 L 8.34375 5.46875 L 8.3125 5.53125 L 8.125 5.53125 L 8.03125 5.34375 L 8 5.125 z M 7.65625 5.59375 L 7.9375 5.59375 L 7.90625 6.25 L 7.875 6.25 L 7.65625 5.59375 z M 8 5.59375 L 8.0625 5.59375 L 8.125 5.71875 L 8.15625 5.90625 L 8 6.21875 L 8 5.59375 z M 8.15625 5.59375 L 8.28125 5.59375 L 8.3125 5.625 L 8.21875 5.78125 L 8.15625 5.59375 z M 8.40625 5.65625 L 8.4375 5.8125 L 8.3125 5.78125 L 8.40625 5.65625 z M 8.53125 5.6875 L 8.59375 5.71875 L 8.59375 5.8125 L 8.53125 5.8125 L 8.53125 5.6875 z M 8.3125 5.875 L 8.4375 5.90625 L 8.5 5.9375 L 8.5 6 L 8.3125 5.875 z M 8.59375 5.90625 L 8.625 5.90625 L 8.71875 6.1875 L 8.71875 6.25 L 8.59375 5.90625 z M 8.28125 5.9375 L 8.5 6.125 L 8.59375 6.21875 L 8.6875 6.53125 L 8.4375 6.5 L 8.28125 5.9375 z M 8.21875 6.0625 L 8.21875 6.46875 L 8 6.4375 L 8.21875 6.0625 z M 8.28125 6.25 L 8.40625 6.5 L 8.28125 6.46875 L 8.28125 6.25 z M 8.03125 6.5625 L 8.21875 6.5625 L 8.21875 6.6875 L 8.0625 6.65625 L 8.03125 6.5625 z M 8.40625 6.5625 L 8.5 6.78125 L 8.5 6.9375 L 8.375 7.125 L 8.34375 6.78125 L 8.3125 6.75 L 8.28125 6.59375 L 8.40625 6.5625 z M 8.5 6.59375 L 8.625 6.59375 L 8.65625 6.65625 L 8.53125 6.78125 L 8.5 6.59375 z M 8.75 6.65625 L 8.8125 6.84375 L 8.625 6.8125 L 8.75 6.65625 z M 8.90625 6.875 L 9.28125 7 L 9.0625 7.375 L 8.90625 6.875 z M 8.59375 6.90625 L 8.8125 6.90625 L 8.90625 7.125 L 8.59375 6.90625 z M 8.65625 7.03125 L 8.875 7.1875 L 9 7.40625 L 8.75 7.40625 L 8.65625 7.03125 z M 9.375 7.0625 L 9.5625 7.59375 L 9.59375 7.71875 L 9.15625 7.40625 L 9.375 7.0625 z M 8.5 7.09375 L 8.5 7.375 L 8.34375 7.375 L 8.5 7.09375 z M 9.46875 7.125 L 9.6875 7.125 L 9.6875 7.25 L 9.59375 7.46875 L 9.46875 7.125 z M 8.625 7.28125 L 8.6875 7.375 L 8.625 7.375 L 8.625 7.28125 z M 8.3125 7.46875 L 8.5 7.46875 L 8.5 8.09375 L 8.3125 7.46875 z M 8.625 7.46875 L 8.71875 7.46875 L 8.8125 7.75 L 8.8125 7.84375 L 8.625 8.1875 L 8.625 7.46875 z M 8.8125 7.46875 L 8.96875 7.5 L 9 7.5625 L 8.875 7.71875 L 8.8125 7.46875 z M 9.15625 7.5625 L 9.53125 7.875 L 9.21875 7.875 L 9.15625 7.5625 z M 9.0625 7.59375 L 9.15625 7.84375 L 8.9375 7.84375 L 9.0625 7.59375 z M 9.0625 7.90625 L 9.15625 7.90625 L 9.1875 8.03125 L 9.0625 7.90625 z M 8.9375 7.9375 L 9.28125 8.21875 L 9.3125 8.34375 L 9.0625 8.34375 L 8.9375 7.9375 z M 9.28125 7.9375 L 9.5 7.9375 L 9.53125 7.96875 L 9.34375 8.21875 L 9.28125 7.9375 z M 9.65625 7.9375 L 9.875 8.65625 L 9.40625 8.28125 L 9.65625 7.9375 z M 8.84375 7.96875 L 8.84375 8.28125 L 8.65625 8.28125 L 8.84375 7.96875 z M 8.9375 8.125 L 9 8.3125 L 8.9375 8.3125 L 8.9375 8.125 z M 8.59375 8.375 L 8.875 8.375 L 8.84375 9.03125 L 8.59375 8.375 z M 8.9375 8.375 L 9 8.375 L 9.125 8.65625 L 9.125 8.78125 L 8.9375 9.0625 L 8.9375 8.375 z M 9.09375 8.375 L 9.3125 8.40625 L 9.1875 8.59375 L 9.09375 8.375 z M 9.4375 8.4375 L 9.8125 8.71875 L 9.5 8.71875 L 9.4375 8.4375 z M 9.34375 8.46875 L 9.40625 8.6875 L 9.25 8.65625 L 9.34375 8.46875 z M 9.21875 8.75 L 9.59375 9.15625 L 9.59375 9.25 L 9.375 9.21875 L 9.21875 8.75 z M 9.3125 8.75 L 9.46875 8.75 L 9.5 8.90625 L 9.3125 8.75 z M 9.53125 8.78125 L 9.875 8.78125 L 9.6875 9.125 L 9.53125 8.78125 z M 9.9375 8.8125 L 10.1875 9.46875 L 10.1875 9.5625 L 9.75 9.1875 L 9.9375 8.8125 z M 9.125 8.9375 L 9.125 9.21875 L 8.9375 9.21875 L 9.125 8.9375 z M 9.21875 8.96875 L 9.3125 9.25 L 9.21875 9.21875 L 9.21875 8.96875 z M 8.96875 9.3125 L 9.125 9.3125 L 9.15625 9.84375 L 8.96875 9.3125 z M 9.1875 9.3125 L 9.34375 9.34375 L 9.4375 9.59375 L 9.21875 10.03125 L 9.1875 9.3125 z M 9.40625 9.3125 L 9.59375 9.3125 L 9.5 9.53125 L 9.40625 9.3125 z M 8.875 9.375 L 9.25 10.5 L 8.84375 10.46875 L 8.78125 10.40625 L 8.71875 9.71875 L 8.875 9.375 z M 9.65625 9.375 L 9.71875 9.59375 L 9.53125 9.59375 L 9.65625 9.375 z M 9.78125 9.40625 L 10.125 9.625 L 9.8125 9.625 L 9.78125 9.40625 z M 9.5625 9.6875 L 9.75 9.6875 L 9.8125 9.78125 L 9.8125 9.875 L 9.5625 9.6875 z M 9.84375 9.6875 L 10.1875 9.71875 L 10.03125 10.0625 L 9.9375 10 L 9.84375 9.6875 z M 10.25 9.75 L 10.40625 10.21875 L 10.28125 10.28125 L 10.0625 10.09375 L 10.25 9.75 z M 9.5625 9.78125 L 9.875 10.03125 L 9.90625 10.1875 L 9.6875 10.1875 L 9.5625 9.78125 z M 9.4375 9.8125 L 9.46875 10.15625 L 9.28125 10.125 L 9.4375 9.8125 z M 9.53125 9.96875 L 9.625 10.1875 L 9.53125 10.15625 L 9.53125 9.96875 z M 8.53125 10.125 L 8.5625 10.40625 L 8.375 10.375 L 8.53125 10.125 z M 9.25 10.21875 L 9.46875 10.21875 L 9.46875 10.5625 L 9.40625 10.5625 L 9.25 10.21875 z M 9.5625 10.25 L 9.65625 10.25 L 9.75 10.5 L 9.71875 10.5625 L 9.5625 10.625 L 9.5625 10.25 z M 9.71875 10.25 L 9.875 10.25 L 9.90625 10.3125 L 9.8125 10.46875 L 9.71875 10.25 z M 9.96875 10.375 L 10 10.46875 L 9.96875 10.53125 L 9.875 10.5 L 9.96875 10.375 z M 6.59375 10.53125 L 6.5625 10.59375 L 5.125 11.5625 L 4.84375 11.4375 L 6.59375 10.53125 z M 6.15625 11 L 5.65625 11.71875 L 5.15625 14.15625 L 4.125 13.8125 L 4.125 13.5625 L 4.15625 13.5625 L 5.03125 11.71875 L 6.15625 11 z M 1.78125 12.625 L 2.09375 12.75 L 1.8125 12.875 L 1.78125 12.625 z M 2.21875 12.78125 L 4 13.53125 L 4 13.8125 L 1.84375 13.125 L 1.84375 13 L 2.21875 12.78125 z M 4.59375 14.75 L 4.65625 15.3125 L 3.375 15.78125 L 3.375 15.71875 L 3.34375 15.6875 L 3.25 15.71875 L 3.09375 16.125 L 3.15625 16.25 L 3.21875 16.25 L 3.28125 16.21875 L 4.8125 16.96875 L 4.84375 17.15625 L 5.03125 17.0625 L 5.25 17.15625 L 5.0625 17.4375 L 2.125 16.40625 L 2.03125 16.3125 L 2.0625 16.09375 L 4.59375 14.75 z M 4.65625 15.4375 L 4.8125 16.875 L 3.34375 16.15625 L 3.28125 16.0625 L 3.34375 15.9375 L 4.65625 15.4375 z M 9.9375 19.21875 C 9.9375 19.21875 10.352546 19.401594 10.5 19.40625 L 9.84375 20.03125 L 9.71875 19.6875 L 9.78125 19.625 L 9.875 19.625 L 9.96875 19.5625 L 9.9375 19.21875 z M 10.625 19.4375 C 10.625 19.4375 10.65625 19.41907 10.65625 19.4375 C 10.65625 19.45593 10.9375 20.125 10.9375 20.125 L 9.96875 20.34375 L 9.875 20.125 L 10.625 19.4375 z M 9.65625 19.71875 L 9.78125 20.09375 L 9.65625 20.1875 L 9.40625 19.96875 L 9.4375 19.8125 L 9.5 19.75 L 9.65625 19.71875 z M 16.25 20.15625 L 17.0625 20.65625 L 16.15625 20.46875 L 16.25 20.15625 z M 9.75 20.21875 L 9.78125 20.25 L 9.84375 20.375 L 9.5625 20.4375 L 9.75 20.21875 z M 10.96875 20.21875 L 10.96875 20.25 L 10.09375 20.78125 L 9.96875 20.40625 L 10.96875 20.21875 z M 11 20.34375 L 11.0625 20.4375 L 10.78125 20.6875 L 11 20.34375 z M 10.78125 20.46875 L 10.34375 21.15625 L 10.25 21.1875 L 10.125 20.875 L 10.78125 20.46875 z M 16.125 20.53125 L 16.65625 21.09375 L 16.3125 20.96875 L 16.0625 20.71875 L 16.125 20.53125 z M 16.1875 20.53125 L 17.125 20.75 C 16.962535 20.82952 16.84375 21.1875 16.84375 21.1875 L 16.1875 20.53125 z M 16.03125 20.78125 L 16.15625 20.875 L 16 20.84375 L 16.03125 20.78125 z M 17.3125 20.8125 L 18.4375 21.78125 L 17.125 21.3125 C 17.263234 21.194974 17.3125 20.8125 17.3125 20.8125 z M 17.1875 20.84375 C 17.22902 20.94056 17.1875 21.01756 17.1875 21.0625 C 17.1875 21.10744 17.03125 21.3125 17.03125 21.3125 L 16.90625 21.21875 C 16.97542 20.924984 17.1875 20.84375 17.1875 20.84375 z M 16 20.90625 L 16.5625 21.1875 L 16.6875 21.34375 L 15.96875 20.9375 L 16 20.90625 z M 17.53125 20.90625 L 20.21875 22.40625 L 18.59375 21.84375 L 17.53125 20.90625 z M 16.625 21.1875 L 16.84375 21.3125 L 16.84375 21.375 L 16.8125 21.40625 L 16.625 21.1875 z M 17.0625 21.40625 L 17.09375 21.40625 L 17.65625 21.65625 L 16.96875 21.46875 L 17.0625 21.40625 z M 17.1875 21.59375 L 17.40625 21.65625 L 18.09375 21.875 L 18.625 22.09375 L 18.9375 22.21875 L 19.0625 22.3125 L 20 23.125 L 20 23.1875 L 17.1875 21.59375 z M 17.90625 21.6875 L 18.625 21.9375 L 18.625 21.96875 L 17.90625 21.6875 z M 18.78125 21.96875 L 19.28125 22.15625 L 18.78125 22.03125 L 18.78125 21.96875 z M 8.6875 22.0625 L 8.71875 22.34375 L 8.59375 22.25 L 8.6875 22.0625 z M 19.09375 22.1875 L 20.375 22.5625 L 20.375 22.59375 L 20.21875 22.71875 L 19.09375 22.1875 z M 8.1875 22.21875 L 8.46875 22.3125 L 8.4375 22.4375 L 8.1875 22.21875 z M 19.21875 22.375 L 20.15625 22.8125 L 20.125 22.9375 L 20.0625 23.125 L 19.21875 22.375 z M 8.53125 22.4375 L 8.65625 22.46875 L 8.65625 22.59375 L 8.53125 22.53125 L 8.53125 22.4375 z M 8.40625 22.46875 L 8.375 22.5625 L 8.21875 22.53125 L 8.40625 22.46875 z M 20.40625 22.625 L 20.46875 22.65625 L 20.46875 22.84375 L 20.28125 22.71875 L 20.40625 22.625 z M 8.4375 22.65625 L 8.65625 22.6875 L 8.65625 22.75 L 8.40625 22.84375 L 8.4375 22.65625 z M 20.5625 22.65625 L 20.625 22.65625 L 21.1875 23.15625 C 21.1875 23.15625 20.45752 22.92573 20.53125 22.875 C 20.60507 22.82427 20.5625 22.65625 20.5625 22.65625 z M 20.84375 22.78125 L 20.90625 22.78125 L 23.0625 23.96875 L 22.96875 23.96875 L 21.875 23.5 L 21.5 23.34375 L 20.84375 22.78125 z M 8.65625 22.84375 L 8.65625 23.15625 L 8.3125 23 L 8.65625 22.84375 z M 20.25 22.84375 L 20.40625 22.9375 C 20.40625 22.9375 20.293529 23.115784 20.1875 23.125 C 20.1875 23.125 20.16706 22.903606 20.25 22.84375 z M 20.46875 23 L 21.25 23.5625 L 20.1875 23.25 L 20.46875 23 z M 8.21875 23.0625 L 7.96875 23.78125 L 7.21875 23.59375 L 7.21875 23.53125 L 8.21875 23.0625 z M 8.3125 23.0625 L 8.65625 23.25 L 8.65625 23.5625 L 8.71875 23.65625 L 8.71875 23.8125 L 8.65625 23.875 L 8.625 23.96875 L 8.03125 23.8125 L 8.3125 23.0625 z M 20.6875 23.0625 L 21.5 23.40625 L 21.90625 23.75 L 21.59375 23.71875 L 20.6875 23.0625 z M 20.28125 23.34375 L 21.375 23.65625 L 21.5625 23.75 L 23.1875 24.9375 L 20.3125 23.375 L 20.28125 23.34375 z M 21.78125 23.53125 L 23.375 24.25 L 22.15625 23.875 L 21.78125 23.53125 z M 21.71875 23.78125 L 22.0625 23.875 L 22.90625 24.625 L 21.71875 23.78125 z M 8.03125 23.90625 L 8.59375 24.0625 L 7.90625 24.1875 L 8.03125 23.90625 z M 22.21875 23.96875 L 23.5625 24.375 C 23.5625 24.375 23.362181 24.786349 23.34375 24.90625 L 22.21875 23.96875 z M 23.625 24.40625 L 23.78125 24.40625 C 23.78125 24.40625 23.658681 24.90169 23.4375 24.90625 C 23.4375 24.90625 23.52819 24.470761 23.625 24.40625 z M 23.875 24.46875 L 25 25.5 L 23.4375 25.0625 C 23.4375 25.0625 23.893432 24.653068 23.875 24.46875 z M 24.21875 24.6875 L 26 25.8125 L 25.1875 25.59375 L 24.21875 24.6875 z M 23.90625 25.21875 L 25.15625 25.625 L 25.28125 25.75 L 23.90625 25.21875 z M 23.71875 25.25 L 25.5 25.90625 L 26.375 26.71875 L 23.71875 25.25 z M 25.3125 25.6875 L 26.1875 25.9375 L 26.71875 26.3125 L 25.53125 25.875 L 25.3125 25.6875 z M 25.96875 25.6875 L 26.53125 25.96875 L 26.4375 26 L 25.96875 25.6875 z M 25.65625 25.96875 L 26.65625 26.375 L 26.5 26.75 L 25.65625 25.96875 z M 26.5625 26.09375 L 26.78125 26.125 L 26.84375 26.1875 L 26.78125 26.1875 L 26.5625 26.09375 z M 26.90625 26.21875 L 26.9375 26.25 L 26.96875 26.3125 L 26.875 26.28125 L 26.90625 26.21875 z M 27.09375 26.34375 L 27.21875 26.5 L 27.0625 26.40625 L 27.09375 26.34375 z M 26.75 26.375 L 26.8125 26.375 L 26.90625 26.46875 C 26.90625 26.46875 26.80836 26.681886 26.65625 26.71875 C 26.65625 26.718655 26.66702 26.448727 26.75 26.375 z M 27.03125 26.46875 L 27.75 26.9375 L 28.3125 27.40625 L 26.625 26.84375 L 27.03125 26.46875 z M 27.15625 27.09375 L 28.40625 27.5 L 28.84375 27.84375 L 27.15625 27.09375 z M 28.3125 27.3125 L 28.59375 27.46875 L 28.4375 27.46875 L 28.3125 27.3125 z "
   id="path79" />
<g
   id="g369"
   transform="translate(0,-400.33801)">
</g>
<g
   id="g371"
   transform="translate(0,-400.33801)">
</g>
<g
   id="g373"
   transform="translate(0,-400.33801)">
</g>
<g
   id="g375"
   transform="translate(0,-400.33801)">
</g>
<g
   id="g377"
   transform="translate(0,-400.33801)">
</g>
<g
   id="g379"
   transform="translate(0,-400.33801)">
</g>
</svg>